<svg width="653" height="528" viewBox="0 0 653 528" fill="none" xmlns="http://www.w3.org/2000/svg">
<g opacity="0.32">
<path d="M299.588 435C280.471 435.088 261.354 435.703 242.237 438.428C235.041 439.483 227.987 441.769 220.792 442.648C206.401 444.494 192.222 447.923 177.76 449.505C166.121 450.824 154.411 451.527 142.842 453.197C131.625 454.78 120.268 454.34 109.122 451.879C101.151 450.033 93.1089 448.978 85.2081 445.989C76.3902 442.648 66.8669 440.275 57.6963 440.363C44.6459 440.45 31.8776 440.538 19.3915 446.34C15.0178 448.45 9.65658 451.791 6.27052 456.186C-1.34812 466.12 -2.40626 490.823 5.21237 501.109C18.0512 518.427 45.4219 525.196 63.4103 525.548C83.1623 525.899 102.279 523.965 122.031 522.91C140.373 521.855 158.714 520.361 177.055 520.449C214.584 520.537 252.113 520.449 289.571 517.196C324.772 514.119 360.043 515.174 395.315 515.174C431.503 515.174 467.41 515.526 503.316 521.768C518.977 524.493 534.919 525.46 550.65 527.306C564.759 528.976 578.303 527.306 592.271 525.723C604.122 524.405 615.762 520.449 626.484 513.856C634.949 508.581 650.045 492.318 652.656 479.746C659.921 444.67 550.016 445.461 533.156 445.549C514.25 445.637 495.274 446.428 476.369 445.549C468.468 445.11 460.638 443.176 452.878 440.978C445.118 438.78 437.358 439.308 429.599 438.428C397.008 434.56 364.276 435.176 331.544 435.176C320.892 435.088 310.24 435 299.588 435Z" fill="#97DFFA"/>
</g>
<path d="M177.549 253.677C177.408 253.536 177.196 253.395 177.055 253.324C175.292 252.619 173.951 253.254 172.117 252.972C171.271 252.901 170.354 250.927 169.225 252.267C168.802 252.76 167.955 254.1 167.109 255.157C165.839 256.709 163.299 257.907 161.042 258.471C158.079 259.317 154.975 259.881 151.942 260.304C145.381 260.939 138.75 261.01 132.119 260.445C132.472 249.658 126.829 239.646 117.446 234.287C116.529 233.723 115.471 233.371 114.343 233.229C113.426 233.229 112.508 233.512 111.662 234.005C102.915 238.518 107.5 246.626 110.957 253.324C113.143 257.555 115.542 261.574 118.293 265.381C122.173 270.74 127.746 271.797 134.095 271.586C140.867 271.374 147.78 271.022 154.411 269.4C157.656 268.624 160.478 267.285 163.511 266.016C166.544 264.746 166.897 266.227 169.789 265.875C171.412 265.663 173.105 265.804 174.657 265.24C177.479 264.323 178.466 261.433 179.524 259.035C179.806 258.542 179.948 257.978 179.948 257.414C179.806 256.427 179.313 255.58 178.607 254.875C178.396 254.452 178.043 254.029 177.549 253.677Z" fill="#E5B790"/>
<path d="M108.628 258.895C110.604 261.927 112.72 264.817 114.836 267.567C118.011 271.586 121.538 275.887 126.546 277.015C128.522 277.368 130.497 277.438 132.472 277.297C141.854 276.804 151.166 276.099 160.478 275.182C161.183 270.317 161.112 265.382 160.336 260.516C160.125 259.177 159.772 257.696 158.714 256.78C157.162 255.44 154.834 255.863 152.859 256.427L143.194 259.036C142.136 259.318 141.008 259.6 140.02 259.036C139.456 258.613 138.962 258.119 138.609 257.485C131.484 246.203 127.746 235.416 123.795 222.724C122.032 217.154 120.197 211.373 116.318 207.001C107.923 197.694 92.4741 203.264 92.9679 216.167C93.5323 230.833 100.234 246.133 108.628 258.895Z" fill="#39C5F9"/>
<path d="M395.597 393.282L396.09 422.825C395.879 431.004 396.655 439.183 397.149 447.362C397.642 454.976 396.09 462.732 399.688 469.783C400.817 471.969 403.215 473.52 405.049 470.982C406.46 469.008 405.825 465.623 406.178 463.367C408.788 446.233 413.656 429.523 416.054 412.39C418.523 394.41 411.61 394.833 395.597 393.282Z" fill="#EABE9D"/>
<path d="M397.29 464.706L395.385 469.642L404.697 477.82L413.232 478.173L416.054 473.661L404.556 463.648L397.29 464.706Z" fill="#2D2849"/>
<path d="M374.646 393.564L369.284 422.613C367.45 435.586 363.147 448.278 361.313 461.251C360.89 464.213 361.101 467.526 359.832 470.347C358.562 473.167 356.234 473.238 354.118 471.334C351.296 468.866 352.566 464.354 352.636 460.899C352.989 438.125 351.225 415.633 350.732 392.788C350.661 392.506 350.802 392.154 350.943 391.942C351.155 391.801 351.437 391.731 351.649 391.801C353.906 391.942 374.575 394.198 374.646 393.564Z" fill="#EABE9D"/>
<path d="M352.566 465.905L349.603 470.276L356.869 480.359L365.123 482.686L368.862 478.878L359.903 466.539L352.566 465.905Z" fill="#2D2849"/>
<path d="M426.001 412.037L421.98 369.873L420.075 342.446L413.515 320.024L378.244 314.525L334.648 321.999L332.532 330.46L340.926 408.864L382.97 412.037L382.406 363.246L388.895 393.494L388.613 412.037H426.001Z" fill="#264251"/>
<path d="M343.889 237.53C343.818 238.941 343.818 240.351 343.748 241.761C343.254 270.74 344.806 300 345.018 329.261C359.973 326.934 375.069 325.665 390.236 325.383C393.763 325.313 409.635 327.78 411.892 325.665C414.926 322.845 411.61 323.338 411.822 319.672C412.104 314.877 409.776 310.999 410.693 305.288C411.681 298.59 413.727 292.033 414.926 285.405C417.254 272.009 418.665 258.542 419.158 245.004C419.582 233.018 419.158 220.538 413.938 209.68C401.17 182.887 360.043 183.381 348.756 211.372C345.441 219.621 344.242 228.576 343.889 237.53Z" fill="white"/>
<path d="M390.306 200.02L379.161 220.397L380.924 282.02L381.7 310.435C381.771 313.749 381.912 316.992 381.982 320.306C382.053 321.787 381.63 324.255 382.476 325.453C384.31 328.062 391.012 327.216 393.904 327.498C398.419 327.85 403.075 328.203 407.307 329.825C410.129 330.882 412.88 332.433 415.843 332.856C416.478 332.998 417.254 332.927 417.818 332.504C418.383 331.94 418.594 331.164 418.594 330.389C419.652 316.287 419.652 301.763 420.428 287.45C421.063 276.239 422.545 264.958 422.051 253.676C421.486 242.113 419.723 230.62 417.466 219.269C416.125 212.57 414.644 205.731 410.905 199.949C406.743 193.392 400.817 190.783 393.481 189.373C390.871 188.88 381.277 185.213 382.899 191.066C383.675 194.027 388.331 197.693 390.306 200.02Z" fill="#00AEEF"/>
<path d="M365.969 201.924L377.115 222.301C376.903 222.301 375.704 272.15 375.563 275.534C375.21 288.296 374.857 301.128 374.505 313.961C374.364 317.486 374.857 321.717 374.152 325.172C373.164 330.037 368.015 329.12 363.641 329.473C354.047 330.319 343.96 331.94 334.366 331.517C331.615 331.376 335.212 273.56 335.212 268.131C335.212 248.741 331.191 227.166 341.067 209.609C343.96 204.462 348.968 196.283 354.612 193.745C359.832 191.418 367.239 190.995 372.953 189.656L373.235 193.322L365.969 201.924Z" fill="#00AEEF"/>
<path d="M390.236 152.639C391.929 155.742 392.917 159.267 392.987 162.792C393.058 163.709 393.128 164.837 393.834 165.401C394.539 165.965 393.904 167.305 394.539 166.529C395.174 165.754 397.29 162.933 397.361 161.946C397.572 159.619 397.572 157.222 397.361 154.895C397.149 152.851 396.726 150.736 395.386 149.184C394.539 148.268 393.551 147.563 392.493 146.999C391.012 146.011 389.389 145.236 387.696 144.813C384.663 144.249 382.829 145.306 385.51 147.422C387.414 148.832 389.037 150.594 390.236 152.639Z" fill="#2D2849"/>
<path d="M371.471 192.828C371.471 194.239 371.189 195.79 372.459 196.918C373.094 197.411 373.87 197.693 374.716 197.834C376.833 198.187 378.949 198.046 380.995 197.411C381.841 197.2 382.617 196.777 383.323 196.213C383.958 195.578 384.24 194.732 384.169 193.886C384.24 192.828 384.451 191.7 384.593 190.572C384.875 188.175 385.086 185.707 385.086 183.239C388.684 182.605 392.917 181.477 394.116 177.669C394.469 176.471 394.61 175.201 394.539 173.932C394.61 168.715 394.61 163.497 394.68 158.28C394.821 156.446 394.61 154.684 394.116 152.921C393.058 149.96 390.306 148.268 387.555 147.139C380.642 144.319 372.671 144.46 366.251 148.409C364.488 149.466 363.006 150.947 362.019 152.709C360.537 155.6 360.678 159.126 360.961 162.44L361.595 171.606C361.878 175.131 362.371 179.15 365.123 180.983C366.533 181.97 368.438 182.111 369.708 183.451C371.895 185.637 370.837 189.021 371.471 191.7C371.471 192.053 371.471 192.405 371.471 192.828Z" fill="#EABE9D"/>
<path d="M395.809 171.818C395.738 170.831 395.315 168.01 393.904 169.773C393.552 170.267 393.41 170.901 393.41 171.536C393.41 172.17 393.34 172.805 393.199 173.369C392.776 174.709 391.294 175.343 389.954 175.273C389.39 175.273 388.896 175.132 388.402 174.92C387.979 174.638 387.555 174.286 387.273 173.863L384.734 170.972C383.252 169.28 380.36 169.985 378.385 170.267C376.057 170.478 373.87 171.324 372.036 172.734L371.472 173.228C371.048 173.651 370.555 174.004 370.061 174.215C368.297 175.061 366.181 174.145 364.911 172.593C364.347 171.888 363.853 170.901 362.936 170.831C362.23 170.831 361.525 171.183 361.243 171.888C360.961 172.523 360.749 173.298 360.749 174.004C360.537 176.683 360.961 179.433 362.089 181.83C364.629 186.977 369.496 187.612 374.434 187.541L380.289 187.4C383.817 187.329 387.626 187.188 390.589 185.073C393.199 183.24 394.821 180.138 395.456 176.894C395.738 175.273 395.879 173.51 395.809 171.818ZM382.758 179.151C380.995 180.349 378.738 180.561 376.762 179.856C375.845 179.574 376.269 178.093 377.115 178.375C378.738 179.01 380.572 178.798 382.053 177.811C382.829 177.317 383.534 178.657 382.758 179.151Z" fill="#2D2849"/>
<path d="M396.514 143.614C396.867 142.345 397.078 141.076 397.29 139.736C396.091 140.159 394.75 140.301 393.551 140.089V137.833C393.551 137.198 385.086 136.775 384.451 136.705C378.032 136.141 372.177 135.647 366.392 139.102C361.454 142.063 358.28 146.435 357.504 152.146C356.798 157.575 358.562 164.767 361.736 169.279C361.736 167.799 360.89 164.414 361.242 163.004C361.454 161.594 361.948 160.254 362.583 159.056C363.923 156.588 365.898 154.543 368.297 153.062C372.106 150.806 376.409 149.325 380.783 148.832C384.804 148.268 389.671 147.774 393.622 148.832C395.526 149.325 395.808 149.819 397.008 147.915C397.219 147.563 398.842 143.614 398.63 143.614H396.514Z" fill="#2D2849"/>
<path d="M422.192 219.481C420.358 219.34 418.523 218.705 417.042 217.577C410.834 213.488 408.224 206.014 404.768 199.739C402.722 196.002 400.747 190.432 397.643 187.541C397.078 186.977 390.306 183.804 390.377 183.593L390.729 181.759L392.564 182.112L393.622 181.407L388.684 178.869L391.929 173.44L399.265 173.228C401.381 177.317 402.51 182.041 405.614 185.496C406.884 186.977 408.436 188.246 409.847 189.586C412.316 191.913 414.361 194.592 416.619 197.13C419.44 200.373 423.744 203.053 425.437 207.142C426.354 209.398 427.906 214.546 426.847 216.872C426.001 218.564 424.026 219.481 422.192 219.481Z" fill="#EABE9D"/>
<path d="M427.553 211.09C428.47 211.02 429.246 211.725 429.316 212.641C429.316 212.782 429.316 212.853 429.316 212.994C429.81 218.775 428.893 224.628 427.905 230.339C426.565 238.306 424.872 246.837 419.229 252.69C415.984 256.074 410.763 258.33 406.672 256.074C403.074 254.17 401.734 249.658 401.17 245.639C399.547 233.582 401.522 221.314 406.954 210.385C407.236 209.609 407.73 208.975 408.365 208.411C409.987 207.283 414.996 209.045 416.901 209.398L427.553 211.09Z" fill="#00AEEF"/>
<path d="M335.424 186.271C337.823 184.297 338.74 180.983 337.611 178.092L331.685 162.017C330.557 158.985 328.441 155.459 328.441 152.287C328.37 146.716 330.345 140.441 331.474 135.083C332.038 132.333 332.25 128.455 333.731 126.058C334.013 125.635 337.682 122.321 337.611 122.18L337.047 121.052L335.989 121.616L335.142 121.334L337.752 118.795L334.719 115.975L330.063 117.244C329.499 120.206 329.64 123.378 328.37 126.199C327.806 127.397 327.1 128.455 326.465 129.583C325.337 131.487 324.561 133.602 323.644 135.647C322.727 137.691 321.457 139.384 320.61 141.358C318.706 145.659 316.871 150.03 314.967 154.402L323.644 182.675C324.843 186.624 329.075 188.81 332.955 187.611C333.802 187.329 334.719 186.835 335.424 186.271Z" fill="#EABE9D"/>
<path d="M356.022 188.951C352.495 187.47 349.321 185.355 346.499 182.816C345.229 181.688 339.586 170.901 340.644 170.619L340.362 170.689L339.586 170.971H339.515C337.822 170.83 334.789 172.452 333.166 173.016C327.805 174.708 322.514 176.682 317.012 177.599C317.082 182.393 317.858 187.188 319.269 191.771C320.468 196.001 322.585 199.456 324.207 203.405C325.9 207.424 327.875 211.372 330.133 215.18C330.697 216.096 335.988 227.095 335.706 227.166C338.81 226.602 341.208 224.204 343.042 221.666C347.486 215.814 349.603 207.847 355.176 203.123C359.479 199.386 365.193 199.033 364.628 191.559C361.666 191.066 358.844 190.149 356.022 188.951Z" fill="#00AEEF"/>
<path d="M263.964 169.561C263.893 170.477 263.682 171.394 263.258 172.169C262.2 174.919 261.847 177.951 262.271 180.842C265.092 180.842 267.985 181.265 270.665 182.181C271.23 180.066 271.865 177.951 272.429 175.765C272.499 175.413 272.641 175.131 272.852 174.849C273.134 174.496 273.558 174.285 273.981 174.144C276.238 173.227 278.425 171.958 280.259 170.336C280.682 169.984 281.035 169.561 281.247 169.138C281.388 168.715 281.458 168.221 281.458 167.727C281.458 163.849 281.458 160.042 281.458 156.164C281.529 155.741 281.388 155.318 281.176 154.895C280.894 154.542 280.471 154.331 280.048 154.19L278.072 153.485C277.861 153.414 277.72 153.344 277.508 153.273C276.591 152.85 275.462 152.85 274.545 153.273C274.263 153.344 271.441 153.978 271.371 153.767C271.724 157.927 270.595 162.087 268.055 165.401C267.914 165.824 267.491 165.965 267.068 165.824C266.856 165.753 266.715 165.612 266.644 165.471C265.727 164.484 265.022 163.426 264.458 162.157L261.283 162.933C261.001 164.696 261.565 166.458 262.765 167.798C262.906 167.939 262.976 168.009 263.117 168.15C263.611 168.503 263.964 168.997 263.964 169.561Z" fill="#EABE9D"/>
<path d="M274.687 175.414L261.354 173.228L247.81 210.245L215.854 204.815L222.838 247.473L263.541 223.077L274.687 175.414Z" fill="#00AEEF"/>
<path d="M169.437 459.7C167.391 459.841 165.557 459.136 163.582 458.924C163.652 452.085 164.428 445.246 165.91 438.618C168.943 442.003 171.483 440.028 171.412 446.374C171.412 448.419 169.014 456.598 169.437 459.7Z" fill="#E5B790"/>
<path d="M163.158 455.469C160.83 454.623 160.337 460.123 160.337 461.392C160.407 462.168 160.337 462.943 160.195 463.719C159.913 464.494 159.49 465.27 158.926 465.905L155.61 470.064C155.046 470.699 154.623 471.334 154.34 472.109C153.776 474.083 154.693 476.199 156.527 477.115C162.664 480.218 168.308 472.673 169.648 467.738C169.86 466.962 170.001 466.187 170.142 465.411C170.424 463.789 171.694 460.334 171.059 458.713C170.283 456.88 168.026 458.219 166.615 457.514C165.204 456.95 164.075 455.822 163.158 455.469Z" fill="#2D2849"/>
<path d="M206.895 345.901C201.181 361.554 194.55 376.854 190.74 393.212C186.085 413.447 178.536 433.119 174.657 453.425C172.188 453.496 169.648 453.425 167.179 453.073C164.357 452.72 159.843 451.945 158.784 448.842C158.22 447.22 158.784 444.682 158.925 442.99C159.208 437.702 159.56 432.414 159.913 427.126C161.042 412.178 161.747 397.09 164.498 382.424C167.391 366.983 170.142 351.401 172.681 335.959C174.022 327.992 175.574 320.025 177.619 312.198C178.113 310.154 183.474 289.283 184.533 289.495C196.878 291.398 208.729 295.629 219.451 302.045C220.509 302.68 221.497 303.385 221.92 304.513C222.203 305.571 222.061 306.628 221.638 307.615C218.393 317.204 214.09 326.229 210.633 335.818C209.434 339.132 208.164 342.446 206.895 345.901Z" fill="#2D2D2D"/>
<path d="M208.023 458.572C209.928 459.277 211.903 459.136 213.808 459.56C215.783 453.002 217.053 446.234 217.617 439.465C213.737 441.792 211.833 439.112 210.069 445.246C209.505 447.221 209.293 455.752 208.023 458.572Z" fill="#E5B790"/>
<path d="M215.783 457.585C215.783 461.322 218.746 465.341 220.369 468.725C221.003 469.713 220.862 470.982 220.016 471.757C219.522 472.533 218.887 473.167 218.041 473.59C217.194 473.872 216.277 473.872 215.431 473.59C213.949 473.238 212.538 472.885 211.127 472.462C210.775 472.392 210.422 472.18 210.14 471.969C209.787 471.687 209.575 471.334 209.364 470.911C208.376 468.866 207.53 467.456 207.53 465.2C207.53 462.944 207.882 460.476 207.459 458.149C207.248 457.021 206.965 455.611 207.953 454.976C208.658 454.483 210.069 455.188 210.845 455.258C212.256 455.47 213.596 455.399 214.937 456.175C215.219 456.316 215.431 456.528 215.642 456.739C215.713 457.021 215.783 457.303 215.783 457.585Z" fill="#2D2849"/>
<path d="M206.048 338.779C206.895 355.419 208.658 371.988 207.388 388.699C205.836 409.357 207.177 430.439 204.849 450.957C207.177 451.803 209.646 452.438 212.115 452.861C214.937 453.425 219.451 453.989 221.356 451.31C222.344 449.97 222.555 447.291 222.978 445.739C224.319 440.592 225.518 435.445 226.717 430.298C230.103 415.703 233.842 401.108 235.606 386.231C237.44 370.578 239.415 354.996 241.602 339.414C242.73 331.376 243.577 323.338 244 315.23C244.141 313.114 245.199 291.68 244.212 291.469C231.867 289.635 219.31 290.199 207.177 293.02C205.978 293.302 204.778 293.725 204.143 294.641C203.509 295.558 203.509 296.616 203.509 297.673C203.72 307.826 205.202 317.697 205.625 327.851C205.695 331.587 205.907 335.113 206.048 338.779Z" fill="#2D2D2D"/>
<path d="M199.064 205.309C198.853 205.379 198.641 205.45 198.429 205.52C195.114 206.789 192.222 209.046 189.471 211.302C185.309 214.686 183.192 216.167 181.64 221.173C180.229 225.897 179.101 230.691 178.254 235.557C173.528 260.234 172.611 284.771 169.225 309.66C168.308 316.429 167.602 324.396 172.611 329.05C181.499 322.14 192.645 321.717 203.438 321.717C210.986 321.717 218.393 319.249 226.012 320.095C233.278 320.871 239.556 319.108 246.963 319.602C248.727 319.743 250.984 319.672 251.689 318.051C249.15 310.436 249.22 302.186 248.586 294.219C247.104 273.49 240.191 253.606 237.44 233.018C236.523 226.038 236.029 214.404 230.597 209.116C224.671 203.335 211.268 203.264 203.65 204.392C202.098 204.463 200.546 204.815 199.064 205.309Z" fill="#00AEEF"/>
<path d="M204.708 204.957C204.849 205.239 204.99 205.45 205.202 205.662C206.119 206.508 207.248 207.072 208.517 207.213C210.14 207.354 211.762 207.283 213.314 206.86C215.431 206.437 215.36 205.168 215.713 203.264C215.854 202.207 215.995 201.149 216.065 200.092C216.136 199.527 215.854 197.412 216.277 196.989C216.559 196.707 217.547 196.778 218.041 196.566C218.746 196.143 219.381 195.579 219.804 194.803C220.439 193.675 220.933 192.547 221.286 191.278C221.921 189.163 222.626 186.977 223.261 184.862C224.037 182.676 224.531 180.49 224.813 178.234C225.166 174.779 224.601 169.985 221.991 167.446C219.593 165.19 216.207 164.344 213.032 163.992C208.8 163.428 204.567 164.274 200.899 166.459C199.347 167.305 198.077 168.575 197.16 170.126C195.82 172.594 195.961 175.696 196.102 178.516L196.525 186.484C196.666 189.515 197.089 193.041 199.347 194.733C200.546 195.579 202.169 195.791 203.227 196.919C204.496 198.329 204.426 200.444 204.496 202.207C204.214 203.053 204.355 204.04 204.708 204.957Z" fill="#EABE9D"/>
<path d="M217.97 170.618C218.111 170.83 218.252 171.112 218.322 171.394C218.816 172.804 218.463 174.426 218.957 175.836C219.733 178.092 222.343 179.432 222.696 181.759C223.049 183.662 221.708 185.496 221.638 187.399C221.497 189.515 222.837 191.489 222.696 193.604C222.343 195.719 221.497 197.693 220.297 199.386C220.65 198.963 223.684 199.104 224.46 198.61C225.659 197.905 225.8 197.411 226.153 196.142C226.505 194.873 226.223 193.674 226.787 192.405C227.493 190.854 228.904 189.726 229.327 188.034C229.962 185.778 228.763 183.38 228.904 180.983C229.045 177.387 232.149 174.003 231.02 170.618C230.385 168.644 228.41 167.375 227.352 165.542C226.505 164.202 226.223 162.581 225.659 161.1C225.094 159.619 224.107 158.139 222.555 157.645C221.708 157.504 220.791 157.363 219.945 157.363C218.463 157.081 217.194 156.023 215.712 155.53C213.596 154.825 209.928 156.94 208.728 158.703C207.529 160.465 208.094 161.946 209.363 163.497C211.268 165.965 216.206 167.657 217.97 170.618Z" fill="#2D2849"/>
<path d="M189.894 160.042C188.624 160.959 187.072 161.594 185.943 162.722C183.757 164.766 183.333 168.151 183.192 171.183C183.122 173.862 181.922 176.33 182.205 179.15C182.346 181.054 183.263 182.887 184.744 184.086C186.649 185.496 189.682 185.707 190.529 187.893C191.446 190.29 188.977 193.322 190.458 195.437C191.305 196.565 192.927 196.777 194.126 197.553C195.467 198.399 196.172 199.95 196.948 201.36C197.724 202.77 198.994 204.11 200.546 204.11C200.616 201.712 200.687 199.809 199.629 197.553C198.994 196.283 197.23 193.886 198.641 192.476C199.488 191.348 201.533 190.925 201.604 189.515C201.533 188.81 201.251 188.175 200.757 187.681C199.347 185.425 199.135 182.605 200.123 180.137C201.181 177.74 203.085 175.766 205.484 174.637C208.235 173.298 207.812 172.593 208.588 169.984C209.293 167.587 210.704 166.952 212.891 166.106C214.866 165.33 215.501 164.837 216.206 163.004C216.771 161.664 217.406 160.042 216.63 158.562C215.924 157.434 215.007 156.447 213.878 155.671C211.621 153.979 209.152 152.146 206.33 152.357C204.778 152.498 203.297 153.203 201.745 153.274C200.687 153.344 199.699 153.133 198.641 153.062C196.807 152.992 195.043 153.556 193.562 154.613C192.151 155.671 192.151 156.799 191.375 158.28C191.164 158.914 190.599 159.549 189.894 160.042Z" fill="#2D2849"/>
<path d="M196.172 150.101C196.454 148.409 196.243 146.223 194.691 145.659C193.774 145.377 192.857 145.659 191.869 145.518C189.894 145.095 189.259 142.768 188.271 141.076C188.13 140.794 187.919 140.583 187.636 140.441C187.213 140.3 186.79 140.3 186.367 140.441C184.391 140.653 182.981 138.749 181.146 138.044C178.748 137.269 176.138 138.538 175.362 140.935C175.08 141.922 175.15 142.909 174.868 143.896C173.81 147.774 168.096 149.466 167.955 153.485C167.884 156.235 170.495 158.844 169.507 161.312C168.872 162.933 166.756 163.991 167.038 165.754C167.32 166.882 168.308 167.657 169.507 167.587C170.636 167.516 171.694 167.023 172.47 166.247C173.81 165.049 174.798 163.568 176.067 162.369C177.337 161.171 179.03 160.113 180.794 160.325C182.557 160.536 184.039 161.876 185.732 161.594C187.072 161.382 188.13 160.184 189.471 159.831C190.811 159.479 192.01 160.043 193.28 160.113C194.55 160.184 196.172 159.549 196.172 158.209C196.102 157.927 196.102 157.575 196.172 157.293C196.454 156.447 197.865 156.517 198.147 155.671C197.442 154.614 196.525 155.037 196.031 153.626C195.678 152.498 196.031 151.159 196.172 150.101Z" fill="#2D2849"/>
<path d="M453.795 220.327H188.977V404.07H453.795V220.327Z" fill="#97DFFA"/>
<path d="M261.848 220.327H189.33V284.771C189.33 249.164 221.779 220.327 261.848 220.327Z" fill="#3CC4F7"/>
<path d="M304.738 404.069H453.795V310.012C453.795 310.012 440.039 404.069 304.738 404.069Z" fill="#00AEEF"/>
<path opacity="0.49" d="M426.636 99.3358C426.636 99.2652 426.636 99.1946 426.636 99.124L426.777 99.1946C426.706 99.2652 426.636 99.3358 426.636 99.3358Z" fill="#808080"/>
<path d="M56.9207 470.136L56.4974 476.129L67.9959 482.897L74.3448 477.398L68.8425 470.982L57.344 464.213L56.9207 470.136Z" fill="#2D2849"/>
<path d="M50.9949 289.072L49.7252 307.122L68.278 387.219L56.4267 468.162L68.0663 471.405L102.491 374.527L103.691 345.196L96.7773 284.701L50.9949 289.072Z" fill="#2D2D2D"/>
<path d="M125.841 299.718L133.178 375.585L127.252 474.718L116.247 475.635L101.574 385.879L78.7891 296.898L125.841 299.718Z" fill="#2D2D2D"/>
<path d="M116.177 474.296L116.671 480.289L129.086 485.224L134.518 478.738L128.099 473.309L116.177 474.296Z" fill="#2D2849"/>
<path d="M40.4137 298.519C39.5672 305.429 38.7912 314.736 41.4013 315.371C41.8951 315.441 42.3889 315.371 42.8827 315.089C47.7502 313.044 51.3479 309.871 56.1448 307.897C61.1533 305.852 66.7262 305.076 72.158 304.653C80.2705 304.019 88.524 304.019 96.6364 304.653C103.056 305.217 109.405 306.416 115.683 307.615C120.903 308.602 125.7 310.717 131.132 310.858C136.705 311.07 142.278 309.941 147.286 307.544C147.639 307.474 147.921 307.051 147.851 306.698C147.851 306.628 147.78 306.557 147.78 306.487C147.004 303.314 146.51 300.141 144.676 297.391C142.701 294.289 141.431 290.481 140.161 287.097C137.34 279.905 135.012 272.572 133.248 265.028C130.638 254.875 127.464 244.863 124.995 234.639C123.302 227.588 121.75 220.397 119.14 213.557C117.094 208.199 113.214 200.372 107.923 197.552C106.089 196.565 104.043 196.283 101.998 196.072L83.586 193.604C81.3286 193.322 79.0007 193.04 76.8844 193.745C73.71 194.802 71.5937 197.834 69.8301 200.725C61.6471 213.487 55.7921 227.518 51.8417 242.184C49.7959 249.869 47.7502 257.554 46.0571 265.31C44.1525 273.983 42.53 282.655 41.4718 291.468C41.2602 292.526 40.837 295.276 40.4137 298.519Z" fill="#007AA7"/>
<path d="M89.1585 228.647C89.0174 232.172 88.1709 235.556 87.3244 239.011C82.1042 259.741 76.9546 280.47 71.7344 301.199L121.326 305.923C121.538 297.956 121.749 290.059 121.961 282.092C122.243 277.015 122.102 271.868 121.679 266.791C120.762 258.612 118.152 250.716 115.471 242.889L100.728 199.598C100.516 198.822 100.163 198.046 99.5988 197.412C98.8229 196.777 97.9058 196.284 96.9887 196.143C92.3329 194.803 87.1127 193.604 82.3158 193.816C80.6933 198.046 84.291 205.943 85.4902 210.174C87.1833 216.167 89.3701 222.23 89.1585 228.647Z" fill="#F7F7F7"/>
<path d="M95.2955 198.963L85.0668 197.482C85.1373 194.733 85.49 191.983 86.0544 189.304C85.9838 189.656 80.8342 186.201 80.4109 185.496C79.2117 183.451 79.3528 180.279 79.0001 177.952C78.2946 173.087 77.6598 167.517 80.6226 163.568C83.6559 159.479 89.511 158.562 94.6606 158.915C101.08 159.408 108.064 162.017 110.815 167.869C113.284 173.157 108.769 180.067 107.147 185.214C106.371 187.752 105.242 190.643 102.703 191.489C101.362 191.912 99.8102 191.701 98.611 192.406C96.3536 193.604 96.4947 196.777 95.2955 198.963Z" fill="#EABE9D"/>
<path d="M121.82 159.408C122.596 155.883 123.301 152.428 124.077 148.902C124.43 147.633 124.571 146.294 124.36 144.954C123.866 142.768 121.891 141.288 119.845 140.512C117.799 139.736 115.542 139.454 113.425 138.749C111.168 137.974 109.052 136.775 106.724 136.634C102.209 136.352 98.3998 140.159 93.8851 140.371C87.6773 140.724 82.3866 137.339 77.9424 144.108C77.0958 145.377 76.8137 146.858 76.0377 148.197C75.1206 149.89 73.4982 151.088 72.2989 152.569C66.726 158.985 67.2198 169.632 72.5106 176.118C75.0501 179.221 75.9672 181.971 79.7765 183.24C78.3656 179.432 82.2455 165.19 87.3246 164.062C88.6649 163.78 92.4037 165.754 93.8145 166.106C96.989 166.811 100.022 167.869 102.844 169.279C107.147 171.606 111.803 173.298 116.6 174.215C117.517 174.638 118.575 174.285 118.998 173.369C119.139 173.087 119.21 172.805 119.139 172.522C119.986 168.151 120.903 163.78 121.82 159.408Z" fill="#2D2849"/>
<path d="M300.787 83.6124C298.389 67.4662 309.394 52.3775 325.548 49.7687C325.477 49.2752 325.336 48.7816 325.266 48.2176C322.303 28.4754 335.988 10.0729 355.67 7.18208C365.969 5.63091 376.48 8.66274 384.381 15.361C394.327 -0.150718 415.067 -4.66321 430.586 5.27837C438.134 10.1434 443.425 17.8287 445.259 26.6422C445.965 26.5012 446.741 26.2897 447.517 26.2192C463.812 23.7514 478.979 34.9621 481.448 51.2494C483.352 64.0113 476.862 76.5617 465.293 82.3433C473.617 95.8808 469.385 113.719 455.841 122.039C452.525 124.084 448.857 125.423 444.977 125.988C443.778 126.199 442.579 126.27 441.379 126.27L445.965 156.799C446.176 158.139 444.554 158.915 443.919 158.28L420.499 134.025C408.647 144.672 390.447 143.755 379.795 131.91C379.372 131.487 379.019 130.994 378.667 130.571C365.122 142.134 344.806 140.512 333.237 127.045C329.287 122.462 326.747 116.822 325.83 110.828C325.689 110.053 325.618 109.277 325.548 108.572C312.78 106.598 302.762 96.5153 300.787 83.6124Z" fill="#00AEEF"/>
<path d="M357.504 78.395C361.877 77.7604 362.865 84.5291 358.491 85.1637C354.118 85.7983 353.13 79.0295 357.504 78.395Z" fill="white"/>
<path d="M387.908 73.8115C392.281 73.1769 393.269 79.9456 388.895 80.5802C384.522 81.2148 383.605 74.446 387.908 73.8115Z" fill="white"/>
<path d="M426.001 68.101C430.374 67.4664 431.362 74.2352 426.988 74.8697C422.615 75.5043 421.627 68.7356 426.001 68.101Z" fill="white"/>
<path d="M431.715 264.324L420.499 273.208C422.403 276.098 424.237 279.06 426.072 282.021C426.989 283.502 424.52 284.7 423.673 283.22C421.98 280.399 420.217 277.65 418.453 274.9L407.589 283.572C406.249 284.63 404.485 282.585 405.826 281.527L416.972 272.644C414.785 269.33 412.527 266.086 410.199 262.913C409.212 261.503 411.187 259.741 412.245 261.151C414.573 264.394 416.83 267.637 419.088 270.951L429.951 262.279C431.292 261.221 433.055 263.195 431.715 264.324Z" fill="white"/>
<path d="M418.312 303.385C417.466 298.449 416.196 293.584 414.432 288.86C414.009 287.803 412.739 288.014 412.104 288.649C408.577 292.738 405.685 297.392 403.428 302.327C402.863 303.596 404.627 304.583 405.544 303.808C406.814 302.821 407.942 301.693 409.071 300.564C402.863 320.377 396.938 344.702 374.575 349.285C354.612 353.375 343.325 331.094 334.648 316.852C327.241 304.654 319.34 291.469 306.854 283.854C293.592 275.675 277.226 276.239 263.752 283.643C250.138 291.046 239.274 304.724 239.556 320.73C231.091 320.236 223.755 326.441 222.203 334.902C220.862 342.023 224.531 353.657 232.855 353.304C232.714 353.868 233.066 354.503 233.701 354.644C243.154 357.112 252.113 351.118 253.947 341.529C255.711 332.857 251.125 323.197 242.166 321.082C241.249 299.366 263.611 281.034 284.21 280.54C318.212 279.694 328.864 318.262 346.782 339.837C352.143 346.253 358.985 351.683 367.592 352.388C375.634 353.093 383.323 349.779 389.531 344.702C404.486 332.434 407.59 312.48 413.656 295.065C414.503 297.956 415.208 300.917 415.702 303.878C415.984 305.641 418.594 305.077 418.312 303.385ZM240.262 323.479C240.473 323.55 240.614 323.62 240.826 323.55C241.108 323.62 241.39 323.62 241.673 323.691C258.18 327.428 252.536 354.926 236.1 352.317C236.805 351.401 236.241 349.708 234.9 350.131C225.095 353.093 223.331 338.357 225.73 332.222C227.917 326.37 233.913 322.774 240.262 323.479Z" fill="white"/>
<path d="M226.435 342.658C226.294 341.812 226.223 340.966 226.223 340.12C226.012 330.319 231.091 323.833 241.108 326.159C246.258 327.358 249.291 333.915 249.291 338.78C249.291 342.023 248.303 345.69 245.482 347.382C240.967 350.202 230.315 350.555 227.352 345.196C226.929 344.421 226.576 343.575 226.435 342.658Z" fill="#D67389"/>
<path d="M232.708 119.249L225.624 124.257L296.713 224.703L303.797 219.695L232.708 119.249Z" fill="#D67389"/>
<path d="M246.611 108.078L317.295 208.199L310.946 214.192L239.556 113.084L246.611 108.078Z" fill="#D67389"/>
<path d="M239.518 113.047L232.428 118.045L303.097 218.175L310.187 213.176L239.518 113.047Z" fill="white"/>
<path d="M245.292 106.14L224.022 121.136L225.364 123.037L246.634 108.041L245.292 106.14Z" fill="#BABCBE"/>
<path d="M243.949 104.23L222.68 119.227L224.021 121.128L245.291 106.131L243.949 104.23Z" fill="#F7F7F7"/>
<path d="M242.554 102.359L221.285 117.355L222.627 119.257L243.896 104.26L242.554 102.359Z" fill="#BABCBE"/>
<path d="M232.643 88.2655L241.249 100.463L220.016 115.482L211.41 103.284C208.024 98.4186 209.152 91.7204 214.02 88.336L217.759 85.7273C222.485 82.2724 229.187 83.4005 232.643 88.2655Z" fill="#E8E8E8"/>
<path d="M241.22 100.455L219.95 115.452L221.292 117.353L242.561 102.356L241.22 100.455Z" fill="#F7F7F7"/>
<path d="M317.294 208.2L296.696 224.699L325.124 241.832L317.294 208.2Z" fill="#E8E8E8"/>
<path d="M323.291 234.005L318.353 237.46L325.125 241.832L323.291 234.005Z" fill="#2D2849"/>
<path opacity="0.25" d="M97.1302 375.655C97.1302 375.655 215.36 380.661 216.842 379.745C218.323 378.828 217.476 260.234 212.821 255.722C212.891 255.651 104.326 368.252 97.1302 375.655Z" fill="#3B455A"/>
<path d="M212.749 375.655H91.4156C94.6606 354.362 96.142 332.787 95.9303 311.211C95.7187 291.963 95.8598 275.323 93.0381 256.85C133.459 256.85 172.258 254.312 212.749 254.312C214.442 271.233 215.642 289.706 215.783 309.59C215.994 331.588 214.936 353.657 212.749 375.655Z" fill="#00AEEF"/>
<path d="M148.485 303.949C147.638 295.982 144.746 286.675 136.845 283.149C127.816 279.06 118.081 283.29 109.757 287.168C108.628 287.732 109.616 289.354 110.744 288.86C111.591 288.508 112.438 288.085 113.284 287.732C114.977 305.641 111.52 323.55 112.79 341.389C112.579 341.812 112.579 342.305 112.861 342.658C112.861 343.081 112.931 343.433 112.931 343.856C113.072 345.125 114.977 345.125 114.907 343.856C114.836 343.433 114.836 343.01 114.836 342.587C130.92 337.017 150.531 322.845 148.485 303.949ZM134.729 328.768C128.945 333.985 122.172 337.934 114.765 340.472C113.637 322.563 117.093 304.725 115.259 286.816C122.172 283.854 129.932 281.598 136.916 285.264C144.323 289.142 146.792 299.719 146.792 307.404C146.651 316.147 140.866 323.198 134.729 328.768Z" fill="white"/>
<path d="M163.44 315.512C160.548 314.384 156.668 315.794 154.199 317.345C150.601 319.743 148.203 323.48 147.356 327.71C145.663 335.536 147.78 345.548 157.232 346.254C166.262 346.959 173.175 338.85 174.092 330.389C174.868 323.339 170.635 315.724 163.44 315.512ZM171.905 331.87C170.494 338.286 165.345 344.279 158.29 344.279C149.614 344.279 147.78 335.113 149.261 328.204C149.825 325.031 151.448 322.14 153.846 320.025C155.61 318.473 157.797 317.486 160.125 317.063C160.336 317.486 160.759 317.768 161.253 317.627C161.818 317.486 162.382 317.416 162.946 317.416C163.158 317.486 163.37 317.627 163.581 317.768C163.934 318.05 164.428 317.98 164.71 317.627C164.71 317.557 164.78 317.557 164.78 317.486C170.565 318.685 173.104 326.159 171.905 331.87Z" fill="white"/>
<path d="M189.964 337.863C189.894 337.792 189.894 337.792 189.823 337.722C188.695 336.594 187.143 337.299 186.578 338.497C185.943 339.202 185.591 340.189 185.661 341.106C185.732 342.234 186.649 343.08 187.778 343.08C188.977 343.01 189.964 342.093 190.176 340.965C190.67 340.471 190.881 339.766 190.74 339.061C190.67 338.568 190.388 338.145 189.964 337.863Z" fill="white"/>
<path d="M194.479 293.655C193.562 292.033 191.023 292.033 189.4 291.963C188.836 291.963 188.412 292.386 188.412 292.95C188.06 304.443 187.989 316.006 188.13 327.499C188.836 328.486 190.106 328.909 191.234 328.415C191.446 319.884 192.222 311.353 193.421 302.892C193.703 300.988 194.056 299.155 194.338 297.251C194.62 296.123 195.044 294.713 194.479 293.655ZM190.317 293.937H190.599C190.529 294.078 190.458 294.219 190.458 294.36C190.458 294.713 190.388 295.065 190.317 295.418C190.317 294.924 190.317 294.431 190.317 293.937ZM190.176 300.494C190.317 300.565 190.458 300.635 190.67 300.635C190.458 301.693 190.247 302.68 190.106 303.456C190.106 302.469 190.176 301.481 190.176 300.494Z" fill="white"/>
<path d="M120.409 291.751C120.338 291.539 120.268 291.328 120.127 291.116C118.928 289.494 117.305 289.353 115.683 288.084C114.977 287.52 115.189 285.193 113.355 285.828C112.72 286.04 111.168 286.815 109.757 287.309C107.711 288.014 104.678 287.732 102.279 287.027C99.0345 286.11 95.8601 284.982 92.7562 283.642C86.2662 280.611 80.0584 276.944 74.2034 272.714C80.4817 262.843 80.8344 250.292 75.0499 240.139C74.4855 239.081 73.7096 238.165 72.722 237.46C71.8049 236.966 70.8173 236.684 69.8297 236.684C59.1777 235.979 58.9661 246.132 58.4723 254.311C58.1196 259.458 58.1901 264.605 58.6134 269.682C59.2483 276.803 63.8336 280.893 69.9003 284.277C76.3902 287.873 82.9507 291.398 90.0755 293.513C93.5321 294.571 96.9182 294.853 100.445 295.488C103.972 296.122 103.479 297.603 106.371 298.872C107.993 299.577 109.545 300.635 111.238 301.058C114.342 301.763 116.882 299.648 119.28 297.955C119.845 297.673 120.268 297.18 120.55 296.686C121.044 295.699 120.832 294.642 120.691 293.584C120.762 292.949 120.621 292.315 120.409 291.751Z" fill="#E5B790"/>
<path d="M53.1112 258.26C53.2523 262.208 53.605 266.086 54.0282 269.753C54.7337 275.252 55.6507 281.245 59.6717 285.123C61.2942 286.534 63.1283 287.732 65.0329 288.649C73.9919 293.443 83.0919 297.956 92.3331 302.257C95.7191 298.097 98.3998 293.443 100.375 288.437C100.939 287.027 101.433 285.476 100.939 284.066C100.234 281.951 97.7649 281.034 95.6486 280.47L85.2082 277.509C84.0795 277.156 82.8098 276.803 82.2454 275.746C81.8927 275.041 81.7516 274.265 81.8222 273.49C81.4695 258.965 84.0795 246.838 87.3951 232.807C88.8765 226.602 90.3579 220.186 89.1586 213.981C86.5485 200.655 68.9834 197.2 62.2818 209.539C54.7337 223.641 52.4763 241.691 53.1112 258.26Z" fill="#39C5F9"/>
<path d="M433.408 266.157C433.902 265.522 434.466 265.029 435.242 264.747C436.23 264.324 437.429 264.112 438.628 263.336C439.475 262.772 439.263 260.728 441.309 261.503C442.014 261.785 443.355 262.702 444.766 263.266C446.811 264.042 449.774 263.971 452.243 263.407C461.978 261.292 471.784 259.317 481.73 258.33C482.294 258.33 482.859 258.189 483.353 257.907C484.199 257.273 484.34 256.286 484.552 255.369C485.469 250.927 486.809 246.556 488.573 242.325C490.195 238.588 492.17 234.992 495.345 232.313C498.519 229.634 502.681 228.294 506.632 229.563C509.595 230.48 511.993 232.525 512.557 235.556C514.039 243.101 507.126 248.741 502.964 254.029C499.013 259.035 495.698 263.266 491.536 267.849C491.042 268.413 490.477 268.907 489.843 269.259C489.137 269.541 488.291 269.612 487.515 269.612C477.497 269.471 467.833 269.118 458.028 271.092C455.347 271.656 452.878 271.092 450.338 271.938C448.716 272.502 447.869 274.054 446.388 274.829C444.907 275.675 443.214 276.239 441.521 276.521C438.276 276.733 436.23 274.336 433.973 272.361C432.209 270.81 430.869 270.317 428.541 270.951C428.259 271.092 427.976 271.163 427.624 271.163C426.918 270.951 426.424 270.246 426.636 269.471C426.707 269.33 426.707 269.189 426.777 269.118C427.271 268.342 428.047 268.06 428.893 267.778C429.81 267.426 430.728 267.285 431.645 267.214C432.068 267.285 432.421 267.144 432.773 266.932C433.055 266.65 433.126 266.439 433.408 266.157Z" fill="#E5B790"/>
<path d="M502.681 251.35C497.038 249.235 491.183 247.895 485.681 245.357C487.656 240.562 493.44 221.173 494.428 218.846C498.167 209.962 498.943 206.154 504.163 201.501C515.309 191.489 528.5 198.116 527.936 212.289C527.371 227.659 519.118 240.915 510.159 252.83C509.947 253.113 509.665 253.324 509.383 253.395C508.96 253.465 508.537 253.395 508.113 253.254C506.279 252.548 504.445 251.984 502.681 251.35Z" fill="#ABB5B2"/>
<path d="M506.208 463.155C504.233 463.226 502.329 462.803 500.424 462.591C499.436 443.484 501.27 423.389 502.046 404.211L516.79 404.987C513.333 415.281 510.935 425.857 509.524 436.574C509.242 438.266 506.491 463.085 506.208 463.155Z" fill="#E5B790"/>
<path d="M499.789 458.854C498.59 458.643 497.884 459.207 497.038 459.912C496.544 460.335 496.262 460.969 495.697 461.251C495.133 461.533 494.498 461.674 493.934 461.674C490.407 462.027 482.224 461.886 486.527 467.809C490.477 473.167 500.988 471.052 507.055 469.571C507.478 469.501 507.831 469.36 508.183 469.078C508.466 468.725 508.677 468.302 508.818 467.879C509.524 465.341 510.441 462.168 507.337 461.11C505.997 460.687 504.797 461.533 503.386 461.04C502.187 460.758 500.988 459.066 499.789 458.854Z" fill="#2D2849"/>
<path d="M490.971 415.703L521.023 415.139C529.135 376.572 536.26 337.792 542.468 298.802C542.961 295.77 543.385 292.668 542.538 289.706C540.916 284.136 534.92 280.963 529.276 279.906C520.458 278.213 504.233 280.54 499.648 289.706C494.851 299.436 495.627 316.781 494.498 327.498C491.324 356.83 490.125 386.231 490.971 415.703Z" fill="#2D2D2D"/>
<path d="M563.56 463.155C565.535 463.226 567.439 462.803 569.344 462.591C570.332 443.484 568.498 423.389 567.722 404.211L552.978 404.987C556.435 415.281 558.833 425.857 560.244 436.574C560.456 438.266 563.277 463.085 563.56 463.155Z" fill="#E5B790"/>
<path d="M569.908 458.854C571.108 458.643 571.813 459.207 572.66 459.912C573.153 460.335 573.436 460.969 574 461.251C574.564 461.533 575.199 461.674 575.763 461.674C579.291 462.027 587.474 461.886 583.1 467.809C579.15 473.167 568.639 471.052 562.572 469.571C562.149 469.501 561.796 469.36 561.443 469.078C561.161 468.725 560.949 468.302 560.808 467.879C560.103 465.341 559.186 462.168 562.29 461.11C563.63 460.687 564.829 461.533 566.24 461.04C567.51 460.758 568.709 459.066 569.908 458.854Z" fill="#2D2849"/>
<path d="M578.726 415.703L548.605 415.139C540.492 376.572 533.367 337.792 527.16 298.802C526.666 295.77 526.243 292.668 527.089 289.706C528.712 284.136 534.708 280.963 540.351 279.906C549.169 278.213 565.394 280.54 569.979 289.706C574.776 299.436 574 316.781 575.129 327.498C578.374 356.83 579.573 386.231 578.726 415.703Z" fill="#2D2D2D"/>
<path d="M553.049 204.04C561.021 211.796 567.087 221.244 570.756 231.679C577.175 249.729 577.316 268.977 577.387 287.803L577.457 306.628C577.457 312.833 576.893 314.102 570.191 313.327C557.776 311.846 544.796 309.237 533.579 303.738C528.218 301.129 523.21 297.815 517.566 295.7C509.383 292.668 500.989 294.078 492.876 292.104C496.403 281.457 498.872 272.432 500.706 261.504C502.541 250.222 504.234 237.954 506.985 226.884C508.607 220.186 511.641 213.981 514.744 207.847C516.79 203.687 519.048 199.527 522.575 196.495C533.086 187.541 545.007 196.425 553.049 204.04Z" fill="#00AEEF"/>
<path d="M523.985 177.599C525.537 180.913 528.006 183.663 529.981 186.695C531.957 189.726 532.662 192.335 533.156 195.72C533.509 198.187 534.426 200.162 537.388 200.585C543.032 201.36 541.409 196.707 542.679 193.393C544.161 189.515 547.265 186.483 549.451 183.028C555.73 173.087 553.966 153.415 540.916 149.185C526.666 144.602 519.4 167.587 523.985 177.599Z" fill="#E5B790"/>
<path d="M546.771 168.01C548.393 168.08 550.157 168.221 551.356 169.279C552.555 170.337 552.414 172.734 550.862 173.016C549.451 173.227 547.546 171.747 546.7 172.804C546.206 173.439 546.629 174.356 547.053 175.131C548.534 177.952 548.957 181.265 548.322 184.368C548.887 184.932 549.874 184.368 550.368 183.804C552.978 180.983 554.953 177.669 556.294 174.074C556.858 174.92 557.564 175.695 558.481 176.189C557.916 174.849 558.269 173.368 558.622 172.029C559.821 167.023 560.667 161.1 557.14 157.011C555.236 154.825 552.414 153.556 549.522 152.992C546.629 152.569 543.737 152.498 540.845 152.71C539.575 152.78 538.094 152.992 537.812 154.19C540.492 155.319 543.314 157.434 544.725 159.972C545.007 160.748 546.629 168.01 546.771 168.01Z" fill="#2D2849"/>
<path d="M541.057 155.883L541.339 156.094C542.609 157.011 543.738 158.209 545.219 158.562C547.335 159.197 549.663 158.139 551.779 158.844C554.178 159.69 555.73 162.51 557.423 164.203C560.315 166.952 563.772 168.997 567.511 170.125C569.415 170.689 571.461 171.042 573.436 171.183C574.424 171.324 575.482 171.324 576.469 171.183C577.669 170.901 577.598 170.337 576.328 169.914C572.307 168.645 571.108 163.004 571.39 159.338C571.602 156.447 572.66 153.344 571.531 150.595C570.685 148.55 568.851 147.422 567.087 146.294C565.112 144.954 562.996 145.307 560.809 144.672C558.622 144.037 556.576 142.204 554.248 141.711C551.779 141.217 549.24 142.345 546.771 142.839C544.725 143.262 542.538 143.191 540.493 142.768C538.658 142.345 536.895 141.64 534.99 141.64C532.239 141.64 529.699 143.403 528.077 145.659C525.749 148.832 524.338 154.331 525.114 158.491C524.973 157.857 527.16 155.46 527.654 154.966C528.571 153.908 529.77 152.921 531.181 152.71C534.496 152.357 538.376 153.979 541.057 155.883Z" fill="#2D2849"/>
<path d="M473.759 349.779L472.983 358.099C472.771 360.778 474.535 363.176 476.933 363.387L496.544 365.15C498.943 365.361 501.129 363.387 501.341 360.637L502.117 352.318L473.759 349.779Z" fill="#B1B1B2"/>
<path d="M545.642 243.383C548.323 214.052 529.205 188.317 503.034 185.92C476.862 183.522 453.372 205.38 450.762 234.711C449.845 244.652 451.467 254.594 455.488 263.69C466.422 289.636 467.621 310.648 467.621 310.648L491.535 312.833L515.45 315.019C515.45 315.019 520.387 294.572 535.836 270.952C541.339 262.843 544.725 253.325 545.642 243.383Z" fill="#DDDDDD"/>
<path d="M466.986 310.717L463.741 346.112C463.53 347.522 464.447 348.791 465.858 349.003L510.088 353.022C511.499 353.022 512.628 351.964 512.698 350.554L515.943 315.159L466.986 310.717Z" fill="#DDDDDD"/>
<path d="M545.642 233.371C531.18 258.683 504.092 297.251 467.48 310.647C467.48 310.718 467.48 310.788 467.48 310.788L491.394 312.974L515.308 315.16C515.308 315.16 520.246 294.712 535.695 271.092C541.339 262.843 544.725 253.324 545.571 243.383C545.853 240.069 545.924 236.755 545.642 233.371Z" fill="#B1B1B2"/>
<path opacity="0.5" d="M458.028 239.857C460.356 214.263 480.813 195.155 503.669 197.271C517.072 198.469 528.289 206.648 534.849 218.353C528.994 203.828 516.367 193.252 501.059 191.842C478.203 189.726 457.746 208.834 455.418 234.428C454.43 244.511 456.546 254.593 461.414 263.477C458.451 256.004 457.252 247.895 458.028 239.857Z" fill="white"/>
<path d="M482.223 312.128L482.647 243.594L489.983 251.773L498.096 239.998L504.092 252.69L512.627 246.273L500.635 313.82L503.104 314.031L516.155 240.351L505.009 248.671L498.519 234.992L489.771 247.613L480.248 236.966L479.754 311.916L482.223 312.128Z" fill="#F6F7F7"/>
<path d="M479.755 305.077L479.685 311.916L482.154 312.128L482.224 303.667C481.448 304.161 480.602 304.584 479.755 305.077Z" fill="#EDECED"/>
<path d="M505.574 285.97L500.636 313.75L503.105 313.961L508.607 283.008C507.619 284.066 506.561 285.053 505.574 285.97Z" fill="#EDECED"/>
<path d="M466.194 319.551L465.6 326.082L514.496 330.529L515.091 323.999L466.194 319.551Z" fill="#C4C4C4"/>
<path d="M464.908 333.519L464.314 340.05L513.21 344.497L513.805 337.967L464.908 333.519Z" fill="#C4C4C4"/>
<path d="M491.676 335.959L513.756 338.004L514.462 330.601L500.847 329.332C497.955 331.658 494.851 333.915 491.676 335.959Z" fill="#C2C2C4"/>
<path d="M515.026 323.973L515.802 315.16L515.026 315.089C513.897 316.711 511.217 319.672 507.407 323.268L515.026 323.973Z" fill="#C2C2C4"/>
<path d="M465.858 349.073L510.088 353.092C511.499 353.092 512.628 352.035 512.698 350.625L513.262 344.49L481.377 341.6C475.804 344.138 469.949 345.901 463.882 346.817C463.882 348.016 464.729 348.932 465.858 349.073Z" fill="#C2C2C4"/>
<path d="M500.847 329.261L514.462 330.53L515.026 323.973L507.478 323.268C505.291 325.454 503.034 327.499 500.847 329.261Z" fill="#B1B1B2"/>
<path d="M481.307 341.6L513.192 344.491L513.757 337.933L491.677 335.889C488.361 338.074 484.905 339.978 481.307 341.6Z" fill="#B1B1B2"/>
<path d="M501.693 357.394C495.627 362.823 484.904 363.669 481.377 363.81L496.544 365.22C498.942 365.431 501.129 363.457 501.341 360.707L501.693 357.394Z" fill="#9E9E9E"/>
<path d="M513.333 281.528C513.404 281.316 513.474 281.175 513.615 280.964C514.673 279.554 516.084 279.413 517.495 278.355C518.13 277.861 517.918 275.817 519.47 276.381C520.035 276.592 521.375 277.297 522.574 277.72C524.338 278.355 527.018 278.073 529.064 277.509C531.886 276.733 534.637 275.746 537.318 274.618C540.069 273.349 542.679 271.939 545.289 270.458C547.476 269.189 550.862 267.779 552.484 265.875C555.236 262.632 552.061 254.805 551.708 250.786C551.356 246.556 551.708 234.217 557.352 233.865C566.593 233.301 566.734 242.114 567.157 249.165C567.439 253.607 567.369 258.049 567.016 262.491C566.452 268.695 562.431 272.221 557.14 275.182C551.497 278.284 545.783 281.316 539.575 283.15C536.542 284.066 533.649 284.348 530.545 284.842C527.442 285.335 527.865 286.675 525.396 287.733C523.985 288.367 522.645 289.213 521.163 289.566C518.483 290.2 516.296 288.297 514.25 286.816C513.756 286.534 513.404 286.181 513.121 285.688C512.769 284.842 512.769 283.925 512.98 283.008C513.051 282.585 513.192 282.092 513.333 281.528Z" fill="#E5B790"/>
<path d="M567.016 251.632L551.285 254.664C551.638 254.593 545.218 231.185 544.866 229.775C543.596 224.416 542.326 218.846 543.384 213.417C545.712 201.854 551.285 199.033 558.339 211.161C564.97 222.653 575.34 236.332 573.294 249.376C573.294 249.658 573.153 249.94 573.012 250.151C572.73 250.433 572.377 250.574 571.954 250.645L567.016 251.632Z" fill="#00AEEF"/>
</svg>
