<svg width="58" height="54" viewBox="0 0 58 54" fill="none" xmlns="http://www.w3.org/2000/svg">
<path d="M6.06608 23.9479C3.16813 23.9479 0.818882 21.5987 0.818882 18.7007V9.99999C0.818882 4.47715 5.29603 0 10.8189 0H12.7591C18.282 0 22.7592 4.47715 22.7592 10V18.9062C22.7592 29.1424 21.5845 36.5139 19.2351 41.0208C16.5771 46.0674 12.7092 50.0977 7.63137 53.1117C5.62027 54.3054 3.08306 53.5055 1.85816 51.5133C0.360093 49.0767 1.46824 45.9214 3.7133 44.1492C5.51554 42.7266 6.97591 40.9963 8.09441 38.9583C9.51789 36.4076 10.5013 33.2099 11.0445 29.3654C11.4603 26.4229 9.03776 23.9479 6.06608 23.9479ZM41.3069 23.9479C38.409 23.9479 36.0597 21.5987 36.0597 18.7007V9.99999C36.0597 4.47715 40.5369 0 46.0597 0H48C53.5228 0 58 4.47715 58 10V18.9062C58 29.1424 56.8253 36.5139 54.4759 41.0208C51.818 46.0674 47.9501 50.0977 42.8722 53.1117C40.8611 54.3054 38.3239 53.5055 37.099 51.5133C35.6009 49.0767 36.7091 45.9214 38.9542 44.1492C40.7564 42.7266 42.2168 40.9963 43.3353 38.9583C44.7587 36.4076 45.7421 33.2099 46.2854 29.3654C46.7011 26.4229 44.2786 23.9479 41.3069 23.9479Z" fill="#7DD9FB"/>
</svg>
