<svg width="76" height="59" viewBox="0 0 76 59" fill="none" xmlns="http://www.w3.org/2000/svg">
<path d="M16.4271 29.4017H17.8125C21.5729 29.4017 24.9375 30.8439 27.9062 33.7283C30.941 36.5472 32.4583 40.0872 32.4583 44.3483C32.4583 48.5439 30.941 52.0183 27.9062 54.7717C24.9375 57.4594 21.2431 58.8033 16.8229 58.8033C12.0069 58.8033 7.98264 56.9022 4.75 53.1C1.58333 49.2322 0 43.7583 0 36.6783C0 30.1883 1.38542 24.1244 4.15625 18.4867C6.99306 12.7833 10.4236 8.29278 14.4479 5.015C18.5382 1.67167 22.1667 0 25.3333 0C27.4444 0 29.0938 0.622778 30.2812 1.86833C31.4688 3.11389 32.0625 4.72 32.0625 6.68667C32.0625 9.57111 30.776 11.7017 28.2031 13.0783C24.7066 14.9794 21.9358 17.2083 19.8906 19.765C17.8455 22.3217 16.691 25.5339 16.4271 29.4017ZM60.1667 29.4017H61.4531C65.1476 29.4017 68.4792 30.8439 71.4479 33.7283C74.4826 36.5472 76 40.0872 76 44.3483C76 48.4783 74.4826 51.9528 71.4479 54.7717C68.4792 57.5906 64.7847 59 60.3646 59C55.4826 59 51.4583 57.0333 48.2917 53.1C45.125 49.1667 43.5417 43.6928 43.5417 36.6783C43.5417 31.6306 44.3663 26.8778 46.0156 22.42C47.6649 17.9622 49.776 14.0944 52.349 10.8167C54.9878 7.47333 57.7917 4.85111 60.7604 2.95C63.7951 0.983333 66.5 0 68.875 0C71.0521 0 72.7014 0.622778 73.8229 1.86833C75.0104 3.04833 75.6042 4.65444 75.6042 6.68667C75.6042 9.63667 74.3177 11.7672 71.7448 13.0783C68.1163 15.1106 65.3785 17.3722 63.5312 19.8633C61.684 22.2889 60.5625 25.4683 60.1667 29.4017Z" fill="#00AEEF"/>
</svg>
