<svg width="45" height="55" viewBox="0 0 45 55" fill="none" xmlns="http://www.w3.org/2000/svg">
<path d="M16.2517 41.2655L16.2515 41.2655C15.7857 41.2631 15.3871 41.1607 15.1073 40.8989C14.8233 40.6331 14.7092 40.2481 14.7149 39.7884L14.9649 39.7915L14.7149 39.7884C14.7528 36.7465 13.6922 34.1096 11.8488 31.7078L11.8487 31.7078C10.6785 30.1824 9.65518 28.5377 9.18371 26.5877C8.20435 22.5433 8.81797 18.7472 11.22 15.3571C14.1731 11.1891 18.3481 9.20825 23.4161 9.56386L16.2517 41.2655ZM16.2517 41.2655C17.713 41.2719 19.1754 41.2706 20.6368 41.2694C21.221 41.2689 21.8051 41.2685 22.3888 41.2685C24.3206 41.2685 26.2523 41.2699 28.1841 41.2714H28.1846C28.842 41.2707 29.325 41.2101 29.6357 40.8959C29.7913 40.7385 29.8843 40.5372 29.948 40.3059C30.0113 40.0765 30.0507 39.7984 30.0866 39.4724C30.0945 39.4005 30.1023 39.3285 30.1102 39.2565C30.2603 37.8838 30.4107 36.5081 30.9106 35.3055L30.9107 35.3055C31.5502 33.7665 32.5237 32.3388 33.5052 30.9312L33.5053 30.9312C36.1615 27.1217 36.7013 23.0265 35.234 18.6698L34.997 18.7496M16.2517 41.2655L34.997 18.7496M34.997 18.7496L35.234 18.6698M34.997 18.7496L35.234 18.6698M33.1335 24.6131C32.9305 26.4697 32.0734 28.086 30.9514 29.6094L30.9514 29.6094C29.7273 31.2717 28.509 33.0006 27.9316 35.0772L27.9315 35.0773C27.6991 35.9151 27.5302 36.778 27.4246 37.6389L27.4246 37.6392C27.3941 37.8902 27.37 38.0666 27.3376 38.1977C27.3053 38.3278 27.2721 38.3808 27.245 38.4077C27.2208 38.4318 27.1761 38.4604 27.0601 38.4803C26.9401 38.501 26.7741 38.5076 26.5302 38.508C25.6063 38.509 24.6819 38.5086 23.7575 38.5083C23.2954 38.5081 22.8333 38.508 22.3713 38.508C21.9865 38.5076 21.6015 38.5066 21.2162 38.5056C20.1232 38.5028 19.0285 38.4999 17.9352 38.5109L17.9349 38.511C17.7111 38.5136 17.5893 38.465 17.5218 38.4053C17.4574 38.3485 17.4003 38.2442 17.3903 38.0366C17.2411 34.9068 15.7872 32.3431 14.0593 29.9103L14.0593 29.9102C13.275 28.8066 12.5752 27.6065 12.0833 26.3599L12.0833 26.3598C11.3007 24.3782 11.3561 22.2781 11.9712 20.2345L11.9712 20.2344C13.0448 16.6642 15.3436 14.2049 18.8742 12.9412L18.8742 12.9412C23.0224 11.4558 27.7584 12.7694 30.6313 16.1817C32.6905 18.6277 33.4775 21.4616 33.1335 24.6131ZM33.1335 24.6131L33.382 24.6403M33.1335 24.6131L33.382 24.6403M33.382 24.6403C33.7329 21.425 32.9284 18.5221 30.8226 16.0207L27.6727 37.6694C27.7768 36.8202 27.9434 35.9695 28.1724 35.1441C28.7361 33.1171 29.9273 31.4218 31.1527 29.7576C32.2874 28.2169 33.1723 26.5587 33.382 24.6403ZM35.234 18.6698C33.4883 13.4875 28.8908 9.94714 23.4161 9.56386L35.234 18.6698Z" fill="#00AEEF" stroke="#00AEEF" stroke-width="0.5"/>
<path d="M29.172 44.2784V44.2784C29.1685 43.8669 29.0304 43.5147 28.7395 43.2702C28.4552 43.0313 28.0593 42.9241 27.5948 42.9225C26.3866 42.9184 25.1781 42.9193 23.9702 42.9202C23.4529 42.9206 22.9356 42.921 22.4186 42.921C21.8943 42.921 21.3699 42.9206 20.8456 42.9202C19.6218 42.9193 18.3981 42.9184 17.1755 42.9225L17.175 42.9225C16.7108 42.9249 16.3148 43.0321 16.0303 43.2706C15.7389 43.5148 15.6003 43.8665 15.5968 44.2784L15.5968 44.2784C15.5934 44.6935 15.7151 45.0576 15.9966 45.3148C16.2738 45.5681 16.6682 45.6829 17.1396 45.6845C20.6366 45.6994 24.1322 45.6994 27.6277 45.6845C28.099 45.6829 28.4937 45.5681 28.7713 45.3149C29.0531 45.0578 29.1753 44.6938 29.172 44.2784Z" fill="#00AEEF" stroke="#00AEEF" stroke-width="0.5"/>
<path d="M17.8977 47.441L17.8978 47.441C20.876 47.4261 23.854 47.4276 26.8304 47.4395L17.8977 47.441ZM17.8977 47.441C17.4408 47.4435 17.0432 47.5832 16.7572 47.8366C16.469 48.0918 16.3091 48.45 16.3136 48.8522L17.8977 47.441ZM26.8338 50.2252L26.8338 50.2252C25.7588 50.2307 24.6836 50.2298 23.6093 50.2289C23.2068 50.2286 22.8044 50.2282 22.4022 50.2282C21.9742 50.2282 21.546 50.2287 21.1176 50.2292C20.0459 50.2304 18.9735 50.2316 17.9007 50.2252H26.8338ZM26.8338 50.2252C27.2903 50.2228 27.6855 50.1101 27.9757 49.8762C28.2713 49.638 28.4319 49.295 28.4504 48.8907M26.8338 50.2252L28.4504 48.8907M16.765 49.8574C16.4741 49.6107 16.3181 49.2593 16.3136 48.8523L16.765 49.8574ZM16.765 49.8574C17.0517 50.1004 17.4465 50.2228 17.9006 50.2252L16.765 49.8574ZM28.4504 48.8907C28.4695 48.476 28.3101 48.106 28.0131 47.8433M28.4504 48.8907L28.0131 47.8433M28.0131 47.8433C27.7192 47.5834 27.3061 47.4412 26.8305 47.4395L28.0131 47.8433Z" fill="#00AEEF" stroke="#00AEEF" stroke-width="0.5"/>
<path d="M19.5704 54.2444L19.5704 54.2444C19.1306 54.2386 18.7505 54.1215 18.4736 53.885C18.1925 53.6449 18.0443 53.3041 18.0329 52.9085L18.0329 52.9082C18.0216 52.4969 18.1523 52.1255 18.4235 51.8555C18.6939 51.5862 19.0799 51.4416 19.5357 51.4348L19.5704 54.2444ZM19.5704 54.2444C20.2241 54.2527 20.879 54.2508 21.5315 54.249C21.8104 54.2482 22.0888 54.2474 22.3665 54.2474C22.6755 54.2474 22.9851 54.2482 23.2951 54.249C23.9164 54.2507 24.5391 54.2523 25.1599 54.2474L25.1606 54.2473C25.6189 54.2425 26.0131 54.1254 26.297 53.8824C26.5863 53.6348 26.7313 53.2817 26.733 52.8712C26.7347 52.4633 26.5938 52.0996 26.316 51.8377C26.0398 51.5773 25.6517 51.4392 25.1968 51.4333L25.1968 51.4333M19.5704 54.2444L25.1968 51.4333M25.1968 51.4333C23.3108 51.4095 21.4227 51.4065 19.5358 51.4348L25.1968 51.4333Z" fill="#00AEEF" stroke="#00AEEF" stroke-width="0.5"/>
<path d="M37.7413 35.9049L37.7416 35.9052C37.9491 36.1222 38.0994 36.3965 38.1338 36.69C38.1691 36.9913 38.0795 37.2977 37.8334 37.5495L37.8333 37.5496C37.5142 37.8759 37.0091 38.0247 36.6281 38.1174C36.5309 38.1411 36.4373 38.1279 36.3637 38.1074C36.288 38.0864 36.2157 38.0527 36.1515 38.0165C36.0235 37.9443 35.9021 37.847 35.8134 37.7609L37.7413 35.9049ZM37.7413 35.9049C36.8586 34.9848 35.9439 34.097 35.0258 33.2177C34.7765 32.9782 34.4365 32.9173 34.1305 32.9536C33.824 32.99 33.5161 33.1266 33.2924 33.3323C33.1913 33.4252 33.0908 33.5458 33.0433 33.7012L33.0432 33.7014M37.7413 35.9049L33.0432 33.7014M33.0432 33.7014C32.9745 33.9266 32.9591 34.2031 32.9909 34.459C33.0222 34.7104 33.1043 34.9829 33.2678 35.1741C33.9213 35.9386 34.651 36.6409 35.3689 37.3319M33.0432 33.7014L35.3689 37.3319M35.3689 37.3319C35.5178 37.4752 35.6662 37.6181 35.8133 37.7609L35.3689 37.3319Z" fill="#00AEEF" stroke="#00AEEF" stroke-width="0.5"/>
<path d="M7.10863 37.8056L7.1085 37.8055C6.83275 37.5559 6.66155 37.2352 6.64418 36.8841C6.62675 36.5315 6.76592 36.1806 7.05005 35.875L7.05035 35.8747C7.90455 34.9592 8.79429 34.0663 9.74131 33.2408L9.74153 33.2406C9.9175 33.0876 10.1765 33.0156 10.4062 32.9919C10.6404 32.9678 10.901 32.988 11.1051 33.0715L11.1059 33.0718C11.169 33.0978 11.2259 33.1315 11.2774 33.1695C11.6052 33.4114 11.7701 33.8074 11.7966 34.1903C11.8231 34.5731 11.7146 34.9876 11.4368 35.2778L7.10863 37.8056ZM7.10863 37.8056C7.38294 38.0535 7.71073 38.184 8.05804 38.1648C8.40279 38.1456 8.73572 37.9809 9.02927 37.6974L7.10863 37.8056Z" fill="#00AEEF" stroke="#00AEEF" stroke-width="0.5"/>
<path d="M11.4324 9.5664L11.4324 9.56641C11.7032 9.85526 11.8324 10.2852 11.8205 10.6772C11.8086 11.0669 11.6516 11.4921 11.2597 11.6962C11.2281 11.7127 11.1943 11.7268 11.1583 11.7376L11.1581 11.7377C10.936 11.8042 10.6603 11.8339 10.4012 11.816C10.1503 11.7987 9.86807 11.7334 9.67215 11.5666L11.4324 9.5664ZM11.4324 9.5664L11.4311 9.5651M11.4324 9.5664L11.4311 9.5651M11.4311 9.5651C10.6469 8.74059 9.8366 7.93924 9.01869 7.15113L9.0185 7.15095M11.4311 9.5651L9.0185 7.15095M9.0185 7.15095C8.46908 6.62265 7.5704 6.59388 7.06796 7.09817L9.0185 7.15095ZM6.64032 8.00417C6.628 8.34456 6.76638 8.67622 7.03835 8.96794L7.06793 7.0982C6.81229 7.35471 6.65257 7.66592 6.64032 8.00417ZM7.03839 8.96799C7.8727 9.86327 8.73053 10.7651 9.6721 11.5666L7.03839 8.96799Z" fill="#00AEEF" stroke="#00AEEF" stroke-width="0.5"/>
<path d="M37.6747 7.07218C37.1338 6.56021 36.2523 6.65971 35.6778 7.21894C34.8973 7.97861 34.1145 8.74342 33.3624 9.53887L33.3621 9.53925C33.0786 9.84031 32.9404 10.3102 32.9546 10.7241C32.9687 11.1307 33.1417 11.5986 33.6131 11.7396L33.6848 11.5001M37.6747 7.07218C37.6747 7.07222 37.6748 7.07225 37.6748 7.07229L37.5029 7.25383L37.6746 7.07206C37.6746 7.0721 37.6746 7.07214 37.6747 7.07218ZM37.6747 7.07218C37.9676 7.34885 38.1349 7.68411 38.1227 8.05595C38.1108 8.42207 37.9263 8.77706 37.6134 9.10301M37.6134 9.10301C37.6134 9.10301 37.6134 9.103 37.6134 9.103L37.433 8.92987M37.6134 9.10301C37.5092 9.2115 37.405 9.3207 37.3004 9.43023C36.622 10.1408 35.9302 10.8654 35.1659 11.5015L35.1656 11.5017C34.9646 11.6685 34.6877 11.7498 34.4289 11.7822C34.165 11.8151 33.8856 11.8015 33.652 11.7497M37.6134 9.10301L37.433 8.92987M37.433 8.92987C38.0056 8.33351 38.01 7.7327 37.5029 7.25383C37.0835 6.85676 36.3563 6.90732 35.8522 7.39809C35.0714 8.15803 34.2921 8.91946 33.5441 9.71063C33.0881 10.1949 33.0476 11.3095 33.6848 11.5001M37.433 8.92987C37.3281 9.03921 37.2233 9.14893 37.1185 9.25869C36.4393 9.96999 35.7584 10.6832 35.006 11.3093C34.7085 11.5562 34.1152 11.5964 33.7062 11.5056L33.6535 11.75C33.653 11.7499 33.6525 11.7498 33.652 11.7497M33.6848 11.5001L33.6131 11.7396C33.6259 11.7435 33.6388 11.7468 33.652 11.7497M33.6848 11.5001L33.652 11.7497" fill="#00AEEF" stroke="#00AEEF" stroke-width="0.5"/>
<path d="M2.20802 21.0725C1.77935 21.0774 1.41339 21.1858 1.15049 21.4229C0.883948 21.6634 0.759007 22.0038 0.750483 22.3967L0.750481 22.3968C0.742053 22.7896 0.844828 23.1347 1.10043 23.3861C1.35187 23.6334 1.71426 23.7532 2.14857 23.779L2.14898 23.779L5.57197 23.5265L5.58845 23.7759C5.58854 23.7759 5.58864 23.7759 5.58873 23.7759C6.0198 23.7474 6.38004 23.6192 6.62966 23.3681C6.88274 23.1136 6.98781 22.7675 6.9759 22.3767C6.96426 21.9954 6.81292 21.6637 6.54137 21.4288C6.27266 21.1964 5.9058 21.0752 5.48695 21.071M2.20802 21.0725C3.3016 21.0591 4.39359 21.0591 5.48695 21.071M2.20802 21.0725C2.20798 21.0725 2.20795 21.0725 2.20791 21.0725L2.21098 21.3225L2.20813 21.0725C2.20809 21.0725 2.20805 21.0725 2.20802 21.0725ZM5.48695 21.071L5.48423 21.321L5.48672 21.071C5.4868 21.071 5.48688 21.071 5.48695 21.071Z" fill="#00AEEF" stroke="#00AEEF" stroke-width="0.5"/>
<path d="M42.6936 21.0756L42.694 21.0756C43.0637 21.0902 43.3847 21.2102 43.621 21.432C43.858 21.6544 43.9895 21.9603 44.0133 22.3077L42.6936 21.0756ZM42.6936 21.0756C42.2788 21.0599 41.8595 21.0638 41.4475 21.0676C41.2684 21.0693 41.0907 21.0709 40.9153 21.071C40.9717 21.071 41.0147 21.09 41.0397 21.1046C41.0657 21.1197 41.09 21.1402 41.1102 21.1664C41.1204 21.1795 41.1338 21.1995 41.1444 21.2263C41.152 21.2452 41.1624 21.2782 41.1622 21.3201M42.6936 21.0756L41.1622 21.3201M41.1622 21.3201C41.0799 21.3206 40.9976 21.321 40.9153 21.321C40.9145 21.321 40.9136 21.3205 40.913 21.3199V21.318V21.068H40.9098H40.9066H40.9034H40.9002H40.897H40.8938H40.8906H40.8874H40.8842H40.881H40.8778H40.8746H40.8714H40.8682H40.865H40.8618H40.8586H40.8554H40.8522H40.849H40.8458H40.8426H40.8394H40.8362H40.833H40.8298H40.8266H40.8234H40.8202H40.8171H40.8139H40.8107H40.8075H40.8043H40.8011H40.7979H40.7947H40.7915H40.7883H40.7851H40.7819H40.7787H40.7755H40.7723H40.7691H40.7659H40.7627H40.7595H40.7563H40.7531H40.7499H40.7467H40.7435H40.7403H40.7371H40.7339H40.7307H40.7275H40.7243H40.7211H40.7179H40.7147H40.7115H40.7083H40.7051H40.7019H40.6987H40.6955H40.6923H40.6891H40.6859H40.6827H40.6795H40.6763H40.6731H40.6699H40.6667H40.6635H40.6603H40.6572H40.654H40.6508H40.6476H40.6444H40.6412H40.638H40.6348H40.6316H40.6284H40.6252H40.622H40.6188H40.6156H40.6124H40.6092H40.606H40.6028H40.5996H40.5964H40.5932H40.59H40.5868H40.5836H40.5804H40.5772H40.574H40.5708H40.5676H40.5644H40.5612H40.558H40.5548H40.5516H40.5484H40.5452H40.542H40.5388H40.5356H40.5324H40.5292H40.526H40.5228H40.5196H40.5164H40.5132H40.51H40.5068H40.5036H40.5004H40.4973H40.4941H40.4909H40.4877H40.4845H40.4813H40.4781H40.4749H40.4717H40.4685H40.4653H40.4621H40.4589H40.4557H40.4525H40.4493H40.4461H40.4429H40.4397H40.4365H40.4333H40.4301H40.4269H40.4237H40.4205H40.4173H40.4141H40.4109H40.4077H40.4045H40.4013H40.3981H40.3949H40.3917H40.3885H40.3853H40.3821H40.3789H40.3757H40.3725H40.3693H40.3661H40.3629H40.3597H40.3565H40.3533H40.3501H40.3469H40.3437H40.3406H40.3374H40.3342H40.331H40.3278H40.3246H40.3214H40.3182H40.315H40.3118H40.3086H40.3054H40.3022H40.299H40.2958H40.2926H40.2894H40.2862H40.283H40.2798H40.2766H40.2734H40.2702H40.267H40.2638H40.2606H40.2574H40.2542H40.251H40.2478H40.2446H40.2414H40.2382H40.235H40.2318H40.2286H40.2254H40.2222H40.219H40.2158H40.2126H40.2094H40.2062H40.203H40.1998H40.1966H40.1934H40.1902H40.187H40.1838H40.1807H40.1775H40.1743H40.1711H40.1679H40.1647H40.1615H40.1583H40.1551H40.1519H40.1487H40.1455H40.1423H40.1391H40.1359H40.1327H40.1295H40.1263H40.1231H40.1199H40.1167H40.1135H40.1103H40.1071H40.1039H40.1007H40.0975H40.0943H40.0911H40.0879H40.0847H40.0815H40.0783H40.0751H40.0719H40.0687H40.0655H40.0623H40.0591H40.0559H40.0527H40.0495H40.0463H40.0431H40.0399H40.0367H40.0335H40.0303H40.0271H40.0239H40.0208H40.0176H40.0144H40.0112H40.008H40.0048H40.0016H39.9984H39.9952H39.992H39.9888H39.9856H39.9824H39.9792H39.976H39.9728H39.9696H39.9664H39.9632H39.96H39.9568H39.9536H39.9504H39.9472H39.944H39.9408H39.9376H39.9344H39.9312H39.928H39.9248H39.9216H39.9184H39.9152H39.912H39.9088H39.9056H39.9024H39.8992H39.896H39.8928H39.8896H39.8864H39.8832H39.88H39.8768H39.8736H39.8704H39.8672H39.864H39.8609H39.8577H39.8545H39.8513H39.8481H39.8449H39.8417H39.8385H39.8353H39.8321H39.8289H39.8257H39.8225H39.8193H39.8161H39.8129H39.8097H39.8065H39.8033H39.8001H39.7969H39.7937H39.7905H39.7873H39.7841H39.7809H39.7777H39.7745H39.7713H39.7681H39.7649H39.7617H39.7585H39.7553H39.7521H39.7489H39.7457H39.7425H39.7393H39.7361H39.7329H39.7297H39.7265H39.7233H39.7201H39.7169H39.7137H39.7105H39.7073H39.7041H39.701H39.6978H39.6946H39.6914H39.6882H39.685H39.6818H39.6786H39.6754H39.6722H39.669H39.6658H39.6626H39.6594H39.6562H39.653H39.6498H39.6466H39.6434H39.6402H39.637H39.6338H39.6306H39.6274H39.6242H39.621H39.6178H39.6146H39.6114H39.6082H39.605H39.6018H39.5986H39.5954H39.5922H39.589H39.5858H39.5826H39.5794H39.5762H39.573H39.5698H39.5666H39.5634H39.5602H39.557H39.5538H39.5506H39.5474H39.5443H39.5411H39.5379H39.5347H39.5315H39.5283H39.5251H39.5219H39.5187H39.5155H39.5123H39.5091H39.5059H39.5027H39.4995H39.4963H39.4931H39.4899H39.4867H39.4835H39.4803H39.4771H39.4739H39.4707H39.4675H39.4643H39.4611H39.4579H39.4547H39.4515H39.4483H39.4451H39.4419H39.4387H39.4355H39.4323H39.4291H39.4259H39.4227H39.4195H39.4163H39.4131H39.4099H39.4067H39.4035H39.4003H39.3971H39.3939H39.3907H39.3875H39.3844H39.3812H39.378H39.3748H39.3716H39.3684H39.3652H39.362H39.3588H39.3556H39.3524H39.3492H39.346H39.3428H39.3396H39.3364H39.3332H39.33H39.3268H39.3236H39.3204H39.3172H39.314H39.3108H39.3076H39.3044H39.3012H39.298H39.2948H39.2916H39.2884H39.2852H39.282H39.2788H39.2756L39.2723 21.068C39.2284 21.068 39.1752 21.068 39.1222 21.0715L39.1222 21.0715L39.1202 21.0717C38.4179 21.1239 37.8425 21.6237 37.7934 22.3051C37.7934 22.3052 37.7934 22.3053 37.7934 22.3054L38.0428 22.3233L41.1622 21.3201ZM38.9877 23.7374C40.2648 23.8033 41.5491 23.8033 42.8258 23.7404L38.9877 23.7374Z" fill="#00AEEF" stroke="#00AEEF" stroke-width="0.5"/>
<path d="M21.086 5.79575C21.0937 6.17241 21.211 6.48908 21.4622 6.70501C21.7083 6.91646 22.0427 6.99642 22.4135 6.99069L22.4137 6.99069C22.7677 6.98494 23.0834 6.90082 23.3164 6.69279C23.5529 6.4816 23.6647 6.17833 23.6825 5.81915L23.6825 5.81906C23.7041 5.38068 23.6991 4.93601 23.6943 4.5001C23.692 4.29745 23.6898 4.09669 23.6903 3.89933V3.89875C23.6903 3.7092 23.6926 3.51642 23.695 3.32176C23.7004 2.87834 23.706 2.4252 23.684 1.9785M21.086 5.79575C21.086 5.79567 21.086 5.7956 21.086 5.79552L21.3359 5.79042M21.086 5.79575C21.086 5.79583 21.086 5.7959 21.086 5.79598L21.3359 5.79042M21.086 5.79575C21.0576 4.52041 21.0591 3.24385 21.086 1.96909L21.086 1.96857L21.086 1.96857C21.1029 1.23873 21.6777 0.764671 22.3523 0.750319L22.3526 0.750313C23.0671 0.735841 23.6473 1.22715 23.684 1.9785M21.3359 5.79042C21.3077 4.5189 21.3092 3.24588 21.3359 1.97436C21.3493 1.39585 21.7984 1.01216 22.3576 1.00026C22.945 0.988365 23.4046 1.38246 23.4343 1.99071M21.3359 5.79042L23.4403 3.89875C23.4403 3.70257 23.4427 3.50612 23.4451 3.30955C23.4505 2.86983 23.4559 2.42956 23.4343 1.99071M23.684 1.9785L23.4343 1.99071M23.684 1.9785C23.684 1.97848 23.684 1.97846 23.684 1.97843L23.4343 1.99071" fill="#00AEEF" stroke="#00AEEF" stroke-width="0.5"/>
<path d="M30.212 24.219H30.2119C30.2119 24.2917 30.2136 24.3694 30.2154 24.4501C30.2196 24.6444 30.2242 24.8559 30.2065 25.056C30.2065 25.056 30.2065 25.056 30.2065 25.056L29.9575 25.034C29.9024 25.675 29.4429 26.0944 28.8421 26.078L30.212 24.219ZM30.212 24.219L30.2118 24.2128M30.212 24.219L30.2118 24.2128M30.2118 24.2128C30.178 22.868 29.7947 21.6206 29.1952 20.4579L29.1951 20.4578C27.3404 16.8656 24.3024 15.0496 20.3407 14.7553L30.2118 24.2128Z" fill="#00AEEF" stroke="#00AEEF" stroke-width="0.5"/>
</svg>
