<svg width="36" height="40" viewBox="0 0 36 40" fill="none" xmlns="http://www.w3.org/2000/svg">
<path d="M17.9624 39.9993C12.417 39.9993 6.86994 39.9993 1.32448 39.9993C0.166642 39.9993 -0.0333628 39.7884 0.00413814 38.629C0.152579 34.0335 3.34485 29.7772 7.76215 28.2928C8.59811 28.0115 9.42938 27.7099 10.2794 27.4787C10.9341 27.3005 11.2685 26.8943 11.6107 26.3208C12.2888 25.1849 12.5795 24.2552 11.4638 23.1458C10.931 22.6176 10.6388 22.0598 9.74657 22.0176C8.61373 21.9645 7.82777 20.9473 7.82152 19.7488C7.8184 19.2003 7.70902 18.8425 7.21213 18.4753C6.77618 18.1534 6.31211 17.5128 6.31211 17.0143C6.31367 14.3674 6.12617 11.658 6.62306 9.08915C7.68402 3.60776 12.6201 -0.0829599 18.2108 0.00141722C23.6579 0.0826693 28.5095 4.03746 29.4189 9.49072C29.8252 11.9283 29.6721 14.4705 29.6377 16.9643C29.6205 18.1956 28.5314 19.0238 27.1017 18.9644C26.1345 18.9238 25.8298 19.2347 25.6985 20.1676C25.4892 21.6582 24.8016 22.9864 23.7829 24.1098C23.5079 24.413 23.5047 24.6349 23.6782 24.9911C24.7251 27.1552 24.697 27.2224 27.1423 27.9443C29.8268 28.7365 32.0924 30.0819 33.7237 32.396C35.0597 34.2914 35.805 36.3977 35.9238 38.7133C35.9785 39.7727 35.7379 39.9993 34.68 39.9993C29.108 40.0009 23.5344 39.9993 17.9624 39.9993ZM25.0454 13.4783C24.8282 13.3393 24.7907 13.2986 24.7438 13.2877C24.5938 13.2486 24.4407 13.2064 24.2876 13.1861C21.2891 12.8127 18.6452 11.658 16.3717 9.65166C16.1811 9.48291 15.8014 9.43447 15.5295 9.47197C13.4248 9.76104 12.1748 11.2033 11.0888 12.8455C11.0107 12.9627 10.9841 13.1439 10.9997 13.2877C11.2404 15.4831 11.4872 17.6769 11.7513 19.8691C11.7779 20.0847 11.8701 20.3613 12.0294 20.4769C12.4748 20.7988 14.1076 20.3847 14.4936 20.0035C14.8686 19.6332 15.3217 19.1941 15.7999 19.1066C16.6296 18.9535 17.5108 18.9722 18.3577 19.0566C19.4937 19.1691 20.3047 20.1847 20.3078 21.327C20.3109 22.4629 19.4921 23.4786 18.3609 23.602C17.5921 23.6864 16.7874 23.7239 16.0342 23.588C15.517 23.4942 14.8748 23.1833 14.617 22.7661C14.1045 21.9379 13.4842 22.0957 12.7201 22.1989C12.8013 22.3567 12.8373 22.4536 12.8935 22.5332C13.031 22.7223 13.1685 22.9129 13.3232 23.0879C14.9561 24.9239 17.0061 25.6083 19.3765 25.0599C21.825 24.4927 23.4204 22.8239 23.9907 20.4566C24.5454 18.1503 24.7173 15.7518 25.0454 13.4783ZM16.5905 38.404C14.4326 35.3008 12.4232 32.3054 11.2654 28.8678C5.71834 30.1225 2.25419 32.7319 1.65105 38.404C6.56837 38.404 11.4794 38.404 16.5905 38.404ZM24.6813 28.8006C23.5157 32.3476 21.4344 35.3195 19.3843 38.3961C24.4719 38.3961 29.3846 38.3961 34.3238 38.3961C34.0644 35.8508 33.0456 33.7304 31.2799 31.9366C29.4877 30.1162 27.0845 29.6381 24.6813 28.8006ZM11.0529 10.0626C12.3482 8.86258 13.8045 8.13444 15.4983 7.86099C16.1999 7.74849 16.7889 7.83755 17.353 8.37038C19.4671 10.3751 22.0344 11.3923 24.9782 11.683C25.1048 9.52822 24.4251 7.7313 22.8453 6.28908C21.2422 4.82654 19.289 4.61716 17.2311 4.67966C14.3811 4.7656 11.9466 6.60471 11.1794 9.34228C11.1138 9.5751 11.0935 9.82198 11.0529 10.0626ZM28.0564 10.9111C27.4861 5.42343 23.0969 1.4702 17.7515 1.56708C12.5732 1.66083 8.21685 5.77031 7.89184 10.9048C8.12153 10.9158 8.35279 10.9298 8.58248 10.9345C8.83405 10.9392 9.08405 10.9361 9.32937 10.9361C9.60282 7.59536 11.1263 5.19686 14.0967 3.78901C15.6014 3.07493 17.2186 3.09368 18.8359 3.12337C22.225 3.18431 25.3157 5.53906 26.2267 8.80476C26.4189 9.49228 26.5095 10.2079 26.6486 10.9126C27.1158 10.9111 27.5533 10.9111 28.0564 10.9111ZM17.9671 37.6758C18.9468 36.1976 19.875 34.7992 20.7218 33.5195C19.7093 32.4991 18.753 31.5319 17.7733 30.5444C16.9218 31.446 16.0186 32.4022 15.1061 33.3679C16.0702 34.8211 16.9874 36.2023 17.9671 37.6758ZM22.2953 25.7536C21.1515 26.9693 20.0875 28.1006 19.1156 29.1334C20.0156 30.0287 20.8687 30.8803 21.7531 31.76C22.2156 30.6584 22.7188 29.4944 23.186 28.3146C23.2719 28.0974 23.2891 27.7881 23.2016 27.5787C22.9532 26.9849 22.6328 26.4208 22.2953 25.7536ZM13.3592 25.9302C13.1185 26.799 12.6216 27.6052 12.7732 28.2631C13.0576 29.5006 13.7154 30.6538 14.2639 31.9522C15.1514 31.0225 15.9514 30.185 16.8061 29.2881C15.8545 28.3506 14.9514 27.4599 14.0451 26.5693C13.8811 26.4083 13.7076 26.2552 13.3592 25.9302ZM9.3575 12.5549C8.80436 12.5549 8.32779 12.5549 7.80902 12.5549C7.80902 13.7252 7.80902 14.8393 7.80902 15.9534C7.80902 17.3612 8.34341 17.7284 9.72782 17.2487C9.60594 15.7034 9.48407 14.1518 9.3575 12.5549ZM26.572 12.5392C26.447 14.1627 26.3251 15.7487 26.1986 17.4034C26.6126 17.4034 26.9517 17.4847 27.2205 17.3831C27.5423 17.2612 28.0439 16.9956 28.0564 16.769C28.133 15.3581 28.0955 13.9393 28.0955 12.5392C27.5361 12.5392 27.0767 12.5392 26.572 12.5392ZM17.1593 22.077C17.1593 22.0754 17.1593 22.0739 17.1593 22.0723C17.4421 22.0723 17.7765 22.1676 17.9968 22.0489C18.289 21.891 18.6874 21.5598 18.6796 21.3145C18.6718 21.0629 18.264 20.6754 17.9733 20.6098C17.4577 20.4957 16.8796 20.4957 16.3655 20.616C16.0811 20.6832 15.6795 21.0941 15.6873 21.3395C15.6952 21.5926 16.103 21.891 16.3983 22.0551C16.5952 22.166 16.903 22.077 17.1593 22.077ZM19.1827 26.774C18.2343 26.774 17.4296 26.774 16.6514 26.774C17.0561 27.213 17.4624 27.6568 17.8921 28.1224C18.2999 27.6974 18.6874 27.2912 19.1827 26.774ZM9.47313 18.9956C9.25593 20.1129 9.42938 20.4254 10.27 20.391C9.9622 19.9425 10.4732 19.0722 9.47313 18.9956Z" fill="#00AEEF"/>
</svg>
