<svg width="648" height="472" viewBox="0 0 648 472" fill="none" xmlns="http://www.w3.org/2000/svg">
<path d="M114.508 411.678C114.508 411.678 38.3306 220.527 93.1491 177.963C129.793 149.512 168.63 212.23 214.989 179.051C256.26 149.512 198.72 75.1021 267.583 55.6344C339.964 35.1748 399.261 200.871 459.994 177.96C533.69 150.159 606.995 206.594 543.645 412.04L114.508 411.678Z" fill="#D4E8FF"/>
<path d="M54.9058 364.622C53.6274 361.164 52.3609 357.581 51.1454 353.973L54.1436 353.185C55.353 356.771 56.6105 360.331 57.88 363.765L54.9058 364.622ZM591.251 360.157L588.148 359.819C588.664 356.136 589.154 352.43 589.604 348.798L592.713 349.098C592.26 352.741 591.768 356.463 591.251 360.157ZM47.6911 343.243C46.5957 339.677 45.5333 336.042 44.534 332.444L47.5711 331.787C48.5645 335.365 49.6209 338.976 50.7073 342.521L47.6911 343.243ZM593.991 338.023L590.876 337.762C591.272 334.065 591.639 330.349 591.966 326.711L595.084 326.93C594.757 330.58 594.388 334.313 593.991 338.023ZM41.6769 321.585C40.7736 317.95 39.9152 314.276 39.1229 310.663L42.1931 310.138C42.9794 313.728 43.8347 317.381 44.732 320.991L41.6769 321.585ZM595.981 315.822L592.86 315.649C593.124 311.954 593.358 308.23 593.55 304.574L596.674 304.703C596.482 308.373 596.248 312.116 595.981 315.822ZM36.8811 299.69C36.1848 296.01 35.5426 292.304 34.9664 288.666L38.0635 288.285C38.6338 291.899 39.273 295.582 39.9633 299.237L36.8811 299.69ZM597.152 293.574L594.024 293.493C594.148 289.784 594.232 286.053 594.274 282.406L597.401 282.436C597.359 286.101 597.275 289.847 597.152 293.574ZM33.3968 277.594C32.9316 273.879 32.5235 270.142 32.1904 266.489L35.3085 266.268C35.6416 269.893 36.0438 273.603 36.506 277.292L33.3968 277.594ZM594.289 271.323C594.253 267.61 594.172 263.883 594.052 260.239L597.179 260.158C597.299 263.817 597.38 267.565 597.419 271.296L594.289 271.323ZM31.371 255.355C31.164 251.618 31.0259 247.867 30.9629 244.202L34.0901 244.16C34.1531 247.792 34.2911 251.513 34.4952 255.22L31.371 255.355ZM593.547 249.167C593.331 245.461 593.067 241.739 592.764 238.11L595.882 237.907C596.191 241.556 596.455 245.299 596.671 249.029L593.547 249.167ZM34.1201 233.097L30.9929 233.04C31.0799 229.295 31.248 225.54 31.4911 221.885L34.6123 222.047C34.3722 225.666 34.2041 229.385 34.1201 233.097ZM591.678 227.075C591.26 223.368 590.786 219.664 590.27 216.069L593.373 215.721C593.892 219.341 594.367 223.068 594.79 226.799L591.678 227.075ZM35.6056 211.029L32.4935 210.753C32.9196 207.02 33.4358 203.289 34.033 199.663L37.1272 200.059C36.539 203.646 36.0258 207.334 35.6056 211.029ZM588.52 205.105C587.869 201.422 587.155 197.752 586.399 194.198L589.472 193.688C590.237 197.272 590.957 200.97 591.612 204.682L588.52 205.105ZM218.599 204.715C214.253 204.11 211.108 202.363 206.754 199.349L208.731 197.209C212.546 199.843 215.301 201.425 218.932 201.971L218.599 204.715ZM229.451 198.147L226.666 196.892C228.098 194.417 229.364 190.983 230.43 186.686L233.485 187.276C232.347 191.87 231.027 195.426 229.451 198.147ZM197.576 191.432C195.085 188.984 192.42 186.164 189.434 182.817L191.892 181.109C194.836 184.412 197.456 187.183 199.902 189.589L197.576 191.432ZM39.216 189.17L36.1458 188.643C36.9561 184.957 37.8715 181.283 38.8709 177.724L41.908 178.386C40.9236 181.901 40.0173 185.529 39.216 189.17ZM583.872 183.36C582.944 179.713 581.945 176.1 580.901 172.618L583.926 171.91C584.979 175.425 585.987 179.075 586.924 182.755L583.872 183.36ZM235.588 176.165L232.485 175.812C232.965 172.516 233.398 168.908 233.803 164.782L236.918 165.022C236.51 169.187 236.075 172.833 235.588 176.165ZM181.775 173.924C179.233 170.895 176.595 167.692 174.324 164.926L176.856 163.305C179.125 166.064 181.757 169.262 184.29 172.282L181.775 173.924ZM410.77 173.696C408.333 173.696 405.944 173.055 403.666 171.788L405.335 169.453C408.756 171.359 412.123 171.365 415.755 169.843L417.099 172.336C414.953 173.238 412.823 173.696 410.77 173.696ZM45.2362 167.748L42.2441 166.942C43.4866 163.356 44.8491 159.79 46.2956 156.341L49.2277 157.3C47.8052 160.695 46.4607 164.213 45.2362 167.748ZM427.33 165.118L425.031 163.245C427.402 160.977 429.944 158.181 432.804 154.696L435.337 156.314C432.405 159.889 429.785 162.768 427.33 165.118ZM394.774 163.218C392.751 160.461 390.743 157.216 388.643 153.297L391.47 152.116C393.513 155.925 395.452 159.065 397.4 161.717L394.774 163.218ZM577.443 161.995C576.183 158.418 574.838 154.897 573.446 151.532L576.384 150.585C577.791 153.995 579.154 157.558 580.429 161.177L577.443 161.995ZM166.911 155.925C164.048 152.473 161.665 149.638 159.405 147.007L161.899 145.341C164.168 147.987 166.563 150.831 169.435 154.295L166.911 155.925ZM237.86 153.875L234.739 153.698C234.976 150.465 235.216 146.83 235.477 142.585L238.602 142.734C238.34 146.986 238.097 150.63 237.86 153.875ZM53.9185 147.079L51.0554 145.965C52.772 142.534 54.6027 139.163 56.5475 135.867L59.3205 137.143C57.4088 140.385 55.6081 143.702 53.9185 147.079ZM442.504 147.079L439.89 145.563C442.114 142.582 444.41 139.42 446.732 136.229L449.364 137.721C447.032 140.919 444.734 144.083 442.504 147.079ZM383.604 142.995C382.187 139.858 380.723 136.436 379.129 132.535L382.07 131.597C383.655 135.471 385.104 138.863 386.509 141.97L383.604 142.995ZM568.848 141.275C567.167 137.817 565.388 134.461 563.56 131.294L566.348 130.042C568.206 133.26 570.013 136.673 571.723 140.184L568.848 141.275ZM151.68 138.261C148.841 135.15 146.2 132.385 143.604 129.802L145.945 127.971C148.574 130.587 151.248 133.389 154.117 136.532L151.68 138.261ZM239.25 131.597L236.126 131.459C236.336 127.77 236.546 124.082 236.768 120.327L239.892 120.471C239.67 124.223 239.46 127.911 239.25 131.597ZM456.222 128.397L453.614 126.874C456.228 123.384 458.566 120.366 460.76 117.645L463.308 119.245C461.132 121.939 458.815 124.933 456.222 128.397ZM65.5238 127.617L62.8888 126.131C65.3468 122.733 67.8797 119.665 70.4216 117.013L72.8105 118.793C70.3586 121.355 67.9067 124.321 65.5238 127.617ZM374.955 122.002C373.52 118.293 372.112 114.58 370.924 111.44L373.892 110.568C375.078 113.705 376.482 117.412 377.914 121.112L374.955 122.002ZM135.006 121.807C131.81 119.06 128.664 116.633 125.663 114.595L127.572 112.408C130.669 114.511 133.907 117.01 137.191 119.83L135.006 121.807ZM557.489 121.691C555.247 118.463 552.897 115.41 550.505 112.617L552.999 110.951C555.454 113.816 557.861 116.944 560.157 120.246L557.489 121.691ZM81.5828 111.284L79.6861 109.091C83.4225 106.577 87.309 104.764 91.2404 103.7L92.1558 106.34C88.5784 107.305 85.0221 108.968 81.5828 111.284ZM470.849 110.439L468.419 108.701C471.351 105.507 474.133 102.759 476.915 100.299L479.126 102.25C476.422 104.641 473.712 107.32 470.849 110.439ZM240.594 109.354L237.473 109.189C237.743 105.177 238.013 101.534 238.295 98.0488L241.417 98.2466C241.132 101.719 240.864 105.351 240.594 109.354ZM115.321 108.776C111.417 107.062 107.579 105.968 103.911 105.525L104.334 102.789C108.341 103.275 112.506 104.455 116.714 106.304L115.321 108.776ZM542.456 104.314C539.446 101.591 536.328 99.1874 533.189 97.1708L535.031 94.9385C538.312 97.045 541.562 99.55 544.695 102.385L542.456 104.314ZM366.936 100.874C365.381 96.7663 364.096 93.4193 362.899 90.336L365.858 89.4401C367.059 92.5294 368.343 95.8854 369.901 99.9995L366.936 100.874ZM488.49 95.2022L486.698 92.9399C490.546 90.5637 494.429 88.8048 498.247 87.7112L499.213 90.336C495.69 91.3488 492.082 92.9849 488.49 95.2022ZM522.619 91.8222C518.744 90.381 514.825 89.488 510.965 89.1704L511.257 86.4227C515.434 86.7673 519.669 87.7291 523.837 89.2813L522.619 91.8222ZM242.413 87.1628L239.298 86.9171C239.688 83.0427 240.111 79.3032 240.558 75.8004L243.667 76.109C243.223 79.5939 242.803 83.3124 242.413 87.1628ZM358.736 79.8366C357.224 76.112 355.801 72.7111 354.382 69.433L357.305 68.4472C358.73 71.7432 360.162 75.1651 361.681 78.9047L358.736 79.8366ZM245.261 65.1032L242.164 64.7076C242.797 60.8423 243.493 57.1267 244.232 53.6599L247.305 54.1692C246.573 57.6001 245.885 61.2768 245.261 65.1032ZM349.736 59.1253C348.055 55.5566 346.363 52.1437 344.7 48.9795L347.539 47.8198C349.217 51.017 350.928 54.4659 352.626 58.0646L349.736 59.1253ZM249.961 43.3702L246.927 42.702C248.019 38.8486 249.22 35.2169 250.501 31.9089L253.46 32.8018C252.209 36.0349 251.029 39.5917 249.961 43.3702ZM339.145 39.0733C337.089 35.6544 334.986 32.4452 332.9 29.5327L335.544 28.0555C337.675 31.0249 339.814 34.297 341.909 37.7788L339.145 39.0733ZM258.157 22.6889L255.351 21.4663C257.404 17.7927 259.681 14.5476 262.121 11.8149L264.579 13.5228C262.274 16.1057 260.117 19.1891 258.157 22.6889ZM325.73 20.5794C322.996 17.556 320.175 14.8772 317.345 12.6179L319.443 10.5714C322.399 12.9295 325.337 15.7192 328.173 18.8595L325.73 20.5794ZM273.307 6.37039L271.62 4.04516C275.326 1.95067 279.408 0.590294 283.753 0L284.231 2.72674C280.317 3.2601 276.641 4.48564 273.307 6.37039ZM307.477 6.36739C303.834 4.63246 300.038 3.44888 296.196 2.8436L296.745 0.12585C300.914 0.782065 305.025 2.06453 308.963 3.93729L307.477 6.36739Z" fill="white"/>
<path d="M611.073 340.992C585.117 336.782 589.354 374.822 552.353 374.822C518.525 374.822 507.703 229.957 483.09 271.368C356.914 483.664 430.181 181.086 329.835 177.241C284.461 175.503 254.225 228.453 243.076 322.202C226.915 406.956 189.431 257.56 150.86 271.449C126.344 280.276 137.184 384.467 96.78 382.855C59.8062 381.381 62.5642 336.779 36.6075 340.989C8.66106 345.526 0.314941 412.856 0.314941 412.856H647.366C647.366 412.856 639.02 345.526 611.073 340.992Z" fill="#EEF7FF"/>
<path d="M588.088 382.169C564.208 380.371 568.107 396.614 534.068 396.614C502.946 396.614 503.802 360.211 482.977 352.474C444.625 338.226 413.009 410.338 398.141 374.147C369.901 278.118 287.538 229.96 249.544 374.147C234.676 410.338 199.905 345.762 164.708 352.474C143.043 356.606 144.738 396.614 113.617 396.614C79.5779 396.614 83.4764 380.371 59.5965 382.169C33.8859 384.104 26.209 412.855 26.209 412.855H621.479C621.476 412.855 613.796 384.104 588.088 382.169Z" fill="#DCE6FF"/>
<path d="M0.315288 412.855C0.315288 412.855 -3.48713 428.805 15.3179 432.563C41.0405 437.702 191.781 444.225 155.098 454.482C134.39 460.274 165.668 468.136 266.527 471.031C367.386 473.925 540.451 462.581 482.251 445.795C424.053 429.009 661.805 447.77 647.363 412.855H0.315288Z" fill="white"/>
<path d="M551.921 181.143L564.775 161.085L553.215 153.734C554.598 149.578 555.387 145.305 555.606 141.036L569.142 138.06L563.992 114.823L550.967 117.688C548.83 113.187 545.988 108.983 542.474 105.261L550.063 93.4165L529.926 80.6128L522.336 92.4577C517.816 90.9655 513.159 90.1684 508.513 90.0336L505.809 77.8262L482.481 82.956L485.185 95.1634C481.029 97.234 477.142 99.9098 473.673 103.158L462.113 95.8077L449.259 115.866L460.819 123.216C459.204 128.064 458.403 133.068 458.367 138.048L445.342 140.913L450.492 164.15L464.027 161.175C466.032 164.956 468.553 168.501 471.563 171.692L463.973 183.537L484.111 196.34L491.701 184.496C496.22 185.988 500.878 186.785 505.524 186.92L508.675 201.147L532.003 196.017L528.852 181.79C533.008 179.719 536.895 177.044 540.364 173.795L551.921 181.143ZM496.499 157.522C471.539 143.654 492.487 105.885 517.534 119.419C542.495 133.287 521.547 171.06 496.499 157.522Z" fill="#AAD2FF"/>
<path d="M352.464 364.763H284.765V425.842H352.464V364.763Z" fill="#255084"/>
<path d="M352.464 328.917H284.765V398.29H352.464V328.917Z" fill="#1D3F70"/>
<path d="M422.345 437.807H214.884C210.718 437.807 207.345 434.445 207.345 430.295C207.345 426.148 210.721 422.783 214.884 422.783H422.342C426.508 422.783 429.881 426.145 429.881 430.295C429.884 434.445 426.508 437.807 422.345 437.807Z" fill="#1D3F70"/>
<path d="M127.647 373.048V151.58C127.647 143.151 134.49 136.319 142.932 136.319H494.291C502.733 136.319 509.576 143.151 509.576 151.58V373.048C509.576 381.477 502.733 388.309 494.291 388.309H142.935C134.493 388.312 127.647 381.477 127.647 373.048Z" fill="#255084"/>
<path d="M318.614 381.95C323.035 381.95 326.618 378.381 326.618 373.977C326.618 369.573 323.035 366.003 318.614 366.003C314.194 366.003 310.61 369.573 310.61 373.977C310.61 378.381 314.194 381.95 318.614 381.95Z" fill="#1D3F70"/>
<path d="M494.624 151.119V212.051L403.666 348.798L142.604 261.878V151.119H494.624Z" fill="#A9BFF7"/>
<path d="M142.604 261.878C142.604 261.878 195.13 213.971 248.382 243.192C301.634 272.414 311.244 331.009 382.628 325.139C455.895 319.113 407.072 221.744 494.624 212.054V355.918H142.604V261.878Z" fill="#789BF2"/>
<path d="M142.604 151.119C142.604 151.119 155.956 206.741 240.891 193.572C318.614 181.52 314.653 263.511 365.489 266.454C416.325 269.396 431.273 210.646 450.012 190.057C468.751 169.469 494.624 172.984 494.624 172.984V151.119H142.604Z" fill="#D9E4F9"/>
<path d="M303.528 273.723C303.468 273.723 303.408 273.708 303.351 273.678L194.95 214.298C194.77 214.199 194.707 213.974 194.803 213.797C194.902 213.618 195.127 213.555 195.304 213.651L303.705 273.031C303.885 273.13 303.948 273.354 303.852 273.531C303.783 273.651 303.657 273.723 303.528 273.723Z" fill="#1D3F70"/>
<path d="M249.327 240.349H245.294V244.367H249.327V240.349Z" fill="#1D3F70"/>
<path d="M195.127 215.665C196.065 215.665 196.825 214.907 196.825 213.972C196.825 213.037 196.065 212.279 195.127 212.279C194.189 212.279 193.428 213.037 193.428 213.972C193.428 214.907 194.189 215.665 195.127 215.665Z" fill="#1D3F70"/>
<path d="M305.226 273.352C305.226 274.287 304.467 275.045 303.528 275.045C302.588 275.045 301.829 274.287 301.829 273.352C301.829 272.417 302.588 271.659 303.528 271.659C304.467 271.659 305.226 272.417 305.226 273.352Z" fill="#1D3F70"/>
<path d="M384.645 323.035H380.612V327.053H384.645V323.035Z" fill="#1D3F70"/>
<path d="M311.244 331.377C311.055 331.377 310.892 331.231 310.874 331.039C310.856 330.835 311.01 330.658 311.214 330.64L456.258 318.706C456.471 318.688 456.639 318.84 456.657 319.044C456.675 319.248 456.522 319.425 456.318 319.443L311.274 331.377C311.265 331.377 311.253 331.377 311.244 331.377Z" fill="#1D3F70"/>
<path d="M312.942 331.008C312.942 331.943 312.183 332.701 311.244 332.701C310.304 332.701 309.545 331.943 309.545 331.008C309.545 330.074 310.304 329.315 311.244 329.315C312.18 329.315 312.942 330.074 312.942 331.008Z" fill="#1D3F70"/>
<path d="M457.986 319.074C457.986 320.009 457.227 320.767 456.288 320.767C455.348 320.767 454.589 320.009 454.589 319.074C454.589 318.139 455.348 317.381 456.288 317.381C457.224 317.381 457.986 318.139 457.986 319.074Z" fill="#1D3F70"/>
<path d="M398.27 223.089H461.501C465.819 223.089 469.319 226.583 469.319 230.895V265.093C469.319 269.404 465.819 272.898 461.501 272.898H398.27C393.951 272.898 390.452 269.404 390.452 265.093V230.895C390.452 226.583 393.951 223.089 398.27 223.089Z" fill="white"/>
<path d="M458.398 245.722V234.359H446.994V245.722H458.398Z" fill="#397CAA"/>
<path d="M458.397 261.629V250.266H446.993V261.629H458.397Z" fill="#FF7B7B"/>
<path d="M446.993 245.724V234.361H435.589V245.724H446.993Z" fill="#2E6999"/>
<path d="M446.991 261.63V250.267H435.587V261.63H446.991Z" fill="#FF6666"/>
<path d="M435.587 245.721V234.359H424.183V245.721H435.587Z" fill="#285989"/>
<path d="M435.586 261.628V250.266H424.182V261.628H435.586Z" fill="#F95C58"/>
<path d="M424.182 245.723V234.361H412.778V245.723H424.182Z" fill="#1F4777"/>
<path d="M424.18 261.63V250.267H412.776V261.63H424.18Z" fill="#EB5648"/>
<path d="M412.776 245.721V234.359H401.372V245.721H412.776Z" fill="#103663"/>
<path d="M412.774 261.628V250.265H401.37V261.628H412.774Z" fill="#CE3932"/>
<path d="M270.509 201.859H189.836C186.547 201.859 183.882 199.199 183.882 195.915V166.864C183.882 163.58 186.547 160.919 189.836 160.919H270.509C273.798 160.919 276.463 163.58 276.463 166.864V195.915C276.463 199.196 273.798 201.859 270.509 201.859Z" fill="#667ECC"/>
<path d="M201.625 173.84H191.526V183.902H201.625V173.84Z" fill="#1D3F70"/>
<path d="M206.676 178.871H196.577V188.933H206.676V178.871Z" fill="#1D3F70"/>
<path d="M222.339 173.84H212.24V183.902H222.339V173.84Z" fill="#1D3F70"/>
<path d="M227.389 178.871H217.291V188.933H227.389V178.871Z" fill="#A9BFF7"/>
<path d="M243.055 173.84V178.871H238.005V183.902H232.954V173.84H243.055Z" fill="#A9BFF7"/>
<path d="M243.055 178.871H238.004V183.902H243.055V178.871Z" fill="#1D3F70"/>
<path d="M248.106 178.871V188.933H238.004V183.902H243.055V178.871H248.106Z" fill="#A9BFF7"/>
<path d="M263.769 173.843V178.874H258.718V183.902H253.67V173.843H263.769Z" fill="#1D3F70"/>
<path d="M263.769 178.875H258.718V183.905H263.769V178.875Z" fill="#A9BFF7"/>
<path d="M268.82 178.875V188.933H258.718V183.902H263.769V178.875H268.82Z" fill="#1D3F70"/>
<path d="M245.918 337.118H217.864C214.085 337.118 211.021 334.059 211.021 330.286V302.375C211.021 298.602 214.085 295.543 217.864 295.543H245.918C249.696 295.543 252.761 298.602 252.761 302.375V330.286C252.764 334.062 249.699 337.118 245.918 337.118Z" fill="#A9BFF7"/>
<path d="M242.233 314.909V326.622H230.46V314.909H242.233ZM245.252 311.895H227.438V329.639H245.252V311.895Z" fill="white"/>
<path d="M236.347 303.022H218.533V320.767H236.347V303.022Z" fill="white"/>
<path d="M227.441 330.104C227.321 330.104 227.204 330.059 227.111 329.969C226.931 329.786 226.931 329.493 227.111 329.313L244.925 311.568C245.108 311.388 245.402 311.388 245.583 311.568C245.763 311.751 245.763 312.044 245.583 312.224L227.768 329.969C227.678 330.059 227.558 330.104 227.441 330.104Z" fill="#EB5648"/>
<path d="M107.789 204.419V116.543C107.789 112.525 111.051 109.268 115.075 109.268H157.367C161.392 109.268 164.654 112.525 164.654 116.543V204.419C164.654 208.437 161.392 211.694 157.367 211.694H115.075C111.051 211.691 107.789 208.434 107.789 204.419Z" fill="#667ECC"/>
<path d="M156.818 198.159L151.188 192.55C152.061 191.501 152.541 190.194 152.541 188.813C152.541 187.249 151.929 185.778 150.818 184.669C148.526 182.386 144.798 182.386 142.505 184.669C141.395 185.775 140.783 187.246 140.783 188.813C140.783 190.377 141.395 191.848 142.505 192.954C143.652 194.096 145.155 194.665 146.662 194.665C147.994 194.665 149.327 194.216 150.41 193.32L156.043 198.932L156.818 198.159ZM143.28 192.181C142.376 191.282 141.878 190.087 141.878 188.813C141.878 187.543 142.376 186.347 143.28 185.445C144.213 184.516 145.437 184.052 146.662 184.052C147.886 184.052 149.111 184.516 150.044 185.445C150.948 186.344 151.446 187.54 151.446 188.813C151.446 190.084 150.948 191.279 150.044 192.181C148.177 194.036 145.143 194.036 143.28 192.181Z" fill="white"/>
<path d="M148.88 158.217C147.058 158.217 145.239 157.528 143.853 156.146C142.508 154.81 141.77 153.03 141.77 151.136C141.77 149.246 142.508 147.466 143.853 146.126C146.626 143.367 151.134 143.367 153.907 146.126C155.251 147.463 155.989 149.243 155.989 151.136C155.989 153.03 155.251 154.807 153.907 156.146C152.52 157.528 150.701 158.217 148.88 158.217ZM148.88 145.153C147.34 145.153 145.801 145.737 144.627 146.905C143.493 148.035 142.865 149.539 142.865 151.139C142.865 152.74 143.49 154.241 144.627 155.373C146.971 157.708 150.785 157.708 153.129 155.373C154.264 154.244 154.891 152.74 154.891 151.139C154.891 149.539 154.267 148.038 153.129 146.905C151.959 145.737 150.419 145.153 148.88 145.153Z" fill="white"/>
<path d="M153.731 165.47L143.247 175.914L144.022 176.69L154.507 166.246L153.731 165.47Z" fill="white"/>
<path d="M117.818 124.561L127.071 130.716L121.87 130.254C121.837 130.251 121.804 130.251 121.771 130.251C121.345 130.251 120.954 130.497 120.774 130.889L118.59 135.624L117.818 124.561ZM116.57 122.413L117.797 139.972L121.774 131.345L131.266 132.187L116.57 122.413Z" fill="white"/>
<path d="M141.533 122.413L142.761 139.975L146.737 131.348L156.227 132.19L141.533 122.413Z" fill="white"/>
<path d="M117.818 165.223V168.006H118.917V166.319H123.367V175.842H121.699V176.939H126.134V175.842H124.466V166.319H128.917V168.006H130.015V165.223H117.818Z" fill="white"/>
<path d="M126.108 148.41L115.622 158.856L116.397 159.633L126.884 149.186L126.108 148.41Z" fill="white"/>
<path d="M122.407 149.228C123.879 149.228 125.072 148.039 125.072 146.573C125.072 145.107 123.879 143.918 122.407 143.918C120.935 143.918 119.742 145.107 119.742 146.573C119.742 148.039 120.935 149.228 122.407 149.228Z" fill="white"/>
<path d="M128.298 147.037C129.409 147.037 130.309 146.141 130.309 145.036C130.309 143.93 129.409 143.034 128.298 143.034C127.188 143.034 126.288 143.93 126.288 145.036C126.288 146.141 127.188 147.037 128.298 147.037Z" fill="white"/>
<path d="M129.811 151.997C130.921 151.997 131.821 151.101 131.821 149.995C131.821 148.89 130.921 147.994 129.811 147.994C128.7 147.994 127.8 148.89 127.8 149.995C127.8 151.101 128.7 151.997 129.811 151.997Z" fill="white"/>
<path d="M130.921 184.058C130.441 183.582 129.664 183.579 129.187 184.058L127.806 185.431L127.296 184.921C126.816 184.445 126.039 184.442 125.561 184.921C125.162 185.317 125.099 185.916 125.363 186.383L116.678 195.022C116.246 195.451 116.009 196.023 116.009 196.628C116.009 197.236 116.246 197.806 116.675 198.237C117.119 198.681 117.704 198.902 118.29 198.902C118.872 198.902 119.457 198.681 119.901 198.24L128.589 189.599C129.058 189.859 129.658 189.799 130.057 189.404C130.537 188.927 130.537 188.151 130.057 187.675L129.547 187.165L130.927 185.793C131.399 185.308 131.402 184.535 130.921 184.058ZM119.121 197.458C118.659 197.917 117.909 197.917 117.446 197.458C117.224 197.236 117.101 196.94 117.101 196.625C117.101 196.311 117.224 196.017 117.446 195.792L126.099 187.186L127.77 188.852L119.121 197.458Z" fill="white"/>
<path d="M319.605 117.322H192.94C189.23 117.322 186.226 114.32 186.226 110.619V89.6293C186.226 85.9257 189.233 82.9263 192.94 82.9263H319.605C323.314 82.9263 326.318 85.9287 326.318 89.6293V110.619C326.318 114.323 323.314 117.322 319.605 117.322Z" fill="#667ECC"/>
<path d="M196.117 93.3066H194.878V108.184H196.117V93.3066Z" fill="white"/>
<path d="M204.377 95.0288H197.054V99.2448H204.377V95.0288Z" fill="white"/>
<path d="M207.078 100.495H197.054V104.711H207.078V100.495Z" fill="white"/>
<path d="M251.014 93.3066H249.774V108.184H251.014V93.3066Z" fill="white"/>
<path d="M241.516 99.2437H248.839V95.0277H241.516V99.2437Z" fill="white"/>
<path d="M238.815 104.709H248.838V100.494H238.815V104.709Z" fill="white"/>
<path d="M223.566 93.3066H222.326V108.184H223.566V93.3066Z" fill="white"/>
<path d="M227.392 95.0288H218.494V99.2448H227.392V95.0288Z" fill="white"/>
<path d="M229.037 100.495H216.852V104.711H229.037V100.495Z" fill="white"/>
<path d="M295.389 100.126H280.455V101.363H295.389V100.126Z" fill="white"/>
<path d="M293.66 105.179V96.313H289.426V105.179H293.66Z" fill="white"/>
<path d="M288.174 106.813V94.6777H283.939V106.813H288.174Z" fill="white"/>
<path d="M273.729 93.2974H258.796V94.5349H273.729V93.2974Z" fill="white"/>
<path d="M271.123 104.303V95.437H266.888V104.303H271.123Z" fill="white"/>
<path d="M265.635 107.573V95.437H261.401V107.573H265.635Z" fill="white"/>
<path d="M317.048 106.955H302.114V108.193H317.048V106.955Z" fill="white"/>
<path d="M310.208 97.1844V106.051H314.442V97.1844H310.208Z" fill="white"/>
<path d="M304.72 93.9153V106.051H308.955V93.9153H304.72Z" fill="white"/>
<path d="M172.657 74.8298L174.278 66.5178L167.886 65.2803C167.907 63.9349 167.817 62.6075 167.613 61.304L173.762 59.1945L170.992 51.1881L164.834 53.3006C164.182 52.141 163.435 51.0353 162.598 50.0015L166.868 45.1054L160.452 39.55L156.184 44.4402C155.05 43.766 153.846 43.1847 152.586 42.6993L153.828 36.3319L145.482 34.7168L144.24 41.0842C142.889 41.0632 141.557 41.1531 140.248 41.3569L138.13 35.2322L130.093 37.9889L132.214 44.1226C131.05 44.7728 129.942 45.5159 128.901 46.3489L123.985 42.094L118.409 48.4853L123.328 52.7373C122.653 53.8669 122.068 55.0655 121.581 56.321L115.189 55.0835L113.568 63.3955L119.961 64.633C119.94 65.9784 120.03 67.3058 120.234 68.6063L114.085 70.7158L116.855 78.7222L123.013 76.6097C123.664 77.7693 124.411 78.875 125.249 79.9088L120.978 84.8049L127.395 90.3603L131.662 85.4701C132.797 86.1443 134 86.7256 135.26 87.211L134.018 93.5784L142.364 95.1935L143.607 88.8261C144.957 88.8471 146.29 88.7572 147.598 88.5534L149.717 94.6781L157.754 91.9214L155.632 85.7877C156.797 85.1375 157.904 84.3944 158.945 83.5614L163.861 87.8163L169.437 81.425L164.527 77.176C165.203 76.0464 165.788 74.8478 166.274 73.5923L172.657 74.8298ZM141.638 76.6756C126.224 73.4215 130.696 50.5049 146.209 53.2377C161.622 56.4948 157.154 79.4084 141.638 76.6756Z" fill="#007DFE"/>
<path d="M569.634 250.09L570.748 244.373L566.351 243.522C566.366 242.596 566.303 241.683 566.162 240.79L570.391 239.339L568.485 233.832L564.25 235.285C563.803 234.488 563.287 233.727 562.714 233.014L565.652 229.646L561.237 225.825L558.302 229.187C557.522 228.723 556.694 228.324 555.826 227.992L556.682 223.614L550.943 222.502L550.088 226.88C549.161 226.865 548.242 226.928 547.345 227.066L545.89 222.853L540.361 224.75L541.82 228.969C541.019 229.415 540.256 229.928 539.542 230.5L536.16 227.572L532.324 231.968L535.701 234.89C535.236 235.669 534.833 236.493 534.5 237.356L530.104 236.505L528.99 242.222L533.387 243.073C533.372 243.999 533.435 244.913 533.573 245.806L529.344 247.256L531.25 252.763L535.485 251.31C535.932 252.107 536.448 252.868 537.021 253.581L534.083 256.949L538.498 260.77L541.433 257.408C542.213 257.872 543.041 258.271 543.909 258.603L543.053 262.981L548.792 264.093L549.647 259.715C550.574 259.73 551.493 259.667 552.39 259.529L553.846 263.742L559.374 261.845L557.915 257.626C558.716 257.18 559.479 256.668 560.193 256.095L563.575 259.023L567.411 254.627L564.034 251.706C564.5 250.926 564.902 250.102 565.235 249.239L569.634 250.09ZM548.302 251.361C537.702 249.123 540.776 233.361 551.448 235.24C562.045 237.479 558.971 253.237 548.302 251.361Z" fill="white"/>
<path d="M394.491 32.568C394.491 32.568 397.586 26.728 406.856 28.5319C416.13 30.3357 418.227 42.0907 421.339 47.4572C427.927 58.8257 429.833 70.8683 426.318 76.6184C422.417 83.0037 413.93 80.4298 401.514 79.1833C388.267 77.8529 382.802 66.3467 391.172 50.6514L394.491 32.568Z" fill="#662948"/>
<path d="M398.132 59.8506C394.459 65.1273 391.938 90.9684 391.845 92.979C387.574 92.6314 377.317 91.7954 372.944 91.4388C371.783 81.9612 384.534 62.6462 396.047 60.4349C396.047 60.4319 396.047 60.4319 396.047 60.4319C397.346 60.0034 398.132 59.8506 398.132 59.8506Z" fill="#5EB5DE"/>
<path d="M343.163 202.007L361.629 201.947C361.605 199.007 360.864 193.065 361.476 189.715L353.496 190.677C353.703 192.289 354.168 195.789 351.476 196.604C347.989 197.662 344.205 197.299 342.011 199.948C341.444 200.841 342.101 202.01 343.163 202.007Z" fill="#F99370"/>
<path d="M362.164 200.175C362.092 200.799 361.92 201.401 361.608 201.949L342.962 202.009C342.056 202.012 341.396 201.125 341.696 200.271C342.398 198.279 344.718 195.387 353.31 194.914C353.31 194.914 356.452 195.438 361.257 194.554C361.257 194.551 362.467 197.653 362.164 200.175Z" fill="#1D3F70"/>
<path d="M347.203 199.597C347.056 199.597 346.915 199.507 346.855 199.363C346.168 197.685 344.931 197.176 344.88 197.155C343.902 195.648 346.717 196.715 347.554 199.079C347.659 199.319 347.464 199.603 347.203 199.597Z" fill="#E8C0A6"/>
<path d="M350.138 199.235C349.979 199.235 349.832 199.13 349.781 198.971C349.172 197.029 347.467 196.133 347.449 196.127C346.561 194.375 349.829 196.244 350.501 198.746C350.579 198.983 350.387 199.241 350.138 199.235Z" fill="#E8C0A6"/>
<path d="M353.476 198.815C353.32 198.815 353.176 198.716 353.122 198.563C352.41 196.547 350.778 195.45 350.76 195.441C350.076 193.604 353.044 195.825 353.833 198.315C353.926 198.554 353.731 198.821 353.476 198.815Z" fill="#E8C0A6"/>
<path d="M341.726 200.238L362.185 200.172C362.113 200.796 361.941 201.401 361.629 201.946L342.983 202.006C342.065 202.012 341.402 201.095 341.726 200.238Z" fill="#395B96"/>
<path d="M402.211 132.238C393.127 131.785 377.332 126.676 370.414 138.141C362.839 150.663 364.46 177.361 365.114 190.263C355.111 193.386 349.772 190.144 349.772 190.144C345.73 163.712 332.201 103.472 378.946 112.18C378.946 112.177 410.338 112.423 410.338 112.423C415.503 123.126 410.737 132.127 402.211 132.238Z" fill="#1C2F36"/>
<path d="M365.306 202.177L383.772 202.121C383.748 199.181 383.007 193.239 383.619 189.889L375.639 190.854C375.846 192.466 376.374 195.966 373.619 196.781C370.126 197.815 366.347 197.476 364.153 200.125C363.586 201.012 364.244 202.18 365.306 202.177Z" fill="#F99370"/>
<path d="M384.327 200.346C384.255 200.97 384.084 201.575 383.771 202.12L365.125 202.18C364.219 202.183 363.559 201.296 363.859 200.442C364.561 198.45 366.908 195.51 375.503 195.034C375.503 195.034 378.597 195.648 383.402 194.764C383.402 194.764 384.63 197.824 384.327 200.346Z" fill="#1D3F70"/>
<path d="M369.345 199.768C369.198 199.768 369.057 199.678 368.997 199.534C368.31 197.856 367.073 197.347 367.022 197.326C366.044 195.819 368.859 196.886 369.696 199.25C369.804 199.489 369.606 199.774 369.345 199.768Z" fill="#E8C0A6"/>
<path d="M372.28 199.406C372.121 199.406 371.974 199.301 371.923 199.142C371.314 197.2 369.609 196.304 369.591 196.298C368.703 194.545 371.971 196.415 372.644 198.917C372.722 199.154 372.529 199.412 372.28 199.406Z" fill="#E8C0A6"/>
<path d="M375.618 198.986C375.462 198.986 375.318 198.887 375.264 198.734C374.552 196.718 372.92 195.621 372.902 195.612C372.218 193.775 375.186 195.996 375.975 198.486C376.068 198.725 375.873 198.992 375.618 198.986Z" fill="#E8C0A6"/>
<path d="M363.868 200.409L384.327 200.343C384.255 200.967 384.084 201.572 383.772 202.117L365.126 202.177C364.207 202.183 363.544 201.266 363.868 200.409Z" fill="#395B96"/>
<path d="M381.5 112.201L378.661 131.674C366.888 136.187 365.946 148.484 364.766 162.325C359.502 140.885 360.144 119.26 381.5 112.201Z" fill="#101C20"/>
<path d="M416.865 134.195C406.842 139.106 395.026 132.553 388.232 145.952C382.74 157.689 385.591 180.217 386.995 190.431C376.992 193.554 371.653 190.311 371.653 190.311C365.915 167.494 352.8 114.466 391.053 112.27C401.524 112.018 415.281 112.216 424.536 111.733C424.536 111.739 429.257 128.124 416.865 134.195Z" fill="#1C2F36"/>
<path d="M381.917 84.9605C381.734 84.9605 381.587 84.7987 381.608 84.6189C382.274 79.4561 387.82 72.801 388.541 73.1636C389.027 73.7989 382.646 79.2973 382.232 84.6759C382.217 84.8407 382.079 84.9605 381.917 84.9605Z" fill="#23659B"/>
<path d="M424.764 106.355C425.529 112.129 425.106 114.562 425.106 114.562C409.674 116.351 399.951 116.366 381.197 113.606C393.33 78.3206 366.464 100.86 398.132 59.8477C398.207 59.8536 405.818 60.5998 405.887 60.6057C414.647 67.2788 420.256 76.0763 424.764 106.355Z" fill="#5EB5DE"/>
<path d="M348.833 113.968L390.38 114.292L382.346 83.8904L341.051 83.5698L348.833 113.968Z" fill="#163260"/>
<path d="M348.836 113.806L348.82 115.867L390.367 116.192L390.384 114.13L348.836 113.806Z" fill="#234270"/>
<path d="M381.722 83.8877L383.208 83.8997L391.074 114.149L410.791 114.301L410.776 116.36L389.675 116.195L389.687 114.355L381.722 83.8877Z" fill="#0B274F"/>
<path d="M419.503 66.5892C429.026 73.8136 434.041 86.7222 431.418 98.4052C430.397 104.97 426.184 111.191 419.656 113.001C416.43 114.256 401.415 116.201 402.154 110.903C402.403 109.633 403.537 109.171 404.639 108.842C406.451 108.221 408.321 107.532 410.053 106.765C413.153 105.192 417.135 103.727 417.835 100.278C419.329 92.2236 416.073 84.316 410.065 79.0034C410.077 79.0094 410.038 78.9794 410.125 79.0453C401.974 72.8967 411.301 60.5185 419.503 66.5892Z" fill="#F99370"/>
<path d="M424.89 111.599C419.995 113.729 415.373 114.358 411.82 114.46C411.82 114.46 412.681 109.189 408.87 106.984C430.565 90.8244 399.815 83.7139 405.92 59.7695C429.043 60.3628 452.644 95.4629 424.89 111.599Z" fill="#5EB5DE"/>
<path d="M392.976 114.16C392.976 114.16 394.876 107.73 405.917 108.557L408.186 114.277L392.976 114.16Z" fill="#F99370"/>
<path d="M414.386 114.301C412.805 114.463 411.823 114.46 411.823 114.46C411.823 114.46 412.684 109.189 408.873 106.984C408.873 106.984 409.821 106.382 411.061 105.309C411.058 105.309 415.229 108.41 414.386 114.301Z" fill="#23659B"/>
<path d="M410.854 106.208C410.575 106.211 410.428 105.837 410.653 105.657C420.296 97.2309 415.677 88.1967 410.026 82.3237C409.75 82.036 410.218 81.5926 410.491 81.9012C416.5 87.9809 421.019 97.986 410.854 106.208Z" fill="#23659B"/>
<path d="M414.179 114.332C412.396 113.28 419.212 113.849 424.419 111.449C424.581 111.386 424.764 111.461 424.827 111.623C424.893 111.785 424.815 111.964 424.653 112.03C419.278 114.179 414.248 114.332 414.179 114.332Z" fill="#23659B"/>
<path d="M407.982 69.442C407.748 71.0901 406.16 71.5905 405.767 71.5006C400.224 69.0884 404.122 76.5975 401.826 77.3406C399.897 77.9668 399.687 75.4648 398.012 75.315C395.578 75.0963 395.071 76.4147 394.225 75.6057C393.042 74.479 395.941 72.5493 395.587 70.5447C395.338 69.1364 392.523 70.5267 392.583 67.6352C392.649 64.7946 395.947 60.5636 396.052 60.4348C396.052 60.4318 396.052 60.4318 396.052 60.4318C399.158 58.8227 405.926 59.7726 405.926 59.7726C405.926 59.7726 406.823 59.5838 407.682 59.9134C408.084 62.2266 408.444 66.967 407.982 69.442Z" fill="#F4D4BE"/>
<path d="M398.342 57.1028L398.132 59.8505C398.132 59.8505 397.853 62.4934 397.814 67.4075C397.76 74.3172 399.48 73.5262 401.893 68.7169C403.219 66.0741 405.92 59.7726 405.92 59.7726L406.325 54.9424L398.342 57.1028Z" fill="#F99370"/>
<path d="M407.646 49.3063C407.613 49.4351 407.577 49.567 407.532 49.6958C407.367 49.561 406.484 54.0047 406.112 57.4895C402.778 59.4012 398.84 59.2334 398.183 59.0267C398.402 53.8698 398.897 46.1541 402.895 44.7457C405.578 43.9217 408.39 46.5676 407.646 49.3063Z" fill="#E57D61"/>
<path d="M397.724 32.2354C387.712 30.9589 385.999 46.7051 392.763 52.5541L397.724 32.2354Z" fill="#662948"/>
<path d="M409.449 43.43C409.905 46.8729 409.905 50.9091 407.955 53.8605H407.952C402.613 62.4093 385.212 56.7371 390.071 46.5882C390.782 45.2938 391.19 43.7176 391.253 42.3783C391.521 28.3131 408.15 31.3964 409.449 43.43Z" fill="#F99370"/>
<path d="M396.253 45.1587C395.779 44.6792 396.55 43.9481 397.009 44.4425C397.481 44.9219 396.712 45.6531 396.253 45.1587Z" fill="#C16256"/>
<path d="M391.845 45.7075C391.37 45.2281 392.142 44.4969 392.601 44.9913C393.072 45.4738 392.304 46.2019 391.845 45.7075Z" fill="#C16256"/>
<path d="M394.438 49.6298C393.556 49.7617 392.28 49.525 393.123 48.4792C393.913 47.6882 394.021 45.5337 394.021 45.5128C394.03 45.2611 394.432 45.2731 394.414 45.5307C394.411 45.6266 394.297 47.859 393.399 48.7579C393.297 48.8598 393.192 49.0006 393.264 49.0875C393.471 49.3362 394.465 49.3841 395.038 48.9946C395.125 48.9347 395.251 48.9556 395.311 49.0455C395.458 49.456 394.744 49.537 394.438 49.6298Z" fill="#C16256"/>
<path d="M409.449 43.4299C409.906 46.8728 409.906 50.909 407.955 53.8605H407.952C408.858 51.6431 408.558 47.3792 408.558 47.3792L407.343 45.8061C394.783 45.5424 393.009 36.0857 393.009 36.0857C398.411 28.5827 408.858 35.4924 409.449 43.4299Z" fill="#E57D61"/>
<path d="M393.979 34.9081C393.979 34.9081 395.774 44.2179 407.139 44.8682L410.209 41.7489C411.689 33.6675 402.097 25.3075 393.979 34.9081Z" fill="#662948"/>
<path d="M412.045 44.4642C412.417 48.4015 407.424 48.815 407.138 44.8687C406.766 40.9314 411.76 40.5179 412.045 44.4642Z" fill="#F99370"/>
<path d="M410.878 43.4359C410.383 41.8718 407.355 43.5138 408.636 43.5828C408.642 43.5138 409.984 42.7288 410.395 43.421C409.074 44.0292 408.615 46.4683 409.384 45.6862C409.384 45.6713 409.555 44.2809 410.593 43.7625C411.079 47.3223 411.565 44.8622 410.878 43.4359Z" fill="#C16256"/>
<path d="M410.497 46.8039C410.671 47.3493 409.807 47.6069 409.648 47.0556C409.477 46.5103 410.341 46.2526 410.497 46.8039Z" fill="#F4D4BE"/>
<path d="M397.724 79.1175C397.733 80.2561 395.935 80.2442 395.959 79.1025C395.95 77.9639 397.748 77.9759 397.724 79.1175Z" fill="#23659B"/>
<path d="M395.941 85.2897C395.95 86.4284 394.152 86.4164 394.177 85.2747C394.171 84.1361 395.968 84.1511 395.941 85.2897Z" fill="#23659B"/>
<path d="M395.899 90.8576C395.908 91.9962 394.111 91.9843 394.135 90.8426C394.129 89.704 395.923 89.719 395.899 90.8576Z" fill="#23659B"/>
<path d="M364.892 185.832C365.033 188.594 365.117 190.263 365.117 190.263C355.114 193.386 349.775 190.143 349.775 190.143C349.775 190.143 349.589 188.768 349.178 186.377C349.295 186.437 355.513 189.544 364.892 185.832Z" fill="#5EB5DE"/>
<path d="M386.995 190.434C376.992 193.557 371.653 190.315 371.653 190.315C371.653 190.315 371.329 189.032 370.78 186.821C370.78 186.821 376.26 189.712 386.5 186.944C386.785 189.128 386.995 190.434 386.995 190.434Z" fill="#5EB5DE"/>
<path d="M393.579 114.101C391.616 114.146 398.801 109.318 400.923 110.529C400.938 110.703 400.812 110.855 400.641 110.87C396.616 111.257 393.918 114.092 393.579 114.101Z" fill="#E57D61"/>
<path d="M396.608 114.236C395.122 113.591 399.759 112.54 402.055 111.94C402.223 111.907 402.391 112.018 402.424 112.186C402.457 112.357 402.346 112.519 402.178 112.555C399.732 113.037 396.854 114.212 396.608 114.236Z" fill="#E57D61"/>
<path d="M397.901 43.5772C397.853 43.5772 397.805 43.5623 397.763 43.5293C396.518 42.5435 395.374 42.8521 395.326 42.8641C395.206 42.8971 395.083 42.8311 395.05 42.7113C395.017 42.5944 395.083 42.4716 395.2 42.4356C395.257 42.4176 396.605 42.0431 398.039 43.1787C398.135 43.2566 398.153 43.3945 398.075 43.4903C398.033 43.5503 397.967 43.5772 397.901 43.5772Z" fill="#C16256"/>
<path d="M394.771 51.1939C394.801 51.1579 394.846 51.1309 394.897 51.119C396.457 50.7983 396.949 49.7256 396.97 49.6807C397.021 49.5668 397.151 49.5189 397.265 49.5668C397.379 49.6148 397.43 49.7466 397.379 49.8575C397.355 49.9114 396.781 51.1849 394.987 51.5534C394.867 51.5774 394.747 51.4995 394.723 51.3796C394.708 51.3107 394.729 51.2418 394.771 51.1939Z" fill="#C16256"/>
<path d="M391.334 44.0623C391.292 44.0623 391.247 44.0503 391.208 44.0233C391.106 43.9544 391.079 43.8166 391.151 43.7147C391.181 43.6727 391.884 42.6659 393.045 42.7199C393.168 42.7259 393.264 42.8307 393.258 42.9536C393.252 43.0764 393.147 43.1723 393.024 43.1663C392.112 43.1304 391.523 43.9604 391.517 43.9694C391.478 44.0293 391.406 44.0623 391.334 44.0623Z" fill="#C16256"/>
<path d="M190.602 288.942C190.602 288.942 193.108 289.313 194.848 287.995L192.486 287.06L190.602 288.942Z" fill="#F99370"/>
<path d="M100.556 436.413L100.228 436.243C100.228 436.47 99.9434 437.267 99.7153 437.267L90.0037 437.465C89.7726 437.465 89.6315 437.034 89.6315 436.806L88.8032 436.569C88.8032 435.122 88.9233 434.595 89.5655 433.474C91.9274 430.349 89.1093 416.37 89.1904 412.718C88.6082 411.72 99.4152 412.502 99.5682 412.268C99.8113 412.268 100.003 412.475 99.9824 412.715L98.7099 428.689C98.1367 431.721 100.475 433.555 100.556 436.413Z" fill="#F99370"/>
<path d="M148.586 437.807H129.244C127.554 437.738 127.569 436.024 127.878 434.694C128.944 429.899 127.062 418.888 126.711 413.958C126.618 413.057 127.329 412.271 128.241 412.271C142.515 412.128 137.653 410.162 136.816 425.516C136.389 433.327 142.323 432.704 145.981 433.294C148.388 433.465 152.415 436.74 148.586 437.807Z" fill="#F99370"/>
<path d="M127.143 435.808C127.194 436.752 127.665 437.831 128.764 437.807H148.826C153.559 436.06 146.758 429.806 137.497 429.842C133.253 431.002 128.196 430.199 128.196 430.199C128.196 430.199 126.831 431.931 127.143 435.808Z" fill="#103663"/>
<path d="M90.3403 437.807H98.9145C103.095 437.238 100.109 429.852 94.6259 429.627C89.1188 429.399 86.1657 437.247 90.3403 437.807Z" fill="#103663"/>
<path d="M144.046 435.101C144.214 435.101 144.373 435.002 144.442 434.834C145.213 432.941 146.603 432.359 146.663 432.335C147.746 430.63 144.595 431.844 143.652 434.517C143.532 434.79 143.748 435.107 144.046 435.101Z" fill="#E8C0A6"/>
<path d="M140.732 434.703C140.915 434.703 141.083 434.586 141.14 434.403C141.821 432.21 143.739 431.194 143.76 431.185C144.744 429.205 141.08 431.326 140.327 434.155C140.237 434.421 140.45 434.709 140.732 434.703Z" fill="#E8C0A6"/>
<path d="M136.959 434.241C137.136 434.241 137.301 434.13 137.361 433.956C138.156 431.676 139.996 430.435 140.014 430.423C141.104 427.496 135.101 433.459 136.959 434.241Z" fill="#E8C0A6"/>
<path d="M91.5558 432.368C93.9387 430.93 97.591 432.227 97.606 432.329C100.094 431.796 94.2118 429.704 91.3397 431.577C90.9645 431.778 91.1356 432.383 91.5558 432.368Z" fill="#E8C0A6"/>
<path d="M150.231 435.808H127.143C127.227 436.509 127.422 437.192 127.776 437.807H148.829C149.865 437.807 150.6 436.773 150.231 435.808Z" fill="#0F2E54"/>
<path d="M90.34 437.807H98.9142C100.007 437.807 100.883 436.893 100.817 435.808H88.4373C88.3743 436.89 89.2506 437.807 90.34 437.807Z" fill="#0F2E54"/>
<path d="M134.781 289.721C153.664 304.077 177.073 298.198 190.467 288.211L191.715 282.569C160.816 284.954 153.271 269.771 133.529 262.879L135.249 269.1C135.246 269.097 134.571 289.26 134.781 289.721Z" fill="#007DFE"/>
<path d="M139.256 425.021C131.978 427.739 123.911 425.665 123.911 425.665C124.013 424.685 124.106 423.691 124.19 422.681C126.939 388.755 117.737 340.942 116.792 337.463C116.792 337.46 116.789 337.457 116.789 337.457C116.744 337.289 116.717 337.226 116.717 337.28C110.676 376.596 104.692 409.197 101.886 424.419C94.7158 427.76 87.4381 422.98 87.4381 422.98C87.3931 421.608 87.3571 420.257 87.3271 418.917C85.6735 392.501 89.4579 311.445 103.155 295.615C119.046 303.465 140.897 304.694 140.897 304.694C144.546 373.791 144.369 406.818 139.256 425.021Z" fill="#1D3F70"/>
<path d="M131.218 262.019C132.125 257.249 134.324 248.664 130.72 246.548C128.184 245.164 124.607 246.914 124.925 250.078C125.195 249.967 124.517 258.723 123.574 261.024C116.102 261.959 136.305 272.536 131.218 262.019Z" fill="#F99370"/>
<path d="M124.919 249.677C124.916 249.812 124.916 249.949 124.925 250.081C125.12 249.994 124.808 254.837 124.229 258.291C127.236 260.314 130.888 260.236 131.575 260.212C132.554 255.136 134.168 248.883 130.72 246.552C128.358 245.038 124.937 246.839 124.919 249.677Z" fill="#E57D61"/>
<path d="M134.396 423.649C143.382 381.903 134.24 327.101 132.869 326.7C132.167 327.026 140.15 382.1 134.396 423.649Z" fill="#163356"/>
<path d="M94.9292 422.975L95.5624 422.693C102.576 378.268 110.262 325.091 109.29 324.333C108.236 324.479 99.9891 377.504 94.9292 422.975Z" fill="#163356"/>
<path d="M94.473 318.729C105.052 326.702 130.973 329.186 141.537 325.378C145.096 323.877 145.594 311.93 145.183 300.199C144.55 284.561 140.774 273.327 133.53 262.879C133.44 262.843 132.014 262.159 131.222 262.028C131.258 263.457 130.931 267.586 123.575 261.03C123.542 261.057 120.802 261.15 120.802 261.15C109.677 266.687 104.914 278.46 101.442 291.875C96.1176 312.454 92.3752 315.625 94.473 318.729Z" fill="#7DB2FF"/>
<path d="M127.131 422.261L124.184 422.681C126.933 388.755 117.731 340.941 116.786 337.462C117.362 338.865 121.114 348.444 123.905 366.252C126.939 385.585 127.884 412.457 127.131 422.261Z" fill="#163356"/>
<path d="M120.802 261.147C123.224 265.258 133.968 271.697 133.527 262.876C133.436 262.834 132.449 262.178 131.222 262.025C131.24 262.256 131.66 268.324 123.572 261.027C123.584 261.087 122.32 260.653 120.802 261.147Z" fill="#007DFE"/>
<path d="M123.907 425.666C123.907 425.666 131.974 427.739 139.252 425.022L140.2 421.21C140.2 421.21 131.098 424.359 124.33 420.877C124.204 422.481 124.063 424.081 123.907 425.666Z" fill="#163356"/>
<path d="M87.3208 418.915C87.3538 420.254 87.3898 421.605 87.4348 422.978C87.4348 422.978 94.7096 427.757 101.882 424.419C101.882 424.419 102.116 423.169 102.539 420.877C102.536 420.877 94.8146 423.172 87.3208 418.915Z" fill="#163356"/>
<path d="M129.576 274.667C132.908 274.667 134.78 274.044 134.894 274.005L134.48 272.803C134.441 272.818 130.432 274.131 123.661 272.782L123.412 274.029C125.816 274.508 127.884 274.667 129.576 274.667Z" fill="#007DFE"/>
<path d="M129.03 279.557C133.196 279.557 135.678 278.593 135.822 278.536L135.348 277.355C135.303 277.373 130.741 279.126 123.655 277.754L123.412 279C125.516 279.411 127.404 279.557 129.03 279.557Z" fill="#007DFE"/>
<path d="M129.832 284.405C133.566 284.405 136.116 283.357 136.276 283.291L135.78 282.119C135.726 282.143 130.255 284.369 123.746 282.104L123.326 283.303C125.694 284.13 127.917 284.405 129.832 284.405Z" fill="#007DFE"/>
<path d="M138.208 243.301C138.208 243.301 137.926 239.244 136.506 236.508L134.234 237.766L138.208 243.301Z" fill="#8E4A35"/>
<path d="M138.895 255.178C135.444 258.897 129.766 259.727 125.528 257.596C125.213 257.423 124.913 257.231 124.625 257.018H124.622C110.925 244.643 127.485 222.365 136.524 240.589C139.525 245.698 144.417 248.266 138.895 255.178Z" fill="#F99370"/>
<path d="M132.737 244.889C132.854 244.625 132.737 244.319 132.473 244.203C132.209 244.086 131.9 244.203 131.783 244.466C131.666 244.73 131.783 245.036 132.047 245.152C132.311 245.269 132.62 245.152 132.737 244.889Z" fill="#C16256"/>
<path d="M137.089 243.93C137.206 243.667 137.089 243.361 136.824 243.244C136.56 243.127 136.251 243.244 136.134 243.508C136.017 243.771 136.134 244.077 136.398 244.194C136.662 244.311 136.972 244.194 137.089 243.93Z" fill="#C16256"/>
<path d="M135.963 248.499C135.66 248.55 135.345 248.55 135.078 248.481C134.973 248.454 134.91 248.347 134.937 248.242C134.964 248.137 135.075 248.074 135.18 248.101C135.852 248.278 136.773 247.9 136.887 247.594C136.926 247.487 136.779 247.391 136.65 247.328C135.498 246.782 134.64 244.712 134.604 244.622C134.562 244.52 134.61 244.406 134.712 244.364C134.817 244.322 134.928 244.37 134.97 244.472C134.979 244.493 135.807 246.489 136.821 246.971C137.374 247.232 137.314 247.588 137.26 247.729C137.122 248.095 136.557 248.397 135.963 248.499Z" fill="#C16256"/>
<path d="M135.853 239.334C132.945 237.994 127.882 239.615 125.361 239.726C125.361 239.726 126.12 243.99 121.93 247.274C121.768 251.241 121.207 252.997 125.532 257.6C125.217 257.426 124.917 257.234 124.629 257.021H124.626C111.439 245.227 126.648 223.138 135.853 239.334Z" fill="#E57D61"/>
<path d="M137.545 230.667C135.753 227.56 130.844 226.077 126.891 230.239C123.848 233.442 120.388 233.598 120.625 236.792C114.349 240.031 117.909 246.917 117.909 246.917L121.111 246.369C124.634 243.213 124.295 238.86 124.295 238.86C125.117 238.857 125.979 238.776 126.735 238.542C129.073 237.817 132.566 237.34 135.291 238.182C138.013 239.024 139.547 234.14 137.545 230.667Z" fill="#8E4A35"/>
<path d="M117.584 249.524C118.019 251.154 119.439 252.191 120.756 251.844C122.074 251.496 122.791 249.893 122.356 248.263C121.921 246.633 120.501 245.596 119.184 245.944C117.866 246.291 117.149 247.894 117.584 249.524Z" fill="#F99370"/>
<path d="M120.63 247.178C120.576 247.16 119.331 246.755 118.68 247.423C118.515 247.594 118.407 247.816 118.356 248.086C118.356 248.086 118.356 248.086 118.356 248.089C118.35 248.113 118.344 248.137 118.341 248.164C118.269 248.664 118.38 249.323 118.674 250.135C118.707 250.225 118.8 250.279 118.893 250.261C118.905 250.258 118.914 250.255 118.926 250.252C119.028 250.216 119.082 250.102 119.046 250C118.806 249.341 118.701 248.802 118.719 248.388C119.868 248.532 120.504 249.773 120.51 249.785C120.549 249.865 120.636 249.907 120.72 249.892C120.738 249.889 120.756 249.883 120.774 249.874C120.874 249.827 120.913 249.71 120.865 249.611C120.835 249.548 120.138 248.164 118.788 247.987C118.83 247.873 118.884 247.774 118.959 247.696C119.439 247.205 120.492 247.546 120.501 247.549C120.606 247.582 120.717 247.528 120.75 247.423C120.793 247.325 120.735 247.214 120.63 247.178Z" fill="#C16256"/>
<path d="M130.018 244.307C129.976 244.313 129.934 244.31 129.892 244.292C129.775 244.244 129.718 244.109 129.766 243.989C129.796 243.917 130.522 242.222 132.641 241.745C132.764 241.718 132.89 241.796 132.92 241.919C132.947 242.045 132.869 242.168 132.746 242.195C130.867 242.617 130.222 244.1 130.195 244.163C130.162 244.244 130.093 244.292 130.018 244.307Z" fill="#C16256"/>
<path d="M137.173 242.291C137.101 242.303 137.026 242.282 136.972 242.228C136.342 241.608 135.075 241.734 135.063 241.734C134.937 241.748 134.82 241.656 134.808 241.527C134.793 241.401 134.886 241.284 135.015 241.272C135.075 241.266 136.513 241.119 137.302 241.898C137.392 241.988 137.395 242.135 137.305 242.225C137.266 242.261 137.221 242.282 137.173 242.291Z" fill="#C16256"/>
<path d="M137.164 250.806L132.173 248.553C132.173 248.553 132.005 251.214 133.968 251.843C135.843 252.442 137.164 250.806 137.164 250.806Z" fill="#F9F8F3"/>
<path d="M137.203 251.034C137.158 251.04 137.113 251.037 137.068 251.016L132.077 248.763C131.96 248.709 131.909 248.574 131.96 248.457C132.014 248.34 132.152 248.289 132.266 248.343L137.257 250.597C137.374 250.651 137.425 250.785 137.374 250.902C137.344 250.974 137.278 251.022 137.203 251.034Z" fill="#C16256"/>
<path d="M248.1 245.575L247.34 244.371L232.275 253.779C232.497 254.69 232.131 255.682 231.29 256.212C230.264 256.863 228.842 256.554 228.181 255.535C227.494 254.477 227.812 253.069 228.878 252.404C229.724 251.877 230.783 251.975 231.516 252.575L246.581 243.166L245.822 241.961L226.183 245.674C224.355 246.019 222.722 247.028 221.6 248.509L215.682 256.311L218.842 261.33L222.002 266.349L231.63 264.444C233.454 264.081 235.078 263.059 236.188 261.57L248.1 245.575Z" fill="white"/>
<path d="M81.8589 347.552L81.2347 346.563C78.9148 342.878 80.0342 338.021 83.7346 335.71L212.972 255.011L221.99 269.343L92.756 350.042C89.0556 352.352 84.1788 351.238 81.8589 347.552Z" fill="#3A72AA"/>
<path d="M218.05 269.097L211.477 258.651C210.655 257.345 211.051 255.622 212.363 254.804C213.674 253.986 215.403 254.382 216.225 255.685L222.798 266.13C223.62 267.437 223.224 269.16 221.912 269.978C220.601 270.799 218.872 270.403 218.05 269.097Z" fill="#255084"/>
<path d="M108.17 320.452L106.366 321.579C106.366 321.579 107.909 323.182 109.238 323.817C110.538 324.44 111.81 325.055 113.224 325.504C115.216 328.033 107.654 325.369 106.732 325.252C106.726 325.27 106.726 325.267 106.72 325.285C108.509 326.619 110.382 327.85 112.353 328.902C113.806 332 106.312 327.161 105.454 326.763C105.451 326.772 105.451 326.769 105.448 326.778C106.903 328.339 108.56 329.708 110.355 330.868C111.543 334.131 104.361 328.623 103.653 327.937C103.644 327.94 103.638 327.946 103.629 327.949C104.583 329.358 105.73 330.634 106.936 331.836C107.633 335.081 102.11 329.343 101.549 328.644C100.994 328.393 97.9719 326.076 96.1382 322.666C95.538 321.549 98.4671 318.75 99.7335 318.873C99.7335 318.873 103.074 319.104 103.632 319.221C104.922 319.302 106.813 320.057 108.17 320.452Z" fill="#F99370"/>
<path d="M192.796 287.552C194.566 289.386 196.655 286.866 193.939 286.215L193.972 286.245C192.997 285.271 191.862 286.662 192.796 287.552Z" fill="#F99370"/>
<path d="M194.308 286.731C196.691 288.424 197.865 285.071 195.326 285.221C195.38 285.233 195.097 285.134 195.149 285.146C193.984 284.373 193.27 286.081 194.308 286.731Z" fill="#F99370"/>
<path d="M195.917 285.919L196.844 286.219C198.155 286.593 198.221 284.631 197.12 284.352L196.193 284.052C194.884 283.678 194.818 285.64 195.917 285.919Z" fill="#F99370"/>
<path d="M197.207 284.996L198.135 285.295C199.446 285.67 199.512 283.707 198.411 283.429L197.483 283.129C196.172 282.754 196.106 284.717 197.207 284.996Z" fill="#F99370"/>
<path d="M120.802 261.147C120.802 261.147 103.275 259.508 87.6632 275.683C76.0699 287.692 68.6811 308.125 96.1054 322.762C96.1054 322.762 97.0267 319.823 99.7337 318.873C99.7337 318.873 94.7909 307.304 96.1564 301.092C97.6659 294.219 106.162 287.647 112.693 279.56C118.389 272.498 120.802 261.147 120.802 261.147Z" fill="#007DFE"/>
</svg>
