<svg width="536" height="536" viewBox="0 0 536 536" fill="none" xmlns="http://www.w3.org/2000/svg">
<g clip-path="url(#clip0_111_954)">
<path d="M512.11 111.909C512.11 111.698 513.08 111.536 514.287 111.536C515.493 111.536 516.463 111.71 516.463 111.909C516.463 112.121 515.493 112.282 514.287 112.282C513.093 112.295 512.11 112.121 512.11 111.909Z" fill="#E0E0E0"/>
<path d="M503.405 111.909C503.405 111.698 504.375 111.536 505.582 111.536C506.788 111.536 507.758 111.71 507.758 111.909C507.758 112.121 506.788 112.282 505.582 112.282C504.375 112.295 503.405 112.121 503.405 111.909Z" fill="#E0E0E0"/>
<path d="M494.7 111.909C494.7 111.698 495.67 111.536 496.876 111.536C498.083 111.536 499.053 111.71 499.053 111.909C499.053 112.121 498.083 112.282 496.876 112.282C495.67 112.295 494.7 112.121 494.7 111.909Z" fill="#E0E0E0"/>
<path d="M485.995 111.909C485.995 111.698 486.965 111.536 488.171 111.536C489.378 111.536 490.348 111.71 490.348 111.909C490.348 112.121 489.378 112.282 488.171 112.282C486.965 112.295 485.995 112.121 485.995 111.909Z" fill="#E0E0E0"/>
<path d="M477.29 111.909C477.29 111.698 478.26 111.536 479.466 111.536C480.673 111.536 481.643 111.71 481.643 111.909C481.643 112.121 480.673 112.282 479.466 112.282C478.26 112.295 477.29 112.121 477.29 111.909Z" fill="#E0E0E0"/>
<path d="M468.572 111.909C468.572 111.698 469.542 111.536 470.749 111.536C471.955 111.536 472.925 111.71 472.925 111.909C472.925 112.121 471.955 112.282 470.749 112.282C469.555 112.295 468.572 112.121 468.572 111.909Z" fill="#E0E0E0"/>
<path d="M459.867 111.909C459.867 111.698 460.837 111.536 462.043 111.536C463.25 111.536 464.22 111.71 464.22 111.909C464.22 112.121 463.25 112.282 462.043 112.282C460.85 112.295 459.867 112.121 459.867 111.909Z" fill="#E0E0E0"/>
<path d="M451.162 111.909C451.162 111.698 452.132 111.536 453.338 111.536C454.545 111.536 455.515 111.71 455.515 111.909C455.515 112.121 454.545 112.282 453.338 112.282C452.132 112.295 451.162 112.121 451.162 111.909Z" fill="#E0E0E0"/>
<path d="M442.457 111.909C442.457 111.698 443.427 111.536 444.633 111.536C445.84 111.536 446.81 111.71 446.81 111.909C446.81 112.121 445.84 112.282 444.633 112.282C443.427 112.295 442.457 112.121 442.457 111.909Z" fill="#E0E0E0"/>
<path d="M433.752 111.909C433.752 111.698 434.722 111.536 435.928 111.536C437.135 111.536 438.105 111.71 438.105 111.909C438.105 112.121 437.135 112.282 435.928 112.282C434.722 112.295 433.752 112.121 433.752 111.909Z" fill="#E0E0E0"/>
<path d="M425.034 111.909C425.034 111.698 426.004 111.536 427.21 111.536C428.417 111.536 429.387 111.71 429.387 111.909C429.387 112.121 428.417 112.282 427.21 112.282C426.017 112.295 425.034 112.121 425.034 111.909Z" fill="#E0E0E0"/>
<path d="M416.329 111.909C416.329 111.698 417.299 111.536 418.505 111.536C419.712 111.536 420.682 111.71 420.682 111.909C420.682 112.121 419.712 112.282 418.505 112.282C417.312 112.295 416.329 112.121 416.329 111.909Z" fill="#E0E0E0"/>
<path d="M410.124 109.41C410.335 109.41 410.497 110.38 410.497 111.586C410.497 111.698 410.497 111.797 410.497 111.909L410.124 111.536C411.168 111.561 411.977 111.723 411.977 111.909C411.977 112.096 411.181 112.257 410.124 112.282L409.75 112.295V111.909C409.75 111.797 409.75 111.685 409.75 111.586C409.75 110.38 409.925 109.41 410.124 109.41Z" fill="#E0E0E0"/>
<path d="M410.124 100.705C410.335 100.705 410.497 101.675 410.497 102.881C410.497 104.087 410.323 105.057 410.124 105.057C409.912 105.057 409.75 104.087 409.75 102.881C409.75 101.675 409.925 100.705 410.124 100.705Z" fill="#E0E0E0"/>
<path d="M410.124 91.9995C410.335 91.9995 410.497 92.9695 410.497 94.1758C410.497 95.3821 410.323 96.3521 410.124 96.3521C409.912 96.3521 409.75 95.3821 409.75 94.1758C409.75 92.9695 409.925 91.9995 410.124 91.9995Z" fill="#E0E0E0"/>
<path d="M410.124 83.2944C410.335 83.2944 410.497 84.2644 410.497 85.4707C410.497 86.677 410.323 87.647 410.124 87.647C409.912 87.647 409.75 86.677 409.75 85.4707C409.75 84.2644 409.925 83.2944 410.124 83.2944Z" fill="#E0E0E0"/>
<path d="M410.124 74.5767C410.335 74.5767 410.497 75.5467 410.497 76.7529C410.497 77.9592 410.323 78.9292 410.124 78.9292C409.912 78.9292 409.75 77.9592 409.75 76.7529C409.75 75.5591 409.925 74.5767 410.124 74.5767Z" fill="#E0E0E0"/>
<path d="M410.124 65.8716C410.335 65.8716 410.497 66.8416 410.497 68.0479C410.497 69.2541 410.323 70.2241 410.124 70.2241C409.912 70.2241 409.75 69.2541 409.75 68.0479C409.75 66.854 409.925 65.8716 410.124 65.8716Z" fill="#E0E0E0"/>
<path d="M410.124 57.1665C410.335 57.1665 410.497 58.1365 410.497 59.3428C410.497 60.5491 410.323 61.5191 410.124 61.5191C409.912 61.5191 409.75 60.5491 409.75 59.3428C409.75 58.1365 409.925 57.1665 410.124 57.1665Z" fill="#E0E0E0"/>
<path d="M410.124 48.4614C410.335 48.4614 410.497 49.4314 410.497 50.6377C410.497 51.844 410.323 52.814 410.124 52.814C409.912 52.814 409.75 51.844 409.75 50.6377C409.75 49.4314 409.925 48.4614 410.124 48.4614Z" fill="#E0E0E0"/>
<path d="M410.124 39.7563C410.335 39.7563 410.497 40.7263 410.497 41.9326C410.497 43.1389 410.323 44.1089 410.124 44.1089C409.912 44.1089 409.75 43.1389 409.75 41.9326C409.75 40.7263 409.925 39.7563 410.124 39.7563Z" fill="#E0E0E0"/>
<path d="M410.124 31.0386C410.335 31.0386 410.497 32.0086 410.497 33.2149C410.497 34.4211 410.323 35.3911 410.124 35.3911C409.912 35.3911 409.75 34.4211 409.75 33.2149C409.75 32.021 409.925 31.0386 410.124 31.0386Z" fill="#E0E0E0"/>
<path d="M410.124 22.3335C410.335 22.3335 410.497 23.3035 410.497 24.5098C410.497 25.7161 410.323 26.6861 410.124 26.6861C409.912 26.6861 409.75 25.7161 409.75 24.5098C409.75 23.3159 409.925 22.3335 410.124 22.3335Z" fill="#E0E0E0"/>
<path d="M410.124 13.6284C410.335 13.6284 410.497 14.5984 410.497 15.8047C410.497 17.011 410.323 17.981 410.124 17.981C409.912 17.981 409.75 17.011 409.75 15.8047C409.75 14.5984 409.925 13.6284 410.124 13.6284Z" fill="#E0E0E0"/>
<path d="M410.783 5.56969C410.783 5.66917 410.534 5.76866 410.136 5.84328L410.41 5.56969C410.472 5.96764 410.522 6.50238 410.522 7.0993C410.522 8.30559 410.347 9.27559 410.148 9.27559C409.937 9.27559 409.775 8.30559 409.775 7.0993C409.775 6.50238 409.813 5.96764 409.887 5.56969L409.937 5.25879L410.148 5.2961C410.534 5.37071 410.783 5.4702 410.783 5.56969Z" fill="#E0E0E0"/>
<path d="M419.488 5.56985C419.488 5.78126 418.518 5.94293 417.312 5.94293C416.105 5.94293 415.135 5.76883 415.135 5.56985C415.135 5.35844 416.105 5.19678 417.312 5.19678C418.518 5.19678 419.488 5.37088 419.488 5.56985Z" fill="#E0E0E0"/>
<path d="M428.193 5.56985C428.193 5.78126 427.223 5.94293 426.017 5.94293C424.81 5.94293 423.84 5.76883 423.84 5.56985C423.84 5.35844 424.81 5.19678 426.017 5.19678C427.223 5.19678 428.193 5.37088 428.193 5.56985Z" fill="#E0E0E0"/>
<path d="M436.898 5.56985C436.898 5.78126 435.928 5.94293 434.722 5.94293C433.515 5.94293 432.545 5.76883 432.545 5.56985C432.545 5.35844 433.515 5.19678 434.722 5.19678C435.928 5.19678 436.898 5.37088 436.898 5.56985Z" fill="#E0E0E0"/>
<path d="M445.616 5.56985C445.616 5.78126 444.646 5.94293 443.439 5.94293C442.233 5.94293 441.263 5.76883 441.263 5.56985C441.263 5.35844 442.233 5.19678 443.439 5.19678C444.633 5.19678 445.616 5.37088 445.616 5.56985Z" fill="#E0E0E0"/>
<path d="M454.321 5.56985C454.321 5.78126 453.351 5.94293 452.145 5.94293C450.938 5.94293 449.968 5.76883 449.968 5.56985C449.968 5.35844 450.938 5.19678 452.145 5.19678C453.338 5.19678 454.321 5.37088 454.321 5.56985Z" fill="#E0E0E0"/>
<path d="M463.026 5.56985C463.026 5.78126 462.056 5.94293 460.85 5.94293C459.643 5.94293 458.673 5.76883 458.673 5.56985C458.673 5.35844 459.643 5.19678 460.85 5.19678C462.056 5.19678 463.026 5.37088 463.026 5.56985Z" fill="#E0E0E0"/>
<path d="M471.731 5.56985C471.731 5.78126 470.761 5.94293 469.555 5.94293C468.348 5.94293 467.378 5.76883 467.378 5.56985C467.378 5.35844 468.348 5.19678 469.555 5.19678C470.761 5.19678 471.731 5.37088 471.731 5.56985Z" fill="#E0E0E0"/>
<path d="M480.436 5.56985C480.436 5.78126 479.466 5.94293 478.26 5.94293C477.053 5.94293 476.083 5.76883 476.083 5.56985C476.083 5.35844 477.053 5.19678 478.26 5.19678C479.466 5.19678 480.436 5.37088 480.436 5.56985Z" fill="#E0E0E0"/>
<path d="M489.141 5.56985C489.141 5.78126 488.171 5.94293 486.965 5.94293C485.759 5.94293 484.789 5.76883 484.789 5.56985C484.789 5.35844 485.759 5.19678 486.965 5.19678C488.171 5.19678 489.141 5.37088 489.141 5.56985Z" fill="#E0E0E0"/>
<path d="M497.859 5.56985C497.859 5.78126 496.889 5.94293 495.683 5.94293C494.476 5.94293 493.506 5.76883 493.506 5.56985C493.506 5.35844 494.476 5.19678 495.683 5.19678C496.876 5.19678 497.859 5.37088 497.859 5.56985Z" fill="#E0E0E0"/>
<path d="M506.564 5.56985C506.564 5.78126 505.594 5.94293 504.388 5.94293C503.181 5.94293 502.211 5.76883 502.211 5.56985C502.211 5.35844 503.181 5.19678 504.388 5.19678C505.582 5.19678 506.564 5.37088 506.564 5.56985Z" fill="#E0E0E0"/>
<path d="M515.269 5.56985C515.269 5.78126 514.299 5.94293 513.093 5.94293C511.887 5.94293 510.917 5.76883 510.917 5.56985C510.917 5.35844 511.887 5.19678 513.093 5.19678C514.299 5.19678 515.269 5.37088 515.269 5.56985Z" fill="#E0E0E0"/>
<path d="M516.463 13.0811C516.251 13.0811 516.09 12.1111 516.09 10.9048C516.09 9.69852 516.264 8.72852 516.463 8.72852C516.674 8.72852 516.836 9.69852 516.836 10.9048C516.848 12.1111 516.674 13.0811 516.463 13.0811Z" fill="#E0E0E0"/>
<path d="M516.463 21.7862C516.251 21.7862 516.09 20.8162 516.09 19.6099C516.09 18.4036 516.264 17.4336 516.463 17.4336C516.674 17.4336 516.836 18.4036 516.836 19.6099C516.848 20.8162 516.674 21.7862 516.463 21.7862Z" fill="#E0E0E0"/>
<path d="M516.463 30.4912C516.251 30.4912 516.09 29.5212 516.09 28.315C516.09 27.1087 516.264 26.1387 516.463 26.1387C516.674 26.1387 516.836 27.1087 516.836 28.315C516.848 29.5212 516.674 30.4912 516.463 30.4912Z" fill="#E0E0E0"/>
<path d="M516.463 39.209C516.251 39.209 516.09 38.239 516.09 37.0327C516.09 35.8264 516.264 34.8564 516.463 34.8564C516.674 34.8564 516.836 35.8264 516.836 37.0327C516.848 38.2266 516.674 39.209 516.463 39.209Z" fill="#E0E0E0"/>
<path d="M516.463 47.9141C516.251 47.9141 516.09 46.9441 516.09 45.7378C516.09 44.5315 516.264 43.5615 516.463 43.5615C516.674 43.5615 516.836 44.5315 516.836 45.7378C516.848 46.9317 516.674 47.9141 516.463 47.9141Z" fill="#E0E0E0"/>
<path d="M516.463 56.6192C516.251 56.6192 516.09 55.6492 516.09 54.4429C516.09 53.2366 516.264 52.2666 516.463 52.2666C516.674 52.2666 516.836 53.2366 516.836 54.4429C516.848 55.6492 516.674 56.6192 516.463 56.6192Z" fill="#E0E0E0"/>
<path d="M516.463 65.3242C516.251 65.3242 516.09 64.3542 516.09 63.148C516.09 61.9417 516.264 60.9717 516.463 60.9717C516.674 60.9717 516.836 61.9417 516.836 63.148C516.848 64.3542 516.674 65.3242 516.463 65.3242Z" fill="#E0E0E0"/>
<path d="M516.463 74.0293C516.251 74.0293 516.09 73.0593 516.09 71.853C516.09 70.6468 516.264 69.6768 516.463 69.6768C516.674 69.6768 516.836 70.6468 516.836 71.853C516.848 73.0593 516.674 74.0293 516.463 74.0293Z" fill="#E0E0E0"/>
<path d="M516.463 82.7471C516.251 82.7471 516.09 81.7771 516.09 80.5708C516.09 79.3645 516.264 78.3945 516.463 78.3945C516.674 78.3945 516.836 79.3645 516.836 80.5708C516.848 81.7647 516.674 82.7471 516.463 82.7471Z" fill="#E0E0E0"/>
<path d="M516.463 91.4522C516.251 91.4522 516.09 90.4822 516.09 89.2759C516.09 88.0696 516.264 87.0996 516.463 87.0996C516.674 87.0996 516.836 88.0696 516.836 89.2759C516.848 90.4697 516.674 91.4522 516.463 91.4522Z" fill="#E0E0E0"/>
<path d="M516.463 100.157C516.251 100.157 516.09 99.1873 516.09 97.981C516.09 96.7747 516.264 95.8047 516.463 95.8047C516.674 95.8047 516.836 96.7747 516.836 97.981C516.848 99.1873 516.674 100.157 516.463 100.157Z" fill="#E0E0E0"/>
<path d="M516.463 108.862C516.251 108.862 516.09 107.892 516.09 106.686C516.09 105.48 516.264 104.51 516.463 104.51C516.674 104.51 516.836 105.48 516.836 106.686C516.848 107.892 516.674 108.862 516.463 108.862Z" fill="#E0E0E0"/>
<path d="M520.405 106.897H512.533V114.769H520.405V106.897Z" fill="#E0E0E0"/>
<path d="M414.066 107.979H406.194V115.851H414.066V107.979Z" fill="#E0E0E0"/>
<path d="M520.405 0.869141H512.533V8.74107H520.405V0.869141Z" fill="#E0E0E0"/>
<path d="M414.066 1.64014H406.194V9.51206H414.066V1.64014Z" fill="#E0E0E0"/>
<path d="M102.235 141.009C115.989 128.959 117.233 109.261 114.733 91.9498C114.311 89.0647 114.298 85.9682 112.632 83.5805C110.965 81.1928 107.558 79.8 105.096 81.3171C103.056 82.5732 102.397 85.1723 101.415 87.3859C100.121 90.3207 97.9823 92.8577 95.3335 94.636C93.5924 95.7925 91.3788 96.6382 89.4388 95.8298C86.79 94.723 86.106 91.3032 85.8076 88.418C85.2479 83.0333 84.6883 77.661 84.1287 72.2762C83.8302 69.3911 83.5069 66.4438 82.3131 63.8074C81.1192 61.171 78.8559 58.8455 76.0205 58.3853C73.1975 57.9252 69.9766 59.8776 69.7031 62.7628C69.5911 63.969 69.9642 65.1629 70.014 66.3567C70.0637 67.563 69.6533 68.9434 68.5589 69.4035C67.4397 69.8637 66.1961 69.1797 65.251 68.4335C61.9555 65.8469 59.518 62.3275 57.2174 58.7957C54.9168 55.2763 52.6659 51.6575 49.6191 48.7724C46.5723 45.8997 42.5555 43.7856 38.4019 44.0094C34.2483 44.2333 30.132 47.2676 29.5351 51.4337C28.9382 55.6121 31.7611 59.4797 34.7084 62.4892C39.0734 66.9537 44.0851 70.7715 49.5196 73.7934C50.502 74.3406 51.5591 74.9251 52.0316 75.9573C52.8648 77.8102 51.2606 79.9243 49.4325 80.7575C47.3557 81.7151 45.0053 81.7399 42.7793 82.2623C40.5657 82.7721 38.2278 84.0406 37.6184 86.2542C36.7603 89.3259 39.5709 92.1488 42.2197 93.9023C47.5298 97.4216 53.4244 100.008 59.5802 101.525C61.7814 102.073 64.0945 102.508 65.9723 103.801C67.8501 105.107 69.1683 107.582 68.36 109.721C67.5516 111.872 64.965 112.817 62.7016 112.643C60.4383 112.482 58.3118 111.487 56.1106 110.927C51.9819 109.87 46.8956 110.703 44.7318 114.409C43.3141 116.847 43.513 119.993 44.6447 122.592C45.7888 125.179 47.7537 127.305 49.8056 129.233C56.9811 135.985 65.7733 141.084 75.3241 143.26C84.85 145.424 93.4681 145.35 102.235 141.009Z" fill="#E0E0E0"/>
<path d="M103.889 153.856C102.497 147.041 100.096 139.082 96.5522 130.601C93.0328 122.119 88.3942 113.141 83.2209 103.913C81.9151 101.613 80.6342 99.3369 79.3658 97.0984C78.0973 94.86 76.8413 92.6464 75.4733 90.5571C72.7623 86.3662 69.8274 82.536 66.9423 78.9918C64.0447 75.4475 61.172 72.1769 58.461 69.155C55.7375 66.133 53.1633 63.3598 50.6886 60.9348C45.7764 56.0599 41.3492 52.6152 38.2153 50.3643C36.6484 49.2326 35.4048 48.3994 34.5592 47.8398C34.1488 47.5787 33.8255 47.3672 33.5892 47.218C33.3653 47.0812 33.2534 47.019 33.2534 47.019C33.2534 47.0315 33.3529 47.1061 33.5643 47.2678C33.8006 47.4294 34.1115 47.6533 34.5094 47.9393C35.3427 48.5238 36.5614 49.3819 38.1034 50.5384C41.1875 52.839 45.565 56.3211 50.4274 61.2084C52.8648 63.6458 55.4266 66.4191 58.1252 69.4659C60.8238 72.5126 63.6716 75.7709 66.5568 79.3275C69.4295 82.8718 72.3395 86.6896 75.0256 90.868C76.3811 92.9448 77.6247 95.146 78.8932 97.3845C80.1617 99.6229 81.4426 101.899 82.7359 104.199C87.8968 113.414 92.5354 122.368 96.0796 130.825C99.6363 139.269 102.061 147.178 103.491 153.955" fill="#FAFAFA"/>
<path d="M75.3241 90.5569C75.3614 90.5569 75.4111 90.1092 75.4733 89.3009C75.5355 88.4926 75.5852 87.3111 75.635 85.8437C75.722 82.9213 75.7096 78.892 75.6847 74.4524C75.6598 70.0004 75.6972 65.9836 75.8339 63.0736C75.8961 61.6186 75.9583 60.4496 76.0205 59.6288C76.0702 58.8205 76.0827 58.3604 76.0454 58.3604C76.0081 58.3604 75.9334 58.7956 75.8215 59.6039C75.7096 60.4123 75.5852 61.5813 75.4733 63.0487C75.237 65.9587 75.1375 70.0004 75.1624 74.4524C75.1997 78.8423 75.237 82.8093 75.2743 85.8437C75.2743 87.2117 75.2868 88.3682 75.2868 89.2884C75.2743 90.0968 75.2868 90.5569 75.3241 90.5569Z" fill="#FAFAFA"/>
<path d="M37.4814 87.7092C37.4814 87.7465 38.0162 87.7465 38.9738 87.7216C39.9313 87.6967 41.3241 87.6594 43.0403 87.6719C46.4726 87.6594 51.2231 87.8211 56.4586 88.2191C61.6942 88.6294 66.4074 89.2015 69.8148 89.7114C71.5185 89.9601 72.8865 90.1964 73.844 90.3456C74.7892 90.5073 75.3239 90.5819 75.3363 90.5446C75.3488 90.5073 74.8265 90.3705 73.8938 90.1466C72.9486 89.9228 71.5931 89.6368 69.8894 89.3383C66.4944 88.7289 61.7688 88.0947 56.5208 87.6843C51.2729 87.2864 46.5099 87.1869 43.0652 87.2988C41.3366 87.3361 39.9438 87.4356 38.9862 87.5227C38.0038 87.6097 37.4814 87.6719 37.4814 87.7092Z" fill="#FAFAFA"/>
<path d="M96.0175 129.979C96.0299 129.979 96.1045 129.817 96.2165 129.494C96.3533 129.108 96.5025 128.648 96.7015 128.076C97.1119 126.845 97.6715 125.054 98.3306 122.828C99.6488 118.388 101.278 112.183 102.994 105.318C104.698 98.4536 106.277 92.2481 107.496 87.7836C108.093 85.6073 108.59 83.829 108.963 82.4983C109.125 81.9263 109.249 81.4537 109.349 81.0558C109.436 80.72 109.473 80.5459 109.448 80.5459C109.436 80.5459 109.361 80.7076 109.249 81.0309C109.113 81.4164 108.963 81.8765 108.764 82.4362C108.354 83.6673 107.794 85.4581 107.135 87.6841C105.817 92.1237 104.188 98.3292 102.472 105.194C100.768 112.058 99.1886 118.264 97.9699 122.728C97.3606 124.905 96.8756 126.683 96.5025 128.014C96.3408 128.586 96.2165 129.071 96.117 129.456C96.0424 129.792 96.0051 129.966 96.0175 129.979Z" fill="#FAFAFA"/>
<path d="M44.9927 119.533C44.9927 119.545 45.1668 119.607 45.5025 119.682C45.9005 119.769 46.3979 119.868 46.9824 120.005C48.3504 120.291 50.2033 120.664 52.4418 121.137C57.0555 122.095 63.4103 123.475 70.4365 125.029C77.4628 126.571 83.8424 127.915 88.4686 128.773C90.7817 129.208 92.6595 129.531 93.9653 129.73C94.5622 129.817 95.0596 129.892 95.47 129.954C95.8182 130.004 95.9923 130.016 96.0048 129.991C96.0048 129.979 95.8307 129.917 95.4949 129.842C95.0969 129.755 94.6119 129.656 94.015 129.519C92.6471 129.233 90.7941 128.86 88.5557 128.387C83.9419 127.43 77.5872 126.049 70.5609 124.495C63.5346 122.953 57.1674 121.622 52.5288 120.764C50.2158 120.329 48.3379 120.005 47.0322 119.806C46.4352 119.719 45.9378 119.645 45.5274 119.582C45.1792 119.533 45.0051 119.508 44.9927 119.533Z" fill="#FAFAFA"/>
<path d="M386.494 489.633C446.981 429.145 446.981 331.076 386.494 270.588C326.006 210.101 227.937 210.101 167.449 270.588C106.962 331.076 106.962 429.145 167.449 489.632C227.937 550.12 326.006 550.12 386.494 489.633Z" fill="#E0E0E0"/>
<path d="M276.973 502.347C209.57 502.347 154.74 447.517 154.74 380.114C154.74 312.712 209.57 257.882 276.973 257.882C344.375 257.882 399.205 312.712 399.205 380.114C399.205 447.505 344.375 502.347 276.973 502.347ZM276.973 259.125C210.254 259.125 155.984 313.396 155.984 380.114C155.984 446.833 210.254 501.103 276.973 501.103C343.691 501.103 397.962 446.833 397.962 380.114C397.962 313.396 343.679 259.125 276.973 259.125Z" fill="#FAFAFA"/>
<path d="M276.973 521.834C198.826 521.834 135.241 458.249 135.241 380.102C135.241 301.955 198.826 238.37 276.973 238.37C355.12 238.37 418.705 301.955 418.705 380.102C418.705 458.249 355.12 521.834 276.973 521.834ZM276.973 239.626C199.509 239.626 136.484 302.651 136.484 380.115C136.484 457.578 199.509 520.603 276.973 520.603C354.436 520.603 417.461 457.578 417.461 380.115C417.449 302.651 354.436 239.626 276.973 239.626Z" fill="#FAFAFA"/>
<path d="M276.972 486.093C218.536 486.093 170.994 438.551 170.994 380.115C170.994 321.678 218.536 274.136 276.972 274.136C335.409 274.136 382.951 321.678 382.951 380.115C382.951 438.551 335.409 486.093 276.972 486.093ZM276.972 275.367C219.22 275.367 172.237 322.35 172.237 380.102C172.237 437.854 219.22 484.837 276.972 484.837C334.725 484.837 381.708 437.854 381.708 380.102C381.708 322.35 334.725 275.367 276.972 275.367Z" fill="#FAFAFA"/>
<path d="M276.973 469.491C227.689 469.491 187.596 429.398 187.596 380.115C187.596 330.831 227.689 290.738 276.973 290.738C326.256 290.738 366.349 330.831 366.349 380.115C366.349 429.398 326.256 469.491 276.973 469.491ZM276.973 291.981C228.373 291.981 188.839 331.515 188.839 380.115C188.839 428.714 228.373 468.248 276.973 468.248C325.572 468.248 365.106 428.714 365.106 380.115C365.106 331.515 325.572 291.981 276.973 291.981Z" fill="#FAFAFA"/>
<path d="M276.973 452.467C237.078 452.467 204.621 420.009 204.621 380.115C204.621 340.22 237.078 307.763 276.973 307.763C316.867 307.763 349.325 340.22 349.325 380.115C349.325 420.009 316.867 452.467 276.973 452.467ZM276.973 308.994C237.762 308.994 205.864 340.892 205.864 380.102C205.864 419.313 237.762 451.211 276.973 451.211C316.183 451.211 348.081 419.313 348.081 380.102C348.081 340.892 316.183 308.994 276.973 308.994Z" fill="#FAFAFA"/>
<path d="M276.972 437.146C245.522 437.146 219.941 411.565 219.941 380.115C219.941 348.664 245.522 323.083 276.972 323.083C308.423 323.083 334.004 348.664 334.004 380.115C334.004 411.553 308.41 437.146 276.972 437.146ZM276.972 324.315C246.206 324.315 221.185 349.348 221.185 380.102C221.185 410.869 246.206 435.89 276.972 435.89C307.739 435.89 332.76 410.869 332.76 380.102C332.76 349.348 307.726 324.315 276.972 324.315Z" fill="#FAFAFA"/>
<path d="M325.46 6.98779H265.357V67.0905H325.46V6.98779Z" fill="#EBEBEB"/>
<path d="M341.335 320.791L206.46 330.65L217.288 478.784L352.163 468.925L341.335 320.791Z" fill="#263238"/>
<path d="M337.274 395.622L335.297 351.835L217.479 362.891L221.981 408.382L337.274 395.622Z" fill="#455A64"/>
<path d="M361.935 471.618L210.938 481.766C205.678 482.114 201.126 478.135 200.765 472.874C200.417 467.614 204.397 463.062 209.657 462.702L360.654 452.554C365.914 452.206 370.466 456.185 370.826 461.446C371.175 466.706 367.195 471.258 361.935 471.618Z" fill="#455A64"/>
<path d="M163.482 346.003L162.587 192.706H398.135V347.582L163.482 346.003Z" fill="#455A64"/>
<path d="M212.082 316.816C221.198 316.343 230.475 318.482 239.578 319.539L234.691 318.246C233.932 309.59 237.252 300.661 243.483 294.605C249.713 288.549 258.729 285.49 267.36 286.497C273.839 287.256 280.206 290.166 286.648 289.084C298.437 287.094 304.506 273.054 315.698 268.85C330.012 263.478 346.688 276.038 360.803 270.156C366.524 267.768 370.677 262.732 375.987 259.536C380.539 256.8 387.13 256.017 390.96 259.15V226.208C387.192 233.508 377.902 237.052 369.533 236.355C360.654 235.622 352.583 231.17 344.873 226.742C337.162 222.315 329.228 217.701 320.399 216.57C307.839 214.953 295.651 220.574 283.464 224.006C272.458 227.103 260.607 228.446 249.626 225.263C249.265 225.163 248.905 225.014 248.544 224.889C247.164 226.183 245.671 227.314 243.968 228.148C234.616 232.674 222.143 226.606 213.612 232.525C208.501 236.069 206.722 242.71 202.967 247.672C196.04 256.825 179.351 259.474 169.763 253.057V328.791L169.8 338.591H174.824C182.982 326.155 197.159 317.599 212.082 316.816ZM356.376 249.264C356.936 248.816 357.595 248.518 358.291 248.344C358.378 248.319 358.465 248.269 358.565 248.244L358.465 248.294C360.691 247.809 363.265 248.679 364.509 250.632C366.163 253.243 365.056 257.186 362.283 258.553C359.51 259.921 355.704 258.392 354.647 255.482C353.802 253.144 354.908 250.383 356.936 249.003L356.376 249.264Z" fill="#FAFAFA"/>
<path d="M390.96 259.163C387.13 256.017 380.539 256.813 375.987 259.549C370.677 262.732 366.523 267.781 360.803 270.169C346.688 276.051 330.011 263.478 315.698 268.863C304.505 273.066 298.437 287.106 286.647 289.096C280.218 290.178 273.839 287.268 267.359 286.51C258.729 285.502 249.713 288.561 243.482 294.618C237.252 300.674 233.932 309.603 234.69 318.258L239.578 319.552C246.678 320.373 253.68 320.522 260.42 318.246C279.845 311.68 290.428 286.945 310.798 284.582C322.09 283.276 333.382 289.556 344.586 287.654C353.677 286.099 360.927 279.508 368.438 274.161C375.825 268.9 383.2 263.889 391.594 266.96V259.76C391.395 259.536 391.184 259.337 390.96 259.163Z" fill="#E8505B"/>
<path d="M368.451 274.148C360.94 279.496 353.69 286.099 344.599 287.641C333.394 289.556 322.103 283.264 310.811 284.57C290.441 286.92 279.858 311.655 260.433 318.234C253.693 320.509 246.691 320.36 239.59 319.539C230.487 318.495 221.21 316.343 212.095 316.816C197.159 317.587 182.995 326.143 174.824 338.604H179.774C184.537 333.654 190.829 330.234 197.681 328.555C207.618 326.13 218.574 328.245 226.893 334.189C228.808 335.557 230.599 337.111 232.415 338.653L269.499 338.691C271.14 337.77 272.782 336.85 274.461 335.992C281.176 332.585 288.849 330.222 296.211 331.776C300.738 332.734 305.016 335.209 307.565 338.728L347.26 338.765C348.579 336.129 350.854 333.977 353.677 333.119C356.674 332.212 360.132 332.547 362.681 330.744C365.666 328.642 366.225 324.563 367.432 321.131C370.802 311.593 381.683 305.412 391.607 307.29V266.923C383.213 263.876 375.838 268.876 368.451 274.148ZM333.357 330.781C327.04 333.89 318.384 330.408 315.997 323.78C314.119 318.557 316.482 312.364 320.934 309.168L319.951 309.628C321.058 308.757 322.302 308.123 323.62 307.713C324.043 307.551 324.465 307.427 324.913 307.315L324.689 307.414C329.763 306.308 335.608 308.297 338.431 312.737C342.187 318.694 339.675 327.672 333.357 330.781ZM377.393 285.751C375.701 286.584 373.376 285.652 372.742 283.873C372.232 282.443 372.903 280.764 374.135 279.931L373.799 280.093C374.147 279.819 374.545 279.645 374.968 279.533C375.017 279.521 375.08 279.483 375.129 279.471L375.067 279.496C376.423 279.197 377.99 279.732 378.748 280.926C379.768 282.518 379.084 284.918 377.393 285.751Z" fill="#E8505B"/>
<path d="M367.419 321.156C366.2 324.588 365.641 328.667 362.669 330.769C360.107 332.572 356.65 332.224 353.665 333.144C350.842 334.002 348.566 336.166 347.248 338.79L391.607 338.84V307.315C381.671 305.437 370.802 311.617 367.419 321.156Z" fill="#E8505B"/>
<path d="M197.669 328.568C190.817 330.234 184.537 333.666 179.761 338.616L232.402 338.666C230.599 337.124 228.796 335.557 226.881 334.201C218.549 328.257 207.605 326.143 197.669 328.568Z" fill="#E8505B"/>
<path d="M296.186 331.801C288.811 330.234 281.151 332.609 274.436 336.017C272.757 336.862 271.115 337.783 269.474 338.715L307.54 338.753C304.991 335.233 300.713 332.759 296.186 331.801Z" fill="#E8505B"/>
<path d="M280.815 210.128C274.187 210.625 267.111 209.481 261.216 212.553C255.943 215.301 252.735 220.898 248.407 224.939C248.768 225.064 249.129 225.2 249.489 225.312C260.47 228.496 272.321 227.153 283.327 224.056C295.514 220.624 307.702 215.015 320.262 216.62C329.091 217.751 337.025 222.365 344.736 226.792C352.446 231.219 360.517 235.671 369.396 236.405C377.766 237.101 387.043 233.557 390.823 226.257V223.41V199.11L295.626 199.06C295.154 205.614 287.406 209.643 280.815 210.128Z" fill="#E8505B"/>
<path d="M354.635 255.482C355.679 258.392 359.485 259.921 362.27 258.553C365.044 257.186 366.15 253.243 364.496 250.632C363.253 248.679 360.691 247.809 358.453 248.294L358.552 248.244C358.453 248.269 358.378 248.319 358.278 248.344C357.582 248.518 356.935 248.816 356.363 249.264L356.91 249.003C354.908 250.383 353.802 253.144 354.635 255.482Z" fill="#E8505B"/>
<path d="M324.677 307.426L324.901 307.327C324.453 307.426 324.03 307.563 323.607 307.725C322.289 308.135 321.033 308.769 319.939 309.64L320.921 309.18C316.482 312.363 314.106 318.569 315.984 323.792C318.372 330.42 327.027 333.902 333.345 330.793C339.662 327.684 342.187 318.706 338.406 312.761C335.595 308.309 329.751 306.32 324.677 307.426Z" fill="#E8505B"/>
<g opacity="0.3">
<path d="M324.677 307.426L324.901 307.327C324.453 307.426 324.03 307.563 323.607 307.725C322.289 308.135 321.033 308.769 319.939 309.64L320.921 309.18C316.482 312.363 314.106 318.569 315.984 323.792C318.372 330.42 327.027 333.902 333.345 330.793C339.662 327.684 342.187 318.706 338.406 312.761C335.595 308.309 329.751 306.32 324.677 307.426Z" fill="white"/>
</g>
<path d="M378.748 280.926C377.99 279.732 376.423 279.21 375.067 279.496L375.129 279.471C375.067 279.483 375.017 279.508 374.968 279.533C374.545 279.645 374.147 279.819 373.799 280.093L374.135 279.931C372.903 280.764 372.232 282.455 372.742 283.873C373.376 285.651 375.701 286.584 377.393 285.751C379.084 284.918 379.768 282.518 378.748 280.926Z" fill="#E8505B"/>
<path d="M202.967 247.684C206.722 242.723 208.5 236.082 213.612 232.538C222.143 226.618 234.616 232.687 243.968 228.16C245.684 227.327 247.164 226.195 248.544 224.902C252.859 220.86 256.068 215.264 261.353 212.516C267.248 209.444 274.324 210.588 280.952 210.091C287.543 209.606 295.154 205.614 295.626 199.06C295.626 199.023 295.626 199.097 295.626 199.06H260.284H169.315L169.501 252.908C169.589 252.97 169.676 253.007 169.763 253.069C179.351 259.486 196.04 256.837 202.967 247.684Z" fill="#E8505B"/>
<g opacity="0.3">
<path d="M390.96 259.163C387.13 256.017 380.539 256.813 375.987 259.549C370.677 262.732 366.523 267.781 360.803 270.169C346.688 276.051 330.011 263.478 315.698 268.863C304.505 273.066 298.437 287.106 286.647 289.096C280.218 290.178 273.839 287.268 267.359 286.51C258.729 285.502 249.713 288.561 243.482 294.618C237.252 300.674 233.932 309.603 234.69 318.258L239.578 319.552C246.678 320.373 253.68 320.522 260.42 318.246C279.845 311.68 290.428 286.945 310.798 284.582C322.09 283.276 333.382 289.556 344.586 287.654C353.677 286.099 360.927 279.508 368.438 274.161C375.825 268.9 383.2 263.889 391.594 266.96V259.76C391.395 259.536 391.184 259.337 390.96 259.163Z" fill="white"/>
</g>
<g opacity="0.3">
<path d="M260.284 199.06H169.315L169.501 252.908C169.589 252.97 169.676 253.007 169.763 253.069C179.351 259.486 196.04 256.837 202.967 247.684C206.722 242.723 208.5 236.082 213.612 232.538C222.143 226.618 234.616 232.687 243.968 228.16C245.684 227.327 247.164 226.195 248.544 224.902C252.859 220.86 256.068 215.264 261.353 212.516C267.248 209.444 274.324 210.588 280.952 210.091C287.543 209.606 295.154 205.614 295.626 199.06" fill="white"/>
</g>
<path d="M330.024 264.324C329.613 262.732 326.678 251.291 321.294 230.287L321.393 230.349C297.665 236.393 262.77 245.26 223.958 255.146L224.057 254.985C227.067 266.848 229.989 278.339 232.7 289.047L232.551 288.96C288.513 274.807 327.138 265.058 330.024 264.324C327.138 265.058 288.537 274.919 232.601 289.196L232.476 289.221L232.451 289.096C229.728 278.389 226.806 266.898 223.796 255.034L223.759 254.91L223.883 254.873C262.708 245.023 297.603 236.182 321.343 230.163L321.43 230.138L321.455 230.225C326.741 251.279 329.626 262.732 330.024 264.324Z" fill="#263238"/>
<path d="M330.865 262.398L328.346 263.038L328.986 265.557L331.505 264.917L330.865 262.398Z" fill="#455A64"/>
<path d="M233.503 287.496L230.984 288.136L231.624 290.655L234.143 290.015L233.503 287.496Z" fill="#455A64"/>
<path d="M322.183 228.198L319.664 228.838L320.304 231.357L322.823 230.718L322.183 228.198Z" fill="#455A64"/>
<path d="M273.061 240.672L270.542 241.312L271.182 243.831L273.701 243.191L273.061 240.672Z" fill="#455A64"/>
<path d="M281.743 274.871L279.224 275.511L279.864 278.03L282.383 277.39L281.743 274.871Z" fill="#455A64"/>
<path d="M229.027 269.885L226.508 270.525L227.148 273.044L229.667 272.404L229.027 269.885Z" fill="#455A64"/>
<path d="M326.494 245.118L323.975 245.758L324.615 248.277L327.134 247.637L326.494 245.118Z" fill="#455A64"/>
<path d="M224.848 253.435L222.329 254.075L222.969 256.594L225.488 255.954L224.848 253.435Z" fill="#455A64"/>
<path d="M247.847 257.982L240.833 259.76L239.988 256.439L257.945 251.875L258.791 255.196L251.777 256.974L256.304 274.807L252.374 275.802L247.847 257.982Z" fill="#263238"/>
<path d="M277.644 262.098L264.971 265.319C266.028 267.557 268.379 268.577 271.189 267.856C273.005 267.396 274.273 266.463 275.132 264.983L277.743 266.799C276.736 268.888 274.696 270.38 271.911 271.077C266.501 272.457 262.111 269.87 260.892 265.058C259.674 260.245 262.335 255.905 267.135 254.686C271.848 253.492 276.139 255.905 277.42 260.954C277.494 261.265 277.581 261.725 277.644 262.098ZM264.312 262.807L273.478 260.481C272.582 258.23 270.393 257.086 267.919 257.708C265.456 258.342 264.076 260.357 264.312 262.807Z" fill="#263238"/>
<path d="M292.903 265.53L287.344 260.991L284.595 267.644L280.429 268.701L284.633 258.914L276.599 252.485L280.802 251.415L286.1 255.706L288.712 249.413L292.791 248.381L288.749 257.807L297.168 264.46L292.903 265.53Z" fill="#263238"/>
<path d="M309.442 260.394C308.721 261.352 307.453 262.061 306.085 262.409C302.553 263.304 300.041 261.949 299.145 258.379L297.168 250.607L294.507 251.279L293.736 248.257L296.397 247.585L295.464 243.892L299.245 242.934L300.178 246.628L304.505 245.533L305.276 248.555L300.949 249.649L302.901 257.335C303.299 258.902 304.306 259.561 305.749 259.188C306.532 258.989 307.241 258.591 307.701 257.982L309.442 260.394Z" fill="#263238"/>
<path d="M328.059 256.614C328.071 256.688 306.271 262.284 279.372 269.112C252.461 275.951 230.636 281.436 230.611 281.361C230.598 281.286 252.386 275.69 279.31 268.863C306.209 262.023 328.046 256.539 328.059 256.614Z" fill="#263238"/>
<path d="M531.374 257.434C531.337 257.372 532.195 257.086 533.326 255.905C534.458 254.761 535.639 252.485 535.739 249.388C535.776 247.859 535.552 246.105 534.756 244.401C533.985 242.71 532.617 241.093 530.789 239.912C527.146 237.475 521.624 237.002 516.538 239.191C511.364 241.255 506.738 245.359 501.652 249.463C499.078 251.502 496.317 253.542 493.121 255.047C489.912 256.526 486.306 257.36 482.575 257.422C475.151 257.484 467.217 254.425 461.782 248.331C459.047 245.347 456.97 241.628 455.962 237.549C454.992 233.508 455.129 228.894 457.393 225.113C458.499 223.248 460.004 221.606 461.82 220.45C463.611 219.256 465.774 218.597 467.926 218.684C470.077 218.821 472.129 219.803 473.621 221.283C475.114 222.788 476.071 224.69 476.631 226.655C477.725 230.585 477.352 234.888 475.375 238.333C473.385 241.753 470.077 244.165 466.558 245.384C463.014 246.615 459.27 246.802 455.788 246.205C452.306 245.595 449.098 244.327 446.151 242.859C440.256 239.887 435.331 236.231 430.519 233.445C425.743 230.61 421.067 228.583 416.715 227.899C412.362 227.203 408.495 227.849 405.634 229.018C402.749 230.175 400.859 231.754 399.74 232.948C399.466 233.246 399.23 233.52 399.018 233.744C398.832 233.98 398.67 234.192 398.546 234.366C398.285 234.701 398.148 234.863 398.148 234.863C398.148 234.863 398.26 234.677 398.496 234.328C398.621 234.154 398.77 233.93 398.944 233.682C399.155 233.445 399.379 233.159 399.653 232.848C400.747 231.63 402.637 229.988 405.547 228.782C408.432 227.576 412.35 226.879 416.777 227.538C421.204 228.197 425.955 230.224 430.755 233.047C435.605 235.833 440.542 239.464 446.387 242.374C449.309 243.817 452.468 245.061 455.888 245.633C459.283 246.205 462.939 246.018 466.371 244.812C469.791 243.63 472.962 241.292 474.853 238.009C476.718 234.739 477.091 230.585 476.034 226.817C475.487 224.939 474.579 223.124 473.174 221.718C471.768 220.338 469.891 219.443 467.901 219.306C465.911 219.231 463.884 219.828 462.18 220.972C460.452 222.067 459.022 223.633 457.965 225.424C455.813 229.018 455.664 233.458 456.609 237.388C457.592 241.342 459.606 244.986 462.28 247.896C467.578 253.853 475.338 256.862 482.6 256.812C486.244 256.763 489.776 255.954 492.91 254.512C496.043 253.044 498.779 251.042 501.354 249.015C506.44 244.949 511.116 240.807 516.401 238.731C521.599 236.529 527.282 237.039 531.026 239.576C532.903 240.807 534.309 242.474 535.08 244.24C535.876 246.006 536.087 247.796 536.025 249.351C535.888 252.51 534.632 254.81 533.463 255.954C533.189 256.265 532.903 256.489 532.642 256.676C532.394 256.875 532.182 257.011 531.983 257.111C531.573 257.347 531.374 257.434 531.374 257.434Z" fill="#263238"/>
<g opacity="0.3">
<path d="M367.419 321.156C366.2 324.588 365.64 328.667 362.668 330.769C360.106 332.572 356.649 332.224 353.664 333.144C350.842 334.002 348.566 336.166 347.248 338.79L391.606 338.84V307.315C381.67 305.437 370.801 311.618 367.419 321.156Z" fill="black"/>
</g>
<g opacity="0.3">
<path d="M378.748 280.926C377.989 279.732 376.422 279.21 375.067 279.496L375.129 279.471C375.067 279.483 375.017 279.508 374.967 279.533C374.544 279.645 374.146 279.819 373.798 280.093L374.134 279.931C372.903 280.764 372.231 282.455 372.741 283.873C373.375 285.651 375.701 286.584 377.392 285.751C379.084 284.918 379.767 282.518 378.748 280.926Z" fill="black"/>
</g>
<g opacity="0.3">
<path d="M197.668 328.568C190.816 330.234 184.536 333.666 179.761 338.616L232.402 338.666C230.599 337.124 228.796 335.557 226.88 334.201C218.548 328.257 207.605 326.143 197.668 328.568Z" fill="black"/>
</g>
<g opacity="0.3">
<path d="M296.186 331.801C288.811 330.234 281.151 332.609 274.436 336.017C272.757 336.862 271.115 337.783 269.474 338.715L307.54 338.753C304.991 335.233 300.713 332.759 296.186 331.801Z" fill="black"/>
</g>
<path d="M226.905 399.552C230.325 393.421 238.21 391.257 245.236 391.506C252.262 391.742 259.177 393.769 266.19 393.434C282.233 392.687 296.124 379.891 312.178 380.351C321.816 380.625 331.218 385.736 340.694 383.957C342.982 383.522 345.693 382.813 347.372 384.418C348.752 385.748 348.591 388.111 347.521 389.69C346.452 391.27 344.698 392.24 342.995 393.11C318.496 405.484 290.142 406.69 262.92 410.11C255.956 410.981 248.867 412.013 241.953 410.807C235.038 409.588 228.174 405.67 225.388 399.216" fill="#E8505B"/>
<g opacity="0.5">
<path d="M226.905 399.552C230.325 393.421 238.21 391.257 245.236 391.506C252.262 391.742 259.177 393.769 266.19 393.434C282.233 392.687 296.124 379.891 312.178 380.351C321.816 380.625 331.218 385.736 340.694 383.957C342.982 383.522 345.693 382.813 347.372 384.418C348.752 385.748 348.591 388.111 347.521 389.69C346.452 391.27 344.698 392.24 342.995 393.11C318.496 405.484 290.142 406.69 262.92 410.11C255.956 410.981 248.867 412.013 241.953 410.807C235.038 409.588 228.174 405.67 225.388 399.216" fill="black"/>
</g>
<path d="M420.632 359.67L376.223 281.349L372.604 274.347C370.938 271.126 367.73 268.987 364.111 268.689L356.948 268.092C356.948 268.092 357.47 259.785 353.602 260.444C351.103 260.867 342.062 268.639 343.815 270.927C345.569 273.216 350.705 267.309 350.705 267.309L352.657 281.834C352.657 281.834 339.04 273.912 336.839 274.372C334.65 274.832 334.551 277.257 336.292 278.277C346.7 284.42 350.916 292.74 351.924 295.053L351.886 295.078L383.337 365.328L372.58 373.922L385.351 407.312L412.25 388.907C422.957 383.41 426.8 370.004 420.632 359.67Z" fill="#FFBE9D"/>
<path d="M330.561 267.11L329.259 266.432L329.139 266.663L330.44 267.341L330.561 267.11Z" fill="#263238"/>
<path d="M330.422 266.873L336.006 267.023L367.767 284.495C368.911 285.129 369.346 286.559 368.725 287.716C368.103 288.885 366.648 289.333 365.479 288.711L333.954 271.86L330.124 267.508C329.912 267.259 330.099 266.861 330.422 266.873Z" fill="#263238"/>
<path d="M364.596 282.754L362.345 287.069L361.052 286.397L363.328 282.045L364.596 282.754Z" fill="#455A64"/>
<path d="M236.954 284.346C234.728 284.122 226.296 291.633 226.296 291.633L222.13 276.623C222.13 276.623 227.714 277.12 229.206 274.658C230.711 272.196 215.564 272.432 215.228 274.098C214.88 275.765 216.099 280.292 216.099 280.292L210.366 281.398C205.541 282.331 201.885 286.273 201.312 291.148L200.38 299.169L200.541 299.231L156.17 373.349C149.119 385.126 151.532 400.261 161.903 409.264L206.349 440.839L222.939 404.675L190.083 383.087L227.726 310.461C227.726 310.461 236.208 289.208 237.924 288.151C239.64 287.119 239.18 284.57 236.954 284.346Z" fill="#FFBE9D"/>
<path d="M392.141 409.364L391.619 404.203C390.997 398.097 387.913 392.501 383.076 388.72C377.405 384.293 374.184 377.404 374.433 370.216L374.507 368.077L351.787 382.03C351.787 382.03 348.491 384.156 345.022 387.539L344.972 387.427C344.972 387.427 296.422 388.223 225.998 398.52L199.298 388.869L201.598 390.673C202.867 397.761 200.504 404.029 195.517 409.227C191.264 413.654 189.001 419.636 189.262 425.767L189.486 430.953C189.486 430.953 205.416 441.337 217.007 445.241C217.156 445.291 217.293 445.328 217.429 445.366C230.947 451.397 252.536 458.287 279.323 457.192C322.687 455.426 358.328 432.333 363.004 429.187C374.01 423.491 392.141 409.364 392.141 409.364Z" fill="#E8505B"/>
<path d="M225.985 398.52C225.998 398.507 226.159 398.632 226.458 398.893C226.756 399.142 227.179 399.552 227.714 400.074C228.771 401.131 230.263 402.723 231.78 404.949C233.297 407.163 234.839 410.023 235.822 413.455C236.804 416.863 237.401 420.842 236.779 424.946C236.493 426.998 235.859 428.938 235.026 430.704C234.168 432.47 233.173 434.024 232.166 435.492C230.126 438.414 227.801 440.702 225.525 442.17C223.287 443.687 221.197 444.421 219.78 444.881C219.058 445.105 218.499 445.242 218.113 445.316C217.728 445.403 217.529 445.428 217.516 445.416C217.504 445.354 218.3 445.155 219.705 444.645C221.085 444.122 223.112 443.326 225.276 441.797C227.465 440.317 229.703 438.041 231.681 435.156C232.663 433.713 233.646 432.134 234.466 430.43C235.262 428.714 235.872 426.836 236.145 424.847C236.755 420.867 236.195 416.975 235.25 413.617C234.305 410.247 232.85 407.412 231.395 405.198C229.94 402.984 228.522 401.355 227.527 400.248C226.532 399.142 225.948 398.557 225.985 398.52Z" fill="#263238"/>
<g opacity="0.2">
<path d="M349.884 436.86C353.391 434.348 351.65 429.249 347.745 427.396C343.84 425.555 339.239 426.662 335.135 428.005C321.891 432.333 309.368 438.675 296.136 443.065C282.904 447.443 268.441 449.793 255.06 445.876C245.746 443.14 239.478 437.021 229.84 438.116C225.451 438.613 224.083 444.197 217.579 445.54C217.579 445.54 229.654 451.223 246.741 454.693C257.51 456.881 270.344 457.939 283.128 456.969C295.838 455.999 308.945 453.151 319.889 449.582C337.399 443.886 349.884 436.86 349.884 436.86Z" fill="black"/>
</g>
<g opacity="0.2">
<path d="M236.493 416.776C236.493 416.776 237.637 404.987 230.536 397.861L225.798 398.57C225.798 398.57 232.041 403.071 236.493 416.776Z" fill="black"/>
</g>
<path d="M259.064 385.475C258.816 386.121 261.464 413.368 261.464 413.368C261.464 413.368 275.281 432.657 297.006 413.878L299.63 384.169L259.064 385.475Z" fill="#FFBE9D"/>
<g opacity="0.2">
<path d="M261.465 413.368C261.465 413.368 255.06 402.736 253.282 394.826L258.542 394.18L259.835 395.66L261.465 413.368Z" fill="black"/>
</g>
<path d="M375.602 421.091C375.614 421.116 375.428 421.24 375.067 421.464C374.706 421.688 374.171 422.011 373.463 422.384C372.045 423.13 369.931 424.2 367.095 424.834C365.678 425.145 364.086 425.344 362.37 425.22C360.666 425.07 358.863 424.722 357.047 424.1C353.416 422.869 349.723 420.531 346.825 417.149C345.382 415.47 344.213 413.617 343.355 411.702C342.51 409.774 341.913 407.872 341.415 406.031C340.47 402.325 340.209 398.818 340.657 395.946C341.055 393.06 342.161 390.897 343.044 389.566C343.48 388.882 343.89 388.409 344.188 388.098C344.475 387.788 344.624 387.626 344.649 387.638C344.661 387.651 344.537 387.837 344.288 388.186C344.027 388.521 343.654 389.006 343.256 389.703C342.447 391.058 341.44 393.185 341.104 396.008C340.719 398.818 341.03 402.238 341.987 405.882C342.485 407.685 343.094 409.588 343.927 411.453C344.773 413.306 345.905 415.097 347.31 416.738C352.981 423.354 361.524 425.73 366.996 424.399C369.782 423.827 371.896 422.832 373.338 422.173C374.793 421.464 375.577 421.041 375.602 421.091Z" fill="#263238"/>
<path d="M344.648 414.202C344.648 414.214 344.574 414.264 344.4 414.363C344.201 414.475 343.952 414.612 343.654 414.786C342.945 415.172 341.975 415.694 340.744 416.353C339.488 417.037 337.933 417.858 336.08 418.691C334.227 419.537 332.163 420.606 329.775 421.539C327.412 422.521 324.826 423.616 321.965 424.586C319.142 425.655 316.058 426.588 312.813 427.583C306.296 429.448 299.009 431.114 291.261 432.246C283.501 433.328 276.04 433.763 269.262 433.825C267.571 433.813 265.917 433.801 264.312 433.776C262.708 433.776 261.154 433.639 259.649 433.577C256.64 433.465 253.841 433.179 251.292 432.943C248.73 432.744 246.442 432.358 244.427 432.109C242.4 431.861 240.684 431.55 239.267 431.301C237.899 431.052 236.817 430.853 236.021 430.704C235.685 430.629 235.411 430.58 235.175 430.53C234.989 430.493 234.889 430.455 234.889 430.455C234.889 430.443 234.989 430.455 235.188 430.468C235.424 430.493 235.697 430.53 236.033 430.58C236.829 430.692 237.924 430.853 239.291 431.052C240.709 431.276 242.438 431.55 244.452 431.761C246.467 431.973 248.755 432.333 251.317 432.495C253.866 432.706 256.652 432.967 259.661 433.042C261.166 433.092 262.721 433.216 264.312 433.204C265.917 433.204 267.558 433.216 269.25 433.216C276.002 433.117 283.427 432.669 291.162 431.587C298.872 430.455 306.134 428.814 312.638 426.998C315.872 426.028 318.956 425.12 321.766 424.063C324.614 423.118 327.213 422.049 329.576 421.091C331.964 420.183 334.041 419.151 335.906 418.343C337.771 417.534 339.338 416.751 340.607 416.104C341.85 415.495 342.845 415.01 343.567 414.649C343.877 414.5 344.139 414.388 344.35 414.289C344.549 414.226 344.636 414.189 344.648 414.202Z" fill="#263238"/>
<g opacity="0.2">
<path d="M273.689 421.004C272.67 423.653 273.043 426.787 274.672 429.112C276.301 431.438 279.124 432.88 281.959 432.818C283.253 432.793 284.596 432.495 285.802 432.955C287.257 433.527 288.065 435.032 289.023 436.263C291.896 439.944 297.144 441.573 301.596 440.155C306.048 438.737 309.38 434.373 309.592 429.709C309.629 428.826 309.604 427.844 310.176 427.16C311.42 425.717 313.658 427.122 315.35 427.993C319.64 430.231 325.41 427.993 327.773 423.777C330.136 419.561 329.39 414.04 326.679 410.035C323.955 406.031 319.541 403.42 314.914 402.002C311.942 401.094 308.696 400.547 306.371 398.495C303.026 395.523 302.715 390.486 302.653 386.009" fill="black"/>
</g>
<path d="M309.057 336.427C312.092 343.093 313.684 346.936 314.144 354.036C314.989 366.97 312.079 377.615 305.003 388.472C304.953 388.546 305.053 388.397 305.003 388.472C299.83 396.356 284.335 406.193 279.746 407.511C275.157 408.842 256.914 397.475 253.22 384.703C249.527 371.919 244.789 364.172 251.069 341.849C257.511 318.967 288.327 318.146 288.327 318.146C288.327 318.146 309.032 318.159 312.813 330.16C316.606 342.16 309.057 336.427 309.057 336.427Z" fill="#263238"/>
<path d="M276.451 362.058C271.364 362.555 266.651 365.9 264.5 370.527C262.348 375.153 262.821 380.911 265.718 385.126C268.28 388.845 272.483 391.344 274.461 395.398C276.276 399.117 275.891 403.519 275.033 407.573C274.162 411.627 272.844 415.632 272.906 419.773C272.968 423.914 274.772 428.366 278.527 430.132C282.271 431.898 287.742 429.423 287.767 425.282C286.511 431.836 294.072 438.277 300.34 435.977C306.608 433.689 308.249 423.901 303.063 419.686C307.652 420.768 312.788 420.755 316.718 418.156C320.648 415.557 322.637 409.774 319.964 405.894C316.793 401.305 309.58 401.728 305.575 397.836C302.267 394.627 302.093 389.491 301.845 384.89C301.496 378.274 300.502 371.484 297.131 365.776C293.761 360.068 287.518 355.666 280.903 356.126" fill="#263238"/>
<path d="M288.339 425.008C288.327 425.033 288.103 424.921 287.68 424.697C287.469 424.598 287.208 424.449 286.922 424.237C286.623 424.051 286.3 423.815 285.952 423.516C284.534 422.397 282.756 420.308 281.574 417.248C280.99 415.731 280.529 413.978 280.331 412.075C280.144 410.16 280.206 408.096 280.517 405.969C281.126 401.691 282.756 397.227 284.521 392.65C286.3 388.074 287.892 383.647 288.488 379.456C288.799 377.366 288.862 375.352 288.675 373.486C288.488 371.621 288.041 369.917 287.469 368.437C286.325 365.453 284.621 363.401 283.253 362.269C281.885 361.113 280.952 360.702 280.99 360.64C281.002 360.615 281.226 360.727 281.661 360.939C281.885 361.038 282.134 361.187 282.432 361.374C282.731 361.56 283.066 361.784 283.415 362.07C284.857 363.165 286.66 365.229 287.892 368.263C288.501 369.781 288.986 371.522 289.197 373.424C289.409 375.339 289.359 377.404 289.061 379.53C288.488 383.808 286.872 388.285 285.106 392.874C283.328 397.45 281.711 401.865 281.077 406.056C280.753 408.145 280.666 410.16 280.828 412.025C280.99 413.891 281.412 415.594 281.96 417.099C283.066 420.096 284.733 422.173 286.076 423.33C287.456 424.511 288.377 424.934 288.339 425.008Z" fill="#FAFAFA"/>
<path d="M307.043 420.034C307.043 420.059 306.782 420.121 306.272 420.208C305.762 420.282 304.991 420.357 304.009 420.307C302.069 420.22 299.084 419.623 296.286 417.372C294.906 416.241 293.637 414.711 292.729 412.808C291.834 410.918 291.287 408.667 291.423 406.292C291.548 403.929 292.282 401.542 293.165 399.179C294.06 396.816 295.08 394.428 295.751 391.866C297.144 386.755 297.281 381.582 296.348 377.105C295.44 372.603 293.438 368.872 291.249 366.186C289.073 363.475 286.76 361.796 285.094 360.801C283.415 359.807 282.395 359.434 282.42 359.371C282.432 359.346 282.681 359.434 283.166 359.62C283.651 359.794 284.347 360.118 285.218 360.578C286.934 361.523 289.334 363.164 291.598 365.9C293.861 368.599 295.963 372.392 296.92 376.981C297.915 381.557 297.778 386.83 296.361 392.028C295.664 394.64 294.619 397.052 293.737 399.39C292.854 401.728 292.132 404.041 291.996 406.317C291.709 410.881 293.948 414.835 296.559 416.999C299.221 419.213 302.106 419.872 304.009 420.034C305.961 420.208 307.031 419.959 307.043 420.034Z" fill="#455A64"/>
<path d="M288.239 357.506C288.152 357.581 287.531 356.661 286.051 355.815C284.621 354.969 282.158 354.323 279.746 355.206C277.346 356.126 275.903 358.228 275.381 359.794C274.821 361.399 274.958 362.505 274.846 362.505C274.809 362.505 274.734 362.244 274.697 361.747C274.659 361.249 274.709 360.516 274.945 359.658C275.393 357.954 276.861 355.604 279.522 354.596C282.196 353.626 284.844 354.435 286.299 355.429C287.046 355.927 287.555 356.449 287.854 356.847C288.152 357.233 288.264 357.494 288.239 357.506Z" fill="#E8505B"/>
<path d="M276.4 408.257C276.388 408.27 276.226 408.158 275.953 407.909C275.679 407.673 275.269 407.287 274.796 406.777C273.839 405.745 272.545 404.141 271.414 401.878C270.307 399.627 269.25 396.717 269.2 393.322C269.188 391.643 269.474 389.827 270.282 388.148C271.103 386.457 272.409 385.052 273.665 383.634C274.921 382.216 276.09 380.761 276.587 379.107C277.097 377.453 276.873 375.725 276.425 374.17C275.505 371.061 273.864 368.437 273.553 365.851C273.167 363.326 273.677 361.175 274.572 360.031C274.995 359.446 275.443 359.11 275.766 358.912C276.09 358.737 276.276 358.65 276.276 358.663C276.338 358.737 275.53 359.011 274.784 360.168C274 361.287 273.578 363.351 274.013 365.776C274.349 368.238 276.003 370.775 276.997 373.996C277.482 375.588 277.756 377.466 277.196 379.282C276.662 381.11 275.406 382.639 274.15 384.057C272.881 385.487 271.625 386.855 270.854 388.422C270.083 389.989 269.797 391.693 269.797 393.309C269.809 396.567 270.792 399.44 271.824 401.666C272.894 403.905 274.1 405.534 274.995 406.603C275.878 407.685 276.438 408.22 276.4 408.257Z" fill="#455A64"/>
<path d="M302.728 395.523C302.678 395.523 302.728 394.889 302.802 393.744C302.889 392.6 303.001 390.959 303.051 388.919C303.138 384.865 302.939 379.132 300.825 373.3C298.686 367.48 294.794 363.127 291.436 360.901C288.066 358.613 285.491 358.178 285.541 358.029C285.541 358.004 285.703 358.029 286.001 358.091C286.287 358.165 286.735 358.228 287.282 358.426C288.389 358.75 289.944 359.409 291.685 360.516C295.179 362.692 299.246 367.107 301.434 373.076C303.598 379.033 303.723 384.865 303.511 388.932C303.399 390.984 303.213 392.638 303.051 393.769C302.902 394.901 302.765 395.523 302.728 395.523Z" fill="#455A64"/>
<path d="M291.436 360.454C291.336 360.441 291.411 359.322 291.485 357.531C291.523 355.753 291.56 353.216 290.453 350.766C289.384 348.279 287.158 346.911 285.491 346.463C283.788 345.991 282.656 346.202 282.643 346.078C282.619 346.028 283.763 345.642 285.603 346.015C286.511 346.214 287.568 346.625 288.563 347.359C289.57 348.092 290.466 349.187 291.05 350.492C292.232 353.129 292.107 355.778 291.946 357.556C291.747 359.359 291.51 360.454 291.436 360.454Z" fill="#455A64"/>
<path d="M293.438 337.335C293.388 337.422 292.779 337.061 291.722 336.688C290.677 336.315 289.16 335.979 287.481 336.129C285.802 336.278 284.372 336.862 283.402 337.41C282.432 337.957 281.897 338.417 281.835 338.342C281.785 338.293 282.208 337.696 283.166 337.024C284.111 336.353 285.628 335.644 287.431 335.482C289.234 335.32 290.851 335.756 291.896 336.265C292.965 336.763 293.487 337.273 293.438 337.335Z" fill="#F5F5F5"/>
<path d="M308.436 337.285C308.336 337.372 307.428 335.843 305.252 334.114C303.125 332.398 299.531 330.607 295.316 330.644C291.1 330.707 287.543 332.597 285.466 334.363C283.34 336.141 282.482 337.683 282.37 337.609C282.333 337.584 282.519 337.198 282.954 336.539C283.39 335.88 284.111 334.985 285.156 334.027C287.207 332.124 290.876 330.072 295.303 330.01C299.718 329.96 303.436 331.913 305.538 333.766C306.607 334.699 307.354 335.581 307.814 336.228C308.274 336.875 308.473 337.26 308.436 337.285Z" fill="#455A64"/>
<path d="M301.422 319.813C301.434 319.925 299.817 320.024 297.367 320.758C294.918 321.479 291.634 322.996 288.774 325.645C285.914 328.306 284.161 331.478 283.253 333.853C282.332 336.253 282.121 337.857 282.009 337.832C281.972 337.832 281.984 337.422 282.084 336.701C282.183 335.979 282.407 334.947 282.817 333.704C283.626 331.229 285.367 327.921 288.327 325.173C291.286 322.424 294.719 320.932 297.243 320.31C298.512 319.987 299.569 319.85 300.29 319.8C301.024 319.751 301.422 319.775 301.422 319.813Z" fill="#F5F5F5"/>
<path d="M281.934 319.676C282.022 319.751 281.25 320.559 280.405 322.114C279.559 323.643 278.714 325.994 278.738 328.68C278.763 331.354 279.659 333.692 280.529 335.209C281.4 336.738 282.183 337.547 282.096 337.621C282.059 337.671 281.139 336.975 280.131 335.445C279.124 333.94 278.117 331.503 278.092 328.68C278.067 325.857 279.037 323.407 280.007 321.877C280.989 320.335 281.897 319.627 281.934 319.676Z" fill="#455A64"/>
<path d="M264.785 324.302C264.91 324.29 264.897 325.621 265.743 327.498C266.551 329.376 268.367 331.702 271.028 333.368C273.702 335.035 276.488 335.868 278.49 336.44C280.504 337.012 281.76 337.335 281.735 337.435C281.723 337.509 280.43 337.348 278.378 336.887C276.338 336.415 273.466 335.644 270.692 333.915C267.907 332.174 266.066 329.687 265.333 327.672C264.959 326.665 264.798 325.807 264.76 325.223C264.698 324.638 264.748 324.302 264.785 324.302Z" fill="#455A64"/>
<path d="M274.249 378.672C274.237 378.697 274.038 378.647 273.64 378.523C273.242 378.424 272.67 378.212 271.949 377.926C270.506 377.342 268.467 376.297 266.278 374.531C264.127 372.753 261.826 370.203 260.259 366.808C258.667 363.438 258.045 359.198 258.817 354.957C259.612 350.729 261.764 346.961 264.624 344.548C267.484 342.111 270.767 340.942 273.541 340.556C276.339 340.196 278.639 340.544 280.132 341.004C280.878 341.24 281.45 341.452 281.811 341.638C282.184 341.812 282.37 341.912 282.37 341.937C282.345 342.011 281.562 341.626 280.069 341.253C278.577 340.88 276.326 340.606 273.615 341.016C270.929 341.452 267.745 342.633 265.022 345.008C262.286 347.359 260.222 350.99 259.451 355.094C258.705 359.198 259.289 363.301 260.794 366.585C262.274 369.893 264.487 372.417 266.564 374.195C268.666 375.974 270.643 377.056 272.036 377.715C273.454 378.361 274.274 378.61 274.249 378.672Z" fill="#455A64"/>
<path d="M272.595 391.805C272.583 391.829 272.322 391.705 271.824 391.444C271.327 391.195 270.593 390.81 269.685 390.25C267.87 389.156 265.308 387.39 262.547 384.741C259.823 382.08 256.876 378.535 254.526 374.059C253.344 371.833 252.312 369.37 251.491 366.746C250.708 364.11 250.148 361.274 250.223 358.327C250.273 355.38 251.069 352.52 252.387 350.082C253.693 347.62 255.471 345.568 257.386 343.914C261.278 340.569 265.793 339.089 269.536 338.492C273.329 337.907 276.438 338.119 278.552 338.38C279.609 338.517 280.417 338.666 280.965 338.778C281.512 338.902 281.798 338.977 281.798 338.989C281.798 339.014 281.499 338.977 280.952 338.902C280.405 338.828 279.584 338.716 278.527 338.616C276.425 338.43 273.341 338.293 269.623 338.927C265.942 339.586 261.54 341.079 257.784 344.349C254.041 347.533 250.932 352.557 250.87 358.327C250.807 361.175 251.342 363.961 252.101 366.547C252.897 369.134 253.892 371.559 255.048 373.772C257.336 378.212 260.209 381.731 262.87 384.405C265.556 387.054 268.056 388.87 269.822 390.026C271.575 391.22 272.632 391.742 272.595 391.805Z" fill="#455A64"/>
<path d="M302.641 378.46C302.504 378.386 304.518 375.986 305.949 371.297C306.633 368.959 307.13 366.062 306.968 362.853C306.819 359.645 305.973 356.15 304.232 352.867C300.763 346.251 294.744 342.21 290.093 340.966C287.742 340.32 285.74 340.394 284.41 340.68C283.079 340.979 282.407 341.352 282.383 341.289C282.37 341.265 282.532 341.165 282.855 341.003C283.178 340.829 283.676 340.63 284.347 340.444C285.69 340.083 287.767 339.934 290.192 340.531C292.617 341.128 295.353 342.421 297.952 344.436C300.551 346.438 303.014 349.211 304.792 352.581C306.583 355.939 307.441 359.558 307.553 362.841C307.69 366.136 307.13 369.084 306.384 371.447C305.613 373.809 304.655 375.588 303.909 376.757C303.548 377.341 303.225 377.776 303.001 378.062C302.79 378.336 302.665 378.485 302.641 378.46Z" fill="#455A64"/>
<path d="M487.886 41.9448H296.397V184.734H487.886V41.9448Z" fill="white"/>
<path d="M487.885 184.734C487.885 184.734 487.861 183.839 487.861 182.122C487.848 180.394 487.848 177.857 487.836 174.537C487.823 167.883 487.798 158.146 487.773 145.698C487.736 120.826 487.699 85.1597 487.637 41.9574L487.898 42.2185C433.926 42.2309 367.792 42.2558 296.422 42.2807H296.41L296.733 41.9574C296.721 93.2679 296.708 141.867 296.696 184.734L296.397 184.436C353.08 184.498 400.921 184.547 434.598 184.585C451.448 184.622 464.755 184.647 473.858 184.659C478.409 184.672 481.904 184.684 484.279 184.697C485.46 184.709 486.356 184.709 486.965 184.709C487.562 184.722 487.885 184.734 487.885 184.734C487.885 184.734 487.587 184.746 487.002 184.746C486.393 184.746 485.51 184.759 484.354 184.759C481.991 184.771 478.521 184.784 473.994 184.796C464.904 184.809 451.622 184.846 434.797 184.871C401.07 184.908 353.167 184.958 296.41 185.02H296.111V184.722C296.099 141.843 296.086 93.243 296.086 41.9449V41.6216H296.41H296.422C367.779 41.6465 433.926 41.6589 487.898 41.6838H488.159V41.9449C488.097 85.2094 488.059 120.925 488.022 145.847C487.997 158.27 487.972 167.995 487.96 174.636C487.948 177.932 487.935 180.456 487.935 182.172C487.898 183.876 487.885 184.734 487.885 184.734Z" fill="#263238"/>
<path d="M511.563 126.248H395.126V171.515H511.563V126.248Z" fill="#FAFAFA"/>
<path d="M511.563 171.502C511.563 171.502 511.551 171.216 511.539 170.694C511.539 170.147 511.526 169.363 511.514 168.344C511.501 166.267 511.476 163.245 511.464 159.353C511.439 151.543 511.389 140.263 511.34 126.248L511.563 126.472C482.327 126.497 440.952 126.534 395.138 126.571H395.126L395.449 126.248C395.449 142.079 395.437 157.363 395.437 171.515L395.126 171.204C428.79 171.266 457.853 171.316 478.521 171.353C488.856 171.39 497.1 171.415 502.784 171.44C505.607 171.453 507.783 171.465 509.288 171.478C510.021 171.49 510.581 171.49 510.979 171.502C511.352 171.49 511.563 171.502 511.563 171.502C511.563 171.502 511.389 171.515 511.016 171.527C510.618 171.527 510.071 171.54 509.362 171.552C507.87 171.565 505.719 171.577 502.921 171.589C497.262 171.614 489.042 171.639 478.733 171.677C458.002 171.714 428.865 171.764 395.126 171.826H394.815V171.515C394.815 157.375 394.803 142.079 394.803 126.248V125.925H395.126H395.138C440.965 125.962 482.327 125.999 511.563 126.024H511.787V126.248C511.738 140.313 511.7 151.655 511.663 159.489C511.638 163.369 511.626 166.366 511.613 168.431C511.601 169.426 511.601 170.197 511.588 170.744C511.576 171.254 511.563 171.502 511.563 171.502Z" fill="#263238"/>
<path d="M511.563 126.248H395.126V135.948H511.563V126.248Z" fill="#263238"/>
<path d="M420.396 143.335H408.967V154.764H420.396V143.335Z" fill="#263238"/>
<path d="M427.31 150.262H415.882V161.69H427.31V150.262Z" fill="#263238"/>
<path d="M447.643 143.335H436.214V154.764H447.643V143.335Z" fill="#263238"/>
<path d="M454.57 150.262H443.141V161.69H454.57V150.262Z" fill="#F5F5F5"/>
<path d="M454.582 161.703C454.557 161.678 454.545 161.379 454.52 160.82C454.495 160.173 454.47 159.402 454.445 158.469C454.395 156.455 454.333 153.632 454.308 150.274L454.594 150.56C451.237 150.573 447.332 150.585 443.166 150.61C443.091 150.685 443.775 150.001 443.489 150.287V150.299V150.324V150.374V150.473V150.672V151.058V151.829C443.489 152.338 443.489 152.848 443.489 153.358C443.489 154.366 443.489 155.348 443.477 156.318C443.464 158.233 443.452 160.036 443.439 161.715L443.153 161.429C446.524 161.454 449.346 161.516 451.349 161.566C452.281 161.591 453.065 161.616 453.699 161.641C454.246 161.653 454.557 161.678 454.582 161.703C454.607 161.728 454.333 161.74 453.823 161.765C453.202 161.79 452.443 161.815 451.535 161.84C449.545 161.889 446.648 161.951 443.153 161.976H442.88V161.69C442.867 160.011 442.855 158.208 442.843 156.293C442.843 155.336 442.843 154.341 442.83 153.333C442.83 152.823 442.83 152.314 442.83 151.804V151.033V150.647V150.448V150.349V150.299V150.274V150.262C442.544 150.548 443.228 149.864 443.153 149.938C447.319 149.951 451.237 149.963 454.582 149.988H454.868V150.262C454.843 153.756 454.781 156.654 454.731 158.643C454.706 159.551 454.682 160.31 454.657 160.932C454.619 161.454 454.594 161.715 454.582 161.703Z" fill="#263238"/>
<path d="M473.075 143.335H461.646V154.764H473.075V143.335Z" fill="#F5F5F5"/>
<path d="M473.087 154.776C473.062 154.751 473.05 154.453 473.025 153.893C473 153.246 472.975 152.475 472.95 151.543C472.9 149.528 472.838 146.705 472.813 143.347L473.099 143.633C469.742 143.646 465.837 143.658 461.671 143.683C461.596 143.758 462.28 143.074 461.994 143.36V143.372V143.397V143.447V143.546V143.745V144.131V144.902C461.994 145.412 461.994 145.922 461.994 146.431C461.994 147.439 461.994 148.421 461.982 149.391C461.969 151.306 461.957 153.11 461.944 154.788L461.658 154.502C465.028 154.527 467.851 154.589 469.854 154.639C470.786 154.664 471.57 154.689 472.204 154.714C472.751 154.726 473.062 154.751 473.087 154.776C473.112 154.801 472.838 154.813 472.328 154.838C471.706 154.863 470.948 154.888 470.04 154.913C468.05 154.962 465.153 155.025 461.658 155.05H461.385V154.764C461.372 153.085 461.36 151.281 461.347 149.366C461.347 148.409 461.347 147.414 461.335 146.407C461.335 145.897 461.335 145.387 461.335 144.877V144.106V143.72V143.521V143.422V143.372V143.347V143.335C461.049 143.621 461.733 142.937 461.658 143.012C465.824 143.024 469.742 143.036 473.087 143.061H473.373V143.335C473.348 146.829 473.286 149.727 473.236 151.717C473.211 152.625 473.186 153.383 473.162 154.005C473.124 154.527 473.099 154.788 473.087 154.776Z" fill="#263238"/>
<path d="M480.001 150.262H468.573V161.69H480.001V150.262Z" fill="#F5F5F5"/>
<path d="M480.014 161.703C479.989 161.678 479.976 161.379 479.951 160.82C479.927 160.173 479.902 159.402 479.877 158.469C479.827 156.455 479.765 153.632 479.74 150.274L480.026 150.56C476.668 150.573 472.764 150.585 468.597 150.61C468.523 150.685 469.207 150.001 468.921 150.287V150.299V150.324V150.374V150.473V150.672V151.058V151.829C468.921 152.338 468.921 152.848 468.921 153.358C468.921 154.366 468.921 155.348 468.908 156.318C468.896 158.233 468.884 160.036 468.871 161.715L468.585 161.429C471.955 161.454 474.778 161.516 476.78 161.566C477.713 161.591 478.496 161.616 479.131 161.641C479.678 161.653 479.989 161.678 480.014 161.703C480.038 161.728 479.765 161.74 479.255 161.765C478.633 161.79 477.875 161.815 476.967 161.84C474.977 161.889 472.08 161.951 468.585 161.976H468.311V161.69C468.299 160.011 468.287 158.208 468.274 156.293C468.274 155.336 468.274 154.341 468.262 153.333C468.262 152.823 468.262 152.314 468.262 151.804V151.033V150.647V150.448V150.349V150.299V150.274V150.262C467.976 150.548 468.66 149.864 468.585 149.938C472.751 149.951 476.668 149.963 480.014 149.988H480.3V150.262C480.275 153.756 480.213 156.654 480.163 158.643C480.138 159.551 480.113 160.31 480.088 160.932C480.051 161.454 480.026 161.715 480.014 161.703Z" fill="#263238"/>
<path d="M473.087 150.262H468.573V154.776H473.087V150.262Z" fill="#263238"/>
<path d="M496.454 143.335H485.025V154.764H496.454V143.335Z" fill="#263238"/>
<path d="M503.381 150.262H491.952V161.69H503.381V150.262Z" fill="#263238"/>
<path d="M496.466 150.262H491.952V154.776H496.466V150.262Z" fill="#FAFAFA"/>
<path d="M534.595 264.312H422.696V307.812H534.595V264.312Z" fill="#FAFAFA"/>
<path d="M534.744 307.962H422.535V264.15H534.744V307.962ZM422.846 307.651H534.433V264.461H422.846V307.651Z" fill="#222221"/>
<path d="M534.595 264.312H422.696V273.638H534.595V264.312Z" fill="#263238"/>
<path d="M440.057 285.266H429.001V296.322H440.057V285.266Z" fill="#F5F5F5"/>
<path d="M440.057 296.322C440.032 296.297 440.02 295.998 439.995 295.464C439.97 294.842 439.945 294.083 439.92 293.188C439.871 291.248 439.808 288.512 439.784 285.266L440.07 285.552C436.824 285.565 433.043 285.577 429.014 285.602C428.939 285.676 429.623 284.992 429.337 285.279V285.291V285.316V285.366V285.465V285.652V286.025V286.771C429.337 287.268 429.337 287.766 429.337 288.251C429.337 289.221 429.337 290.178 429.325 291.111C429.312 292.964 429.3 294.705 429.288 296.322L429.002 296.036C432.26 296.06 434.983 296.123 436.923 296.172C437.819 296.197 438.577 296.222 439.199 296.247C439.734 296.284 440.032 296.297 440.057 296.322C440.094 296.359 439.037 296.409 437.11 296.458C435.182 296.508 432.384 296.57 429.002 296.595H428.728V296.309C428.716 294.693 428.703 292.939 428.691 291.099C428.691 290.166 428.691 289.221 428.678 288.238C428.678 287.753 428.678 287.256 428.678 286.758V286.012V285.639V285.453V285.353V285.303V285.279V285.266C428.392 285.552 429.076 284.868 429.002 284.943C433.031 284.955 436.811 284.968 440.057 284.992H440.343V285.266C440.318 288.649 440.256 291.447 440.206 293.374C440.144 295.302 440.094 296.371 440.057 296.322Z" fill="#263238"/>
<path d="M429.002 296.321C428.877 296.197 431.253 293.623 434.299 290.564C437.359 287.504 439.933 285.142 440.057 285.266C440.182 285.39 437.806 287.965 434.76 291.024C431.7 294.083 429.126 296.446 429.002 296.321Z" fill="#E8505B"/>
<path d="M454.445 285.266H443.39V296.322H454.445V285.266Z" fill="#263238"/>
<path d="M468.821 285.266H457.766V296.322H468.821V285.266Z" fill="#455A64"/>
<path d="M483.209 285.266H472.154V296.322H483.209V285.266Z" fill="#E8505B"/>
<path d="M497.598 285.266H486.542V296.322H497.598V285.266Z" fill="#E8505B"/>
<g opacity="0.5">
<path d="M497.598 285.266H486.542V296.322H497.598V285.266Z" fill="white"/>
</g>
<path d="M511.986 285.266H500.931V296.322H511.986V285.266Z" fill="#E8505B"/>
<g opacity="0.3">
<path d="M511.986 285.266H500.931V296.322H511.986V285.266Z" fill="black"/>
</g>
<path d="M526.374 285.266H515.319V296.322H526.374V285.266Z" fill="#E8505B"/>
<g opacity="0.7">
<path d="M526.374 285.266H515.319V296.322H526.374V285.266Z" fill="black"/>
</g>
<path d="M249.912 41.9453H93.4434V150.909H249.912V41.9453Z" fill="white"/>
<path d="M249.912 150.909C249.912 150.909 249.887 150.225 249.887 148.919C249.875 147.601 249.875 145.673 249.862 143.149C249.85 138.087 249.825 130.675 249.8 121.199C249.763 102.247 249.725 75.0371 249.663 41.9451L249.924 42.2063C206.461 42.2187 152.191 42.2436 93.4683 42.2685H93.4559L93.7792 41.9451C93.7668 80.8944 93.7544 117.866 93.7544 150.909L93.4559 150.61C139.606 150.672 178.679 150.722 206.237 150.759C220.029 150.797 230.935 150.821 238.396 150.834C242.127 150.846 245 150.859 246.952 150.871C247.91 150.884 248.656 150.884 249.166 150.884C249.651 150.896 249.912 150.909 249.912 150.909C249.912 150.909 249.676 150.921 249.191 150.921C248.693 150.921 247.96 150.933 247.014 150.933C245.074 150.946 242.227 150.958 238.521 150.971C231.059 150.983 220.178 151.02 206.424 151.045C178.816 151.083 139.68 151.132 93.4435 151.195H93.145V150.896C93.1326 117.854 93.1326 80.882 93.1201 41.9327V41.6094H93.4435H93.4559C152.178 41.6342 206.449 41.6591 249.912 41.6716H250.173V41.9327C250.111 75.0993 250.074 102.359 250.036 121.348C250.012 130.8 249.987 138.199 249.974 143.248C249.962 145.748 249.949 147.663 249.949 148.969C249.924 150.262 249.912 150.909 249.912 150.909Z" fill="#263238"/>
<path d="M249.912 41.9453H93.4434V55.5626H249.912V41.9453Z" fill="#263238"/>
<path d="M101.937 49.1456C101.937 50.0907 101.204 50.8493 100.308 50.8493C99.4129 50.8493 98.6792 50.0907 98.6792 49.1456C98.6792 48.2005 99.4129 47.4419 100.308 47.4419C101.204 47.4419 101.937 48.2005 101.937 49.1456Z" fill="white"/>
<path d="M108.553 49.1456C108.553 50.0907 107.819 50.8493 106.924 50.8493C106.029 50.8493 105.295 50.0907 105.295 49.1456C105.295 48.2005 106.029 47.4419 106.924 47.4419C107.832 47.4419 108.553 48.2005 108.553 49.1456Z" fill="white"/>
<path d="M115.182 49.1456C115.182 50.0907 114.448 50.8493 113.552 50.8493C112.657 50.8493 111.923 50.0907 111.923 49.1456C111.923 48.2005 112.657 47.4419 113.552 47.4419C114.448 47.4419 115.182 48.2005 115.182 49.1456Z" fill="white"/>
<path d="M130.614 68.9062H108.317V122.406H130.614V68.9062Z" fill="#E8505B"/>
<path d="M165 68.9062H142.702V122.406H165V68.9062Z" fill="#EBEBEB"/>
<path d="M199.385 68.9062H177.087V122.406H199.385V68.9062Z" fill="#FAFAFA"/>
<path d="M233.77 69.3291H211.473V122.828H233.77V69.3291Z" fill="#E0E0E0"/>
<path d="M240.883 128.312H105.73V140.537H240.883V128.312Z" fill="#E8505B"/>
<path d="M230.611 138.038L233.521 152.749L235.909 148.645L241.045 155.983L243.619 154.329L238.483 146.991L243.196 146.307L230.611 138.038Z" fill="#263238"/>
<path d="M189.946 163.866H121.076V281.995H189.946V163.866Z" fill="#FAFAFA"/>
<path d="M189.946 281.995C189.946 281.995 189.933 281.796 189.933 281.41C189.933 281.013 189.921 280.453 189.921 279.719C189.909 278.227 189.896 276.038 189.884 273.203C189.859 267.507 189.834 259.237 189.797 248.791C189.759 227.924 189.71 198.438 189.647 163.854L189.946 164.152C168.743 164.165 145.463 164.165 121.088 164.177H121.076L121.399 163.854C121.374 208.922 121.349 250.246 121.324 281.983L121.076 281.734C142.167 281.784 159.353 281.833 171.28 281.871C177.249 281.896 181.9 281.92 185.071 281.933C186.65 281.945 187.857 281.958 188.69 281.958C189.511 281.97 189.946 281.995 189.946 281.995C189.946 281.995 189.548 282.007 188.752 282.02C187.931 282.032 186.737 282.032 185.183 282.045C182.012 282.057 177.386 282.082 171.441 282.107C159.465 282.144 142.229 282.182 121.076 282.244H120.827V281.995C120.802 250.259 120.777 208.934 120.752 163.866V163.543H121.076H121.088C145.463 163.555 168.743 163.555 189.946 163.568H190.244V163.866C190.182 198.525 190.132 228.085 190.095 249.003C190.058 259.411 190.033 267.669 190.008 273.34C189.996 276.15 189.983 278.302 189.971 279.794C189.958 280.515 189.958 281.062 189.958 281.448C189.958 281.808 189.946 281.995 189.946 281.995Z" fill="#222221"/>
<path d="M189.946 163.866H121.076V173.815H189.946V163.866Z" fill="#263238"/>
<path d="M137.628 186.238L138.461 197.269L141.533 193.252L146.694 193.028L137.628 186.238Z" fill="#263238"/>
<path d="M167.387 186.238C167.375 186.213 167.598 186.375 168.034 186.686C168.568 187.072 169.19 187.519 169.911 188.042C171.528 189.211 173.866 190.889 176.552 192.879L176.975 193.19L176.453 193.215C174.898 193.277 173.219 193.352 171.478 193.426L171.304 193.439L171.454 193.364C170.372 194.769 169.327 196.125 168.357 197.381L168.059 197.766L168.021 197.281C167.785 194.011 167.636 191.213 167.524 189.26C167.474 188.39 167.437 187.644 167.399 187.009C167.387 186.487 167.375 186.226 167.387 186.238C167.399 186.251 167.424 186.562 167.486 187.109C167.549 187.768 167.623 188.539 167.71 189.422C167.897 191.387 168.158 194.098 168.407 197.257L168.083 197.157C169.041 195.901 170.073 194.546 171.155 193.128L171.205 193.053H171.292L171.466 193.041C173.207 192.966 174.886 192.904 176.44 192.842L176.341 193.178C173.754 191.225 171.565 189.509 169.961 188.265C169.24 187.706 168.618 187.221 168.083 186.798C167.648 186.45 167.399 186.263 167.387 186.238Z" fill="#263238"/>
<path d="M135.626 234.228C135.551 234.154 138.983 230.497 143.286 226.07C147.589 221.631 151.146 218.099 151.22 218.174C151.295 218.248 147.863 221.904 143.56 226.331C139.257 230.771 135.7 234.303 135.626 234.228Z" fill="#263238"/>
<path d="M183.429 226.095C183.367 226.095 183.429 225.188 183.056 223.633C182.671 222.116 181.713 219.853 179.462 218.074C178.343 217.204 176.938 216.47 175.296 216.159C173.667 215.873 171.826 215.935 170.085 216.619C168.332 217.266 166.703 218.509 165.546 220.176C164.365 221.83 163.706 223.919 163.681 226.083C163.693 228.234 164.365 230.336 165.546 231.99C166.703 233.656 168.344 234.9 170.085 235.547C171.826 236.243 173.667 236.305 175.296 236.007C176.938 235.696 178.355 234.962 179.462 234.092C181.713 232.313 182.671 230.062 183.056 228.533C183.442 226.991 183.379 226.083 183.429 226.095C183.429 226.095 183.541 227.003 183.193 228.583C182.845 230.137 181.912 232.463 179.624 234.315C178.492 235.223 177.037 235.994 175.346 236.33C173.667 236.641 171.752 236.591 169.936 235.882C168.121 235.223 166.417 233.93 165.211 232.214C163.979 230.498 163.283 228.321 163.271 226.095C163.283 223.857 163.979 221.693 165.211 219.977C166.417 218.248 168.121 216.967 169.936 216.308C171.752 215.599 173.654 215.55 175.346 215.861C177.037 216.196 178.492 216.967 179.624 217.875C181.912 219.728 182.857 222.054 183.193 223.608C183.541 225.188 183.429 226.095 183.429 226.095Z" fill="#263238"/>
<path d="M174.513 252.323C174.513 252.31 174.6 252.372 174.762 252.509C174.973 252.683 175.209 252.882 175.47 253.106C176.179 253.716 177.087 254.487 178.181 255.432L178.269 255.506L178.194 255.593C175.433 258.765 171.317 263.503 166.629 268.887L166.579 268.937L166.504 268.95C166.056 269.012 165.584 269.086 165.111 269.161C164.266 269.285 163.42 269.41 162.599 269.534L162.326 269.571L162.375 269.298C162.686 267.718 162.997 266.189 163.283 264.746L163.296 264.696L163.321 264.659C166.454 260.966 169.19 257.832 171.18 255.631C173.17 253.454 174.438 252.236 174.513 252.323C174.513 252.335 174.426 252.41 174.277 252.547C174.14 252.696 173.916 252.92 173.642 253.218C173.095 253.803 172.324 254.698 171.354 255.805C169.427 258.031 166.728 261.214 163.607 264.908L163.644 264.821C163.358 266.276 163.059 267.793 162.761 269.385L162.537 269.161C163.358 269.037 164.191 268.912 165.049 268.775C165.522 268.701 165.994 268.626 166.442 268.564L166.33 268.626C171.068 263.279 175.222 258.59 178.007 255.432L178.02 255.593C176.975 254.623 176.105 253.84 175.421 253.206C175.16 252.957 174.936 252.746 174.737 252.559C174.587 252.422 174.513 252.335 174.513 252.323Z" fill="#263238"/>
<path d="M149.317 268.44C149.305 268.427 149.305 268.328 149.293 268.116C149.293 267.855 149.28 267.557 149.268 267.209C149.255 266.338 149.243 265.206 149.218 263.814C149.193 260.817 149.168 256.713 149.131 251.825L149.305 252C144.579 252.012 139.045 252.012 133.163 252.024C133.113 252.062 133.524 251.664 133.35 251.838V251.85V251.863V251.9V251.975V252.111V252.397V252.97V254.101C133.35 254.847 133.35 255.593 133.35 256.327C133.35 257.795 133.35 259.225 133.35 260.63C133.337 263.416 133.337 266.04 133.325 268.465L133.163 268.303C137.926 268.34 141.918 268.365 144.816 268.39C146.171 268.402 147.265 268.427 148.111 268.44C148.447 268.452 148.733 268.452 148.994 268.465C149.205 268.427 149.317 268.44 149.317 268.44C149.33 268.452 149.23 268.452 149.044 268.465C148.795 268.465 148.521 268.477 148.198 268.49C147.365 268.502 146.271 268.514 144.94 268.539C142.005 268.564 137.976 268.589 133.176 268.626H133.014V268.452C133.014 266.04 133.001 263.403 132.989 260.618C132.989 259.225 132.989 257.782 132.989 256.315C132.989 255.581 132.989 254.835 132.989 254.089V252.957V252.385V252.099V251.962V251.888V251.85V251.838V251.825C132.815 252 133.225 251.589 133.188 251.626C139.083 251.639 144.604 251.639 149.33 251.651H149.504V251.825C149.467 256.762 149.442 260.904 149.417 263.926C149.404 265.306 149.38 266.425 149.367 267.283C149.355 267.619 149.355 267.905 149.342 268.154C149.33 268.353 149.33 268.452 149.317 268.44Z" fill="#263238"/>
<path d="M135.626 251.825C135.626 251.937 134.059 252.024 132.119 252.024C130.179 252.024 128.612 251.937 128.612 251.825C128.612 251.714 130.179 251.626 132.119 251.626C134.059 251.626 135.626 251.714 135.626 251.825Z" fill="#263238"/>
<path d="M133.176 255.022C133.064 255.022 132.977 253.256 132.977 251.079C132.977 248.903 133.064 247.137 133.176 247.137C133.288 247.137 133.375 248.903 133.375 251.079C133.363 253.256 133.276 255.022 133.176 255.022Z" fill="#263238"/>
<path d="M105.767 199.06H14.5747V290.253H105.767V199.06Z" fill="#F5F5F5"/>
<path d="M139.001 338.211C145.674 331.538 145.674 320.72 139.001 314.047C132.328 307.374 121.509 307.374 114.837 314.047C108.164 320.72 108.164 331.538 114.837 338.211C121.509 344.884 132.328 344.884 139.001 338.211Z" fill="#E0E0E0"/>
<path d="M139.152 329.851C144.989 324.013 144.989 314.549 139.152 308.712C133.314 302.874 123.85 302.874 118.013 308.712C112.175 314.549 112.175 324.013 118.013 329.851C123.85 335.688 133.314 335.688 139.152 329.851Z" fill="#FAFAFA"/>
<path d="M128.587 333.678C136.541 333.678 142.988 327.231 142.988 319.278C142.988 311.324 136.541 304.877 128.587 304.877C120.634 304.877 114.187 311.324 114.187 319.278C114.187 327.231 120.634 333.678 128.587 333.678Z" fill="#E8505B"/>
<path d="M128.587 330.321C122.506 330.321 117.557 325.372 117.557 319.29C117.557 313.209 122.506 308.26 128.587 308.26C134.668 308.26 139.618 313.209 139.618 319.29C139.618 325.372 134.681 330.321 128.587 330.321ZM128.587 308.31C122.543 308.31 117.619 313.234 117.619 319.278C117.619 325.322 122.543 330.246 128.587 330.246C134.631 330.246 139.556 325.322 139.556 319.278C139.568 313.234 134.644 308.31 128.587 308.31Z" fill="#263238"/>
<g opacity="0.2">
<path d="M129.769 309.217C126.971 308.558 123.812 309.79 122.208 312.177C120.604 314.565 120.653 317.947 122.32 320.298C123.986 322.648 127.182 323.792 129.955 323.059C132.741 322.325 134.942 319.738 135.228 316.878C135.378 315.411 135.042 313.881 134.221 312.662C132.965 310.797 131.958 309.702 129.769 309.217Z" fill="black"/>
</g>
<path d="M125.889 328.58L126.709 329.712L131.099 329.575L131.945 328.58H125.889Z" fill="#263238"/>
<path d="M420.097 337.26C425.138 337.26 429.225 333.174 429.225 328.132C429.225 323.091 425.138 319.004 420.097 319.004C415.056 319.004 410.969 323.091 410.969 328.132C410.969 333.174 415.056 337.26 420.097 337.26Z" fill="#263238"/>
<path d="M423.43 328.132C423.43 329.973 421.937 331.465 420.097 331.465C418.256 331.465 416.764 329.973 416.764 328.132C416.764 326.292 418.256 324.799 420.097 324.799C421.937 324.799 423.43 326.292 423.43 328.132Z" fill="#455A64"/>
<path d="M85.957 303.124C85.957 302.95 86.7529 302.813 87.7229 302.813C88.6929 302.813 89.4888 302.95 89.4888 303.124C89.4888 303.298 88.6929 303.435 87.7229 303.435C86.7405 303.435 85.957 303.298 85.957 303.124Z" fill="#263238"/>
<path d="M78.8931 303.124C78.8931 302.95 79.689 302.813 80.659 302.813C81.629 302.813 82.4249 302.95 82.4249 303.124C82.4249 303.298 81.629 303.435 80.659 303.435C79.6765 303.435 78.8931 303.298 78.8931 303.124Z" fill="#263238"/>
<path d="M71.8174 303.124C71.8174 302.95 72.6133 302.813 73.5833 302.813C74.5533 302.813 75.3492 302.95 75.3492 303.124C75.3492 303.298 74.5533 303.435 73.5833 303.435C72.6133 303.435 71.8174 303.298 71.8174 303.124Z" fill="#263238"/>
<path d="M64.7534 303.124C64.7534 302.95 65.5493 302.813 66.5193 302.813C67.4893 302.813 68.2852 302.95 68.2852 303.124C68.2852 303.298 67.4893 303.435 66.5193 303.435C65.5493 303.435 64.7534 303.298 64.7534 303.124Z" fill="#263238"/>
<path d="M57.6899 303.124C57.6899 302.95 58.4858 302.813 59.4558 302.813C60.4258 302.813 61.2217 302.95 61.2217 303.124C61.2217 303.298 60.4258 303.435 59.4558 303.435C58.4858 303.435 57.6899 303.298 57.6899 303.124Z" fill="#263238"/>
<path d="M50.6265 303.124C50.6265 302.95 51.4224 302.813 52.3924 302.813C53.3624 302.813 54.1583 302.95 54.1583 303.124C54.1583 303.298 53.3624 303.435 52.3924 303.435C51.4099 303.435 50.6265 303.298 50.6265 303.124Z" fill="#263238"/>
<path d="M43.563 303.124C43.563 302.95 44.3589 302.813 45.3289 302.813C46.2989 302.813 47.0948 302.95 47.0948 303.124C47.0948 303.298 46.2989 303.435 45.3289 303.435C44.3465 303.435 43.563 303.298 43.563 303.124Z" fill="#263238"/>
<path d="M36.499 303.124C36.499 302.95 37.2949 302.813 38.2649 302.813C39.2349 302.813 40.0308 302.95 40.0308 303.124C40.0308 303.298 39.2349 303.435 38.2649 303.435C37.2825 303.435 36.499 303.298 36.499 303.124Z" fill="#263238"/>
<path d="M29.4233 303.124C29.4233 302.95 30.2192 302.813 31.1892 302.813C32.1592 302.813 32.9551 302.95 32.9551 303.124C32.9551 303.298 32.1592 303.435 31.1892 303.435C30.2192 303.435 29.4233 303.298 29.4233 303.124Z" fill="#263238"/>
<path d="M22.3599 303.124C22.3599 302.95 23.1558 302.813 24.1258 302.813C25.0958 302.813 25.8917 302.95 25.8917 303.124C25.8917 303.298 25.0958 303.435 24.1258 303.435C23.1558 303.435 22.3599 303.298 22.3599 303.124Z" fill="#263238"/>
<path d="M15.2959 303.124C15.2959 302.95 16.0918 302.813 17.0618 302.813C18.0318 302.813 18.8277 302.95 18.8277 303.124C18.8277 303.298 18.0318 303.435 17.0618 303.435C16.0918 303.435 15.2959 303.298 15.2959 303.124Z" fill="#263238"/>
<path d="M8.23242 303.124C8.23242 302.95 9.02832 302.813 9.99832 302.813C10.9683 302.813 11.7642 302.95 11.7642 303.124C11.7642 303.298 10.9683 303.435 9.99832 303.435C9.01588 303.435 8.23242 303.298 8.23242 303.124Z" fill="#263238"/>
<path d="M3.19569 301.097C3.3698 301.097 3.50659 301.893 3.50659 302.863C3.50659 302.95 3.50659 303.037 3.50659 303.124L3.20813 302.825C4.05377 302.85 4.71287 302.975 4.71287 303.124C4.71287 303.273 4.06621 303.41 3.20813 303.422L2.90967 303.435V303.124C2.90967 303.024 2.90967 302.95 2.90967 302.863C2.8848 301.88 3.02159 301.097 3.19569 301.097Z" fill="#263238"/>
<path d="M3.19566 294.033C3.36977 294.033 3.50656 294.829 3.50656 295.799C3.50656 296.769 3.36977 297.565 3.19566 297.565C3.02156 297.565 2.88477 296.769 2.88477 295.799C2.88477 294.817 3.02156 294.033 3.19566 294.033Z" fill="#263238"/>
<path d="M3.19566 286.957C3.36977 286.957 3.50656 287.753 3.50656 288.723C3.50656 289.693 3.36977 290.489 3.19566 290.489C3.02156 290.489 2.88477 289.693 2.88477 288.723C2.88477 287.753 3.02156 286.957 3.19566 286.957Z" fill="#263238"/>
<path d="M3.19566 279.894C3.36977 279.894 3.50656 280.689 3.50656 281.659C3.50656 282.629 3.36977 283.425 3.19566 283.425C3.02156 283.425 2.88477 282.629 2.88477 281.659C2.88477 280.689 3.02156 279.894 3.19566 279.894Z" fill="#263238"/>
<path d="M3.19566 272.83C3.36977 272.83 3.50656 273.625 3.50656 274.595C3.50656 275.565 3.36977 276.361 3.19566 276.361C3.02156 276.361 2.88477 275.565 2.88477 274.595C2.88477 273.625 3.02156 272.83 3.19566 272.83Z" fill="#263238"/>
<path d="M3.19566 265.766C3.36977 265.766 3.50656 266.562 3.50656 267.532C3.50656 268.502 3.36977 269.298 3.19566 269.298C3.02156 269.298 2.88477 268.502 2.88477 267.532C2.88477 266.562 3.02156 265.766 3.19566 265.766Z" fill="#263238"/>
<path d="M3.19566 258.703C3.36977 258.703 3.50656 259.499 3.50656 260.469C3.50656 261.439 3.36977 262.234 3.19566 262.234C3.02156 262.234 2.88477 261.439 2.88477 260.469C2.88477 259.486 3.02156 258.703 3.19566 258.703Z" fill="#263238"/>
<path d="M3.19566 251.639C3.36977 251.639 3.50656 252.435 3.50656 253.405C3.50656 254.375 3.36977 255.171 3.19566 255.171C3.02156 255.171 2.88477 254.375 2.88477 253.405C2.88477 252.423 3.02156 251.639 3.19566 251.639Z" fill="#263238"/>
<path d="M3.19566 244.563C3.36977 244.563 3.50656 245.359 3.50656 246.329C3.50656 247.299 3.36977 248.095 3.19566 248.095C3.02156 248.095 2.88477 247.299 2.88477 246.329C2.88477 245.359 3.02156 244.563 3.19566 244.563Z" fill="#263238"/>
<path d="M3.19566 237.5C3.36977 237.5 3.50656 238.295 3.50656 239.265C3.50656 240.235 3.36977 241.031 3.19566 241.031C3.02156 241.031 2.88477 240.235 2.88477 239.265C2.88477 238.295 3.02156 237.5 3.19566 237.5Z" fill="#263238"/>
<path d="M3.19566 230.436C3.36977 230.436 3.50656 231.232 3.50656 232.202C3.50656 233.172 3.36977 233.968 3.19566 233.968C3.02156 233.968 2.88477 233.172 2.88477 232.202C2.88477 231.232 3.02156 230.436 3.19566 230.436Z" fill="#263238"/>
<path d="M3.19566 223.372C3.36977 223.372 3.50656 224.168 3.50656 225.138C3.50656 226.108 3.36977 226.904 3.19566 226.904C3.02156 226.904 2.88477 226.108 2.88477 225.138C2.88477 224.168 3.02156 223.372 3.19566 223.372Z" fill="#263238"/>
<path d="M3.7182 216.831C3.7182 216.918 3.51923 216.992 3.18346 217.055L3.4073 216.831C3.45705 217.154 3.49435 217.589 3.49435 218.062C3.49435 219.032 3.35756 219.828 3.18346 219.828C3.00935 219.828 2.87256 219.032 2.87256 218.062C2.87256 217.577 2.90987 217.142 2.95961 216.831L2.99692 216.582L3.17102 216.607C3.51923 216.669 3.7182 216.744 3.7182 216.831Z" fill="#263238"/>
<path d="M10.794 216.831C10.794 217.005 9.99811 217.142 9.02811 217.142C8.05811 217.142 7.26221 217.005 7.26221 216.831C7.26221 216.657 8.05811 216.52 9.02811 216.52C9.99811 216.532 10.794 216.669 10.794 216.831Z" fill="#263238"/>
<path d="M17.858 216.831C17.858 217.005 17.0621 217.142 16.0921 217.142C15.1221 217.142 14.3262 217.005 14.3262 216.831C14.3262 216.657 15.1221 216.52 16.0921 216.52C17.0621 216.532 17.858 216.669 17.858 216.831Z" fill="#263238"/>
<path d="M24.9214 216.831C24.9214 217.005 24.1255 217.142 23.1555 217.142C22.1855 217.142 21.3896 217.005 21.3896 216.831C21.3896 216.657 22.1855 216.52 23.1555 216.52C24.1255 216.532 24.9214 216.669 24.9214 216.831Z" fill="#263238"/>
<path d="M31.9849 216.831C31.9849 217.005 31.189 217.142 30.219 217.142C29.249 217.142 28.4531 217.005 28.4531 216.831C28.4531 216.657 29.249 216.52 30.219 216.52C31.2015 216.532 31.9849 216.669 31.9849 216.831Z" fill="#263238"/>
<path d="M39.0484 216.831C39.0484 217.005 38.2525 217.142 37.2825 217.142C36.3125 217.142 35.5166 217.005 35.5166 216.831C35.5166 216.657 36.3125 216.52 37.2825 216.52C38.2649 216.532 39.0484 216.669 39.0484 216.831Z" fill="#263238"/>
<path d="M46.1246 216.831C46.1246 217.005 45.3287 217.142 44.3587 217.142C43.3887 217.142 42.5928 217.005 42.5928 216.831C42.5928 216.657 43.3887 216.52 44.3587 216.52C45.3287 216.532 46.1246 216.669 46.1246 216.831Z" fill="#263238"/>
<path d="M53.188 216.831C53.188 217.005 52.3921 217.142 51.4221 217.142C50.4521 217.142 49.6562 217.005 49.6562 216.831C49.6562 216.657 50.4521 216.52 51.4221 216.52C52.3921 216.532 53.188 216.669 53.188 216.831Z" fill="#263238"/>
<path d="M60.252 216.831C60.252 217.005 59.4561 217.142 58.4861 217.142C57.5161 217.142 56.7202 217.005 56.7202 216.831C56.7202 216.657 57.5161 216.52 58.4861 216.52C59.4561 216.532 60.252 216.669 60.252 216.831Z" fill="#263238"/>
<path d="M67.3155 216.831C67.3155 217.005 66.5196 217.142 65.5496 217.142C64.5796 217.142 63.7837 217.005 63.7837 216.831C63.7837 216.657 64.5796 216.52 65.5496 216.52C66.5196 216.532 67.3155 216.669 67.3155 216.831Z" fill="#263238"/>
<path d="M74.379 216.831C74.379 217.005 73.5831 217.142 72.6131 217.142C71.6431 217.142 70.8472 217.005 70.8472 216.831C70.8472 216.657 71.6431 216.52 72.6131 216.52C73.5955 216.532 74.379 216.669 74.379 216.831Z" fill="#263238"/>
<path d="M81.4424 216.831C81.4424 217.005 80.6465 217.142 79.6765 217.142C78.7065 217.142 77.9106 217.005 77.9106 216.831C77.9106 216.657 78.7065 216.52 79.6765 216.52C80.659 216.532 81.4424 216.669 81.4424 216.831Z" fill="#263238"/>
<path d="M88.5186 216.831C88.5186 217.005 87.7227 217.142 86.7527 217.142C85.7827 217.142 84.9868 217.005 84.9868 216.831C84.9868 216.657 85.7827 216.52 86.7527 216.52C87.7227 216.532 88.5186 216.669 88.5186 216.831Z" fill="#263238"/>
<path d="M89.4886 222.924C89.3145 222.924 89.1777 222.128 89.1777 221.158C89.1777 220.188 89.3145 219.393 89.4886 219.393C89.6627 219.393 89.7995 220.188 89.7995 221.158C89.7871 222.141 89.6503 222.924 89.4886 222.924Z" fill="#263238"/>
<path d="M89.4886 229.988C89.3145 229.988 89.1777 229.192 89.1777 228.222C89.1777 227.252 89.3145 226.456 89.4886 226.456C89.6627 226.456 89.7995 227.252 89.7995 228.222C89.7871 229.204 89.6503 229.988 89.4886 229.988Z" fill="#263238"/>
<path d="M89.4886 237.064C89.3145 237.064 89.1777 236.268 89.1777 235.298C89.1777 234.328 89.3145 233.532 89.4886 233.532C89.6627 233.532 89.7995 234.328 89.7995 235.298C89.7871 236.268 89.6503 237.064 89.4886 237.064Z" fill="#263238"/>
<path d="M89.4886 244.127C89.3145 244.127 89.1777 243.332 89.1777 242.362C89.1777 241.392 89.3145 240.596 89.4886 240.596C89.6627 240.596 89.7995 241.392 89.7995 242.362C89.7871 243.332 89.6503 244.127 89.4886 244.127Z" fill="#263238"/>
<path d="M89.4886 251.191C89.3145 251.191 89.1777 250.396 89.1777 249.426C89.1777 248.456 89.3145 247.66 89.4886 247.66C89.6627 247.66 89.7995 248.456 89.7995 249.426C89.7871 250.396 89.6503 251.191 89.4886 251.191Z" fill="#263238"/>
<path d="M89.4886 258.255C89.3145 258.255 89.1777 257.459 89.1777 256.489C89.1777 255.519 89.3145 254.723 89.4886 254.723C89.6627 254.723 89.7995 255.519 89.7995 256.489C89.7871 257.471 89.6503 258.255 89.4886 258.255Z" fill="#263238"/>
<path d="M89.4886 265.318C89.3145 265.318 89.1777 264.523 89.1777 263.553C89.1777 262.583 89.3145 261.787 89.4886 261.787C89.6627 261.787 89.7995 262.583 89.7995 263.553C89.7871 264.535 89.6503 265.318 89.4886 265.318Z" fill="#263238"/>
<path d="M89.4886 272.382C89.3145 272.382 89.1777 271.586 89.1777 270.616C89.1777 269.646 89.3145 268.85 89.4886 268.85C89.6627 268.85 89.7995 269.646 89.7995 270.616C89.7871 271.598 89.6503 272.382 89.4886 272.382Z" fill="#263238"/>
<path d="M89.4886 279.458C89.3145 279.458 89.1777 278.662 89.1777 277.692C89.1777 276.722 89.3145 275.926 89.4886 275.926C89.6627 275.926 89.7995 276.722 89.7995 277.692C89.7871 278.662 89.6503 279.458 89.4886 279.458Z" fill="#263238"/>
<path d="M89.4886 286.522C89.3145 286.522 89.1777 285.726 89.1777 284.756C89.1777 283.786 89.3145 282.99 89.4886 282.99C89.6627 282.99 89.7995 283.786 89.7995 284.756C89.7871 285.726 89.6503 286.522 89.4886 286.522Z" fill="#263238"/>
<path d="M89.4886 293.586C89.3145 293.586 89.1777 292.79 89.1777 291.82C89.1777 290.85 89.3145 290.054 89.4886 290.054C89.6627 290.054 89.7995 290.85 89.7995 291.82C89.7871 292.79 89.6503 293.586 89.4886 293.586Z" fill="#263238"/>
<path d="M89.4886 300.649C89.3145 300.649 89.1777 299.853 89.1777 298.883C89.1777 297.913 89.3145 297.117 89.4886 297.117C89.6627 297.117 89.7995 297.913 89.7995 298.883C89.7871 299.866 89.6503 300.649 89.4886 300.649Z" fill="#263238"/>
<path d="M92.685 299.057H86.293V305.449H92.685V299.057Z" fill="#263238"/>
<path d="M6.39206 299.928H0V306.32H6.39206V299.928Z" fill="#263238"/>
<path d="M92.685 213.013H86.293V219.405H92.685V213.013Z" fill="#263238"/>
<path d="M6.39206 213.635H0V220.027H6.39206V213.635Z" fill="#263238"/>
</g>
<defs>
<clipPath id="clip0_111_954">
<rect width="536" height="534.135" fill="white" transform="translate(0 0.869141)"/>
</clipPath>
</defs>
</svg>
