<svg width="647" height="516" viewBox="0 0 647 516" fill="none" xmlns="http://www.w3.org/2000/svg">
<path opacity="0.95" d="M526.078 145.018C528.579 145.018 530.606 142.993 530.606 140.494C530.606 137.995 528.579 135.97 526.078 135.97H525.321C525.103 134.868 524.821 133.791 524.449 132.741L525.103 132.369C527.258 131.1 527.989 128.332 526.719 126.166C525.475 124.039 522.755 123.296 520.6 124.5L519.946 124.885C519.176 123.988 518.342 123.155 517.457 122.386L517.842 121.732C519.06 119.541 518.278 116.786 516.084 115.568C513.942 114.376 511.248 115.094 509.99 117.196L509.618 117.849C508.528 117.465 507.412 117.17 506.283 116.952V116.196C506.283 113.697 504.243 111.672 501.741 111.672C499.24 111.672 497.213 113.697 497.213 116.196V116.952C496.109 117.157 495.032 117.452 493.98 117.811L493.608 117.157C492.325 115.004 489.541 114.299 487.386 115.581C485.282 116.824 484.55 119.515 485.731 121.655L486.103 122.309C485.205 123.078 484.371 123.911 483.601 124.795L482.947 124.411C480.792 123.142 478.008 123.86 476.738 126.013C475.468 128.166 476.186 130.946 478.341 132.215C478.367 132.228 478.393 132.241 478.405 132.254L479.06 132.625C478.675 133.715 478.38 134.83 478.162 135.957H477.405C474.903 135.957 472.876 137.982 472.876 140.481C472.876 142.98 474.903 145.005 477.405 145.005H478.162C478.367 146.107 478.662 147.183 479.021 148.234L478.367 148.606C476.186 149.849 475.442 152.617 476.673 154.783C477.918 156.961 480.689 157.705 482.857 156.474L483.511 156.103C484.281 157 485.115 157.833 486 158.602L485.615 159.255C484.384 161.434 485.153 164.189 487.334 165.432C489.49 166.65 492.209 165.919 493.467 163.792L493.839 163.138C494.929 163.523 496.045 163.818 497.174 164.035V164.792C497.136 167.291 499.124 169.354 501.626 169.392C504.127 169.431 506.193 167.444 506.231 164.945C506.231 164.894 506.231 164.843 506.231 164.792V164.035C507.335 163.83 508.412 163.536 509.464 163.177L509.836 163.83C511.081 165.996 513.852 166.752 516.02 165.509C518.188 164.266 518.945 161.498 517.7 159.332L517.328 158.679C518.226 157.91 519.06 157.077 519.83 156.193L520.484 156.577C522.652 157.833 525.424 157.09 526.681 154.924C527.938 152.758 527.194 149.99 525.026 148.734L524.372 148.362C524.756 147.273 525.051 146.158 525.27 145.03L526.078 145.018ZM501.754 155.436C493.492 155.436 486.796 148.747 486.796 140.494C486.796 132.241 493.492 125.551 501.754 125.551C510.016 125.551 516.713 132.241 516.713 140.494C516.713 148.747 510.016 155.436 501.754 155.436Z" fill="#E58842"/>
<path d="M549.221 97.2039C550.106 97.2039 550.838 96.4735 550.838 95.5892C550.838 94.705 550.119 93.9745 549.221 93.9745H548.952C548.875 93.5772 548.772 93.1928 548.644 92.8211L548.875 92.693C549.645 92.2573 549.914 91.2705 549.478 90.4888C549.042 89.7198 548.054 89.4507 547.271 89.8864L547.04 90.0146C546.771 89.6942 546.476 89.3995 546.155 89.1303L546.296 88.8997C546.745 88.1308 546.476 87.144 545.706 86.6954C544.936 86.2469 543.949 86.516 543.5 87.2849L543.371 87.5156C542.986 87.3875 542.589 87.2721 542.178 87.1952V86.9389C542.178 86.0547 541.46 85.3242 540.562 85.3242C539.664 85.3242 538.945 86.0419 538.945 86.9389V87.2081C538.548 87.2849 538.163 87.3875 537.791 87.5156L537.662 87.2849C537.226 86.5032 536.238 86.2341 535.469 86.657C534.686 87.0927 534.417 88.0795 534.84 88.8612L534.853 88.8869L534.981 89.1175C534.66 89.3866 534.365 89.6814 534.096 90.0018L533.865 89.8608C533.082 89.4251 532.095 89.707 531.671 90.4888C531.248 91.2449 531.504 92.206 532.249 92.6545L532.479 92.7827C532.338 93.1671 532.236 93.5644 532.159 93.9745H531.889C531.004 93.9745 530.273 94.6922 530.273 95.5892C530.273 96.4735 530.991 97.2039 531.889 97.2039H532.159C532.236 97.6012 532.338 97.9857 532.467 98.3573L532.236 98.4855C531.466 98.934 531.209 99.9208 531.646 100.69C532.095 101.446 533.057 101.715 533.827 101.279L534.057 101.151C534.327 101.471 534.622 101.766 534.943 102.035L534.814 102.266C534.378 103.048 534.66 104.022 535.443 104.457C536.2 104.88 537.162 104.624 537.611 103.881L537.739 103.65C538.124 103.791 538.522 103.894 538.932 103.97V104.24C538.932 105.124 539.651 105.854 540.549 105.854C541.447 105.854 542.165 105.137 542.165 104.24V103.97C542.563 103.894 542.948 103.791 543.32 103.663L543.448 103.893C543.884 104.662 544.872 104.932 545.655 104.496C546.425 104.047 546.694 103.073 546.258 102.292L546.13 102.061C546.45 101.792 546.745 101.497 547.015 101.177L547.246 101.318C548.028 101.753 549.003 101.471 549.439 100.69C549.863 99.9336 549.606 98.9725 548.862 98.5239L548.631 98.3958C548.759 98.0113 548.875 97.614 548.952 97.2039H549.221ZM540.562 100.908C537.624 100.908 535.238 98.5239 535.238 95.5892C535.238 92.6545 537.624 90.2709 540.562 90.2709C543.5 90.2709 545.886 92.6545 545.886 95.5892C545.886 98.5239 543.5 100.908 540.562 100.908Z" fill="#FFB648"/>
<path d="M25.1196 176.414C26.2999 176.414 27.2621 175.453 27.2621 174.261C27.2621 173.082 26.2999 172.121 25.1196 172.121H24.7604C24.6578 171.596 24.5295 171.083 24.3499 170.583L24.6578 170.417C25.6584 169.789 25.9663 168.469 25.3377 167.469C24.7476 166.521 23.516 166.188 22.5282 166.7L22.2203 166.867C21.8611 166.444 21.4634 166.047 21.04 165.688L21.2196 165.38C21.8226 164.368 21.489 163.048 20.4627 162.446C19.4877 161.869 18.2433 162.151 17.6019 163.074C17.5634 163.125 17.5377 163.189 17.4992 163.24L17.3324 163.548C16.8193 163.368 16.2933 163.227 15.7545 163.125V162.766C15.7801 161.587 14.8436 160.6 13.6634 160.575C12.4831 160.549 11.4953 161.485 11.4696 162.664C11.4696 162.702 11.4696 162.728 11.4696 162.766V163.125C10.9436 163.227 10.4305 163.356 9.93013 163.535L9.76336 163.227C9.13474 162.228 7.81335 161.92 6.8127 162.548C5.86335 163.138 5.5298 164.368 6.04296 165.355L6.22256 165.662C5.79921 166.021 5.40151 166.418 5.0423 166.841L4.7344 166.675C3.73374 166.047 2.41236 166.342 1.77091 167.341C1.12946 168.341 1.43736 169.661 2.43802 170.302C2.46368 170.314 2.48933 170.34 2.51499 170.353L2.56631 170.391L2.8742 170.558C2.6946 171.07 2.55348 171.596 2.45085 172.134H2.09164C0.911372 172.16 -0.0251431 173.146 0.000514874 174.325C0.0261728 175.466 0.949859 176.389 2.09164 176.414H2.45085C2.55348 176.94 2.68177 177.452 2.86137 177.952L2.55348 178.119C1.55282 178.747 1.24492 180.067 1.87354 181.066C2.46368 182.015 3.69526 182.348 4.68309 181.835L4.99098 181.669C5.35019 182.092 5.74789 182.489 6.17125 182.848L6.00447 183.155C5.41434 184.18 5.76072 185.488 6.78704 186.09C7.81335 186.692 9.12191 186.333 9.72487 185.308L9.89165 185.001C10.4048 185.18 10.9308 185.321 11.4696 185.423V185.782C11.4439 186.961 12.3805 187.948 13.5607 187.974C14.741 187.999 15.7288 187.064 15.7545 185.885C15.7545 185.846 15.7545 185.821 15.7545 185.782V185.423C16.2805 185.321 16.7936 185.193 17.294 185.013L17.4607 185.321C18.0509 186.346 19.3594 186.705 20.3857 186.116C21.4121 185.526 21.7713 184.219 21.1811 183.194L21.0144 182.886C21.4377 182.527 21.8354 182.13 22.1946 181.707L22.5025 181.886C23.5288 182.476 24.8374 182.13 25.4403 181.105C26.0305 180.08 25.6841 178.772 24.6578 178.17L24.3499 178.003C24.5295 177.491 24.6706 176.965 24.7732 176.427L25.1196 176.414ZM13.5992 181.335C9.68638 181.335 6.51763 178.17 6.51763 174.261C6.51763 170.353 9.68638 167.187 13.5992 167.187C17.5121 167.187 20.6808 170.353 20.6808 174.261C20.6808 178.17 17.5121 181.335 13.5992 181.335Z" fill="#BDC0C6"/>
<path d="M302.354 0C296.247 0 291.308 4.94668 291.308 11.0467C291.308 17.1468 302.354 33.9732 302.354 33.9732C302.354 33.9732 313.412 17.1468 313.412 11.0467C313.399 4.94668 308.447 0 302.354 0ZM302.354 18.0567C298.479 18.0567 295.336 14.9169 295.336 11.0467C295.336 7.17654 298.479 4.0368 302.354 4.0368C306.228 4.0368 309.371 7.17654 309.371 11.0467C309.371 14.9169 306.228 18.0567 302.354 18.0567Z" fill="#DB5D6F"/>
<path d="M71.4066 263.123L87.122 260.688C88.0072 260.547 88.6872 259.842 88.7898 258.945L90.0855 247.322C90.2138 246.232 89.4184 245.258 88.3408 245.13C88.1612 245.105 87.9944 245.117 87.8148 245.143L66.044 248.513C64.9664 248.68 64.2223 249.68 64.3763 250.756C64.4019 250.935 64.4533 251.102 64.5302 251.269L69.2769 261.957C69.6362 262.79 70.5085 263.264 71.4066 263.123Z" fill="#D37982"/>
<path d="M69.0204 266.071L87.9559 263.149C88.174 263.11 88.3151 262.918 88.2895 262.7C88.251 262.482 88.0585 262.341 87.8405 262.367L69.2 265.25L59.0651 243.311C58.9881 243.144 58.8213 243.054 58.6417 243.08L54.5236 243.721C54.3055 243.759 54.1644 243.951 54.1901 244.169C54.2286 244.387 54.421 244.528 54.6391 244.502L58.4621 243.913L68.597 265.853C68.674 266.006 68.8536 266.096 69.0204 266.071ZM85.5312 266.66C85.7237 267.929 86.9039 268.787 88.174 268.595C89.4441 268.403 90.3036 267.224 90.1112 265.955C89.9187 264.686 88.7385 263.828 87.4684 264.02C86.1983 264.212 85.3388 265.404 85.5312 266.66ZM68.8792 269.236C69.0717 270.505 70.2648 271.363 71.522 271.171C72.7792 270.979 73.6516 269.787 73.4592 268.531C73.2667 267.262 72.0737 266.404 70.8164 266.596C69.5464 266.788 68.6868 267.967 68.8792 269.236Z" fill="#D37982"/>
<path d="M624.194 308.604C629.518 309.347 634.919 310.065 639.871 310.347C641.436 310.437 643.065 308.271 641.269 307.31C642.116 307.028 642.963 306.746 643.412 305.951C643.835 305.195 643.578 304.068 642.719 303.76C644.515 304.414 645.592 301.735 644.258 300.672C645.092 300.146 645.836 299.416 646.106 298.506C646.375 297.596 646.106 296.481 645.272 295.93C644.733 295.558 644.04 295.469 643.386 295.379L636.728 294.52C637.728 291.316 638.344 287.767 636.933 284.678C636.51 283.743 635.201 282.538 633.982 283.063C632.84 283.563 632.943 285.152 632.879 286.139C632.597 290.24 629.646 294.046 625.592 295.494C625.592 295.469 624.784 304.183 624.194 308.604Z" fill="#4ABAFF"/>
<path d="M614.2 307.348L615.804 294.251L623.873 295.238L622.269 308.335L614.2 307.348Z" fill="#4ABAFF"/>
<path d="M418.417 67.5364C414.184 69.6765 412.503 74.8411 414.645 79.0701C415.569 80.8899 417.109 82.3123 418.982 83.0941L418.789 83.6708L418.533 84.4397L418.071 85.8622L417.583 85.7084C417.134 85.5674 416.66 85.8109 416.506 86.2594L413.555 95.1917L413.055 96.7551C412.914 97.2037 413.157 97.6778 413.593 97.8316L415.826 98.5621L416.313 98.7159C416.762 98.8568 417.237 98.6133 417.391 98.1648L417.66 97.3318L417.878 96.6654L420.842 87.6819L420.855 87.6435C420.867 87.5922 420.88 87.5282 420.893 87.4769C420.919 87.0924 420.675 86.7336 420.303 86.6183L419.649 86.4004L419.867 85.7468L420.123 84.9395L420.56 83.5939C425.204 84.555 429.745 81.5819 430.707 76.9428C431.669 72.3036 428.693 67.7671 424.049 66.8059C422.163 66.3702 420.162 66.6393 418.417 67.5364ZM428.449 72.0602C430.168 75.4434 428.821 79.5827 425.435 81.2999C422.048 83.0172 417.904 81.6716 416.185 78.2884C414.466 74.9051 415.813 70.7786 419.2 69.0486C422.574 67.3313 426.717 68.6769 428.449 72.0602Z" fill="#E08288"/>
<path d="M420.47 70.1377L427.795 73.6875C426.705 69.9968 422.381 69.0997 420.47 70.1377Z" fill="#E08288"/>
<path opacity="0.7" d="M321.11 76.2123V186.308C321.11 190.165 318.095 193.292 314.362 193.292H118.053C114.332 193.292 111.305 190.165 111.305 186.308V76.2123C111.305 72.3549 114.32 69.228 118.053 69.228H314.375C318.095 69.2408 321.11 72.3678 321.11 76.2123Z" fill="#97DFFA"/>
<path opacity="0.79" d="M83.4402 32.8838H262.917C268.177 32.8838 272.449 37.1513 272.449 42.4055V164.753C272.449 170.007 268.177 174.274 262.917 174.274H83.4402C78.1803 174.274 73.9082 170.007 73.9082 164.753V42.4055C73.9082 37.1513 78.1803 32.8838 83.4402 32.8838Z" fill="white"/>
<path d="M216.759 105.649H253.27C253.373 105.649 253.463 105.739 253.463 105.842V115.286C253.463 115.389 253.373 115.479 253.27 115.479H216.759C216.656 115.479 216.566 115.389 216.566 115.286V105.842C216.566 105.739 216.656 105.649 216.759 105.649Z" fill="#89DFFF"/>
<path d="M216.759 124.052H253.27C253.373 124.052 253.463 124.141 253.463 124.244V133.689C253.463 133.791 253.373 133.881 253.27 133.881H216.759C216.656 133.881 216.566 133.791 216.566 133.689V124.231C216.566 124.129 216.656 124.052 216.759 124.052Z" fill="#49CAFB"/>
<path d="M216.759 142.441H253.27C253.373 142.441 253.463 142.531 253.463 142.634V152.078C253.463 152.181 253.373 152.271 253.27 152.271H216.759C216.656 152.271 216.566 152.181 216.566 152.078V142.634C216.566 142.531 216.656 142.441 216.759 142.441Z" fill="#00AEEF"/>
<path d="M126.944 203.122H172.82V207.812H126.944V203.122ZM181.749 203.122H214.322V207.812H181.749V203.122ZM344.882 203.122H377.455V207.812H344.882V203.122ZM359.289 98.1521H337.762C337.031 98.1521 336.441 97.5626 336.441 96.8321V92.193C336.441 91.4625 337.031 90.873 337.762 90.873H359.289C360.02 90.873 360.598 91.4625 360.61 92.193V96.8321C360.598 97.5626 360.007 98.1521 359.289 98.1521ZM359.289 115.581H337.762C337.031 115.581 336.441 114.991 336.441 114.261V109.622C336.441 108.891 337.031 108.302 337.749 108.302H359.276C360.007 108.302 360.585 108.891 360.598 109.609V114.248C360.61 114.991 360.02 115.581 359.289 115.581ZM359.289 133.022H337.762C337.031 133.022 336.441 132.433 336.441 131.702V127.063C336.441 126.333 337.031 125.743 337.762 125.743H359.289C360.02 125.743 360.61 126.333 360.61 127.063V131.702C360.598 132.433 360.007 133.022 359.289 133.022ZM359.289 150.464H337.762C337.031 150.464 336.441 149.874 336.441 149.144V144.505C336.441 143.774 337.031 143.185 337.762 143.185H359.289C360.02 143.185 360.61 143.774 360.61 144.505V149.144C360.598 149.874 360.007 150.464 359.289 150.464ZM359.289 167.905H337.762C337.031 167.905 336.441 167.316 336.441 166.585V161.946C336.441 161.216 337.031 160.626 337.762 160.626H359.289C360.02 160.626 360.598 161.216 360.61 161.946V166.585C360.598 167.316 360.007 167.905 359.289 167.905ZM359.289 185.347H337.762C337.031 185.347 336.441 184.757 336.441 184.04V179.388C336.441 178.657 337.031 178.068 337.762 178.068H359.289C360.02 178.068 360.598 178.657 360.61 179.388V184.027C360.598 184.757 360.02 185.334 359.289 185.347ZM376.133 98.1521H371.887C371.156 98.1521 370.566 97.5626 370.566 96.8321V92.193C370.566 91.4625 371.156 90.873 371.887 90.873H376.133C376.865 90.873 377.455 91.4625 377.455 92.193V96.8321C377.455 97.5626 376.865 98.1521 376.133 98.1521ZM376.133 115.581H371.887C371.156 115.581 370.566 114.991 370.566 114.261V109.622C370.566 108.891 371.156 108.302 371.874 108.302H376.121C376.852 108.302 377.442 108.891 377.442 109.622V114.261C377.455 114.991 376.865 115.581 376.133 115.581ZM376.133 133.022H371.887C371.156 133.022 370.566 132.433 370.566 131.702V127.063C370.566 126.333 371.156 125.743 371.887 125.743H376.133C376.865 125.743 377.455 126.333 377.455 127.063V131.702C377.455 132.433 376.865 133.022 376.133 133.022ZM376.133 150.464H371.887C371.156 150.464 370.566 149.874 370.566 149.144V144.505C370.566 143.774 371.156 143.185 371.887 143.185H376.133C376.865 143.185 377.455 143.774 377.455 144.505V149.144C377.455 149.874 376.865 150.464 376.133 150.464Z" fill="#C8F0FF"/>
<path d="M371.9 160.626H376.146C376.877 160.626 377.468 161.215 377.468 161.946V166.585C377.468 167.316 376.877 167.905 376.146 167.905H371.9C371.169 167.905 370.578 167.316 370.578 166.585V161.946C370.578 161.215 371.169 160.626 371.9 160.626Z" fill="#49CAFB"/>
<path d="M376.133 185.347H371.887C371.156 185.347 370.566 184.757 370.566 184.04V179.401C370.566 178.67 371.156 178.081 371.887 178.081H376.133C376.865 178.081 377.455 178.67 377.455 179.401V184.04C377.455 184.757 376.865 185.347 376.133 185.347ZM223.084 203.122H264.573V207.812H223.084V203.122ZM295.26 203.122H336.749V207.812H295.26V203.122ZM272.245 203.122H287.434V207.812H272.245V203.122ZM126.944 220.781H150.703V225.471H126.944V220.781ZM156.54 220.781H164.212V225.471H156.54V220.781ZM314.041 220.781H377.455V225.471H314.041V220.781ZM169.844 220.781H177.669V225.471H169.844V220.781ZM287.434 220.781H308.178V225.471H287.434V220.781ZM237.799 220.781H281.943V225.471H237.799V220.781ZM216.349 220.781H231.538V225.471H216.349V220.781ZM184.097 220.781H210.563V225.471H184.097V220.781Z" fill="#49CAFB"/>
<path d="M198.734 83.7345C190.524 60.8209 168.612 46.7369 145.494 47.4418C139.76 47.6212 134.089 48.6849 128.688 50.62C111.857 56.6431 99.7846 70.0351 94.8327 85.8491C91.2662 97.2034 91.5228 109.403 95.5511 120.604C95.9616 121.757 96.4235 122.898 96.8981 124.013C99.0406 128.947 101.901 133.547 105.391 137.635C119.734 154.475 143.531 161.6 165.597 153.706C194.09 143.53 208.933 112.21 198.734 83.7345ZM160.979 140.814C144.429 146.734 126.584 141.39 115.834 128.767C113.217 125.692 111.074 122.257 109.471 118.554C109.111 117.721 108.765 116.862 108.457 115.991C105.442 107.597 105.25 98.4464 107.918 89.9371C111.639 78.0702 120.683 68.0359 133.307 63.5249C137.361 62.0768 141.607 61.2694 145.918 61.1285C163.237 60.603 179.683 71.1628 185.829 88.348C193.475 109.698 182.339 133.176 160.979 140.814Z" fill="#00AEEF"/>
<path d="M107.918 89.9369L94.8196 85.8488C99.7844 70.022 111.856 56.6429 128.675 50.6197C134.076 48.6846 139.747 47.6081 145.494 47.4287L145.905 61.1282C128.393 61.6793 113.152 73.2386 107.918 89.9369Z" fill="#49CAFB"/>
<path d="M109.47 118.554L96.8979 124.026C96.4104 122.911 95.9485 121.771 95.538 120.617C91.5097 109.417 91.2531 97.2166 94.8196 85.8623L107.918 89.9504C105.25 98.4597 105.429 107.61 108.457 116.004C108.765 116.862 109.098 117.708 109.47 118.554Z" fill="#89DFFF"/>
<path d="M105.391 137.648C101.901 133.548 99.0403 128.96 96.8979 124.026L109.47 118.554C111.074 122.257 113.229 125.705 115.846 128.767L105.391 137.648Z" fill="#C8F0FF"/>
<path d="M202.096 462.029C202.135 462.029 202.161 462.003 202.161 461.965C202.161 461.926 202.135 461.9 202.096 461.9C202.057 461.9 202.031 461.926 202.031 461.965C202.031 462.003 202.057 462.029 202.096 462.029Z" fill="#FEFEFE"/>
<path d="M65.9416 372.808L141.504 342.551V339.347L65.9416 369.437V372.808ZM8.66029 462.245L84.2229 431.989V428.785L8.66029 458.875V462.245ZM71.317 417.533L146.88 387.276V384.072L71.317 414.163V417.533Z" fill="white"/>
<path d="M100.503 378.652L560.126 189.627L550.107 165.56L637.793 176.44L584.399 246.616L574.174 223.434L100.503 429.349V378.652Z" fill="white"/>
<path d="M474.377 483.763L473.402 490.286C473.402 490.286 477.854 503.537 489.746 491.759L490.798 485.134L474.377 483.763Z" fill="#F4D3BA"/>
<path d="M473.351 490.324C473.351 490.324 471.812 490.683 471.222 494.605L468.412 506.446C468.412 506.446 468.605 508.112 471.183 508.829C473.762 509.547 478.406 510.97 478.406 510.97C478.406 510.97 479.484 510.483 483.101 511.687C486.719 512.892 504.359 515.801 509.106 515.224C513.852 514.648 513.814 514.443 514.353 510.931C514.353 510.931 514.879 508.483 513.057 507.189C511.235 505.895 506.142 503.306 504 502.101C501.857 500.897 495.161 497.988 491.902 493.131C491.902 493.131 491.03 491.772 489.721 491.888C488.412 492.003 482.691 494.81 480.715 494.835C478.739 494.861 476.931 494.22 475.442 492.349C473.954 490.478 473.351 490.324 473.351 490.324Z" fill="#1B212E"/>
<path d="M556.444 407.46L554.738 413.83C554.738 413.83 557.65 427.503 570.813 417.149L572.609 410.677L556.444 407.46Z" fill="#F4D3BA"/>
<path d="M554.674 413.868C554.674 413.868 553.096 414.048 552.069 417.879L547.939 429.323C547.939 429.323 547.939 431.002 550.427 432.002C552.916 433.001 557.355 434.949 557.355 434.949C557.355 434.949 558.484 434.59 561.935 436.205C565.386 437.82 582.59 442.715 587.375 442.664C592.16 442.613 592.134 442.421 593.071 438.999C593.071 438.999 593.866 436.628 592.199 435.141C590.531 433.655 585.771 430.502 583.783 429.067C581.794 427.632 575.47 423.979 572.788 418.789C572.788 418.789 572.083 417.341 570.761 417.303C569.44 417.264 563.449 419.404 561.473 419.212C559.497 419.02 557.778 418.174 556.521 416.136C555.264 414.099 554.674 413.868 554.674 413.868Z" fill="#1B212E"/>
<path d="M509.106 513.174C504.359 513.75 486.719 510.841 483.101 509.637C479.484 508.432 478.406 508.919 478.406 508.919C478.406 508.919 473.775 507.484 471.183 506.779C469.746 506.381 469.054 505.689 468.72 505.164L468.412 506.458C468.412 506.458 468.605 508.124 471.183 508.842C473.762 509.56 478.406 510.982 478.406 510.982C478.406 510.982 479.484 510.495 483.101 511.7C486.719 512.904 504.359 515.814 509.106 515.237C513.852 514.66 513.814 514.455 514.353 510.944C514.455 510.354 514.442 509.739 514.314 509.15C513.801 512.392 513.737 512.597 509.106 513.174ZM593.071 436.936C592.135 440.357 592.16 440.562 587.375 440.601C582.59 440.639 565.399 435.744 561.935 434.142C558.471 432.54 557.355 432.886 557.355 432.886C557.355 432.886 552.916 430.938 550.428 429.939C549.247 429.464 548.632 428.836 548.298 428.311L547.939 429.311C547.939 429.311 547.939 430.989 550.428 431.989C552.916 432.989 557.355 434.937 557.355 434.937C557.355 434.937 558.484 434.578 561.935 436.192C565.386 437.807 582.59 442.703 587.375 442.651C592.16 442.6 592.135 442.408 593.071 438.986C593.289 438.23 593.315 437.435 593.148 436.667C593.122 436.756 593.097 436.846 593.071 436.936Z" fill="#C75D9C"/>
<path d="M483.473 367.849L468.566 473.831C468.566 473.831 467.257 481.341 472.876 482.994C478.495 484.647 491.927 492.106 495.327 480.444C498.727 468.782 525.886 383.035 525.886 383.035C525.886 383.035 544.257 378.14 558.035 367.067L553.096 405.564C553.096 405.564 557.855 414.509 575.919 409.716C575.919 409.716 604.861 364.978 590.467 338.22C576.073 311.462 552.519 323.457 507.63 345.627L483.473 367.849Z" fill="#D2D4D8"/>
<path d="M579.472 403.142C560.921 408.063 556.034 398.887 556.034 398.887L561.101 359.352C546.951 370.719 528.092 375.743 528.092 375.743C528.092 375.743 500.215 463.783 496.713 475.753C493.21 487.722 479.445 480.059 473.659 478.367C468.835 476.958 468.976 471.344 469.156 469.538L468.553 473.843C468.553 473.843 467.244 481.353 472.863 483.006C478.483 484.66 491.914 492.131 495.314 480.456C498.714 468.781 525.873 383.047 525.873 383.047C525.873 383.047 544.244 378.152 558.022 367.08L553.083 405.589C553.083 405.589 557.843 414.534 575.906 409.742C575.906 409.742 578.638 405.525 581.999 398.913C580.473 401.604 579.472 403.142 579.472 403.142Z" fill="#BDC0C6"/>
<path d="M445.628 340.834L440.791 353.649C440.791 353.649 440.009 354.662 440.612 356.34C441.215 358.019 440.189 360.403 440.265 361.159C440.342 361.915 440.933 363.197 442.049 362.633C443.165 362.069 445.23 357.891 446.577 357.391C447.924 356.891 448.951 356.187 448.874 355.956C448.797 355.725 447.796 355.277 448.874 354.226C449.951 353.175 448.681 351.778 449.015 351.24C449.348 350.702 450.221 349.728 451.055 351.496C451.888 353.265 452.902 357.443 454.185 355.597C455.468 353.752 454.595 351.419 454.236 349.01C453.877 346.601 453.518 347.037 454.172 345.704L445.628 340.834Z" fill="#FDEAD9"/>
<path d="M485.615 265.621C485.615 265.621 471.208 272.644 454.941 308.142C454.941 308.142 443.549 328.032 446.333 335.657C446.333 335.657 443.19 340.116 445.961 341.603L454.531 346.447C454.531 346.447 456.943 348.19 458.662 344.166C460.381 340.142 462.203 341.91 464.345 339.399C466.487 336.887 476.083 323.751 480.304 312.692C480.304 312.692 490.029 334.67 472.709 366.08C472.709 366.08 505.411 376.832 507.656 345.64L536.328 331.927C536.328 331.927 539.151 299.838 529.542 275.335C529.542 275.335 552.916 254.331 549.478 234.288C549.478 234.288 527.964 243.643 513.672 249.705C499.073 255.895 491.53 261.777 485.615 265.621Z" fill="#49CAFB"/>
<path d="M450.22 343.859C447.372 342.346 450.605 337.771 450.605 337.771C447.744 329.954 459.431 309.565 459.431 309.565C476.109 273.17 490.875 265.968 490.875 265.968C496.931 262.021 504.666 255.997 519.625 249.654C529.247 245.566 542.063 240.03 549.722 236.71C549.67 235.929 549.568 235.147 549.439 234.365C549.247 233.199 527.925 243.72 513.634 249.782C499.047 255.972 491.504 261.854 485.59 265.699C485.59 265.699 471.183 272.721 454.916 308.219C454.916 308.219 443.524 328.109 446.307 335.734C446.307 335.734 443.164 340.194 445.935 341.667L454.505 346.511C454.839 346.729 455.211 346.857 455.608 346.883L450.22 343.859Z" fill="#89DFFF"/>
<path d="M478.444 367.464C495.084 336.067 480.292 312.692 480.292 312.692C480.933 315.793 481.921 318.254 482.37 320.971C483.768 330.108 483.666 346.229 472.671 366.157C472.671 366.17 474.993 366.926 478.444 367.464Z" fill="#00AEEF"/>
<path d="M485.615 265.622C485.615 265.622 494.737 257.177 504.961 257.228C504.961 257.228 516.815 262.943 521.023 275.259C521.023 275.259 530.632 313.82 527.22 336.298L507.643 345.653C507.643 345.653 504.641 295.11 499.997 285.28C495.352 275.451 493.864 271.632 485.615 265.622Z" fill="#00AEEF"/>
<path d="M492.364 261.072C492.364 261.072 490.465 266.724 494.339 269.966C498.214 273.208 508.066 276.194 508.285 270.683C508.503 265.173 505.257 265.122 506.707 260.47C506.707 260.47 512.993 258.611 513.673 249.718L515.725 247.398C515.725 247.398 513.07 244.668 513.018 241.516C513.018 241.516 513.147 235.121 512.338 233.148C512.338 233.148 494.365 227.278 489.452 237.748C484.538 248.218 491.876 259.714 492.364 261.072Z" fill="#F4D3BA"/>
<path d="M492.364 261.072C492.364 261.072 485.295 255.139 483.961 249C482.627 242.862 485.962 240.273 485.564 237.031C485.167 233.789 486.783 226.612 499.394 223.152C512.005 219.705 510.247 212.028 515.251 215.13C515.251 215.13 517.932 213.515 518.56 216.462C519.189 219.41 524.667 226.138 513.018 241.503C513.018 241.503 513.057 235.019 512.338 233.135C512.338 233.135 510.145 236.621 505.783 235.467C501.421 234.314 498.47 236.903 498.56 240.555C498.65 244.207 498.894 245.95 497.649 247.232C497.649 247.232 495.071 243.08 492.351 244.131C489.631 245.181 488.887 247.744 489.811 250.372C490.734 252.999 495.712 255.421 495.032 256.856C494.352 258.291 492.364 261.072 492.364 261.072Z" fill="#18193D"/>
<path d="M145.776 315.78C145.776 315.78 131.19 320.253 127.982 309.245C124.775 298.236 131.228 301.85 134.038 300.646C134.038 300.646 114.743 298.493 121.093 283.55C127.444 268.608 131.831 280.756 137.052 281.666C142.274 282.576 142.287 276.809 147.29 271.927C152.293 267.044 155.885 267.313 162.71 269.646C162.71 269.646 165.032 268.582 168.483 269.735C168.483 269.735 169.92 269.581 171.883 267.275C173.846 264.968 177.297 260.713 180.889 265.263C184.481 269.812 184.122 279.078 179.054 282.871C179.054 282.871 154.115 316.331 145.776 315.78Z" fill="#1F183D"/>
<path d="M179.183 280.308C179.183 280.308 173.269 286.228 168.381 286.228C168.381 286.228 167.226 286.036 166.893 287.215C166.559 288.394 167.278 290.457 165.122 291.252C165.122 291.252 163.763 290.009 163.493 288.138C163.224 286.267 161.094 285.575 159.721 286.779C158.349 287.984 154.423 295.045 163.339 296.852L159.606 304.387L160.466 304.708C160.466 304.708 176.912 303.003 178.542 299.415L177.887 299.184C177.887 299.184 178.093 296.775 179.504 295.891C180.915 295.007 180.004 293.917 179.298 292.777C178.593 291.636 178.439 292.034 178.58 289.509L179.183 280.308Z" fill="#F4D3BA"/>
<path d="M128.265 345.755C128.265 345.755 119.939 341.911 117.181 351.317L114.64 362.723C114.64 362.723 112.601 372.731 122.8 373.129L128.265 345.755Z" fill="#E08288"/>
<path d="M123.364 345.088L122.633 373.103C122.761 373.115 122.89 373.115 123.018 373.128L128.483 345.755C128.483 345.755 126.033 344.627 123.364 345.088Z" fill="#D37982"/>
<path d="M224.841 289.881L174.808 300.133C174.808 300.133 154.218 301.978 140.555 322.086C126.892 342.193 124.826 352.97 122.004 385.854C122.004 385.854 141.209 369.092 172.55 361.236L177.771 328.391L226.599 326.904C226.599 326.904 231.589 306.784 224.841 289.881Z" fill="#303349"/>
<path d="M224.841 289.881L222.763 290.304C226.188 307.745 221.98 324.725 221.98 324.725L163.429 326.494L157.168 365.888C145.224 368.9 133.64 373.218 122.645 378.767C122.44 381.01 122.222 383.368 122.017 385.841C122.017 385.841 141.222 369.079 172.563 361.223L177.784 328.378L226.611 326.891C226.611 326.904 231.589 306.784 224.841 289.881Z" fill="#232A30"/>
<path d="M227.676 300.056C227.676 300.056 255.041 296.814 271.09 296.455C271.09 296.455 273.065 296.224 272.591 297.698C272.116 299.172 263.777 302.35 263.777 302.35C263.777 302.35 265.997 306.464 264.111 310.603C264.111 310.603 258.235 316.306 253.334 314.781C253.334 314.781 251.731 313.486 252.411 311.462C252.411 311.462 250.076 312.346 246.971 310.936C243.867 309.527 240.275 312.179 228.408 314.05L228.254 314.166C228.241 314.127 226.701 299.018 227.676 300.056Z" fill="#F4D3BA"/>
<path d="M97.3469 481.853L95.5124 487.569C95.5124 487.569 97.565 500.14 110.009 491.298L111.933 485.493L97.3469 481.853Z" fill="#FDE4CE"/>
<path d="M95.461 487.607C95.461 487.607 94.0241 487.709 92.9208 491.144L88.6488 501.383C88.6488 501.383 88.5718 502.908 90.7912 503.934C93.0106 504.959 96.9748 506.919 96.9748 506.919C96.9748 506.919 98.0139 506.638 101.093 508.252C104.172 509.867 119.605 515.083 123.967 515.249C128.329 515.416 128.316 515.237 129.317 512.161C129.317 512.161 130.15 510.034 128.701 508.611C127.251 507.189 123.043 504.113 121.299 502.716C119.554 501.319 113.96 497.718 111.741 492.874C111.741 492.874 111.164 491.516 109.971 491.439C108.777 491.362 103.223 493.041 101.426 492.771C99.6304 492.502 98.1166 491.669 97.0518 489.76C95.987 487.85 95.461 487.607 95.461 487.607Z" fill="#1D232E"/>
<path d="M122.017 385.854L93.6523 478.098C93.6523 478.098 95.102 489.645 119.413 487.248L153.641 404.782C153.641 404.782 170.023 399.233 179.555 391.032C179.555 391.032 179.324 393.979 168.907 412.984C168.907 412.984 166.2 416.354 171.96 419.52L184.815 426.722C184.815 426.722 186.637 428.273 188.625 425.492C188.625 425.492 216.246 390.404 208.356 371.924C200.466 353.444 172.563 361.223 172.563 361.223C172.563 361.223 142.454 362.454 122.017 385.854Z" fill="#00AEEF"/>
<path d="M188.458 420.481C186.47 423.262 184.648 421.711 184.648 421.711L171.793 414.509C170.498 413.791 169.625 413.074 169.061 412.382L168.727 412.984C168.727 412.984 166.02 416.355 171.781 419.52L184.635 426.722C184.635 426.722 186.457 428.273 188.445 425.492C188.445 425.492 211.448 396.273 209.472 377.114C207.766 395.953 188.458 420.481 188.458 420.481ZM181.518 387.533C171.986 395.748 153.474 399.759 153.474 399.759L119.246 482.238C101.863 483.942 96.1667 478.534 94.3322 475.317L93.4726 478.086C93.4726 478.086 94.9223 489.632 119.246 487.236L153.474 404.77C153.474 404.77 169.792 399.246 179.324 391.07C181.017 388.34 181.518 387.533 181.518 387.533Z" fill="#007AA7"/>
<path d="M166.893 287.228C166.893 287.228 159.17 280.526 162.698 269.645C162.698 269.645 165.263 268.325 168.471 269.735C168.471 269.735 166.508 278.655 169.33 286.113C168.92 286.216 168.496 286.254 168.073 286.228C167.278 286.216 166.893 287.228 166.893 287.228Z" fill="#F4A455"/>
<path d="M172.037 419.506L168.984 424.684C168.984 424.684 168.188 437.396 182.287 431.527L185.456 426.286L172.037 419.506Z" fill="#FDE4CE"/>
<path d="M168.92 424.697C168.92 424.697 167.496 424.467 165.648 427.581L159.208 436.615C159.208 436.615 158.798 438.089 160.735 439.576C162.672 441.062 166.097 443.856 166.097 443.856C166.097 443.856 167.175 443.818 169.818 446.073C172.46 448.328 186.354 456.838 190.562 457.966C194.77 459.093 194.809 458.914 196.463 456.146C196.463 456.146 197.746 454.249 196.656 452.545C195.565 450.84 192.14 446.906 190.755 445.15C189.369 443.395 184.699 438.64 183.622 433.437C183.622 433.437 183.352 431.989 182.21 431.643C181.069 431.297 175.27 431.707 173.589 431.041C171.909 430.374 170.6 429.221 169.984 427.132C169.369 425.043 168.92 424.697 168.92 424.697Z" fill="#1D232E"/>
<path d="M123.967 511.931C119.605 511.764 104.172 506.548 101.093 504.934C98.0139 503.319 96.9748 503.601 96.9748 503.601C96.9748 503.601 93.0106 501.64 90.7912 500.615C90.2653 500.384 89.7777 500.051 89.3672 499.641L88.6488 501.384C88.6488 501.384 88.5718 502.922 90.7912 503.934C93.0106 504.946 96.9748 506.92 96.9748 506.92C96.9748 506.92 98.0139 506.638 101.093 508.253C104.172 509.867 119.605 515.083 123.967 515.25C128.329 515.416 128.316 515.237 129.317 512.161C129.317 512.161 129.932 510.598 129.188 509.252C128.303 511.931 128.124 512.097 123.967 511.931ZM196.643 452.519C196.592 452.622 196.528 452.724 196.463 452.827C194.796 455.595 194.77 455.787 190.562 454.647C186.354 453.506 172.46 445.01 169.818 442.754C167.175 440.499 166.097 440.537 166.097 440.537C166.097 440.537 162.672 437.743 160.735 436.257C160.453 436.052 160.196 435.808 159.965 435.539L159.208 436.603C159.208 436.603 158.798 438.076 160.735 439.563C162.672 441.05 166.097 443.843 166.097 443.843C166.097 443.843 167.175 443.805 169.818 446.06C172.46 448.316 186.354 456.825 190.562 457.953C194.77 459.081 194.808 458.901 196.463 456.133C196.463 456.133 197.746 454.236 196.643 452.519Z" fill="#293F6D"/>
<path d="M174.821 300.133C174.821 300.133 157.476 336.413 124.66 351.51V357.161C124.66 357.161 167.624 325.328 174.821 300.133Z" fill="#E08288"/>
<path d="M242.622 472.383L239.261 478.06C239.261 478.06 238.389 492.016 253.86 485.57L257.324 479.828L242.622 472.383Z" fill="#FDEAD9"/>
<path d="M239.197 478.073C239.197 478.073 237.632 477.829 235.618 481.238L228.562 491.157C228.562 491.157 228.113 492.772 230.229 494.399C232.346 496.027 236.118 499.09 236.118 499.09C236.118 499.09 237.298 499.038 240.197 501.525C243.097 504.011 258.338 513.327 262.956 514.57C267.574 515.814 267.613 515.608 269.435 512.571C269.435 512.571 270.846 510.495 269.64 508.611C268.434 506.728 264.688 502.422 263.161 500.499C261.635 498.577 256.529 493.361 255.336 487.646C255.336 487.646 255.041 486.057 253.783 485.672C252.526 485.288 246.176 485.736 244.328 485.019C242.481 484.301 241.044 483.032 240.377 480.725C239.71 478.419 239.197 478.073 239.197 478.073Z" fill="#1B212E"/>
<path d="M394.428 293.649C394.428 293.649 394.607 287.549 396.608 286.754C398.61 285.96 397.866 288.305 398.033 289.125C398.199 289.945 398.353 291.509 400.393 289.702C402.433 287.895 410.425 280.641 411.349 283.076C411.349 283.076 407.834 294.277 400.124 299.736L394.428 293.649ZM363.33 261.008C363.33 261.008 361.893 261.559 361.675 267.839C361.675 267.839 361.316 270.325 361.893 271.748L362.714 273.99L360.739 274.759C360.739 274.759 357.044 282.653 354.286 283.845L346.832 281.628C346.832 281.628 340.469 270.376 341.38 265.532C342.291 260.688 348.41 262.098 350.424 257.997C352.438 253.896 365.768 251.64 363.33 261.008Z" fill="#F4D3BA"/>
<path d="M314.285 322.265C314.285 322.265 313.695 330.275 313.618 332.94C313.541 335.606 312.694 340.36 320.122 345.499C327.55 350.638 335.914 344.974 339.212 342.155C342.509 339.335 348.064 325.777 349.346 318.792C349.346 318.792 352.579 322.214 354.978 325.162C356.569 326.584 365.023 333.543 373.632 330.108C383.189 326.289 401.073 310.68 398.841 304.516C398.841 304.516 398.289 303.465 399.213 302.696C400.136 301.928 401.252 300.531 400.778 299.736C400.303 298.942 397.853 294.828 394.427 292.918C394.427 292.918 393.786 291.868 390.784 295.174C390.784 295.174 387.577 292.982 376.634 304.747C365.691 316.511 366.319 303.247 360.123 289.932C353.926 276.617 339.404 281.628 339.404 281.628L313.297 320.856C313.695 321.112 314.028 321.573 314.285 322.265Z" fill="#E08288"/>
<path d="M365.229 303.682C363.843 300.004 362.47 294.968 360.123 289.919C359.661 288.919 359.122 287.971 358.493 287.061C361.534 294.199 362.83 301.03 365.229 303.682ZM400.765 299.735C400.059 298.543 399.264 297.416 398.379 296.352C398.084 297.031 397.429 297.762 396.852 298.249C395.928 299.018 396.48 300.069 396.48 300.069C398.712 306.233 380.829 321.842 371.271 325.661C362.663 329.095 354.208 322.136 352.618 320.714C350.219 317.766 346.986 314.345 346.986 314.345C345.703 321.329 340.148 334.888 336.851 337.707C333.554 340.526 325.202 346.203 317.761 341.052C316.042 339.86 314.772 338.706 313.836 337.579C314.4 339.898 315.978 342.641 320.109 345.499C327.55 350.65 335.902 344.973 339.199 342.154C342.496 339.334 348.051 325.776 349.333 318.792C349.333 318.792 352.566 322.213 354.965 325.161C356.556 326.583 365.01 333.542 373.619 330.107C383.176 326.288 401.06 310.68 398.828 304.515C398.828 304.515 398.276 303.465 399.2 302.696C400.123 301.927 401.239 300.53 400.765 299.735Z" fill="#D37982"/>
<path d="M293.258 377.255C293.258 377.255 289.563 382.253 283.136 399.579C276.709 416.906 267.497 428.145 264.213 433.668C260.929 439.191 247.176 461.182 242.75 469.064C242.75 469.064 240.634 472.203 242.75 474.446C244.867 476.689 253.95 484.66 259.556 483.814C259.556 483.814 265.239 474.933 272.578 469.897C279.916 464.86 293.091 446.022 296.901 435.026C300.712 424.031 314.49 408.768 314.49 408.768C314.49 408.768 297.992 376.756 293.258 377.255Z" fill="#303349"/>
<path d="M418.046 458.529L422.985 462.899C422.985 462.899 436.532 466.411 433.145 450.02L428.155 445.522L418.046 458.529Z" fill="#FDEAD9"/>
<path d="M422.985 462.964C422.985 462.964 422.446 464.45 425.409 467.077L433.812 475.894C433.812 475.894 435.313 476.65 437.327 474.869C439.341 473.088 443.062 469.987 443.062 469.987C443.062 469.987 443.242 468.82 446.231 466.45C449.22 464.079 461.292 450.905 463.383 446.612C465.474 442.318 465.294 442.242 462.652 439.884C462.652 439.884 460.881 438.102 458.803 438.935C456.725 439.768 451.773 442.613 449.592 443.741C447.411 444.869 441.317 448.893 435.467 448.97C435.467 448.97 433.851 448.957 433.235 450.11C432.619 451.263 431.849 457.594 430.785 459.26C429.72 460.926 428.206 462.092 425.82 462.31C423.434 462.528 422.985 462.964 422.985 462.964Z" fill="#1B212E"/>
<path d="M269.422 510.547C267.6 513.584 267.562 513.789 262.943 512.546C258.325 511.303 243.084 501.973 240.185 499.5C237.285 497.026 236.105 497.065 236.105 497.065C236.105 497.065 232.346 494.002 230.217 492.375C229.626 491.952 229.152 491.401 228.818 490.773L228.549 491.157C228.549 491.157 228.1 492.772 230.217 494.399C232.333 496.027 236.105 499.09 236.105 499.09C236.105 499.09 237.285 499.038 240.185 501.525C243.084 504.011 258.325 513.327 262.943 514.571C267.562 515.814 267.6 515.609 269.422 512.571C269.422 512.571 270.5 510.982 269.961 509.329C269.845 509.765 269.666 510.175 269.422 510.547ZM462.652 439.883C462.305 439.563 461.92 439.294 461.51 439.102C463.229 440.716 463.139 441.28 461.317 444.997C459.214 449.29 447.154 462.464 444.165 464.835C441.176 467.205 440.996 468.372 440.996 468.372C440.996 468.372 437.263 471.473 435.262 473.254C434.069 474.318 433.042 474.472 432.427 474.433L433.838 475.907C433.838 475.907 435.339 476.663 437.353 474.882C439.367 473.1 443.088 469.999 443.088 469.999C443.088 469.999 443.267 468.833 446.256 466.462C449.245 464.091 461.318 450.917 463.409 446.624C465.5 442.331 465.294 442.254 462.652 439.883Z" fill="#4E1E77"/>
<path d="M394.568 407.717C386.153 398.106 389.527 400.156 358.403 375.538C358.403 375.538 344.599 367.375 347.011 349.113C349.423 330.851 353.862 331.056 354.722 324.918C354.722 324.918 354.978 325.161 355.453 325.558C355.299 325.43 355.145 325.289 354.991 325.161C352.592 322.214 349.359 318.792 349.359 318.792C348.076 325.776 342.521 339.335 339.224 342.154C335.927 344.974 327.563 350.651 320.135 345.499C312.707 340.347 313.553 335.593 313.63 332.94C313.707 330.287 314.297 322.265 314.297 322.265C314.041 321.573 313.707 321.112 313.322 320.842V320.279L310.885 324.508C310.885 324.508 276.285 380.767 302.238 401.848C328.191 422.929 349.949 403.578 372.259 423.621C394.568 443.664 414.184 461.118 414.184 461.118C414.184 461.118 428.437 456.927 430.117 443.805C430.092 443.817 402.984 417.328 394.568 407.717ZM355.62 325.712L355.684 325.764L355.62 325.712ZM355.478 325.597L355.555 325.661L355.478 325.597ZM355.761 325.828L355.825 325.879L355.761 325.828Z" fill="#303349"/>
<path d="M348.525 333.491C350.116 332.133 352.181 328.442 354.106 324.123C351.861 321.47 349.333 318.792 349.333 318.792C348.423 323.764 345.344 332.069 342.457 337.451C344.651 336.4 346.691 335.067 348.525 333.491ZM383.689 420.237C359.93 398.9 336.774 419.507 309.14 397.055C287.472 379.447 305.445 338.822 314.22 322.098C313.977 321.509 313.669 321.086 313.31 320.842V320.279L310.872 324.508C310.872 324.508 276.272 380.767 302.225 401.848C328.178 422.929 349.936 403.578 372.246 423.621C394.555 443.664 414.171 461.118 414.171 461.118C414.171 461.118 419.084 459.67 423.485 455.813C415.941 449.123 400.547 435.372 383.689 420.237Z" fill="#232A30"/>
<path d="M351.309 261.611C351.309 261.611 358.583 264.558 363.33 257.561C363.33 257.561 362.791 260.163 363.125 261.175C363.125 261.175 366.999 258.42 366.986 251.986C366.973 245.553 359.161 249.513 354.298 245.72C349.436 241.926 335.324 241.029 331.925 248.283C328.525 255.536 332.81 261.944 320.905 268.326C320.905 268.326 308.614 272.209 308.486 280.539C308.358 288.869 316.645 291.586 311.77 297.788C306.895 303.991 295.914 311.18 307.408 322.483C318.903 333.786 332.143 327.686 335.106 319.292C338.07 310.898 337.223 306.592 336.312 301.953C335.401 297.314 333.49 294.161 338.814 291.483C344.138 288.805 350.86 280.577 347.012 273.913C343.163 267.249 341.085 268.044 343.06 264.174C345.036 260.304 348.628 263.341 349.09 268.557C349.09 268.557 349.269 268.941 349.449 268.544C349.629 268.146 350.27 260.624 351.309 261.611Z" fill="#23223D"/>
<path d="M395.903 236.8L471.465 206.543V203.339L395.903 233.43V236.8ZM356.646 347.806L432.209 317.549V314.345L356.646 344.435V347.806Z" fill="white"/>
</svg>
