<svg width="558" height="490" viewBox="0 0 558 490" fill="none" xmlns="http://www.w3.org/2000/svg">
<path d="M266.198 339.924L259.942 338.738L232.774 482.091L239.031 483.277L266.198 339.924Z" fill="#184655"/>
<path d="M446.577 483.955H454.101L426.06 338.738L419.805 339.924L446.577 483.955Z" fill="#184655"/>
<path d="M308.811 483.955H316.336L288.295 338.738L282.037 339.924L308.811 483.955Z" fill="#184655"/>
<path d="M378.016 483.956L371.905 484.028L398.791 339.39L405.047 340.574L378.016 483.956Z" fill="#184655"/>
<path d="M350.721 143.164C375.494 145.817 407.553 148.615 439.736 203.233C474.911 262.924 456.394 352.092 428.631 376.87C400.868 401.649 310.193 432.244 233.969 386.442C233.969 386.442 187.945 358.684 211.564 312.62C247.912 241.729 242.776 226.947 259.028 199.166C275.28 171.384 298.137 137.531 350.721 143.164Z" fill="#FAE0B2"/>
<path d="M439.736 203.23C417.769 165.951 395.86 152.815 376.287 147.388C383.857 155.223 391.534 165.302 399.216 178.339C434.392 238.031 415.874 327.199 388.111 351.977C363.49 373.95 289.393 400.489 219.775 374.273C226.933 382.193 233.969 386.436 233.969 386.436C310.193 432.239 400.868 401.643 428.631 376.865C456.396 352.089 474.911 262.924 439.736 203.23Z" fill="#F7CC7F"/>
<path d="M98.5691 350.573C97.8663 356.11 103.633 360.505 108.763 360.158C114.433 359.776 119.243 355.126 120.071 349.555C120.969 343.524 117.346 338.701 111.74 338.26C106.283 337.83 102.791 342.688 104.368 347.589C105.498 351.102 108.704 352.412 110.321 351.442C111.579 350.685 111.505 348.78 109.979 348.444C109.367 348.31 108.739 348.649 108.413 349.12C107.077 348.591 105.808 346.159 106.671 343.535C107.772 340.184 112.01 339.992 114.639 341.555C117.987 343.546 118.514 347.829 117.287 351.241C115.996 354.825 112.477 357.649 108.646 357.922C104.303 358.229 100.482 354.902 100.138 350.576C100.052 349.558 98.6947 349.582 98.5691 350.573Z" fill="#F48C7F"/>
<path d="M388.745 0.629291C363.106 0.476982 342.245 13.1213 342.151 28.8733C342.106 36.7479 347.258 43.9091 355.629 49.1197L345.085 72.2787L367.09 54.357C373.466 56.4279 380.715 57.6223 388.405 57.6677C414.044 57.8201 434.905 45.1757 434.998 29.4237C435.095 13.6718 414.383 0.781601 388.745 0.629291Z" fill="#FAE0B2"/>
<path d="M370.983 31.8611C373.26 40.5026 382.11 45.6598 390.751 43.3831C399.39 41.1038 404.55 32.2539 402.271 23.6123C399.994 14.9708 391.144 9.81367 382.503 12.0903C373.864 14.3696 368.704 23.2222 370.983 31.8611Z" fill="#F7CC7F"/>
<path d="M395.644 28.0109C396.862 32.6309 394.105 37.3632 389.485 38.5817C384.865 39.8001 380.135 37.0425 378.917 32.4225L395.644 28.0109Z" fill="#EFEFEF"/>
<path d="M271.186 233.892L264.818 252.995L284.226 245.36L271.186 233.892Z" fill="#F79C8D"/>
<path d="M291.192 177.048C289.898 177.102 286.353 178.283 281.169 188.047C274.55 200.515 264.874 238.18 264.874 238.18L293.754 248.898L297.466 241.037L303.577 180.514C303.574 180.514 291.55 177.032 291.192 177.048Z" fill="#042A44"/>
<path d="M329.368 171.618C321.109 171.628 300.675 174.031 291.192 177.05C291.192 177.05 284.226 236.728 297.463 282.079C300.427 292.23 295.013 324.159 295.013 324.159L380.589 323.034C380.589 323.034 370.451 245.843 374.27 233.375C378.088 220.907 378.179 177.453 378.179 177.453C378.179 177.453 377.594 177.363 358.953 174.151C350.258 172.652 338.186 171.607 329.368 171.618Z" fill="#07345A"/>
<path d="M339.34 434.929C339.34 434.929 337.448 456.706 333.967 462.735C330.485 468.766 334.151 479.016 334.333 480.424C334.517 481.832 341.66 483.842 353.019 482.636C364.378 481.431 364.193 478.818 363.277 474.596C362.36 470.374 356.316 464.947 355.95 460.928C355.584 456.907 359.432 442.435 359.432 442.435L339.34 434.929Z" fill="#F7A491"/>
<path d="M304.667 306.187C304.667 306.187 245.595 302.919 232.403 310.879C219.211 318.842 234.789 335.19 234.789 335.19C234.789 335.19 282.881 356.029 363.394 360.66C382.46 361.755 384.103 311.117 380.538 306.927C376.974 302.737 304.667 306.187 304.667 306.187Z" fill="#327F6B"/>
<path d="M354.435 484.327C366.131 483.085 364.685 477.359 363.742 473.011C363.151 470.288 359.795 467.082 357.796 464.046C356.751 464.877 355.049 466.342 349.97 467.838C344.695 469.39 337.464 466.318 332.858 464.394C331.214 470.483 331.139 478.251 331.294 479.43C331.484 480.878 342.739 485.57 354.435 484.327Z" fill="#355389"/>
<path d="M347.979 348.303C345.619 366.102 333.934 454.706 333.934 454.706L361.048 458.056C361.048 458.056 394.39 342.406 392.68 324.716C390.97 307.027 378.489 305.539 378.489 305.539C378.489 305.539 354.226 301.189 347.979 348.303Z" fill="#3C8F7C"/>
<path d="M322.004 96.3286C322.004 96.3286 331.011 86.8293 338.258 98.3861C338.258 98.3861 343.84 95.2517 347.757 100.834C347.757 100.834 357.842 97.7983 360.292 112.877C360.292 112.877 365.481 111.899 366.168 118.066C366.855 124.236 363.72 128.348 363.72 128.348C363.72 128.348 366.636 130.534 365.31 136.207C364.185 141.03 360.193 141.765 360.193 141.765C360.193 141.765 359.116 149.893 355.592 152.341C352.067 154.789 347.268 153.613 347.268 153.613C347.268 153.613 345.996 158.019 341.884 157.626C337.772 157.234 332.679 153.319 328.077 155.08C323.476 156.843 311.529 154.981 311.529 154.981C311.529 154.981 298.115 149.009 302.129 135.298C302.129 135.298 295.08 128.933 301.247 121.297C301.247 121.297 296.742 109.35 305.653 102.301C314.562 95.2491 322.004 96.3286 322.004 96.3286Z" fill="#07345A"/>
<path d="M323.527 160.811L321.897 172.91C321.897 172.91 318.244 190.34 322.944 193.699C327.645 197.06 342.932 172.413 342.932 172.413L341.318 141.756L323.527 160.811Z" fill="#F7A491"/>
<path d="M341.836 151.691C337.953 162.147 328.708 168.576 322.145 171.069L323.527 160.811L341.315 141.756L341.836 151.691Z" fill="#F47458"/>
<path d="M330.453 109.55C320.916 106.266 310.749 112.601 309.292 122.435C308.659 126.707 308.087 132.081 307.98 137.957C307.724 152.087 315.04 165.84 321.456 165.84C327.871 165.84 345.606 156.693 346.247 136.631C346.645 124.246 340.462 112.994 330.453 109.55Z" fill="#F7A491"/>
<path d="M341.521 138.216C341.521 141.335 343.586 143.86 346.135 143.86C348.685 143.86 350.75 141.332 350.75 138.216C350.75 135.098 348.685 132.573 346.135 132.573C343.589 132.573 341.521 135.101 341.521 138.216Z" fill="#F7A491"/>
<path d="M302.655 102.52C296.028 107.771 293.704 115.749 297.466 120.34C301.228 124.931 309.651 124.396 316.28 119.146C322.907 113.895 325.232 105.916 321.469 101.325C317.707 96.7321 309.282 97.2692 302.655 102.52Z" fill="#07345A"/>
<path d="M379.111 184.087C371.111 181.097 367.197 252.944 366.117 282.516C351.947 283.873 327.251 282.526 321.103 282.067C318.212 281.85 311.542 279.416 308.667 279.042C305.72 278.657 303.048 278.457 301.599 278.708C301.068 278.802 286.299 284.819 285.035 286.139C283.469 287.777 279.231 291.906 279.947 293.69C280.661 295.475 288.095 288.715 288.095 288.715L291.726 286.684C287.205 291.085 278.579 296.884 279.822 298.995C281.032 301.052 288.813 295.171 294.358 291.16C289.602 295.441 283.694 303.102 285.056 304.296C286.28 305.37 293.001 296.502 300.183 293.947C302.845 293.001 305.498 295.622 307.59 295.938C309.129 296.17 311.505 296.665 313.015 296.24L320.79 294.041C323.438 294.278 323.505 295.842 326.18 296.408C329.285 297.068 334.381 297.76 338.335 298.725C361.11 304.269 368.706 306.845 375.678 306.843C396.795 306.826 398.022 191.154 379.111 184.087Z" fill="#F7A491"/>
<path d="M394.297 251.538C395.796 221.247 395.577 183.91 378.537 177.54C371.814 175.026 359.963 190.139 362.093 252.153C371.189 252.901 384.544 253.505 394.297 251.538Z" fill="#07345A"/>
<path d="M298.97 238.524H300.707L326.819 302.47L325.02 302.197L298.97 238.524Z" fill="#F79C8D"/>
<path d="M260.054 453.555C260.054 453.555 262.419 461.114 258.183 466.114C253.948 471.113 236.344 476.019 234.033 478.726C231.722 481.433 231.898 483.739 231.898 483.739L281.305 482.384L280.768 467.514L278.494 456.828L260.054 453.555Z" fill="#F7A491"/>
<path d="M255.108 468.606C255.108 468.606 267.803 473.723 273.935 470.692C280.068 467.662 279.883 466.823 281.658 467.954C283.432 469.084 284.068 483.024 284.068 483.024L228.513 484.651C224.646 484.563 222.693 481.726 225.832 479.297C227.986 477.632 230.474 476.515 231.89 475.708C236.235 473.223 255.108 468.606 255.108 468.606Z" fill="#355389"/>
<path d="M261.924 320.14C258.106 312.132 249.422 301.706 234.14 307.985C219.566 313.976 215.654 328.697 220.253 343.77C224.852 358.843 255.124 447.458 256.179 459.642L280.351 459.803C280.351 459.803 275.958 389.636 274.881 372.676C273.842 356.358 268.535 334.003 261.924 320.14Z" fill="#3C8F7C"/>
<path d="M222.687 238.524H303.483C305.621 238.524 307.548 239.814 308.357 241.794L333.235 302.47H377.778C379.024 302.47 380.034 303.48 380.034 304.722C380.034 305.967 379.024 306.975 377.778 306.975H251.004C247.519 306.975 244.358 304.928 242.931 301.748L217.88 245.947C216.315 242.465 218.866 238.524 222.687 238.524Z" fill="#F47458"/>
<path d="M266.186 273.856C266.731 276.581 269.11 278.404 271.496 277.925C273.882 277.447 275.376 274.852 274.831 272.127C274.285 269.401 271.907 267.579 269.521 268.057C267.135 268.533 265.641 271.13 266.186 273.856Z" fill="white"/>
<path opacity="0.3" d="M493.341 152.693C515.374 152.693 533.235 134.795 533.235 112.716C533.235 90.637 515.374 72.7386 493.341 72.7386C471.308 72.7386 453.447 90.637 453.447 112.716C453.447 134.795 471.308 152.693 493.341 152.693Z" fill="#9BC1F9"/>
<path d="M465.142 111.935H450.435V113.068H465.142V111.935Z" fill="#184655"/>
<path d="M536.338 111.935H521.63V113.068H536.338V111.935Z" fill="#184655"/>
<path d="M493.843 70.0283H492.713V84.7676H493.843V70.0283Z" fill="#184655"/>
<path d="M493.843 141.083H492.713V155.822H493.843V141.083Z" fill="#184655"/>
<path d="M494.557 112.718C494.557 113.391 494.012 113.939 493.338 113.939C492.665 113.939 492.12 113.394 492.12 112.718C492.12 112.045 492.665 111.497 493.338 111.497C494.012 111.499 494.557 112.045 494.557 112.718Z" fill="#184655"/>
<path d="M493.341 113.264C493.202 113.264 493.063 113.211 492.956 113.104L471.08 91.1821C470.866 90.9683 470.866 90.6236 471.08 90.4098C471.291 90.1961 471.638 90.1961 471.849 90.4098L493.726 112.332C493.939 112.545 493.939 112.89 493.726 113.104C493.619 113.213 493.48 113.264 493.341 113.264Z" fill="#184655"/>
<path d="M500.374 134.872C500.283 134.826 500.211 134.746 500.176 134.642L493.106 113.239C493.036 113.03 493.148 112.806 493.357 112.736C493.565 112.667 493.787 112.779 493.857 112.987L500.927 134.391C500.996 134.599 500.884 134.824 500.676 134.893C500.572 134.928 500.465 134.917 500.374 134.872Z" fill="#184655"/>
<path d="M244.537 45.5666L248.179 37.3499L243.474 29.6917C242.937 28.8206 243.634 27.7116 244.652 27.8159L253.593 28.7404L259.421 21.8998C260.083 21.1196 261.353 21.4402 261.569 22.4423L263.453 31.2308L271.76 34.6591C272.706 35.0492 272.795 36.3559 271.907 36.8689L264.132 41.3767L263.437 50.3389C263.357 51.3596 262.144 51.846 261.379 51.1619L254.689 45.1604L245.951 47.2687C244.959 47.5065 244.123 46.5018 244.537 45.5666Z" fill="#F48C7F"/>
<path d="M508.278 45.559L511.008 39.3945L507.479 33.6495C507.078 32.9948 507.599 32.1638 508.363 32.244L515.07 32.936L519.442 27.8056C519.939 27.2204 520.892 27.4609 521.053 28.2118L522.466 34.8038L528.698 37.3771C529.408 37.671 529.473 38.649 528.81 39.0337L522.977 42.4139L522.456 49.1343C522.397 49.9011 521.486 50.2646 520.914 49.7515L515.896 45.249L509.341 46.8309C508.596 47.0153 507.965 46.2618 508.278 45.559Z" fill="#F7CC7F"/>
<path d="M481.17 221.666L480.737 216.56L476.285 214.022C475.777 213.733 475.823 212.987 476.36 212.76L481.081 210.772L482.121 205.754C482.238 205.182 482.963 204.995 483.342 205.436L486.693 209.313L491.786 208.749C492.366 208.685 492.766 209.313 492.464 209.813L489.814 214.198L491.922 218.869C492.163 219.4 491.69 219.978 491.12 219.844L486.132 218.679L482.343 222.129C481.915 222.521 481.22 222.249 481.17 221.666Z" fill="#F48C7F"/>
<path d="M72.6895 146.603L74.6909 142.082L72.1017 137.87C71.8078 137.389 72.1899 136.78 72.751 136.839L77.6676 137.347L80.8741 133.584C81.2402 133.157 81.9377 133.333 82.0552 133.884L83.092 138.717L87.6613 140.604C88.1823 140.818 88.2304 141.536 87.7414 141.82L83.4688 144.297L83.0866 149.227C83.0439 149.788 82.3759 150.055 81.9564 149.681L78.2769 146.378L73.4698 147.538C72.9247 147.669 72.4624 147.116 72.6895 146.603Z" fill="#F7CC7F"/>
<path d="M189.475 190.637L191.476 186.116L188.887 181.904C188.593 181.423 188.975 180.814 189.536 180.873L194.453 181.381L197.66 177.618C198.026 177.191 198.723 177.367 198.841 177.918L199.877 182.751L204.447 184.638C204.968 184.852 205.016 185.571 204.529 185.854L200.251 188.333L199.869 193.264C199.827 193.825 199.159 194.092 198.739 193.718L195.06 190.415L190.253 191.575C189.707 191.706 189.245 191.153 189.475 190.637Z" fill="#50BFA5"/>
<path d="M138.399 70.8706L146.335 69.7189L149.597 82.2857L161.408 82.0319L165.387 91.0368L169.945 89.0221L164.622 76.979L153.429 77.2194L150.036 64.1476L138.094 65.8791L138.399 70.8706Z" fill="#50BFA5"/>
<path d="M133.506 275.668L139.511 270.354L149.13 279.073L158.867 272.384L167.132 277.734L169.839 273.549L158.787 266.396L149.558 272.734L139.551 263.665L130.514 271.66L133.506 275.668Z" fill="#07345A"/>
<path d="M496.996 385.798C496.483 381.271 495.874 376.641 493.773 372.601C491.219 367.689 486.73 364.143 482.81 360.239C475.483 352.945 469.845 343.958 466.459 334.179C463.843 326.617 462.537 318.56 458.932 311.42C456.73 307.059 453.727 303.161 451.226 298.966C445.315 289.05 442.095 277.332 434.079 269.033C432.537 279.096 435.586 289.774 442.205 297.493C444.179 299.797 446.469 301.873 447.974 304.508C450.705 309.291 450.456 315.129 450.777 320.631C451.378 330.972 454.293 341.171 459.242 350.262C464.501 359.921 472.095 368.52 474.906 379.158C477.014 387.129 476.386 396.069 480.881 402.977C481.367 403.725 481.925 404.479 482.043 405.363C482.11 405.86 482.032 406.365 481.955 406.859C481.853 407.501 481.754 408.142 481.653 408.783C480.629 415.306 479.574 423.608 485.18 428.49C489.065 431.873 494.065 431.95 496.854 427.456C499.663 422.929 499.414 416.308 499.206 411.215C498.861 402.734 497.953 394.228 496.996 385.798Z" fill="#3C8F7C"/>
<path d="M507.094 380.549C504.913 372.998 501.528 365.807 499.831 358.13C498.185 350.686 498.172 342.99 498.166 335.364C498.161 327.008 498.156 318.653 498.148 310.297C498.145 305.095 498.137 299.865 497.279 294.735C495.43 283.696 489.693 273.492 488.72 262.341C488.301 257.521 488.787 252.647 488.258 247.837C487.956 245.087 487.251 242.284 485.979 239.845C484.611 237.223 480.83 237.338 479.593 240.024C476.806 246.06 475.039 252.588 476.164 259.054C476.84 262.934 478.521 266.552 479.774 270.285C485.362 286.906 482.396 305.306 486.719 322.303C488.023 327.433 489.998 332.465 490.228 337.753C490.778 350.413 481.321 361.975 482.19 374.617C482.901 384.982 490.353 393.56 493.479 403.465C495.23 409.01 495.606 414.928 497.482 420.433C498.938 424.708 502.329 429.903 507.593 428.604C512.59 427.372 511.08 423.292 510.859 419.396C510.103 406.215 510.813 393.426 507.094 380.549Z" fill="#327F6B"/>
<path d="M518.533 387.471C518.314 383.548 517.651 379.601 518.199 375.711C518.661 372.424 519.971 369.327 520.906 366.142C522.656 360.175 523.092 353.912 523.514 347.707C524.283 336.428 525.056 325.15 525.825 313.871C527.022 296.339 528.227 278.757 531.506 261.492C532.417 256.699 533.438 251.504 531.284 247.13C530.83 246.208 529.937 245.23 528.957 245.537C528.259 245.756 527.917 246.523 527.664 247.213C520.497 266.687 517.79 287.652 509.79 306.798C507.874 311.383 505.645 315.896 504.654 320.767C503.462 326.617 504.117 332.661 504.272 338.628C504.494 347.186 503.66 355.812 501.295 364.042C500.058 368.347 498.404 372.555 497.725 376.983C496.881 382.503 497.589 388.128 498.118 393.689C499.136 404.38 499.478 415.135 499.15 425.869C498.955 432.18 504.283 432.014 507.813 428.137C510.282 425.425 510.258 422.448 511.102 419.074C513.876 407.992 519.206 399.484 518.533 387.471Z" fill="#3C8F7C"/>
<path d="M485.252 404.582C480.541 397.012 471.157 392.71 468.145 384.317C467.378 382.182 467.079 379.884 466.144 377.816C464.065 373.225 459.338 370.63 454.691 368.517C454.047 368.223 453.313 368.69 453.302 369.401C453.286 370.529 453.82 371.606 454.755 372.236C458.336 374.647 461.056 378.329 462.267 382.481C463.702 387.4 463.079 392.793 464.864 397.597C466.36 401.629 469.444 404.927 470.892 408.978C472.215 412.681 472.076 416.727 472.699 420.609C473.321 424.492 475.045 428.615 478.612 430.258C491.518 436.203 488.293 409.472 485.252 404.582Z" fill="#327F6B"/>
<path d="M538.918 402.083C538.718 405.741 539.276 409.579 537.844 412.951C536.928 415.107 535.279 416.852 533.927 418.765C529.176 425.483 527.455 435.003 520.158 438.784C519.677 439.033 519.14 439.257 518.605 439.159C517.857 439.02 517.368 438.298 517.066 437.598C515.276 433.43 517.285 428.732 518.474 424.355C518.683 423.588 518.856 422.736 518.49 422.03C518.089 421.256 517.173 420.919 516.548 420.312C515.3 419.099 515.417 417.092 515.666 415.369C516.286 411.062 517.154 406.792 518.268 402.588C518.902 400.205 519.631 397.8 521.005 395.75C522.517 393.498 524.714 391.814 526.771 390.046C535.859 382.227 542.82 371.95 546.718 360.602C547.563 358.146 548.313 355.552 550.056 353.628C551.798 351.704 554.903 350.712 557.027 352.206C558.537 353.27 552.354 363.215 551.632 364.409C549.572 367.819 549.545 370.785 548.38 374.569C545.524 383.844 539.463 392.146 538.918 402.083Z" fill="#3C8F7C"/>
<path d="M531.725 406.313C533.074 402.824 534.437 399.286 534.881 395.569C535.375 391.438 534.72 387.211 535.426 383.109C536.334 377.837 539.407 373.198 540.93 368.071C542.029 364.367 542.299 360.476 542.959 356.669C544.845 345.783 549.965 335.145 548.495 324.195C548.174 321.814 547.1 319.038 544.735 318.632C542.595 318.263 540.647 320.221 540.091 322.324C539.536 324.427 539.95 326.645 540.102 328.815C540.527 334.867 538.801 341.05 535.303 346.002C531.941 350.758 527.062 354.341 524.037 359.319C520.326 365.428 519.821 372.88 517.929 379.774C514.164 393.485 504.718 405.442 502.997 419.556C502.313 425.173 503.631 432 508.815 434.242C523.802 440.735 528.329 415.097 531.725 406.313Z" fill="#327F6B"/>
<path d="M505.517 423.715H503.12H471.114C468.763 423.715 467.026 425.917 467.571 428.209L480.111 481.095C480.501 482.741 481.968 483.901 483.654 483.901H503.118H505.514H524.978C526.664 483.901 528.131 482.739 528.521 481.095L541.061 428.209C541.604 425.917 539.87 423.715 537.518 423.715H505.517Z" fill="#F47458"/>
<path d="M493.341 66.0275C467.609 66.0275 446.748 86.9312 446.748 112.717C446.748 138.503 467.609 159.406 493.341 159.406C519.073 159.406 539.934 138.503 539.934 112.717C539.934 86.9312 519.073 66.0275 493.341 66.0275ZM495.839 152.617C473.851 153.998 454.906 137.257 453.524 115.221C452.145 93.1839 468.851 74.2014 490.843 72.8172C512.831 71.4331 531.779 88.1764 533.158 110.213C534.537 132.25 517.828 151.235 495.839 152.617Z" fill="#184655"/>
<path d="M315.644 150.152L328.067 149.949C328.067 149.949 327.858 154.671 322.397 154.919C315.74 155.219 315.644 150.152 315.644 150.152Z" fill="white"/>
<path d="M76.887 489.765C83.043 476.421 94.004 437.267 77.1164 429.084C66.525 423.948 63.4279 432.742 63.4279 432.742C63.4279 432.742 71.0751 389.918 52.9385 389.829C42.3598 389.778 40.5882 401.911 40.5882 401.911C40.5882 401.911 34.8401 388.516 27.8046 384.616C12.523 376.153 -5.67737 384.896 8.41898 408.832C12.2426 415.319 17.5574 419.984 17.5574 419.984C17.5574 419.984 1.62571 413.981 0.0580363 425.375C-1.4969 436.77 28.7096 454.881 28.7096 454.881C28.7096 454.881 19.6731 455.225 19.3162 465.664C18.8319 479.773 47.9678 489.752 47.9678 489.752H76.887V489.765Z" fill="#36A871"/>
<path d="M19.2016 395.054C39.0206 424.101 55.2964 432.742 68.5388 486.846" stroke="white" stroke-width="0.794" stroke-miterlimit="10" stroke-linecap="round"/>
<path d="M90.3204 489.765C89.6704 469.933 118.946 428.715 101.218 418.722C90.091 412.452 86.9556 423.782 86.9556 423.782C86.9556 423.782 112.013 381.327 88.039 378.485C79.6908 377.491 74.8348 389.701 74.8348 389.701C74.8348 389.701 74.6309 367.843 67.9396 359.66C57.0295 346.303 34.1899 353.772 39.5684 382.564C42.5253 398.355 53.3716 404.613 53.3716 404.613C53.3716 404.613 42.3979 396.239 37.1596 407.239C30.1496 421.972 53.6648 441.014 53.6648 441.014C53.6648 441.014 43.1371 433.214 36.1909 445.972C26.7976 463.191 62.5228 489.79 62.5228 489.79H90.3204V489.765Z" fill="#48BE97"/>
<path d="M58.6227 375.503C72.0308 409.558 79.028 446.928 81.9212 486.4" stroke="white" stroke-width="0.794" stroke-miterlimit="10" stroke-linecap="round"/>
<path d="M87.979 113.163C111.616 103.133 122.647 75.8407 112.617 52.2037C102.587 28.5666 75.2941 17.536 51.6571 27.566C28.02 37.596 16.9893 64.8885 27.0194 88.5256C37.0494 112.163 64.3419 123.193 87.979 113.163Z" fill="#DADEEA"/>
<path d="M54.0088 70.3667C54.0088 73.6422 51.3578 76.2932 48.0822 76.2932C44.8067 76.2932 42.1556 73.6422 42.1556 70.3667C42.1556 67.0911 44.8067 64.4401 48.0822 64.4401C51.3578 64.4401 54.0088 67.0911 54.0088 70.3667Z" fill="white"/>
<path d="M75.7525 70.3667C75.7525 73.6422 73.1014 76.2932 69.8259 76.2932C66.5503 76.2932 63.8993 73.6422 63.8993 70.3667C63.8993 67.0911 66.5503 64.4401 69.8259 64.4401C73.1014 64.4401 75.7525 67.0911 75.7525 70.3667Z" fill="white"/>
<path d="M97.4959 70.3667C97.4959 73.6422 94.8449 76.2932 91.5693 76.2932C88.2938 76.2932 85.6428 73.6422 85.6428 70.3667C85.6428 67.0911 88.2938 64.4401 91.5693 64.4401C94.8449 64.4401 97.4959 67.0911 97.4959 70.3667Z" fill="white"/>
<path d="M67.7866 113.42C67.7866 113.42 72.5661 125.146 91.5694 125.783C91.5694 125.783 83.4251 119.972 83.3614 110.336L67.7866 113.42Z" fill="#DADEEA"/>
</svg>
