<svg width="44" height="40" viewBox="0 0 44 40" fill="none" xmlns="http://www.w3.org/2000/svg">
<path d="M10.3414 8.14162C10.3414 6.98967 10.3329 5.94952 10.343 4.90767C10.3685 2.18872 12.525 0.0186346 15.2456 0.0101643C19.5384 -0.00338811 23.8294 -0.00338811 28.1221 0.0101643C30.8902 0.0186346 33.0315 2.18533 33.0501 4.96866C33.0569 5.9834 33.0518 6.99814 33.0518 8.13993C33.4415 8.13993 33.7938 8.13146 34.1479 8.14162C35.9775 8.19075 37.8342 8.07047 39.6315 8.33983C41.8101 8.66678 43.3788 10.7403 43.3839 12.946C43.3991 20.371 43.4042 27.7977 43.3822 35.2228C43.3737 37.7977 41.1884 39.9831 38.6117 39.9864C27.3446 40.0051 16.0774 40.0034 4.81027 39.9881C2.19465 39.9848 0.0177876 37.7859 0.0127054 35.1618C-0.00423513 27.7638 -0.00423513 20.3676 0.0127054 12.9697C0.0194816 10.349 2.18956 8.18736 4.81874 8.1467C6.61952 8.1196 8.42368 8.14162 10.3414 8.14162ZM25.7674 22.9561C29.0251 22.9561 32.198 23.1713 35.327 22.8985C38.7828 22.597 41.1121 20.1135 41.6136 16.6932C41.7711 15.6141 41.6898 14.496 41.6898 13.3966C41.6898 11.1469 40.3718 9.84245 38.1001 9.84076C34.2326 9.83568 30.3634 9.83907 26.4958 9.83907C26.157 9.83907 25.764 9.9424 25.493 9.80518C25.1745 9.64594 24.7561 9.27494 24.7578 8.99881C24.7594 8.71421 25.1745 8.36693 25.4862 8.17381C25.6912 8.04676 26.0368 8.14332 26.318 8.14332C27.9748 8.14332 29.6315 8.14332 31.2968 8.14332C31.2968 7.30307 31.2968 6.56107 31.2968 5.8394C24.8475 5.8394 18.4559 5.8394 12.0862 5.8394C12.0862 6.63222 12.0862 7.35389 12.0862 8.14332C12.4098 8.14332 12.6876 8.14332 12.9637 8.14332C14.4884 8.14332 16.013 8.15348 17.5377 8.13824C18.1747 8.13146 18.7252 8.27207 18.7134 9.01237C18.7015 9.76114 18.1255 9.87803 17.5021 9.84245C17.3056 9.83059 17.1074 9.84076 16.9092 9.84076C12.9841 9.84076 9.05895 9.83398 5.13552 9.84415C3.04676 9.84584 1.71523 11.1994 1.69998 13.2983C1.6949 14.0606 1.69659 14.823 1.69998 15.5853C1.71523 19.8357 4.88819 23.0154 9.14196 23.034C11.7118 23.0442 14.28 23.0374 16.8499 23.034C17.0939 23.034 17.3378 23.0036 17.6326 22.9832C17.6326 22.3276 17.6055 21.7364 17.6393 21.1486C17.6986 20.0983 18.4474 19.341 19.4892 19.3207C20.9563 19.2902 22.4267 19.2919 23.8938 19.319C24.9848 19.3393 25.7234 20.1084 25.7623 21.2079C25.7827 21.7686 25.7674 22.3327 25.7674 22.9561ZM1.69998 21.0418C1.69998 25.7971 1.69659 30.2812 1.70168 34.7637C1.70337 36.971 3.02473 38.2975 5.227 38.2975C16.2096 38.3009 27.1904 38.3009 38.173 38.2975C40.3718 38.2975 41.6898 36.9676 41.6915 34.7569C41.6966 30.4947 41.6932 26.2324 41.6915 21.9702C41.6915 21.733 41.6593 21.4958 41.6322 21.0994C39.3181 24.0251 36.3383 24.9009 32.8994 24.7518C30.814 24.662 28.7218 24.7332 26.6331 24.7366C26.362 24.7366 26.091 24.762 25.8318 24.7755C25.493 28.2721 24.38 29.8899 22.0795 29.9441C21.1782 29.9661 20.155 29.6815 19.3825 29.214C17.7647 28.2331 17.5106 26.5255 17.619 24.7349C14.7459 24.7349 11.9812 24.7535 9.21819 24.723C8.43554 24.7146 7.64103 24.618 6.87532 24.4537C4.81365 24.0115 3.18228 22.8511 1.69998 21.0418ZM12.2268 4.00644C18.5677 4.00644 24.8577 4.00644 31.1697 4.00644C30.6785 2.56988 29.6163 1.71777 28.2085 1.71099C23.8667 1.68897 19.5231 1.68897 15.1813 1.71099C13.7735 1.71946 12.7046 2.57835 12.2268 4.00644ZM19.3707 24.7721C19.2385 26.063 19.3046 27.2201 20.4938 27.9485C21.3391 28.4669 22.2184 28.4364 23.0315 27.8773C24.1428 27.115 24.1699 25.9868 24.0174 24.7705C22.4691 24.7722 20.9614 24.7721 19.3707 24.7721ZM24.0242 21.074C22.4132 21.074 20.9106 21.074 19.3757 21.074C19.3757 21.7432 19.3757 22.3446 19.3757 22.9815C20.9495 22.9815 22.4759 22.9815 24.0242 22.9815C24.0242 22.3225 24.0242 21.7178 24.0242 21.074Z" fill="#00AEEF"/>
<path d="M22.6724 9.20357C22.3403 9.41194 21.9965 9.80157 21.6814 9.77785C21.39 9.75583 20.8801 9.251 20.9173 9.03586C20.9749 8.70382 21.3866 8.25151 21.7034 8.20238C21.9897 8.15834 22.3488 8.58524 22.6758 8.80377C22.6758 8.9376 22.6741 9.07143 22.6724 9.20357Z" fill="#00AEEF"/>
</svg>
