<svg width="249" height="53" viewBox="0 0 249 53" fill="none" xmlns="http://www.w3.org/2000/svg">
<path d="M93.3315 37.1996C93.3315 37.3407 93.2928 37.463 93.225 37.5664C93.1572 37.6699 93.0118 37.7639 92.8181 37.8298C92.6243 37.8956 92.3337 37.9521 91.9849 37.9897C91.6362 38.0273 91.1906 38.0461 90.648 38.0461C89.7955 38.0461 89.1852 38.0179 88.8171 37.9521C88.449 37.8862 88.1777 37.7922 88.013 37.6699C87.8483 37.5476 87.7224 37.3877 87.6352 37.209L79.9723 25.5274V37.209C79.9723 37.3501 79.9335 37.4724 79.856 37.5664C79.7785 37.6699 79.6429 37.7545 79.4491 37.8204C79.2554 37.8862 78.9938 37.9426 78.6644 37.9803C78.3351 38.0179 77.9185 38.0367 77.4147 38.0367C76.9207 38.0367 76.5041 38.0179 76.165 37.9803C75.8356 37.9426 75.5644 37.8862 75.3706 37.8204C75.1769 37.7545 75.0316 37.6605 74.9541 37.5664C74.8669 37.463 74.8281 37.3407 74.8281 37.209V14.0151C74.8281 13.874 74.8669 13.7517 74.9541 13.6576C75.0413 13.5542 75.1769 13.4695 75.3706 13.4131C75.5644 13.3567 75.8356 13.3002 76.165 13.2626C76.4944 13.225 76.911 13.2062 77.4147 13.2062C77.9282 13.2062 78.3447 13.225 78.6644 13.2626C78.9938 13.3002 79.2554 13.3473 79.4491 13.4131C79.6429 13.4789 79.7785 13.5636 79.856 13.6576C79.9335 13.7611 79.9723 13.8834 79.9723 14.0151V24.5022L87.4027 14.0339C87.4899 13.8646 87.6061 13.7329 87.7321 13.62C87.858 13.5166 88.0324 13.4225 88.2455 13.3661C88.4586 13.3096 88.7202 13.2532 89.0496 13.2344C89.379 13.2062 89.7955 13.1968 90.2993 13.1968C90.8224 13.1968 91.2487 13.2156 91.5974 13.2532C91.9365 13.2908 92.2078 13.3473 92.4112 13.4131C92.6146 13.4789 92.7503 13.573 92.8278 13.6671C92.9053 13.7705 92.944 13.8834 92.944 14.0057C92.944 14.222 92.8859 14.4477 92.7696 14.6734C92.6534 14.8992 92.4306 15.266 92.1012 15.7551L85.1455 24.6056L92.7309 35.7418C93.0215 36.2591 93.1959 36.6071 93.254 36.7764C93.3025 36.9551 93.3315 37.0962 93.3315 37.1996Z" fill="white"/>
<path d="M110.856 37.3503C110.856 37.5291 110.788 37.6701 110.662 37.7736C110.526 37.8771 110.323 37.9523 110.042 37.9899C109.761 38.0369 109.344 38.0558 108.792 38.0558C108.201 38.0558 107.775 38.0369 107.504 37.9899C107.232 37.9429 107.048 37.8677 106.932 37.7736C106.816 37.6701 106.767 37.5291 106.767 37.3503V35.996C106.051 36.7484 105.227 37.3315 104.307 37.7454C103.386 38.1592 102.36 38.3755 101.236 38.3755C100.306 38.3755 99.4533 38.2533 98.6783 38.0275C97.9033 37.7924 97.2251 37.4444 96.6632 36.9835C96.0917 36.5227 95.6557 35.9489 95.336 35.2623C95.026 34.5757 94.8613 33.7763 94.8613 32.8639C94.8613 31.8763 95.0648 31.011 95.462 30.2868C95.8592 29.5532 96.4598 28.9512 97.2445 28.481C98.0389 28.0013 99.0173 27.6533 100.199 27.4275C101.371 27.2018 102.737 27.0889 104.297 27.0889H106.002V26.0637C106.002 25.5276 105.944 25.0668 105.837 24.6623C105.731 24.2673 105.547 23.9287 105.285 23.6653C105.033 23.402 104.694 23.2045 104.268 23.0728C103.842 22.9411 103.319 22.8847 102.689 22.8847C101.866 22.8847 101.129 22.9693 100.48 23.148C99.8311 23.3267 99.2595 23.5243 98.7655 23.7406C98.2714 23.9569 97.8548 24.1544 97.5158 24.3331C97.1864 24.5118 96.9151 24.5965 96.702 24.5965C96.5567 24.5965 96.4307 24.5495 96.3242 24.4648C96.2176 24.3802 96.1207 24.2485 96.0529 24.0792C95.9851 23.9193 95.927 23.7124 95.8882 23.4678C95.8495 23.2233 95.8301 22.9599 95.8301 22.6684C95.8301 22.2733 95.8592 21.9629 95.927 21.7372C95.9948 21.5115 96.1207 21.3046 96.2951 21.1165C96.4792 20.9283 96.7989 20.7308 97.2542 20.5051C97.7095 20.2794 98.252 20.0724 98.8623 19.8843C99.4727 19.6962 100.151 19.5363 100.868 19.4141C101.594 19.2918 102.34 19.2354 103.115 19.2354C104.491 19.2354 105.663 19.367 106.632 19.6304C107.601 19.8937 108.405 20.2888 109.034 20.8249C109.664 21.361 110.119 22.057 110.41 22.9129C110.701 23.7594 110.846 24.7752 110.846 25.9415V37.3503H110.856ZM106.012 30.0799H104.132C103.338 30.0799 102.66 30.1363 102.098 30.2492C101.536 30.3621 101.081 30.5314 100.722 30.7665C100.374 30.9922 100.112 31.2744 99.9473 31.5942C99.7827 31.914 99.7052 32.2902 99.7052 32.704C99.7052 33.4188 99.9377 33.9738 100.403 34.3782C100.868 34.7826 101.507 34.9896 102.331 34.9896C103.018 34.9896 103.658 34.8203 104.239 34.4723C104.82 34.1243 105.411 33.6258 106.012 32.9674V30.0799Z" fill="white"/>
<path d="M143.6 37.294C143.6 37.4163 143.562 37.5292 143.484 37.6232C143.407 37.7173 143.271 37.8019 143.097 37.8584C142.913 37.9242 142.661 37.9712 142.351 37.9995C142.041 38.0277 141.634 38.0465 141.159 38.0465C140.665 38.0465 140.258 38.0277 139.948 37.9995C139.638 37.9712 139.386 37.9242 139.193 37.8584C138.999 37.7925 138.873 37.7173 138.795 37.6232C138.728 37.5292 138.689 37.4163 138.689 37.294V27.2208C138.689 26.647 138.631 26.1297 138.524 25.6594C138.418 25.1892 138.243 24.7847 138.011 24.4461C137.778 24.1075 137.497 23.8536 137.148 23.6655C136.8 23.4774 136.383 23.3927 135.899 23.3927C135.308 23.3927 134.717 23.6184 134.116 24.0605C133.516 24.5026 132.867 25.1515 132.159 25.998V37.2846C132.159 37.4069 132.121 37.5198 132.043 37.6138C131.966 37.7079 131.83 37.7925 131.636 37.849C131.442 37.9148 131.191 37.9618 130.881 37.9901C130.571 38.0183 130.173 38.0371 129.708 38.0371C129.224 38.0371 128.827 38.0183 128.517 37.9901C128.207 37.9618 127.955 37.9148 127.761 37.849C127.567 37.7831 127.441 37.7079 127.354 37.6138C127.277 37.5198 127.238 37.4069 127.238 37.2846V27.2208C127.238 26.647 127.18 26.1297 127.073 25.6594C126.957 25.1892 126.792 24.7847 126.57 24.4461C126.347 24.1075 126.056 23.8536 125.707 23.6655C125.359 23.4774 124.942 23.3927 124.477 23.3927C123.876 23.3927 123.276 23.6184 122.675 24.0605C122.074 24.5026 121.425 25.1515 120.738 25.998V37.2846C120.738 37.4069 120.699 37.5198 120.621 37.6138C120.544 37.7079 120.408 37.7925 120.214 37.849C120.021 37.9148 119.769 37.9618 119.459 37.9901C119.149 38.0183 118.742 38.0371 118.267 38.0371C117.793 38.0371 117.386 38.0183 117.076 37.9901C116.766 37.9618 116.514 37.9148 116.32 37.849C116.126 37.7831 116 37.7079 115.913 37.6138C115.836 37.5198 115.797 37.4069 115.797 37.2846V20.3171C115.797 20.1948 115.826 20.082 115.894 19.9879C115.962 19.8939 116.078 19.8186 116.243 19.7528C116.407 19.6869 116.63 19.6399 116.901 19.6117C117.173 19.5835 117.502 19.5647 117.909 19.5647C118.325 19.5647 118.674 19.5835 118.945 19.6117C119.217 19.6399 119.43 19.6869 119.585 19.7528C119.73 19.8186 119.846 19.8939 119.904 19.9879C119.972 20.082 120.001 20.1948 120.001 20.3171V22.2735C120.97 21.2577 121.929 20.4958 122.898 19.9879C123.857 19.48 124.865 19.2261 125.911 19.2261C126.628 19.2261 127.277 19.3013 127.848 19.4424C128.42 19.5929 128.933 19.7998 129.389 20.0726C129.834 20.3453 130.231 20.6745 130.551 21.0507C130.881 21.4364 131.152 21.8596 131.375 22.3299C131.898 21.7844 132.411 21.3141 132.915 20.9191C133.419 20.524 133.913 20.2042 134.407 19.9597C134.901 19.7152 135.385 19.527 135.879 19.4048C136.373 19.2825 136.868 19.2261 137.381 19.2261C138.543 19.2261 139.522 19.4142 140.326 19.7998C141.12 20.176 141.769 20.6933 142.254 21.3517C142.748 22.0101 143.097 22.7719 143.3 23.6467C143.513 24.5214 143.61 25.4525 143.61 26.4307V37.294H143.6Z" fill="white"/>
<path d="M166.124 28.6314C166.124 30.0799 165.931 31.3967 165.533 32.5912C165.136 33.7857 164.545 34.8109 163.751 35.6762C162.957 36.5415 161.949 37.2093 160.748 37.6795C159.547 38.1498 158.142 38.385 156.534 38.385C154.974 38.385 153.627 38.178 152.475 37.7548C151.322 37.3315 150.372 36.7296 149.607 35.9301C148.851 35.1307 148.289 34.1431 147.921 32.9768C147.553 31.8105 147.369 30.4749 147.369 28.9795C147.369 27.531 147.573 26.2142 147.97 25.0103C148.367 23.8158 148.968 22.7812 149.762 21.9253C150.556 21.0694 151.554 20.4016 152.755 19.9408C153.957 19.4799 155.352 19.2354 156.96 19.2354C158.529 19.2354 159.886 19.4423 161.038 19.8561C162.191 20.27 163.141 20.8719 163.887 21.6714C164.642 22.4708 165.194 23.4584 165.563 24.6247C165.931 25.791 166.124 27.1172 166.124 28.6314ZM161.048 28.8196C161.048 27.9825 160.98 27.2112 160.845 26.5058C160.709 25.8004 160.477 25.189 160.147 24.6717C159.818 24.1544 159.382 23.75 158.839 23.4584C158.297 23.1669 157.619 23.0258 156.795 23.0258C156.059 23.0258 155.42 23.1574 154.877 23.4114C154.325 23.6747 153.879 24.051 153.521 24.5495C153.162 25.048 152.901 25.6499 152.726 26.3553C152.552 27.0607 152.465 27.8602 152.465 28.7631C152.465 29.6002 152.533 30.3715 152.678 31.0769C152.823 31.7823 153.056 32.3937 153.375 32.911C153.695 33.4283 154.131 33.8327 154.683 34.1243C155.236 34.4064 155.914 34.5569 156.718 34.5569C157.464 34.5569 158.113 34.4252 158.655 34.1619C159.207 33.8985 159.653 33.5223 160.012 33.0332C160.36 32.5347 160.622 31.9422 160.796 31.2368C160.961 30.522 161.048 29.7225 161.048 28.8196Z" fill="white"/>
<path d="M186.731 37.294C186.731 37.4163 186.692 37.5292 186.615 37.6232C186.537 37.7173 186.401 37.8019 186.217 37.8584C186.033 37.9242 185.781 37.9712 185.462 37.9995C185.142 38.0277 184.745 38.0465 184.28 38.0465C183.795 38.0465 183.398 38.0277 183.079 37.9995C182.759 37.9712 182.507 37.9242 182.323 37.8584C182.139 37.7925 182.013 37.7173 181.926 37.6232C181.848 37.5292 181.809 37.4163 181.809 37.294V27.6064C181.809 26.7787 181.751 26.1297 181.625 25.6688C181.499 25.208 181.325 24.7941 181.083 24.4555C180.85 24.1169 180.54 23.863 180.172 23.6749C179.804 23.4868 179.368 23.4021 178.864 23.4021C178.235 23.4021 177.605 23.6278 176.966 24.0699C176.326 24.512 175.658 25.1609 174.97 26.0074V37.294C174.97 37.4163 174.931 37.5292 174.854 37.6232C174.776 37.7173 174.641 37.8019 174.447 37.8584C174.253 37.9242 174.001 37.9712 173.691 37.9995C173.381 38.0277 172.974 38.0465 172.5 38.0465C172.025 38.0465 171.618 38.0277 171.308 37.9995C170.998 37.9712 170.746 37.9242 170.552 37.8584C170.359 37.7925 170.233 37.7173 170.146 37.6232C170.068 37.5292 170.029 37.4163 170.029 37.294V20.3171C170.029 20.1948 170.058 20.082 170.126 19.9879C170.194 19.8939 170.31 19.8186 170.475 19.7528C170.64 19.6869 170.862 19.6399 171.134 19.6117C171.405 19.5835 171.734 19.5647 172.141 19.5647C172.558 19.5647 172.907 19.5835 173.178 19.6117C173.449 19.6399 173.662 19.6869 173.817 19.7528C173.962 19.8186 174.079 19.8939 174.137 19.9879C174.205 20.082 174.234 20.1948 174.234 20.3171V22.2735C175.203 21.2577 176.181 20.4958 177.188 19.9879C178.196 19.48 179.233 19.2261 180.318 19.2261C181.509 19.2261 182.507 19.4142 183.33 19.7998C184.144 20.176 184.803 20.6933 185.307 21.3517C185.81 22.0101 186.169 22.7719 186.392 23.6467C186.615 24.5214 186.721 25.5748 186.721 26.8069V37.294H186.731Z" fill="white"/>
<path d="M206.473 37.3503C206.473 37.5291 206.405 37.6701 206.279 37.7736C206.143 37.8771 205.94 37.9523 205.659 37.9899C205.378 38.0369 204.962 38.0558 204.409 38.0558C203.818 38.0558 203.392 38.0369 203.121 37.9899C202.85 37.9429 202.666 37.8677 202.549 37.7736C202.433 37.6701 202.385 37.5291 202.385 37.3503V35.996C201.668 36.7484 200.844 37.3315 199.924 37.7454C199.004 38.1592 197.977 38.3755 196.853 38.3755C195.923 38.3755 195.07 38.2533 194.295 38.0275C193.52 37.7924 192.842 37.4444 192.28 36.9835C191.709 36.5227 191.273 35.9489 190.953 35.2623C190.643 34.5757 190.479 33.7763 190.479 32.8639C190.479 31.8763 190.682 31.011 191.079 30.2868C191.476 29.5532 192.077 28.9512 192.862 28.481C193.656 28.0013 194.635 27.6533 195.816 27.4275C196.989 27.2018 198.355 27.0889 199.914 27.0889H201.619V26.0637C201.619 25.5276 201.561 25.0668 201.455 24.6623C201.348 24.2673 201.164 23.9287 200.902 23.6653C200.651 23.402 200.311 23.2045 199.885 23.0728C199.459 22.9411 198.936 22.8847 198.306 22.8847C197.483 22.8847 196.746 22.9693 196.097 23.148C195.448 23.3267 194.877 23.5243 194.383 23.7406C193.889 23.9569 193.472 24.1544 193.133 24.3331C192.804 24.5118 192.532 24.5965 192.319 24.5965C192.174 24.5965 192.048 24.5495 191.941 24.4648C191.835 24.3802 191.738 24.2485 191.67 24.0792C191.602 23.9193 191.544 23.7124 191.505 23.4678C191.467 23.2233 191.447 22.9599 191.447 22.6684C191.447 22.2733 191.476 21.9629 191.544 21.7372C191.612 21.5115 191.738 21.3046 191.912 21.1165C192.096 20.9283 192.416 20.7308 192.871 20.5051C193.327 20.2794 193.869 20.0724 194.48 19.8843C195.09 19.6962 195.768 19.5363 196.485 19.4141C197.211 19.2918 197.957 19.2354 198.732 19.2354C200.108 19.2354 201.28 19.367 202.249 19.6304C203.218 19.8937 204.022 20.2888 204.652 20.8249C205.281 21.361 205.737 22.057 206.027 22.9129C206.318 23.7594 206.463 24.7752 206.463 25.9415V37.3503H206.473ZM201.629 30.0799H199.75C198.955 30.0799 198.277 30.1363 197.715 30.2492C197.153 30.3621 196.698 30.5314 196.34 30.7665C195.991 30.9922 195.729 31.2744 195.565 31.5942C195.4 31.914 195.322 32.2902 195.322 32.704C195.322 33.4188 195.555 33.9738 196.02 34.3782C196.485 34.7826 197.124 34.9896 197.948 34.9896C198.636 34.9896 199.275 34.8203 199.856 34.4723C200.437 34.1243 201.028 33.6258 201.629 32.9674V30.0799Z" fill="white"/>
<path d="M225.936 37.2559C225.936 37.3782 225.897 37.5005 225.81 37.5945C225.723 37.698 225.587 37.7826 225.384 37.8391C225.18 37.8955 224.928 37.9519 224.599 37.9896C224.27 38.0272 223.853 38.046 223.349 38.046C222.855 38.046 222.439 38.0272 222.1 37.9896C221.77 37.9519 221.499 37.9049 221.305 37.8391C221.111 37.7732 220.966 37.6886 220.889 37.5945C220.801 37.4911 220.763 37.3782 220.763 37.2559V13.9961C220.763 13.8738 220.801 13.7516 220.889 13.6575C220.976 13.5541 221.121 13.4694 221.315 13.413C221.509 13.3565 221.78 13.3001 222.109 13.2625C222.439 13.2249 222.846 13.2061 223.34 13.2061C223.853 13.2061 224.27 13.2249 224.589 13.2625C224.919 13.3001 225.18 13.3471 225.374 13.413C225.568 13.4788 225.713 13.5635 225.8 13.6575C225.887 13.761 225.926 13.8738 225.926 13.9961V37.2559H225.936Z" fill="white"/>
<path d="M248.344 15.3598C248.344 15.7267 248.324 16.0464 248.295 16.3004C248.266 16.5637 248.218 16.7707 248.15 16.9306C248.082 17.0905 248.005 17.2033 247.908 17.2786C247.811 17.3538 247.704 17.3914 247.588 17.3914H241.223V37.2464C241.223 37.3687 241.184 37.491 241.097 37.585C241.01 37.6885 240.874 37.7732 240.671 37.8296C240.468 37.886 240.206 37.9425 239.877 37.9801C239.547 38.0177 239.131 38.0365 238.627 38.0365C238.123 38.0365 237.716 38.0177 237.377 37.9801C237.048 37.9425 236.777 37.8954 236.583 37.8296C236.389 37.7637 236.244 37.6791 236.157 37.585C236.069 37.4816 236.031 37.3687 236.031 37.2464V17.4008H229.676C229.55 17.4008 229.433 17.3632 229.346 17.288C229.259 17.2127 229.172 17.0905 229.114 16.94C229.056 16.7895 228.997 16.5732 228.968 16.3098C228.939 16.0464 228.92 15.7361 228.92 15.3692C228.92 14.993 228.939 14.6638 228.968 14.4005C228.997 14.1371 229.046 13.9208 229.114 13.7609C229.181 13.601 229.259 13.4881 229.346 13.4223C229.433 13.3565 229.55 13.3188 229.676 13.3188H247.559C247.675 13.3188 247.782 13.3565 247.879 13.4223C247.976 13.4881 248.063 13.6104 248.121 13.7609C248.189 13.9208 248.237 14.1277 248.266 14.4005C248.324 14.6638 248.344 14.9836 248.344 15.3598Z" fill="white"/>
<path d="M15.2681 33.0508L11.335 36.8694L27.9396 52.9998H35.8156L15.2681 33.0508Z" fill="white"/>
<path d="M55.3746 26.8809C55.3746 12.0579 42.955 0 27.6873 0C12.7877 0 0.513445 11.597 0.0193753 25.978L0 49.9996L5.37664 44.5539L31.4752 19.2154H23.6088L5.56071 36.7285V26.8057C5.60915 15.0018 15.5293 5.39876 27.6873 5.39876C39.884 5.39876 49.8139 15.0394 49.8139 26.8809C49.8139 35.581 44.3501 43.4252 36.1349 46.7265L40.3103 50.7803C49.5039 46.1998 55.3746 36.9824 55.3746 26.8809Z" fill="white"/>
</svg>
