<svg width="164" height="35" viewBox="0 0 164 35" fill="none" xmlns="http://www.w3.org/2000/svg">
<path d="M61.6333 24.5653C61.6333 24.6585 61.6077 24.7392 61.5629 24.8075C61.5181 24.8758 61.4222 24.938 61.2942 24.9814C61.1663 25.0249 60.9743 25.0622 60.744 25.087C60.5137 25.1119 60.2194 25.1243 59.8612 25.1243C59.2982 25.1243 58.8952 25.1057 58.6521 25.0622C58.4089 25.0187 58.2298 24.9566 58.1211 24.8758C58.0123 24.7951 57.9291 24.6895 57.8716 24.5715L52.8111 16.8572V24.5715C52.8111 24.6647 52.7855 24.7454 52.7344 24.8075C52.6832 24.8758 52.5936 24.9317 52.4657 24.9752C52.3377 25.0187 52.165 25.056 51.9475 25.0808C51.73 25.1057 51.4549 25.1181 51.1222 25.1181C50.7959 25.1181 50.5208 25.1057 50.2969 25.0808C50.0794 25.056 49.9003 25.0187 49.7723 24.9752C49.6444 24.9317 49.5484 24.8696 49.4972 24.8075C49.4397 24.7392 49.4141 24.6585 49.4141 24.5715V9.25473C49.4141 9.16156 49.4397 9.08082 49.4972 9.0187C49.5548 8.95038 49.6444 8.89448 49.7723 8.85721C49.9003 8.81995 50.0794 8.78268 50.2969 8.75783C50.5144 8.73299 50.7895 8.72057 51.1222 8.72057C51.4613 8.72057 51.7364 8.73299 51.9475 8.75783C52.165 8.78268 52.3377 8.81373 52.4657 8.85721C52.5936 8.90069 52.6832 8.95659 52.7344 9.0187C52.7855 9.08703 52.8111 9.16777 52.8111 9.25473V16.1802L57.718 9.26715C57.7756 9.15535 57.8524 9.06839 57.9355 8.99386C58.0187 8.92554 58.1339 8.86342 58.2746 8.82616C58.4153 8.78889 58.5881 8.75162 58.8056 8.7392C59.0231 8.72057 59.2982 8.71436 59.6309 8.71436C59.9763 8.71436 60.2578 8.72678 60.4881 8.75162C60.712 8.77647 60.8912 8.81373 61.0255 8.85721C61.1599 8.90069 61.2494 8.9628 61.3006 9.02491C61.3518 9.09324 61.3774 9.16777 61.3774 9.24852C61.3774 9.39137 61.339 9.54044 61.2622 9.68951C61.1855 9.83858 61.0383 10.0808 60.8208 10.4038L56.2274 16.2485L61.2366 23.6026C61.4286 23.9442 61.5437 24.174 61.5821 24.2858C61.6141 24.4038 61.6333 24.497 61.6333 24.5653Z" fill="#211D70"/>
<path d="M73.2068 24.6649C73.2068 24.7829 73.162 24.8761 73.0789 24.9444C72.9893 25.0127 72.855 25.0624 72.6694 25.0872C72.4839 25.1183 72.2088 25.1307 71.8442 25.1307C71.4539 25.1307 71.1724 25.1183 70.9933 25.0872C70.8142 25.0562 70.6926 25.0065 70.6158 24.9444C70.5391 24.8761 70.5071 24.7829 70.5071 24.6649V23.7705C70.0337 24.2674 69.4899 24.6525 68.8821 24.9258C68.2743 25.199 67.5962 25.3419 66.8541 25.3419C66.2399 25.3419 65.677 25.2612 65.1652 25.1121C64.6534 24.9568 64.2055 24.727 63.8345 24.4226C63.457 24.1183 63.1691 23.7394 62.958 23.286C62.7533 22.8326 62.6445 22.3046 62.6445 21.7021C62.6445 21.05 62.7789 20.4785 63.0412 20.0003C63.3035 19.5158 63.7001 19.1183 64.2183 18.8077C64.7429 18.491 65.3891 18.2612 66.1696 18.1121C66.9437 17.963 67.8457 17.8885 68.8757 17.8885H70.0017V17.2115C70.0017 16.8574 69.9633 16.5531 69.8929 16.286C69.8225 16.0251 69.701 15.8015 69.5283 15.6276C69.3619 15.4537 69.138 15.3233 68.8565 15.2363C68.575 15.1494 68.2296 15.1121 67.8137 15.1121C67.2699 15.1121 66.7837 15.168 66.3551 15.286C65.9265 15.404 65.549 15.5344 65.2227 15.6773C64.8965 15.8202 64.6214 15.9506 64.3975 16.0686C64.1799 16.1866 64.0008 16.2425 63.8601 16.2425C63.7641 16.2425 63.6809 16.2115 63.6106 16.1556C63.5402 16.0997 63.4762 16.0127 63.4314 15.9009C63.3866 15.7953 63.3483 15.6587 63.3227 15.4972C63.2971 15.3357 63.2843 15.1618 63.2843 14.9692C63.2843 14.7084 63.3035 14.5034 63.3483 14.3543C63.393 14.2053 63.4762 14.0686 63.5914 13.9444C63.7129 13.8202 63.924 13.6897 64.2247 13.5407C64.5254 13.3916 64.8837 13.2549 65.2867 13.1307C65.6897 13.0065 66.1376 12.9009 66.611 12.8202C67.0908 12.7394 67.5834 12.7021 68.0952 12.7021C69.0037 12.7021 69.7778 12.7891 70.4175 12.963C71.0573 13.1369 71.5883 13.3978 72.0041 13.7518C72.4199 14.1059 72.7206 14.5655 72.9125 15.1307C73.1045 15.6897 73.2004 16.3605 73.2004 17.1307V24.6649H73.2068ZM70.0081 19.8636H68.7669C68.2424 19.8636 67.7945 19.9009 67.4235 19.9754C67.0524 20.05 66.7517 20.1618 66.515 20.3171C66.2847 20.4661 66.112 20.6525 66.0032 20.8636C65.8945 21.0748 65.8433 21.3233 65.8433 21.5966C65.8433 22.0686 65.9968 22.4351 66.3039 22.7021C66.611 22.9692 67.0332 23.1059 67.577 23.1059C68.0312 23.1059 68.4535 22.9941 68.8373 22.7643C69.2212 22.5344 69.6114 22.2053 70.0081 21.7705V19.8636Z" fill="#211D70"/>
<path d="M94.8296 24.6275C94.8296 24.7082 94.804 24.7828 94.7528 24.8449C94.7016 24.907 94.6121 24.9629 94.4969 25.0001C94.3754 25.0436 94.209 25.0747 94.0043 25.0933C93.7996 25.112 93.5309 25.1244 93.2174 25.1244C92.8911 25.1244 92.6225 25.112 92.4177 25.0933C92.213 25.0747 92.0467 25.0436 91.9187 25.0001C91.7908 24.9567 91.7076 24.907 91.6564 24.8449C91.6116 24.7828 91.5861 24.7082 91.5861 24.6275V17.9753C91.5861 17.5964 91.5477 17.2548 91.4773 16.9442C91.4069 16.6337 91.2918 16.3666 91.1382 16.143C90.9847 15.9194 90.7992 15.7517 90.5689 15.6275C90.3385 15.5033 90.0634 15.4474 89.7436 15.4474C89.3533 15.4474 88.9631 15.5964 88.5664 15.8883C88.1698 16.1803 87.7412 16.6088 87.2741 17.1679V24.6213C87.2741 24.702 87.2485 24.7765 87.1974 24.8387C87.1462 24.9008 87.0566 24.9567 86.9287 24.9939C86.8007 25.0374 86.6344 25.0685 86.4297 25.0871C86.2249 25.1057 85.9626 25.1182 85.6556 25.1182C85.3357 25.1182 85.0734 25.1057 84.8687 25.0871C84.664 25.0685 84.4976 25.0374 84.3697 24.9939C84.2417 24.9505 84.1586 24.9008 84.101 24.8387C84.0498 24.7765 84.0242 24.702 84.0242 24.6213V17.9753C84.0242 17.5964 83.9858 17.2548 83.9154 16.9442C83.8387 16.6337 83.7299 16.3666 83.5828 16.143C83.4356 15.9194 83.2437 15.7517 83.0134 15.6275C82.7831 15.5033 82.508 15.4474 82.2009 15.4474C81.8043 15.4474 81.4076 15.5964 81.011 15.8883C80.6143 16.1803 80.1857 16.6088 79.7315 17.1679V24.6213C79.7315 24.702 79.7059 24.7765 79.6547 24.8387C79.6035 24.9008 79.514 24.9567 79.386 24.9939C79.2581 25.0374 79.0917 25.0685 78.887 25.0871C78.6823 25.1057 78.4136 25.1182 78.1001 25.1182C77.7866 25.1182 77.5179 25.1057 77.3132 25.0871C77.1085 25.0685 76.9422 25.0374 76.8142 24.9939C76.6863 24.9505 76.6031 24.9008 76.5455 24.8387C76.4943 24.7765 76.4688 24.702 76.4688 24.6213V13.4163C76.4688 13.3356 76.4879 13.261 76.5327 13.1989C76.5775 13.1368 76.6543 13.0871 76.763 13.0436C76.8718 13.0001 77.0189 12.9691 77.1981 12.9505C77.3772 12.9318 77.5947 12.9194 77.8634 12.9194C78.1385 12.9194 78.3688 12.9318 78.5479 12.9505C78.7271 12.9691 78.8678 13.0001 78.9702 13.0436C79.0661 13.0871 79.1429 13.1368 79.1813 13.1989C79.2261 13.261 79.2453 13.3356 79.2453 13.4163V14.7082C79.885 14.0374 80.5184 13.5343 81.1581 13.1989C81.7915 12.8635 82.4568 12.6958 83.1477 12.6958C83.6212 12.6958 84.0498 12.7455 84.4272 12.8387C84.8047 12.938 85.1438 13.0747 85.4444 13.2548C85.7387 13.4349 86.001 13.6523 86.2121 13.9008C86.4297 14.1554 86.6088 14.4349 86.7559 14.7455C87.1014 14.3852 87.4405 14.0747 87.7731 13.8138C88.1058 13.5529 88.4321 13.3418 88.7584 13.1803C89.0846 13.0188 89.4045 12.8946 89.7308 12.8138C90.057 12.7331 90.3833 12.6958 90.7224 12.6958C91.4901 12.6958 92.1362 12.82 92.6672 13.0747C93.1918 13.3231 93.6205 13.6647 93.9403 14.0995C94.2666 14.5343 94.4969 15.0374 94.6313 15.6151C94.772 16.1927 94.836 16.8076 94.836 17.4536V24.6275H94.8296Z" fill="#211D70"/>
<path d="M109.704 18.9071C109.704 19.8636 109.576 20.7332 109.314 21.522C109.051 22.3108 108.661 22.9879 108.137 23.5593C107.612 24.1307 106.947 24.5717 106.153 24.8823C105.36 25.1928 104.432 25.3481 103.37 25.3481C102.34 25.3481 101.451 25.2115 100.69 24.932C99.9285 24.6525 99.3016 24.2549 98.7962 23.727C98.2972 23.199 97.9261 22.5469 97.683 21.7767C97.4399 21.0065 97.3184 20.1245 97.3184 19.1369C97.3184 18.1804 97.4527 17.3108 97.715 16.5158C97.9773 15.727 98.3739 15.0438 98.8985 14.4785C99.4231 13.9133 100.082 13.4723 100.875 13.168C101.669 12.8636 102.59 12.7021 103.652 12.7021C104.688 12.7021 105.584 12.8388 106.345 13.1121C107.107 13.3854 107.734 13.7829 108.226 14.3108C108.725 14.8388 109.09 15.491 109.333 16.2612C109.576 17.0313 109.704 17.9071 109.704 18.9071ZM106.352 19.0313C106.352 18.4785 106.307 17.9692 106.217 17.5034C106.128 17.0376 105.974 16.6338 105.757 16.2922C105.539 15.9506 105.251 15.6835 104.893 15.491C104.535 15.2984 104.087 15.2053 103.543 15.2053C103.057 15.2053 102.635 15.2922 102.276 15.4599C101.912 15.6338 101.617 15.8823 101.381 16.2115C101.144 16.5407 100.971 16.9382 100.856 17.404C100.741 17.8699 100.683 18.3978 100.683 18.9941C100.683 19.5469 100.728 20.0562 100.824 20.522C100.92 20.9879 101.074 21.3916 101.285 21.7332C101.496 22.0748 101.784 22.3419 102.148 22.5344C102.513 22.7208 102.961 22.8202 103.492 22.8202C103.985 22.8202 104.413 22.7332 104.771 22.5593C105.136 22.3854 105.43 22.1369 105.667 21.8139C105.897 21.4848 106.07 21.0935 106.185 20.6276C106.294 20.1556 106.352 19.6276 106.352 19.0313Z" fill="#211D70"/>
<path d="M123.312 24.6275C123.312 24.7082 123.286 24.7828 123.235 24.8449C123.184 24.907 123.094 24.9629 122.973 25.0001C122.851 25.0436 122.685 25.0747 122.474 25.0933C122.262 25.112 122 25.1244 121.693 25.1244C121.373 25.1244 121.111 25.112 120.9 25.0933C120.689 25.0747 120.522 25.0436 120.401 25.0001C120.279 24.9567 120.196 24.907 120.138 24.8449C120.087 24.7828 120.062 24.7082 120.062 24.6275V18.23C120.062 17.6834 120.023 17.2548 119.94 16.9505C119.857 16.6461 119.742 16.3728 119.582 16.1492C119.428 15.9256 119.224 15.7579 118.981 15.6337C118.737 15.5095 118.45 15.4536 118.117 15.4536C117.701 15.4536 117.285 15.6026 116.863 15.8946C116.441 16.1865 115.999 16.6151 115.545 17.1741V24.6275C115.545 24.7082 115.519 24.7828 115.468 24.8449C115.417 24.907 115.328 24.9629 115.2 25.0001C115.072 25.0436 114.905 25.0747 114.701 25.0933C114.496 25.112 114.227 25.1244 113.914 25.1244C113.6 25.1244 113.332 25.112 113.127 25.0933C112.922 25.0747 112.756 25.0436 112.628 25.0001C112.5 24.9567 112.417 24.907 112.359 24.8449C112.308 24.7828 112.282 24.7082 112.282 24.6275V13.4163C112.282 13.3356 112.302 13.261 112.346 13.1989C112.391 13.1368 112.468 13.0871 112.577 13.0436C112.685 13.0001 112.833 12.9691 113.012 12.9505C113.191 12.9318 113.408 12.9194 113.677 12.9194C113.952 12.9194 114.182 12.9318 114.362 12.9505C114.541 12.9691 114.681 13.0001 114.784 13.0436C114.88 13.0871 114.957 13.1368 114.995 13.1989C115.04 13.261 115.059 13.3356 115.059 13.4163V14.7082C115.699 14.0374 116.345 13.5343 117.01 13.1989C117.675 12.8635 118.36 12.6958 119.077 12.6958C119.863 12.6958 120.522 12.82 121.066 13.0747C121.604 13.3231 122.039 13.6647 122.371 14.0995C122.704 14.5343 122.941 15.0374 123.088 15.6151C123.235 16.1927 123.305 16.8883 123.305 17.702V24.6275H123.312Z" fill="#211D70"/>
<path d="M136.349 24.6649C136.349 24.7829 136.305 24.8761 136.221 24.9444C136.132 25.0127 135.998 25.0624 135.812 25.0872C135.626 25.1183 135.351 25.1307 134.987 25.1307C134.596 25.1307 134.315 25.1183 134.136 25.0872C133.957 25.0562 133.835 25.0065 133.758 24.9444C133.682 24.8761 133.65 24.7829 133.65 24.6649V23.7705C133.176 24.2674 132.632 24.6525 132.025 24.9258C131.417 25.199 130.739 25.3419 129.997 25.3419C129.383 25.3419 128.82 25.2612 128.308 25.1121C127.796 24.9568 127.348 24.727 126.977 24.4226C126.6 24.1183 126.312 23.7394 126.101 23.286C125.896 22.8326 125.787 22.3046 125.787 21.7021C125.787 21.05 125.921 20.4785 126.184 20.0003C126.446 19.5158 126.843 19.1183 127.361 18.8077C127.885 18.491 128.532 18.2612 129.312 18.1121C130.086 17.963 130.988 17.8885 132.018 17.8885H133.144V17.2115C133.144 16.8574 133.106 16.5531 133.035 16.286C132.965 16.0251 132.844 15.8015 132.671 15.6276C132.504 15.4537 132.281 15.3233 131.999 15.2363C131.718 15.1494 131.372 15.1121 130.956 15.1121C130.413 15.1121 129.926 15.168 129.498 15.286C129.069 15.404 128.692 15.5344 128.365 15.6773C128.039 15.8202 127.764 15.9506 127.54 16.0686C127.323 16.1866 127.143 16.2425 127.003 16.2425C126.907 16.2425 126.824 16.2115 126.753 16.1556C126.683 16.0997 126.619 16.0127 126.574 15.9009C126.529 15.7953 126.491 15.6587 126.465 15.4972C126.44 15.3357 126.427 15.1618 126.427 14.9692C126.427 14.7084 126.446 14.5034 126.491 14.3543C126.536 14.2053 126.619 14.0686 126.734 13.9444C126.855 13.8202 127.067 13.6897 127.367 13.5407C127.668 13.3916 128.026 13.2549 128.429 13.1307C128.832 13.0065 129.28 12.9009 129.754 12.8202C130.233 12.7394 130.726 12.7021 131.238 12.7021C132.146 12.7021 132.92 12.7891 133.56 12.963C134.2 13.1369 134.731 13.3978 135.147 13.7518C135.562 14.1059 135.863 14.5655 136.055 15.1307C136.247 15.6897 136.343 16.3605 136.343 17.1307V24.6649H136.349ZM133.151 19.8636H131.91C131.385 19.8636 130.937 19.9009 130.566 19.9754C130.195 20.05 129.894 20.1618 129.658 20.3171C129.427 20.4661 129.255 20.6525 129.146 20.8636C129.037 21.0748 128.986 21.3233 128.986 21.5966C128.986 22.0686 129.139 22.4351 129.446 22.7021C129.754 22.9692 130.176 23.1059 130.72 23.1059C131.174 23.1059 131.596 22.9941 131.98 22.7643C132.364 22.5344 132.754 22.2053 133.151 21.7705V19.8636Z" fill="#211D70"/>
<path d="M149.202 24.6027C149.202 24.6834 149.177 24.7642 149.119 24.8263C149.062 24.8946 148.972 24.9505 148.838 24.9878C148.703 25.0251 148.537 25.0623 148.319 25.0872C148.102 25.112 147.827 25.1244 147.494 25.1244C147.168 25.1244 146.893 25.112 146.669 25.0872C146.451 25.0623 146.272 25.0313 146.144 24.9878C146.016 24.9443 145.92 24.8884 145.869 24.8263C145.812 24.758 145.786 24.6834 145.786 24.6027V9.24244C145.786 9.1617 145.812 9.08095 145.869 9.01884C145.927 8.95052 146.023 8.89462 146.151 8.85735C146.279 8.82008 146.458 8.78282 146.675 8.75797C146.893 8.73313 147.162 8.7207 147.488 8.7207C147.827 8.7207 148.102 8.73313 148.313 8.75797C148.531 8.78282 148.703 8.81387 148.831 8.85735C148.959 8.90083 149.055 8.95673 149.113 9.01884C149.17 9.08716 149.196 9.1617 149.196 9.24244V24.6027H149.202Z" fill="#211D70"/>
<path d="M164 10.1427C164 10.385 163.987 10.5962 163.968 10.7639C163.949 10.9378 163.917 11.0744 163.872 11.18C163.827 11.2856 163.776 11.3601 163.712 11.4098C163.648 11.4595 163.578 11.4844 163.501 11.4844H159.298V24.5962C159.298 24.6769 159.272 24.7577 159.215 24.8198C159.157 24.8881 159.067 24.944 158.933 24.9813C158.799 25.0185 158.626 25.0558 158.408 25.0806C158.191 25.1055 157.916 25.1179 157.583 25.1179C157.25 25.1179 156.982 25.1055 156.758 25.0806C156.54 25.0558 156.361 25.0247 156.233 24.9813C156.105 24.9378 156.009 24.8819 155.952 24.8198C155.894 24.7514 155.869 24.6769 155.869 24.5962V11.4906H151.672C151.589 11.4906 151.512 11.4657 151.454 11.416C151.397 11.3663 151.339 11.2856 151.301 11.1862C151.262 11.0868 151.224 10.944 151.205 10.7701C151.186 10.5962 151.173 10.3912 151.173 10.149C151.173 9.90051 151.186 9.68312 151.205 9.50921C151.224 9.33529 151.256 9.19244 151.301 9.08685C151.346 8.98126 151.397 8.90672 151.454 8.86325C151.512 8.81977 151.589 8.79492 151.672 8.79492H163.482C163.558 8.79492 163.629 8.81977 163.693 8.86325C163.757 8.90672 163.814 8.98747 163.853 9.08685C163.897 9.19244 163.929 9.32908 163.949 9.50921C163.987 9.68312 164 9.8943 164 10.1427Z" fill="#211D70"/>
<path d="M10.0818 21.8262L7.48438 24.3479L18.4497 35.0001H23.6509L10.0818 21.8262Z" fill="#211D70"/>
<path d="M36.5681 17.7516C36.5681 7.96273 28.3665 0 18.2841 0C8.4447 0 0.339068 7.65839 0.012795 17.1553L0 33.0186L3.55061 29.4224L20.7855 12.6894H15.5907L3.67217 24.2547V17.7019C3.70415 9.90683 10.2552 3.56522 18.2841 3.56522C26.3385 3.56522 32.896 9.93168 32.896 17.7516C32.896 23.4969 29.2878 28.677 23.8627 30.8571L26.62 33.5342C32.6912 30.5093 36.5681 24.4224 36.5681 17.7516Z" fill="#00AEEF"/>
</svg>
