<svg width="45" height="41" viewBox="0 0 45 41" fill="none" xmlns="http://www.w3.org/2000/svg">
<path d="M28.5057 31.7276C28.9719 34.0692 29.4103 36.2699 29.8696 38.582C31.117 38.582 32.3539 38.5802 33.5925 38.5837C33.8813 38.5837 34.2275 38.5019 34.4467 38.6289C34.7355 38.7959 35.066 39.1126 35.1113 39.4066C35.1478 39.6397 34.8382 40.0363 34.5824 40.1773C34.3058 40.3304 33.9109 40.3043 33.5682 40.3043C26.0614 40.3095 18.5547 40.3095 11.0479 40.3077C9.93623 40.3077 9.38475 40.0102 9.47174 39.3996C9.60395 38.4584 10.3607 38.5802 11.0253 38.5802C12.2378 38.5802 13.4521 38.5802 14.743 38.5802C15.1971 36.3099 15.6424 34.0883 16.1139 31.7258C15.6842 31.7258 15.3762 31.7258 15.0683 31.7258C11.8516 31.7258 8.63147 31.6406 5.41652 31.7485C1.8171 31.8702 -0.046105 29.1755 0.000866604 26.3798C0.120905 19.2818 0.0391398 12.1787 0.0408795 5.07728C0.0408795 2.01021 2.01543 0.00956829 5.09294 0.0078286C16.5714 -0.00260953 28.0481 -0.00260953 39.5266 0.0078286C42.6041 0.011308 44.5769 2.01195 44.5769 5.07902C44.5787 12.2674 44.5787 19.4558 44.5769 26.6442C44.5769 29.7443 42.6668 31.6945 39.5492 31.7206C36.2456 31.7485 32.9401 31.7276 29.6365 31.7276C29.299 31.7276 28.9615 31.7276 28.5057 31.7276ZM1.80318 23.0692C15.5189 23.0692 29.1528 23.0692 42.8442 23.0692C42.8442 22.7804 42.8442 22.5525 42.8442 22.3246C42.8442 16.5558 42.8477 10.7887 42.8425 5.01987C42.8407 2.95312 41.6247 1.73708 39.5301 1.73534C28.0516 1.72838 16.5732 1.72838 5.09468 1.73534C2.96878 1.73708 1.77535 2.96008 1.77361 5.09816C1.76839 9.67876 1.77187 14.2576 1.77187 18.8382C1.77187 19.1131 1.77187 19.3897 1.77187 19.7202C2.39816 19.7202 2.89049 19.7185 3.38108 19.7202C4.53972 19.7255 5.70009 19.7133 6.85872 19.7463C7.38933 19.762 7.81903 20.0804 7.67638 20.6214C7.59287 20.938 7.17535 21.2338 6.83959 21.3973C6.58037 21.5243 6.2133 21.4338 5.89493 21.4338C4.54146 21.4356 3.18624 21.4338 1.80318 21.4338C1.80318 22.034 1.80318 22.5212 1.80318 23.0692ZM42.832 24.9132C29.1024 24.9132 15.4737 24.9132 1.8084 24.9132C1.8084 25.8283 1.70924 26.7034 1.82928 27.5506C2.05544 29.1424 3.37239 30.0123 5.39042 30.0123C16.6601 30.014 27.9281 30.014 39.1978 30.0088C39.6014 30.0088 40.0102 29.9809 40.4069 29.9166C41.7012 29.7061 42.7311 28.6205 42.8216 27.321C42.8755 26.5468 42.832 25.7657 42.832 24.9132ZM28.1056 38.5402C27.6758 36.416 27.2374 34.4137 26.8808 32.3956C26.7764 31.8076 26.5103 31.7171 26.0144 31.7206C23.9268 31.7363 21.8409 31.7258 19.7533 31.7258C17.8953 31.7258 17.8831 31.7241 17.5039 33.5647C17.1664 35.2017 16.8585 36.8423 16.5262 38.5385C20.4057 38.5402 24.193 38.5402 28.1056 38.5402Z" fill="#00AEEF"/>
<path d="M27.3608 14.543C28.088 15.2424 28.6047 15.7486 29.1318 16.2444C29.6815 16.7611 29.7128 17.2691 29.1614 17.8067C28.6429 18.3112 28.1349 18.8261 27.6217 19.3376C27.1433 19.8143 26.6353 19.8091 26.1743 19.3463C25.6246 18.7948 25.1201 18.1998 24.4485 17.464C23.9162 18.0798 23.5369 18.5965 23.0794 19.0332C22.3905 19.6908 21.6894 19.4907 21.4702 18.5721C20.8735 16.0739 20.2976 13.5705 19.7375 11.0654C19.5461 10.2042 19.9671 9.71538 20.8213 9.89631C23.4169 10.4478 26.0056 11.0445 28.5838 11.6708C29.3336 11.8535 29.4989 12.5754 28.9491 13.1582C28.4951 13.6332 27.954 14.0298 27.3608 14.543ZM27.5869 17.0151C26.9189 16.3958 26.3848 15.9087 25.8612 15.4094C25.3201 14.8944 25.2975 14.3708 25.8542 13.8402C26.1099 13.5966 26.3431 13.3305 26.6823 12.9756C24.9391 12.5824 23.3856 12.231 21.6929 11.85C22.0965 13.5845 22.4583 15.1432 22.848 16.8116C23.1751 16.4984 23.4012 16.281 23.6291 16.0652C24.2972 15.4337 24.6556 15.4337 25.3219 16.0722C25.5932 16.3332 25.8786 16.5854 26.1152 16.8759C26.3344 17.1456 26.4979 17.4605 26.7258 17.8171C27.1277 17.4431 27.2894 17.2917 27.5869 17.0151Z" fill="#00AEEF"/>
<path d="M21.6058 6.64289C21.6058 6.84469 21.6858 7.1039 21.5901 7.2396C21.3622 7.5597 21.0526 7.8224 20.7742 8.1077C20.4767 7.81196 20.0801 7.56318 19.9131 7.20655C19.7687 6.89862 19.7687 6.41673 19.9113 6.10532C20.0766 5.74869 20.468 5.49817 20.762 5.20068C21.0439 5.50687 21.3501 5.7974 21.5954 6.13142C21.6789 6.2445 21.6093 6.46892 21.6093 6.64289C21.6075 6.64289 21.6058 6.64289 21.6058 6.64289Z" fill="#00AEEF"/>
<path d="M18.9968 8.58965C18.8263 8.72186 18.567 9.05936 18.24 9.14635C17.6833 9.29422 16.3507 7.94074 16.5212 7.38404C16.6169 7.07438 16.9944 6.71426 17.3075 6.63772C17.8538 6.50376 19.035 7.77547 18.9968 8.58965Z" fill="#00AEEF"/>
<path d="M25.1791 7.70115C24.5789 8.19175 24.0379 8.80238 23.3612 9.13292C22.8532 9.38169 22.2269 8.50141 22.5696 7.99342C22.9141 7.48195 23.396 7.0192 23.9161 6.68691C24.3945 6.38073 25.0487 6.91829 25.1791 7.70115Z" fill="#00AEEF"/>
<path d="M16.5173 10.062C16.7487 10.062 17.0305 9.97845 17.1992 10.0811C17.4863 10.2551 17.9038 10.5525 17.8986 10.7891C17.8916 11.0953 17.5785 11.5685 17.2984 11.6572C16.8287 11.8069 16.2511 11.8121 15.7744 11.6799C15.4769 11.5964 15.0507 11.0953 15.0977 10.8726C15.1673 10.556 15.597 10.2899 15.9188 10.0707C16.0563 9.97671 16.312 10.055 16.5155 10.055C16.5173 10.0567 16.5173 10.0585 16.5173 10.062Z" fill="#00AEEF"/>
<path d="M19.0048 13.1736C19.0187 14.0278 17.8253 15.2543 17.2843 15.0959C16.9642 15.002 16.5849 14.5984 16.5188 14.2731C16.4075 13.7338 17.6357 12.556 18.1785 12.6586C18.5229 12.7265 18.8187 13.0518 19.0048 13.1736Z" fill="#00AEEF"/>
<path d="M9.45791 19.395C9.85629 19.9326 10.2112 20.2109 10.2756 20.5432C10.3782 21.0721 10.0163 21.3991 9.4666 21.4078C8.9099 21.4165 8.55849 21.0599 8.63329 20.5537C8.68026 20.2231 9.05256 19.9395 9.45791 19.395Z" fill="#00AEEF"/>
<path d="M24.0311 27.4115C24.0468 28.3179 23.2448 29.1425 22.3315 29.1581C21.4251 29.1738 20.5987 28.3718 20.5848 27.4602C20.5692 26.5503 21.3642 25.7396 22.2828 25.7257C23.2031 25.7135 24.0155 26.4964 24.0311 27.4115Z" fill="#00AEEF"/>
</svg>
