<svg width="501" height="523" viewBox="0 0 501 523" fill="none" xmlns="http://www.w3.org/2000/svg">
<path opacity="0.36" d="M199.492 362.839C299.573 362.839 380.705 281.707 380.705 181.625C380.705 81.5441 299.573 0.412109 199.492 0.412109C99.4103 0.412109 18.2783 81.5441 18.2783 181.625C18.2783 281.707 99.4103 362.839 199.492 362.839Z" fill="#DADEEA"/>
<path opacity="0.36" d="M249.963 522.372C387.746 522.372 499.441 514.931 499.441 505.752C499.441 496.573 387.746 489.132 249.963 489.132C112.181 489.132 0.48584 496.573 0.48584 505.752C0.48584 514.931 112.181 522.372 249.963 522.372Z" fill="#7DBBF1"/>
<path d="M173.542 345.289C173.542 345.289 172.841 330.912 152.499 323.252C152.499 323.252 155.647 342.663 173.542 345.289Z" fill="#48BE97"/>
<path d="M171.936 370.716C171.936 370.716 169.82 352.158 142.838 343.95C142.826 343.95 148.535 368.829 171.936 370.716Z" fill="#48BE97"/>
<path d="M178.678 407.499C178.678 407.499 175.607 385.985 143.947 377.318C143.947 377.318 151.403 406.071 178.678 407.499Z" fill="#48BE97"/>
<path d="M200.779 446.066C200.779 446.066 188.785 422.819 149.364 425.495C149.364 425.495 169.208 455.23 200.779 446.066Z" fill="#48BE97"/>
<path d="M173.516 345.556C173.516 345.556 176.308 331.435 197.541 326.808C197.541 326.821 191.602 345.569 173.516 345.556Z" fill="#48BE97"/>
<path d="M171.413 370.958C171.413 370.958 176.206 352.91 204.093 348.717C204.093 348.717 194.827 372.487 171.413 370.958Z" fill="#48BE97"/>
<path d="M178.168 407.333C178.168 407.333 175.466 385.768 203.723 369.084C203.723 369.084 204.092 398.781 178.168 407.333Z" fill="#48BE97"/>
<path d="M199.045 446.308C199.045 446.308 188.492 422.372 215.334 393.39C215.334 393.39 226.002 427.509 199.045 446.308Z" fill="#48BE97"/>
<path d="M173.848 344.843C173.848 344.843 153.94 427.764 245.069 487.004" stroke="#48BE97" stroke-width="2.0108" stroke-miterlimit="10" stroke-linecap="round"/>
<path d="M323.988 371.888C323.988 371.888 326.677 357.741 347.885 352.974C347.885 352.974 342.073 371.773 323.988 371.888Z" fill="#48BE97"/>
<path d="M321.553 397.544C321.553 397.544 326.218 379.459 354.079 375.061C354.079 375.061 344.979 398.908 321.553 397.544Z" fill="#48BE97"/>
<path d="M310.541 432.186C310.541 432.186 321.745 413.552 354.271 417.899C354.271 417.911 336.211 441.49 310.541 432.186Z" fill="#48BE97"/>
<path d="M284.235 467.937C284.235 467.937 303.238 449.953 339.55 465.49C339.55 465.49 311 487.004 284.235 467.937Z" fill="#48BE97"/>
<path d="M323.975 372.168C323.975 372.168 323.172 357.792 302.767 350.285C302.78 350.272 306.068 369.67 323.975 372.168Z" fill="#48BE97"/>
<path d="M321.566 397.468C321.566 397.468 319.323 378.923 292.277 370.919C292.277 370.919 298.166 395.747 321.566 397.468Z" fill="#48BE97"/>
<path d="M310.822 432.709C310.822 432.709 316.481 411.717 290.799 391.286C290.812 391.273 286.325 420.639 310.822 432.709Z" fill="#48BE97"/>
<path d="M284.758 468.409C284.758 468.409 298.523 446.155 275.951 413.744C275.951 413.744 260.656 446.053 284.758 468.409Z" fill="#48BE97"/>
<path d="M323.758 371.416C323.758 371.416 326.677 441.082 272.127 477.789" stroke="#48BE97" stroke-width="2.0108" stroke-miterlimit="10" stroke-linecap="round"/>
<path d="M428.577 505.765C432.935 489.655 411.931 457.919 428.245 449.813C438.48 444.727 443.973 449.927 443.973 449.927C443.973 449.927 431.929 417.937 451.913 415.63C458.885 414.827 460.988 421.034 460.988 421.034C460.988 421.034 463.754 411.564 471.222 405.612C485.383 394.345 503.838 398.525 493.909 421.9C488.467 434.722 484.159 436.608 484.159 436.608C484.159 436.608 493.998 434.697 496.127 443.631C498.969 455.599 475.39 475.622 475.39 475.622C475.39 475.622 483.866 476.425 484.975 482.759C487.447 496.779 457.725 505.765 457.725 505.765H428.577Z" fill="#36A871"/>
<path d="M487.473 407.957C460.351 429.981 459.344 474.806 445.604 500.692" stroke="white" stroke-width="0.7248" stroke-miterlimit="10" stroke-linecap="round"/>
<path d="M416.315 505.765C406.488 489.604 385.127 442.217 400.791 432.301C410.618 426.081 416.086 436.736 416.086 436.736C416.086 436.736 397.261 384.888 416.277 384.773C427.365 384.71 432.298 399.405 432.298 399.405C432.298 399.405 436.058 384.2 441.334 375.049C453.468 354.006 481.928 362.418 471.885 395.798C469.336 404.261 461.688 414.993 461.688 414.993C461.688 414.993 479.366 413.935 478.895 429.229C478.449 443.733 453.952 457.384 453.952 457.384C453.952 457.384 470.241 453.751 473.236 466.394C477.289 483.473 441.321 505.752 441.321 505.752H416.315V505.765Z" fill="#48BE97"/>
<path d="M458.349 383.435C444.661 429.803 424.612 436.723 424.332 502.222" stroke="white" stroke-width="0.7248" stroke-miterlimit="10" stroke-linecap="round"/>
<path d="M250.103 385.385C250.103 385.385 251.212 375.558 265.487 371.2C265.487 371.2 262.479 384.365 250.103 385.385Z" fill="#36A871"/>
<path d="M250.091 402.884C250.091 402.884 252.347 390.267 271.197 385.818C271.197 385.818 266.201 402.604 250.091 402.884Z" fill="#36A871"/>
<path d="M243.858 427.789C243.858 427.789 246.904 413.183 268.967 408.633C268.979 408.62 262.607 427.993 243.858 427.789Z" fill="#36A871"/>
<path d="M227.034 453.241C227.034 453.241 236.275 437.832 263.155 441.388C263.155 441.401 248.255 460.901 227.034 453.241Z" fill="#36A871"/>
<path d="M250.103 385.576C250.103 385.576 248.816 375.775 234.452 371.684C234.465 371.684 237.715 384.786 250.103 385.576Z" fill="#36A871"/>
<path d="M250.435 403.063C250.435 403.063 247.937 390.483 229.01 386.392C229.01 386.392 234.325 403.089 250.435 403.063Z" fill="#36A871"/>
<path d="M244.215 427.7C244.215 427.7 247.006 413.043 228.373 400.374C228.385 400.361 226.831 420.703 244.215 427.7Z" fill="#36A871"/>
<path d="M228.207 453.483C228.207 453.483 236.479 437.539 219.362 416.509C219.362 416.509 210.567 439.425 228.207 453.483Z" fill="#36A871"/>
<path d="M249.912 385.067C249.912 385.067 259.93 442.752 194.891 479.357" stroke="#36A871" stroke-width="1.3805" stroke-miterlimit="10" stroke-linecap="round"/>
<path d="M251.658 505.765C235.064 505.765 235.88 505.765 232.872 505.765C219.808 505.765 199.492 469.173 199.492 454.987C199.492 440.891 219.744 403.509 232.872 403.509C239.321 403.509 234.962 403.509 251.658 403.509C268.291 403.509 281.431 408.683 290.723 418.892C299.645 428.719 304.169 440.865 304.169 454.987C304.169 469.211 299.594 481.294 290.57 490.904C281.279 500.768 268.189 505.765 251.658 505.765ZM201.977 359.333L202.27 344.638C202.767 319.288 206.208 299.494 212.785 284.123C219.425 268.612 232.12 252.323 251.595 234.34L251.901 234.072L297.019 194.715C313.448 178.923 321.439 162.838 321.439 145.556C321.439 129.127 316.736 116.828 307.062 107.97C297.159 98.9078 281.776 94.3195 261.358 94.3195C241.054 94.3195 224.817 98.7039 213.104 107.358C202.436 115.235 197.465 125.087 197.465 138.355V152.757H104.36L104.577 138.138C105.1 101.852 120.522 72.1936 150.397 49.9784C179.023 28.7064 216.354 17.9111 261.358 17.9111C308.197 17.9111 345.579 29.0123 372.484 50.9088C400.256 73.5318 414.34 104.771 414.34 143.746C414.34 182.084 393.833 219.746 353.379 255.688L353.073 255.956L315.64 287.348C301.862 300.45 295.171 319.288 295.171 344.918V359.321H201.977V359.333Z" fill="#65A4DA"/>
<path d="M232.872 505.765C216.277 505.765 203.226 500.743 194.062 490.814C185.204 481.217 180.705 469.173 180.705 454.987C180.705 440.891 185.14 428.783 193.896 418.982C203.073 408.709 216.188 403.496 232.872 403.496C249.504 403.496 262.645 408.671 271.936 418.88C280.858 428.706 285.382 440.853 285.382 454.974C285.382 469.198 280.807 481.281 271.783 490.891C262.505 500.768 249.415 505.765 232.872 505.765ZM183.19 359.333L183.483 344.638C183.981 319.287 187.422 299.494 193.998 284.123C200.639 268.612 213.333 252.323 232.808 234.34L233.114 234.072L278.232 194.715C294.661 178.923 302.652 162.838 302.652 145.556C302.652 129.127 297.949 116.828 288.276 107.97C278.373 98.9078 262.989 94.3195 242.571 94.3195C222.268 94.3195 206.03 98.7039 194.317 107.358C183.649 115.235 178.678 125.087 178.678 138.355V152.757H85.5737L85.7904 138.138C86.313 101.852 101.735 72.1936 131.61 49.9784C160.236 28.7064 197.567 17.9111 242.571 17.9111C289.41 17.9111 326.792 29.0123 353.698 50.9088C381.47 73.5318 395.553 104.771 395.553 143.746C395.553 182.084 375.046 219.746 334.592 255.688L334.286 255.956L296.853 287.348C283.076 300.45 276.384 319.287 276.384 344.918V359.321H183.19V359.333Z" fill="#7DBBF1"/>
<path d="M113.843 485.844C114.314 491.911 112.313 505.446 113.894 505.765H158.681C158.681 505.765 159.127 498.946 153.825 497.468C146.738 495.492 138.11 494.039 134.898 491.21C133.305 489.808 132.54 485.857 132.54 485.857H113.843V485.844Z" fill="#0A1930"/>
<path d="M146.407 495.569C146.407 495.569 140.71 495.059 138.671 498.296" stroke="#7DBBF1" stroke-width="0.8477" stroke-miterlimit="10" stroke-linecap="round" stroke-linejoin="round"/>
<path d="M141.271 494.052C141.271 494.052 135.574 493.542 133.547 496.78" stroke="#7DBBF1" stroke-width="0.8477" stroke-miterlimit="10" stroke-linecap="round" stroke-linejoin="round"/>
<path d="M87.753 485.844C87.1795 494.549 88.6962 505.026 86.2363 505.765H56.4632C56.4632 505.765 56.0426 500.884 60.0064 496.831C61.6378 495.174 65.4742 493.262 67.2203 491.516C68.8007 489.923 69.0556 485.844 69.0556 485.844H87.753Z" fill="#0A1930"/>
<path d="M69.833 496.665C69.833 496.665 66.0222 492.178 61.2299 495.798" stroke="#7DBBF1" stroke-width="0.8477" stroke-miterlimit="10" stroke-linecap="round" stroke-linejoin="round"/>
<path d="M74.5107 494.383C74.5107 494.383 68.8008 489.693 64.4419 493.364" stroke="#7DBBF1" stroke-width="0.8477" stroke-miterlimit="10" stroke-linecap="round" stroke-linejoin="round"/>
<path d="M146.356 243.619C147.656 251.649 147.223 260.226 147.631 259.806C148.701 258.658 161.459 252.388 162.479 251.865C167.144 249.469 170.853 249.609 173.44 249.737C174.294 249.775 176.868 249.584 176.868 249.584C176.868 249.584 178.882 249.099 180.297 249.737C181.724 250.387 182.119 251.496 180.807 251.942C179.634 252.337 177.429 252.668 177.429 252.668C177.429 252.668 181.992 252.579 185.586 252.286C186.937 252.184 187.09 254.019 187.09 254.019C187.09 254.019 187.664 253.93 187.944 253.866C189.779 253.458 190.48 256.211 189.754 256.428C188.53 256.785 187.689 256.887 187.689 256.887C188.148 257.065 188.964 258.34 187.804 258.684C186.542 259.054 183.177 259.729 183.177 259.729C183.98 259.729 184.643 261.271 184.171 261.437C182.311 262.112 175.989 263.68 175.084 263.769C174.281 263.846 170.152 263.808 168.316 263.514C166.863 263.298 163.779 262.584 163.779 262.584C163.779 262.584 143.131 279.433 140.073 278.669C137.804 278.095 133.432 275.38 132.719 271.327C131.992 267.262 127.098 243.109 127.098 243.109C128.997 230.95 144.393 231.473 146.356 243.619Z" fill="#F4A484"/>
<path d="M162.237 256.479C162.237 256.479 162.135 260.417 163.422 262.202" stroke="#E08D68" stroke-width="0.5651" stroke-miterlimit="10" stroke-linecap="round" stroke-linejoin="round"/>
<path d="M174.332 253.089C174.332 253.089 172.293 256.479 165.958 256.033C170.776 256.912 173.81 261.806 173.81 261.806" stroke="#E08D68" stroke-width="0.5651" stroke-miterlimit="10" stroke-linecap="round" stroke-linejoin="round"/>
<path d="M182.718 259.729L175.81 260.723" stroke="#E08D68" stroke-width="0.5651" stroke-miterlimit="10" stroke-linecap="round" stroke-linejoin="round"/>
<path d="M186.631 256.785L176.231 257.996" stroke="#E08D68" stroke-width="0.5651" stroke-miterlimit="10" stroke-linecap="round" stroke-linejoin="round"/>
<path d="M186.211 254.032L176.766 254.911" stroke="#E08D68" stroke-width="0.5651" stroke-miterlimit="10" stroke-linecap="round" stroke-linejoin="round"/>
<path d="M127.162 157.881C127.162 157.881 129.073 159.882 129.545 164.305C130.004 168.74 126.55 174.616 126.55 174.616L127.162 157.881Z" fill="#24292D"/>
<path d="M140.136 303.356C141.589 317.096 133.764 487.679 133.764 487.679H113.804C113.804 487.679 107.547 366.331 108.388 348.628C109.229 330.924 105.405 314.126 106.527 303.356C107.648 292.599 137.689 280.185 140.136 303.356Z" fill="#FE5456"/>
<path d="M113.435 303.866C113.448 365.541 88.4413 487.679 88.4413 487.679H67.8831C67.8831 487.679 78.245 348.73 78.6274 330.963C78.9078 318.205 80.348 309.321 81.597 298.526C83.7255 280.274 113.435 280.644 113.435 303.866Z" fill="#FE5456"/>
<path opacity="0.36" d="M140.264 316.242C139.359 315.732 138.314 315.146 137.269 314.496C134.299 312.699 133.42 313.094 113.244 314.355C112.989 314.368 112.721 314.381 112.453 314.394C110.465 314.508 108.502 314.521 106.603 314.457C93.8707 313.935 83.4833 309.487 80.4626 308.059C80.8323 304.949 81.2401 301.827 81.6097 298.526C83.4578 282.798 105.813 280.899 111.905 295.582C120.942 288.623 138.314 285.959 140.136 303.356C140.315 305.179 140.34 309.716 140.264 316.242Z" fill="#FE5456"/>
<path d="M133.878 205.217C148.51 218.956 147.694 255.497 147.694 255.497C147.694 255.497 134.222 264.457 126.206 260.965C126.206 260.965 120.139 223.494 123.338 211.934C125.288 204.86 131.151 202.668 133.878 205.217Z" fill="#021946"/>
<path opacity="0.36" d="M144.024 239.948C143.833 246.958 143.883 253.547 143.476 257.906C138.849 260.264 131.38 263.221 126.193 260.965C126.193 260.965 120.126 223.494 123.325 211.947C124.192 208.862 125.785 206.708 127.544 205.485L133.866 205.243C133.866 205.243 133.878 205.255 133.891 205.268C134.618 205.995 144.75 214.292 144.024 239.948Z" fill="#021946"/>
<path d="M96.3307 199.686C96.3307 199.686 74.8675 203.216 74.2175 207.129C73.5675 211.042 81.7245 267.491 81.7245 280.746C81.7245 294.001 80.1823 306.543 80.1823 306.543C80.1823 306.543 97.3758 311.36 113.805 311.054C130.221 310.748 140.697 308.301 140.697 308.301C140.697 308.301 139.741 292 139.423 281.167C139.091 270.32 141.653 238.699 141.679 227.114C141.704 217.032 136.963 208.811 133.878 205.23C131.329 202.273 117.921 199.15 117.921 199.15L96.3307 199.686Z" fill="#021946"/>
<path opacity="0.36" d="M86.096 276.349C84.248 279.675 82.795 282.454 81.6607 284.761C81.6989 283.435 81.7244 282.084 81.7244 280.733C81.7244 271.926 78.1047 244.039 75.887 225.189L92.4815 215.566C94.5207 222.002 94.5207 261.131 86.096 276.349Z" fill="#021946"/>
<path d="M98.2807 191.771L96.3306 199.737C96.3306 199.737 104.755 213.782 114.709 212.38C124.664 210.978 117.921 199.15 117.921 199.15L118.316 193.874L99.963 183.002L98.2807 191.771Z" fill="#E08D68"/>
<path d="M128.143 161.679C128.665 164.317 128.436 172.933 127.926 179.586C127.429 186.023 125.696 195.352 122.038 196.168C118.38 196.984 102.678 193.95 101.951 184.926C99.2747 182.811 89.1167 170.371 92.6854 164.203C99.0453 153.254 126.473 153.191 128.143 161.679Z" fill="#F4A484"/>
<path d="M128.627 163.973C127.824 165.681 122.369 168.179 112.352 167.631C112.352 167.631 117.36 166.255 118.469 162.329C118.469 162.329 114.429 168.51 106.565 168.358C106.565 168.358 107.253 173.876 103.863 179.548C103.863 179.548 101.607 182.53 101.939 184.939C102.257 187.195 99.8611 191.223 98.2807 192.14C97.3248 185.003 89.856 171.047 91.309 163.183C92.7874 155.23 99.9503 155.09 99.9503 155.09C103.213 149.902 115.283 147.761 123.147 152.056C128.971 155.23 130.08 160.851 128.627 163.973Z" fill="#24292D"/>
<path d="M104.679 177.101C103.009 172.984 97.363 173.315 97.3248 176.795C97.2738 182.505 100.715 184.187 101.939 184.939C103.162 185.678 105.698 179.586 104.679 177.101Z" fill="#F4A484"/>
<path d="M70.2918 243.836C68.9918 251.865 67.9084 259.767 67.5006 259.334C66.43 258.187 47.911 253.14 46.7639 252.451C41.3471 249.214 37.5618 249.724 35.1784 249.724L31.7499 249.571C31.7499 249.571 29.7361 249.087 28.3214 249.724C26.8939 250.374 26.4988 251.483 27.8116 251.929C28.9842 252.324 31.1891 252.655 31.1891 252.655C31.1891 252.655 26.6263 252.566 23.0321 252.273C21.6811 252.171 21.5281 254.006 21.5281 254.006C21.5281 254.006 20.9546 253.917 20.6742 253.853C18.8389 253.446 18.1379 256.199 18.8644 256.415C20.0879 256.772 20.9291 256.874 20.9291 256.874C20.4703 257.053 19.6546 258.327 20.8144 258.671C22.0762 259.041 25.441 259.716 25.441 259.716C24.638 259.716 23.9752 261.258 24.4468 261.424C26.3076 262.1 32.6293 263.667 33.5342 263.757C34.3372 263.833 38.4667 263.795 40.302 263.502C41.755 263.285 44.8266 263.158 44.8266 263.158C44.8266 263.158 71.031 275.852 74.1664 276.247C77.0086 276.604 81.7371 275.597 83.2538 271.315C84.6303 267.415 90.3785 243.708 90.3785 243.708C88.4794 231.562 72.2546 231.689 70.2918 243.836Z" fill="#F4A484"/>
<path d="M45.1581 262.89C45.1581 262.89 46.3944 261.195 46.7003 258.837" stroke="#E08D68" stroke-width="0.5651" stroke-miterlimit="10" stroke-linecap="round" stroke-linejoin="round"/>
<path d="M34.2736 253.089C34.2736 253.089 36.3128 256.479 42.6472 256.033C37.8295 256.912 34.7961 261.806 34.7961 261.806" stroke="#E08D68" stroke-width="0.5651" stroke-miterlimit="10" stroke-linecap="round" stroke-linejoin="round"/>
<path d="M25.8871 259.729L32.8079 260.723" stroke="#E08D68" stroke-width="0.5651" stroke-miterlimit="10" stroke-linecap="round" stroke-linejoin="round"/>
<path d="M21.9742 256.785L32.3744 257.996" stroke="#E08D68" stroke-width="0.5651" stroke-miterlimit="10" stroke-linecap="round" stroke-linejoin="round"/>
<path d="M22.3949 254.032L31.8392 254.911" stroke="#E08D68" stroke-width="0.5651" stroke-miterlimit="10" stroke-linecap="round" stroke-linejoin="round"/>
<path d="M74.1792 207.091C67.0673 221.289 66.8124 253.343 66.8124 253.343C66.8124 253.343 80.845 260.647 89.1932 257.256C89.1932 257.256 94.61 226.744 92.4815 215.553C91.1815 208.722 77.6332 200.183 74.1792 207.091Z" fill="#021946"/>
<path d="M375.071 485.844C374.6 491.911 376.601 505.446 375.021 505.765H330.233C330.233 505.765 329.787 498.946 335.089 497.468C342.176 495.492 350.804 494.039 354.016 491.21C355.609 489.808 356.374 485.857 356.374 485.857H375.071V485.844Z" fill="#1B84C1"/>
<path d="M342.52 495.569C342.52 495.569 348.217 495.059 350.256 498.296" stroke="#7DBBF1" stroke-width="0.8477" stroke-miterlimit="10" stroke-linecap="round" stroke-linejoin="round"/>
<path d="M347.656 494.052C347.656 494.052 353.353 493.542 355.393 496.78" stroke="#7DBBF1" stroke-width="0.8477" stroke-miterlimit="10" stroke-linecap="round" stroke-linejoin="round"/>
<path d="M401.174 485.844C401.747 494.549 400.231 505.026 402.691 505.765H432.451C432.451 505.765 432.872 500.883 428.908 496.83C427.276 495.173 423.44 493.262 421.694 491.516C420.114 489.922 419.859 485.844 419.859 485.844H401.174Z" fill="#1B84C1"/>
<path d="M419.094 496.665C419.094 496.665 422.905 492.178 427.697 495.798" stroke="#7DBBF1" stroke-width="0.8477" stroke-miterlimit="10" stroke-linecap="round" stroke-linejoin="round"/>
<path d="M414.404 494.383C414.404 494.383 420.114 489.693 424.472 493.364" stroke="#7DBBF1" stroke-width="0.8477" stroke-miterlimit="10" stroke-linecap="round" stroke-linejoin="round"/>
<path d="M347.401 302.834C345.948 316.573 355.584 487.679 355.584 487.679H375.543C375.543 487.679 381.801 366.331 380.96 348.628C380.119 330.924 383.942 314.126 382.821 303.356C381.686 292.599 349.836 279.662 347.401 302.834Z" fill="#021946"/>
<path d="M375.913 303.866C375.9 365.541 400.906 487.679 400.906 487.679H421.477C421.477 487.679 411.115 348.729 410.733 330.962C410.453 318.204 409.012 309.321 407.763 298.526C405.622 280.274 375.913 280.644 375.913 303.866Z" fill="#021946"/>
<path opacity="0.36" d="M408.974 308.569C405.52 310.098 395.26 314.087 382.77 314.126C381.623 314.126 380.437 314.1 379.252 314.024C378.169 313.96 377.124 313.896 376.091 313.845C361.026 313.055 352.729 313.399 350.116 314.113C349.096 314.381 348.141 315.247 347.363 316.241C347.21 309.423 347.185 304.669 347.389 302.821C349.237 285.27 367.934 288.431 377.391 295.645C378.895 291.974 381.393 289.336 384.35 287.679L398.587 286.647C403.277 288.431 407.024 292.446 407.738 298.5C408.146 302.005 408.579 305.293 408.974 308.569Z" fill="#021946"/>
<path d="M356.4 205.217C341.768 218.956 342.584 255.497 342.584 255.497C342.584 255.497 356.055 264.457 364.072 260.965C364.072 260.965 370.139 223.494 366.94 211.934C364.99 204.86 359.127 202.668 356.4 205.217Z" fill="#1B84C1"/>
<path d="M397.338 199.685C397.338 199.685 417.768 206.186 418.431 210.098C419.081 214.011 407.725 266.853 407.725 280.109C407.725 293.364 409.165 306.542 409.165 306.542C409.165 306.542 391.972 311.36 375.543 311.054C359.114 310.748 346.828 307.779 346.828 307.779C346.828 307.779 347.72 291.567 348.051 280.72C348.383 269.874 348.612 238.699 348.587 227.113C348.561 217.032 353.302 208.811 356.387 205.23C358.936 202.273 375.734 199.15 375.734 199.15L397.338 199.685Z" fill="#1B84C1"/>
<path opacity="0.36" d="M407.725 280.096C407.725 283.779 407.84 287.463 407.993 290.84C404.717 284.404 398.574 278.477 395.451 277.483C391.475 276.221 357.865 262.482 355.227 263.03C353.812 263.323 350.83 262.928 348.37 262.495C348.434 258.62 348.459 254.541 348.497 250.539L366.073 201.304C370.942 200.017 375.76 199.125 375.76 199.125C374.319 200.272 372.318 206.836 370.853 210.086C369.374 213.336 361.307 247.468 361.307 247.468L388.76 250.195C392.188 224.004 399.581 213.45 399.581 213.45L415.92 227.241C412.734 245.033 407.725 271.289 407.725 280.096Z" fill="#1B84C1"/>
<path d="M395.375 191.771L397.325 199.737C397.325 199.737 388.9 213.782 378.946 212.38C368.992 210.978 375.734 199.15 375.734 199.15L375.339 193.874L393.692 183.002L395.375 191.771Z" fill="#E08D68"/>
<path d="M366.252 161.781C365.729 164.419 365.232 172.946 365.755 179.599C366.252 186.035 367.985 195.352 371.643 196.168C375.301 196.983 391.003 193.963 391.73 184.939C394.406 182.823 404.564 170.384 400.996 164.215C394.623 153.254 367.909 153.292 366.252 161.781Z" fill="#F4A484"/>
<path d="M365.678 165.184C366.481 166.892 380.883 166.777 388.747 166.624C388.747 166.624 386.402 173.876 389.805 179.548C389.805 179.548 392.061 182.53 391.73 184.939C391.411 187.195 395.133 192.446 395.349 190.624C396.038 184.977 403.863 168.918 401.748 161.207C399.95 154.682 395.859 154.988 395.859 154.988C392.596 149.8 384.478 152.591 368.164 148.997C361.663 147.557 364.225 162.061 365.678 165.184Z" fill="#24292D"/>
<path d="M388.977 177.101C390.646 172.984 396.292 173.315 396.331 176.795C396.382 182.505 392.94 184.187 391.717 184.939C390.506 185.678 387.97 179.586 388.977 177.101Z" fill="#F4A484"/>
<path d="M346.586 259.321C349.046 260.187 349.746 260.391 350.753 260.417C353.2 260.481 354.819 260.289 354.819 260.289C354.819 260.289 391.271 273.073 394.725 272.869C397.287 272.703 402.869 271.059 405.278 266.981C407.572 263.081 412.67 247.429 414.557 240.483C418.1 227.432 400.651 225.367 396.076 238.062C393.055 246.461 392.239 255.179 391.883 254.643C390.965 253.19 360.669 250.106 360.045 249.01C358.834 246.843 354.475 245.862 353.239 245.811C351.875 245.747 351.289 245.505 350.741 245.39C349.071 245.021 347.618 246.652 349.237 247.378C350.486 247.939 352.742 248.857 352.742 248.857C352.742 248.857 344.941 246.078 343.45 245.505C341.946 244.944 340.238 247.136 342.29 248.309C344.342 249.481 344.75 249.66 344.75 249.66C344.75 249.66 343.336 248.691 341.959 249.035C341.041 249.265 341.577 251.852 342.596 252.158C342.711 252.196 343.132 252.311 343.132 252.311C343.132 252.311 341.156 254.312 343.935 255.306C344.164 255.382 344.406 255.472 344.406 255.472C344.406 255.472 342.775 256.861 344.049 257.715C345.349 258.556 346.586 259.321 346.586 259.321Z" fill="#F4A484"/>
<path d="M371.745 204.72C370.84 208.441 369.272 207.536 368.788 208.62C368.278 209.767 358.528 246.588 358.171 248.271C357.011 253.713 350.142 257.97 346.178 256.173C341.857 254.21 340.366 248.169 341.169 244.74C341.959 241.363 359.522 205.803 359.522 205.803C359.522 205.803 360.848 194.727 361.549 194.332C363.486 193.236 367.106 191.962 367.565 191.86C368.877 191.592 375.033 191.898 374.995 191.86C374.957 191.821 374.906 193.287 373.899 193.937C373.478 194.205 368.648 194.727 368.648 194.727C368.648 194.727 373.096 194.957 373.3 195.403C373.504 195.836 374.026 200.871 373.822 201.431C373.147 203.318 371.847 204.35 371.745 204.72Z" fill="#F4A484"/>
<path d="M364.62 195.581L366.749 195.072" stroke="#E08D68" stroke-width="0.5651" stroke-miterlimit="10" stroke-linecap="round" stroke-linejoin="round"/>
<path d="M365.041 197.493C365.041 197.493 371.312 197.57 371.503 197.735C371.694 197.888 372.127 200.667 372.599 201.1C373.058 201.521 373.3 201.482 373.3 201.482" stroke="#E08D68" stroke-width="0.5651" stroke-miterlimit="10" stroke-linecap="round" stroke-linejoin="round"/>
<path d="M364.06 199.953C364.06 199.953 369.183 200.514 369.489 200.654C369.808 200.794 370.368 203.662 371.35 203.713C372.344 203.764 372.586 202.63 372.586 202.63" stroke="#E08D68" stroke-width="0.5651" stroke-miterlimit="10" stroke-linecap="round" stroke-linejoin="round"/>
<path d="M364.353 202.477L368.533 203.114" stroke="#E08D68" stroke-width="0.5651" stroke-miterlimit="10" stroke-linecap="round" stroke-linejoin="round"/>
<path d="M367.118 204.427C366.124 204.516 366.596 206.262 367.118 206.351C367.641 206.44 369.374 206.542 369.757 206.351C370.139 206.16 370.827 205.153 370.84 204.376C370.84 204.006 370.279 202.464 370.279 202.464" stroke="#E08D68" stroke-width="0.5651" stroke-miterlimit="10" stroke-linecap="round" stroke-linejoin="round"/>
<path d="M369.476 207.855C369.476 207.855 367.182 209.193 363.703 208.569" stroke="#E08D68" stroke-width="0.5651" stroke-miterlimit="10" stroke-linecap="round" stroke-linejoin="round"/>
<path d="M368.316 209.295C368.316 209.295 367.297 209.958 365.041 209.13" stroke="#E08D68" stroke-width="0.5651" stroke-miterlimit="10" stroke-linecap="round" stroke-linejoin="round"/>
<path d="M368.202 191.796C368.202 191.796 374.702 191.872 374.995 191.872C375.288 191.872 374.727 193.733 373.899 193.95C373.07 194.154 368.648 194.74 368.648 194.74C368.648 194.74 373.211 195.046 373.3 195.416C373.389 195.772 373.644 197.748 373.644 197.748" stroke="#E08D68" stroke-width="0.5651" stroke-miterlimit="10" stroke-linecap="round" stroke-linejoin="round"/>
<path d="M418.457 210.06C425.161 217.363 410.44 257.243 410.44 257.243C410.44 257.243 398.994 256.453 390.646 253.076C390.646 253.076 397.057 218.345 399.555 213.463C402.729 207.256 413.231 204.363 418.457 210.06Z" fill="#1B84C1"/>
<path d="M358.362 247.481C357.368 251.636 353.787 257.549 347.491 256.491C342.278 255.612 341.258 249.01 341.258 249.01" stroke="#E08D68" stroke-width="0.5651" stroke-miterlimit="10" stroke-linecap="round" stroke-linejoin="round"/>
<path d="M455.709 168.183C480.722 162.374 496.291 137.388 490.483 112.375C484.674 87.3614 459.688 71.7927 434.675 77.6012C409.661 83.4097 394.092 108.396 399.901 133.409C405.709 158.423 430.696 173.991 455.709 168.183Z" fill="#DADEEA"/>
<path d="M461 122.882C461 126.158 463.651 128.809 466.927 128.809C470.202 128.809 472.853 126.158 472.853 122.882C472.853 119.607 470.202 116.956 466.927 116.956C463.651 116.956 461 119.607 461 122.882Z" fill="white"/>
<path d="M439.244 122.882C439.244 126.158 441.895 128.809 445.17 128.809C448.446 128.809 451.097 126.158 451.097 122.882C451.097 119.607 448.446 116.956 445.17 116.956C441.895 116.956 439.244 119.607 439.244 122.882Z" fill="white"/>
<path d="M417.5 122.882C417.5 126.158 420.151 128.809 423.427 128.809C426.702 128.809 429.353 126.158 429.353 122.882C429.353 119.607 426.702 116.956 423.427 116.956C420.151 116.956 417.5 119.607 417.5 122.882Z" fill="white"/>
<path d="M447.222 165.923C447.222 165.923 442.443 177.649 423.44 178.286C423.44 178.286 431.584 172.475 431.648 162.839L447.222 165.923Z" fill="#DADEEA"/>
<path d="M178.271 505.765C178.271 505.765 178.984 487.985 162.211 474.73C162.211 474.73 185.637 477.33 187.549 505.765H178.271Z" fill="#48BE97"/>
<path d="M180.743 505.752C180.743 505.752 178.538 476.285 204.806 470.205C204.806 470.205 189.703 480.835 188.199 505.752H180.743Z" fill="#36A871"/>
<path d="M180.743 505.752C180.743 505.752 186.708 479.484 211.587 480.415C211.587 480.415 192.762 490.98 191.666 505.752H180.743Z" fill="#48BE97"/>
<path d="M306.947 505.765C306.947 505.765 303.608 494.651 318.456 488.622C318.456 488.622 301.671 485.385 300.307 505.765H306.947Z" fill="#48BE97"/>
<path d="M305.176 505.752C305.176 505.752 302.079 493.351 308.502 477.916C308.502 477.916 296.611 483.754 299.835 505.752H305.176Z" fill="#36A871"/>
<path d="M305.176 505.752C305.176 505.752 304.22 491.554 286.402 492.23C286.402 492.23 299.16 496.359 297.35 505.752H305.176Z" fill="#48BE97"/>
</svg>
